%TF.GenerationSoftware,KiCad,Pcbnew,(6.0.6)*%
%TF.CreationDate,2022-08-01T21:04:17-04:00*%
%TF.ProjectId,calculator_interface,63616c63-756c-4617-946f-725f696e7465,rev?*%
%TF.SameCoordinates,Original*%
%TF.FileFunction,Soldermask,Top*%
%TF.FilePolarity,Negative*%
%FSLAX46Y46*%
G04 Gerber Fmt 4.6, Leading zero omitted, Abs format (unit mm)*
G04 Created by KiCad (PCBNEW (6.0.6)) date 2022-08-01 21:04:17*
%MOMM*%
%LPD*%
G01*
G04 APERTURE LIST*
G04 Aperture macros list*
%AMRoundRect*
0 Rectangle with rounded corners*
0 $1 Rounding radius*
0 $2 $3 $4 $5 $6 $7 $8 $9 X,Y pos of 4 corners*
0 Add a 4 corners polygon primitive as box body*
4,1,4,$2,$3,$4,$5,$6,$7,$8,$9,$2,$3,0*
0 Add four circle primitives for the rounded corners*
1,1,$1+$1,$2,$3*
1,1,$1+$1,$4,$5*
1,1,$1+$1,$6,$7*
1,1,$1+$1,$8,$9*
0 Add four rect primitives between the rounded corners*
20,1,$1+$1,$2,$3,$4,$5,0*
20,1,$1+$1,$4,$5,$6,$7,0*
20,1,$1+$1,$6,$7,$8,$9,0*
20,1,$1+$1,$8,$9,$2,$3,0*%
G04 Aperture macros list end*
%ADD10C,1.400000*%
%ADD11O,1.400000X1.400000*%
%ADD12R,1.600000X1.600000*%
%ADD13C,1.600000*%
%ADD14C,0.900000*%
%ADD15C,10.000000*%
%ADD16R,1.500000X1.050000*%
%ADD17O,1.500000X1.050000*%
%ADD18R,2.400000X1.600000*%
%ADD19O,2.400000X1.600000*%
%ADD20O,1.600000X1.600000*%
%ADD21R,1.200000X1.200000*%
%ADD22C,1.200000*%
%ADD23R,1.700000X1.700000*%
%ADD24O,1.700000X1.700000*%
%ADD25RoundRect,0.250000X-0.600000X0.600000X-0.600000X-0.600000X0.600000X-0.600000X0.600000X0.600000X0*%
%ADD26C,1.700000*%
G04 APERTURE END LIST*
D10*
%TO.C,R13*%
X105410000Y-60960000D03*
D11*
X105410000Y-53340000D03*
%TD*%
D12*
%TO.C,C5*%
X66040000Y-93980000D03*
D13*
X66040000Y-91480000D03*
%TD*%
%TO.C,C2*%
X92710000Y-100330000D03*
X92710000Y-97830000D03*
%TD*%
D14*
%TO.C,J4*%
X157591650Y-30368350D03*
X152288350Y-30368350D03*
X151190000Y-33020000D03*
X152288350Y-35671650D03*
X157591650Y-35671650D03*
D15*
X154940000Y-33020000D03*
D14*
X154940000Y-29270000D03*
X154940000Y-36770000D03*
X158690000Y-33020000D03*
%TD*%
D10*
%TO.C,R11*%
X85090000Y-60960000D03*
D11*
X85090000Y-53340000D03*
%TD*%
D16*
%TO.C,Q8*%
X39370000Y-62245000D03*
D17*
X39370000Y-63515000D03*
X39370000Y-64785000D03*
%TD*%
D13*
%TO.C,C20*%
X50800000Y-68595000D03*
X48300000Y-68595000D03*
%TD*%
D18*
%TO.C,U9*%
X109205000Y-71115000D03*
D19*
X109205000Y-73655000D03*
X109205000Y-76195000D03*
X109205000Y-78735000D03*
X109205000Y-81275000D03*
X109205000Y-83815000D03*
X109205000Y-86355000D03*
X116825000Y-86355000D03*
X116825000Y-83815000D03*
X116825000Y-81275000D03*
X116825000Y-78735000D03*
X116825000Y-76195000D03*
X116825000Y-73655000D03*
X116825000Y-71115000D03*
%TD*%
D13*
%TO.C,R33*%
X78740000Y-94488000D03*
D20*
X88900000Y-94488000D03*
%TD*%
D10*
%TO.C,R9*%
X82550000Y-43180000D03*
D11*
X82550000Y-50800000D03*
%TD*%
D21*
%TO.C,C4*%
X74930000Y-97790000D03*
D22*
X74930000Y-95790000D03*
%TD*%
D13*
%TO.C,C3*%
X82550000Y-97790000D03*
X82550000Y-100290000D03*
%TD*%
D10*
%TO.C,R27*%
X135890000Y-60960000D03*
D11*
X135890000Y-53340000D03*
%TD*%
D10*
%TO.C,R23*%
X128270000Y-43180000D03*
D11*
X128270000Y-50800000D03*
%TD*%
D18*
%TO.C,U8*%
X123190000Y-60960000D03*
D19*
X123190000Y-58420000D03*
X123190000Y-55880000D03*
X123190000Y-53340000D03*
X123190000Y-50800000D03*
X123190000Y-48260000D03*
X123190000Y-45720000D03*
X123190000Y-43180000D03*
X115570000Y-43180000D03*
X115570000Y-45720000D03*
X115570000Y-48260000D03*
X115570000Y-50800000D03*
X115570000Y-53340000D03*
X115570000Y-55880000D03*
X115570000Y-58420000D03*
X115570000Y-60960000D03*
%TD*%
D14*
%TO.C,J6*%
X154940000Y-112970000D03*
D15*
X154940000Y-109220000D03*
D14*
X152288350Y-106568350D03*
X157591650Y-106568350D03*
X152288350Y-111871650D03*
X151190000Y-109220000D03*
X157591650Y-111871650D03*
X154940000Y-105470000D03*
X158690000Y-109220000D03*
%TD*%
D13*
%TO.C,C16*%
X137185000Y-66035000D03*
X139685000Y-66035000D03*
%TD*%
%TO.C,R34*%
X88900000Y-91440000D03*
D20*
X78740000Y-91440000D03*
%TD*%
D16*
%TO.C,Q4*%
X39370000Y-49545000D03*
D17*
X39370000Y-50815000D03*
X39370000Y-52085000D03*
%TD*%
D18*
%TO.C,U13*%
X147305000Y-71110000D03*
D19*
X147305000Y-73650000D03*
X147305000Y-76190000D03*
X147305000Y-78730000D03*
X147305000Y-81270000D03*
X147305000Y-83810000D03*
X147305000Y-86350000D03*
X154925000Y-86350000D03*
X154925000Y-83810000D03*
X154925000Y-81270000D03*
X154925000Y-78730000D03*
X154925000Y-76190000D03*
X154925000Y-73650000D03*
X154925000Y-71110000D03*
%TD*%
D10*
%TO.C,R32*%
X154940000Y-43180000D03*
D11*
X154940000Y-50800000D03*
%TD*%
D10*
%TO.C,R8*%
X80010000Y-43180000D03*
D11*
X80010000Y-50800000D03*
%TD*%
D13*
%TO.C,C7*%
X95280000Y-66025000D03*
X92780000Y-66025000D03*
%TD*%
D16*
%TO.C,Q2*%
X39370000Y-43195000D03*
D17*
X39370000Y-44465000D03*
X39370000Y-45735000D03*
%TD*%
D18*
%TO.C,U7*%
X96535000Y-71100000D03*
D19*
X96535000Y-73640000D03*
X96535000Y-76180000D03*
X96535000Y-78720000D03*
X96535000Y-81260000D03*
X96535000Y-83800000D03*
X96535000Y-86340000D03*
X104155000Y-86340000D03*
X104155000Y-83800000D03*
X104155000Y-81260000D03*
X104155000Y-78720000D03*
X104155000Y-76180000D03*
X104155000Y-73640000D03*
X104155000Y-71100000D03*
%TD*%
D10*
%TO.C,R15*%
X102870000Y-43180000D03*
D11*
X102870000Y-50800000D03*
%TD*%
D10*
%TO.C,R16*%
X105410000Y-43180000D03*
D11*
X105410000Y-50800000D03*
%TD*%
D10*
%TO.C,R18*%
X110490000Y-43180000D03*
D11*
X110490000Y-50800000D03*
%TD*%
D16*
%TO.C,Q16*%
X39340000Y-87630000D03*
D17*
X39340000Y-88900000D03*
X39340000Y-90170000D03*
%TD*%
D16*
%TO.C,Q5*%
X33020000Y-55880000D03*
D17*
X33020000Y-57150000D03*
X33020000Y-58420000D03*
%TD*%
D10*
%TO.C,R30*%
X152400000Y-60960000D03*
D11*
X152400000Y-53340000D03*
%TD*%
D13*
%TO.C,C14*%
X111745000Y-66040000D03*
X114245000Y-66040000D03*
%TD*%
D14*
%TO.C,J3*%
X36770000Y-33020000D03*
X30368350Y-30368350D03*
X35671650Y-30368350D03*
D15*
X33020000Y-33020000D03*
D14*
X29270000Y-33020000D03*
X33020000Y-29270000D03*
X30368350Y-35671650D03*
X35671650Y-35671650D03*
X33020000Y-36770000D03*
%TD*%
D10*
%TO.C,R26*%
X135890000Y-43180000D03*
D11*
X135890000Y-50800000D03*
%TD*%
D18*
%TO.C,U2*%
X72375000Y-60975000D03*
D19*
X72375000Y-58435000D03*
X72375000Y-55895000D03*
X72375000Y-53355000D03*
X72375000Y-50815000D03*
X72375000Y-48275000D03*
X72375000Y-45735000D03*
X72375000Y-43195000D03*
X64755000Y-43195000D03*
X64755000Y-45735000D03*
X64755000Y-48275000D03*
X64755000Y-50815000D03*
X64755000Y-53355000D03*
X64755000Y-55895000D03*
X64755000Y-58435000D03*
X64755000Y-60975000D03*
%TD*%
D10*
%TO.C,R25*%
X133350000Y-43180000D03*
D11*
X133350000Y-50800000D03*
%TD*%
D10*
%TO.C,R19*%
X110490000Y-60960000D03*
D11*
X110490000Y-53340000D03*
%TD*%
D10*
%TO.C,R20*%
X107950000Y-60960000D03*
D11*
X107950000Y-53340000D03*
%TD*%
D16*
%TO.C,Q1*%
X33020000Y-43180000D03*
D17*
X33020000Y-44450000D03*
X33020000Y-45720000D03*
%TD*%
D16*
%TO.C,Q11*%
X32990000Y-74930000D03*
D17*
X32990000Y-76200000D03*
X32990000Y-77470000D03*
%TD*%
D10*
%TO.C,R2*%
X60960000Y-43180000D03*
D11*
X60960000Y-50800000D03*
%TD*%
D10*
%TO.C,R6*%
X77470000Y-60960000D03*
D11*
X77470000Y-53340000D03*
%TD*%
D16*
%TO.C,Q14*%
X39325000Y-81280000D03*
D17*
X39325000Y-82550000D03*
X39325000Y-83820000D03*
%TD*%
D10*
%TO.C,R21*%
X130810000Y-60960000D03*
D11*
X130810000Y-53340000D03*
%TD*%
D13*
%TO.C,C11*%
X73645000Y-66055000D03*
X76145000Y-66055000D03*
%TD*%
D23*
%TO.C,J7*%
X138425000Y-102320000D03*
D24*
X135885000Y-102320000D03*
X133345000Y-102320000D03*
X130805000Y-102320000D03*
X128265000Y-102320000D03*
X125725000Y-102320000D03*
X123185000Y-102320000D03*
X120645000Y-102320000D03*
X118105000Y-102320000D03*
X115565000Y-102320000D03*
%TD*%
D16*
%TO.C,Q9*%
X32990000Y-68580000D03*
D17*
X32990000Y-69850000D03*
X32990000Y-71120000D03*
%TD*%
D18*
%TO.C,U4*%
X71090000Y-71130000D03*
D19*
X71090000Y-73670000D03*
X71090000Y-76210000D03*
X71090000Y-78750000D03*
X71090000Y-81290000D03*
X71090000Y-83830000D03*
X71090000Y-86370000D03*
X78710000Y-86370000D03*
X78710000Y-83830000D03*
X78710000Y-81290000D03*
X78710000Y-78750000D03*
X78710000Y-76210000D03*
X78710000Y-73670000D03*
X78710000Y-71130000D03*
%TD*%
D13*
%TO.C,C13*%
X99130000Y-66025000D03*
X101630000Y-66025000D03*
%TD*%
D16*
%TO.C,Q10*%
X39340000Y-68580000D03*
D17*
X39340000Y-69850000D03*
X39340000Y-71120000D03*
%TD*%
D10*
%TO.C,R22*%
X128270000Y-60960000D03*
D11*
X128270000Y-53340000D03*
%TD*%
D16*
%TO.C,U1*%
X87630000Y-100330000D03*
D17*
X87630000Y-99060000D03*
X87630000Y-97790000D03*
%TD*%
D10*
%TO.C,R29*%
X154940000Y-60960000D03*
D11*
X154940000Y-53340000D03*
%TD*%
D16*
%TO.C,Q7*%
X33020000Y-62230000D03*
D17*
X33020000Y-63500000D03*
X33020000Y-64770000D03*
%TD*%
D18*
%TO.C,U3*%
X58390000Y-71130000D03*
D19*
X58390000Y-73670000D03*
X58390000Y-76210000D03*
X58390000Y-78750000D03*
X58390000Y-81290000D03*
X58390000Y-83830000D03*
X58390000Y-86370000D03*
X66010000Y-86370000D03*
X66010000Y-83830000D03*
X66010000Y-81290000D03*
X66010000Y-78750000D03*
X66010000Y-76210000D03*
X66010000Y-73670000D03*
X66010000Y-71130000D03*
%TD*%
D13*
%TO.C,C19*%
X48260000Y-43195000D03*
X50760000Y-43195000D03*
%TD*%
D18*
%TO.C,U15*%
X45705000Y-72450000D03*
D19*
X45705000Y-74990000D03*
X45705000Y-77530000D03*
X45705000Y-80070000D03*
X45705000Y-82610000D03*
X45705000Y-85150000D03*
X45705000Y-87690000D03*
X45705000Y-90230000D03*
X53325000Y-90230000D03*
X53325000Y-87690000D03*
X53325000Y-85150000D03*
X53325000Y-82610000D03*
X53325000Y-80070000D03*
X53325000Y-77530000D03*
X53325000Y-74990000D03*
X53325000Y-72450000D03*
%TD*%
D10*
%TO.C,R12*%
X82550000Y-60960000D03*
D11*
X82550000Y-53340000D03*
%TD*%
D13*
%TO.C,C18*%
X149845000Y-66035000D03*
X152345000Y-66035000D03*
%TD*%
D10*
%TO.C,R3*%
X60960000Y-60960000D03*
D11*
X60960000Y-53340000D03*
%TD*%
D13*
%TO.C,C10*%
X60945000Y-66055000D03*
X63445000Y-66055000D03*
%TD*%
D12*
%TO.C,C1*%
X66040000Y-101560000D03*
D13*
X66040000Y-99060000D03*
%TD*%
D18*
%TO.C,U10*%
X121920000Y-71120000D03*
D19*
X121920000Y-73660000D03*
X121920000Y-76200000D03*
X121920000Y-78740000D03*
X121920000Y-81280000D03*
X121920000Y-83820000D03*
X121920000Y-86360000D03*
X129540000Y-86360000D03*
X129540000Y-83820000D03*
X129540000Y-81280000D03*
X129540000Y-78740000D03*
X129540000Y-76200000D03*
X129540000Y-73660000D03*
X129540000Y-71120000D03*
%TD*%
D16*
%TO.C,Q6*%
X39370000Y-55895000D03*
D17*
X39370000Y-57165000D03*
X39370000Y-58435000D03*
%TD*%
D18*
%TO.C,U14*%
X45690000Y-47020000D03*
D19*
X45690000Y-49560000D03*
X45690000Y-52100000D03*
X45690000Y-54640000D03*
X45690000Y-57180000D03*
X45690000Y-59720000D03*
X45690000Y-62260000D03*
X45690000Y-64800000D03*
X53310000Y-64800000D03*
X53310000Y-62260000D03*
X53310000Y-59720000D03*
X53310000Y-57180000D03*
X53310000Y-54640000D03*
X53310000Y-52100000D03*
X53310000Y-49560000D03*
X53310000Y-47020000D03*
%TD*%
D16*
%TO.C,Q13*%
X32975000Y-81280000D03*
D17*
X32975000Y-82550000D03*
X32975000Y-83820000D03*
%TD*%
D18*
%TO.C,U12*%
X134605000Y-71115000D03*
D19*
X134605000Y-73655000D03*
X134605000Y-76195000D03*
X134605000Y-78735000D03*
X134605000Y-81275000D03*
X134605000Y-83815000D03*
X134605000Y-86355000D03*
X142225000Y-86355000D03*
X142225000Y-83815000D03*
X142225000Y-81275000D03*
X142225000Y-78735000D03*
X142225000Y-76195000D03*
X142225000Y-73655000D03*
X142225000Y-71115000D03*
%TD*%
D16*
%TO.C,Q12*%
X39340000Y-74930000D03*
D17*
X39340000Y-76200000D03*
X39340000Y-77470000D03*
%TD*%
D10*
%TO.C,R5*%
X80010000Y-60960000D03*
D11*
X80010000Y-53340000D03*
%TD*%
D10*
%TO.C,R4*%
X58420000Y-60960000D03*
D11*
X58420000Y-53340000D03*
%TD*%
D16*
%TO.C,Q15*%
X32975000Y-87630000D03*
D17*
X32975000Y-88900000D03*
X32975000Y-90170000D03*
%TD*%
D10*
%TO.C,R14*%
X102870000Y-60960000D03*
D11*
X102870000Y-53340000D03*
%TD*%
D18*
%TO.C,U5*%
X97820000Y-60945000D03*
D19*
X97820000Y-58405000D03*
X97820000Y-55865000D03*
X97820000Y-53325000D03*
X97820000Y-50785000D03*
X97820000Y-48245000D03*
X97820000Y-45705000D03*
X97820000Y-43165000D03*
X90200000Y-43165000D03*
X90200000Y-45705000D03*
X90200000Y-48245000D03*
X90200000Y-50785000D03*
X90200000Y-53325000D03*
X90200000Y-55865000D03*
X90200000Y-58405000D03*
X90200000Y-60945000D03*
%TD*%
D10*
%TO.C,R24*%
X130810000Y-43180000D03*
D11*
X130810000Y-50800000D03*
%TD*%
D25*
%TO.C,J1*%
X54610000Y-97037500D03*
D26*
X54610000Y-99577500D03*
X52070000Y-97037500D03*
X52070000Y-99577500D03*
X49530000Y-97037500D03*
X49530000Y-99577500D03*
X46990000Y-97037500D03*
X46990000Y-99577500D03*
X44450000Y-97037500D03*
X44450000Y-99577500D03*
X41910000Y-97037500D03*
X41910000Y-99577500D03*
X39370000Y-97037500D03*
X39370000Y-99577500D03*
X36830000Y-97037500D03*
X36830000Y-99577500D03*
%TD*%
D14*
%TO.C,J5*%
X33020000Y-112970000D03*
D15*
X33020000Y-109220000D03*
D14*
X30368350Y-106568350D03*
X33020000Y-105470000D03*
X36770000Y-109220000D03*
X29270000Y-109220000D03*
X30368350Y-111871650D03*
X35671650Y-111871650D03*
X35671650Y-106568350D03*
%TD*%
D18*
%TO.C,U11*%
X148590000Y-60925000D03*
D19*
X148590000Y-58385000D03*
X148590000Y-55845000D03*
X148590000Y-53305000D03*
X148590000Y-50765000D03*
X148590000Y-48225000D03*
X148590000Y-45685000D03*
X148590000Y-43145000D03*
X140970000Y-43145000D03*
X140970000Y-45685000D03*
X140970000Y-48225000D03*
X140970000Y-50765000D03*
X140970000Y-53305000D03*
X140970000Y-55845000D03*
X140970000Y-58385000D03*
X140970000Y-60925000D03*
%TD*%
D10*
%TO.C,R31*%
X152400000Y-43180000D03*
D11*
X152400000Y-50800000D03*
%TD*%
D16*
%TO.C,Q3*%
X33020000Y-49530000D03*
D17*
X33020000Y-50800000D03*
X33020000Y-52070000D03*
%TD*%
D13*
%TO.C,C17*%
X91694000Y-91440000D03*
X91694000Y-93940000D03*
%TD*%
D10*
%TO.C,R28*%
X133350000Y-60960000D03*
D11*
X133350000Y-53340000D03*
%TD*%
D13*
%TO.C,C15*%
X124500000Y-66040000D03*
X127000000Y-66040000D03*
%TD*%
D10*
%TO.C,R10*%
X85090000Y-43180000D03*
D11*
X85090000Y-50800000D03*
%TD*%
D10*
%TO.C,R7*%
X77470000Y-43180000D03*
D11*
X77470000Y-50800000D03*
%TD*%
D10*
%TO.C,R1*%
X58420000Y-43180000D03*
D11*
X58420000Y-50800000D03*
%TD*%
D13*
%TO.C,C8*%
X120650000Y-66040000D03*
X118150000Y-66040000D03*
%TD*%
D25*
%TO.C,J2*%
X151130000Y-93242500D03*
D26*
X151130000Y-95782500D03*
X148590000Y-93242500D03*
X148590000Y-95782500D03*
X146050000Y-93242500D03*
X146050000Y-95782500D03*
X143510000Y-93242500D03*
X143510000Y-95782500D03*
X140970000Y-93242500D03*
X140970000Y-95782500D03*
X138430000Y-93242500D03*
X138430000Y-95782500D03*
X135890000Y-93242500D03*
X135890000Y-95782500D03*
X133350000Y-93242500D03*
X133350000Y-95782500D03*
X130810000Y-93242500D03*
X130810000Y-95782500D03*
X128270000Y-93242500D03*
X128270000Y-95782500D03*
X125730000Y-93242500D03*
X125730000Y-95782500D03*
X123190000Y-93242500D03*
X123190000Y-95782500D03*
X120650000Y-93242500D03*
X120650000Y-95782500D03*
X118110000Y-93242500D03*
X118110000Y-95782500D03*
X115570000Y-93242500D03*
X115570000Y-95782500D03*
X113030000Y-93242500D03*
X113030000Y-95782500D03*
X110490000Y-93242500D03*
X110490000Y-95782500D03*
X107950000Y-93242500D03*
X107950000Y-95782500D03*
X105410000Y-93242500D03*
X105410000Y-95782500D03*
X102870000Y-93242500D03*
X102870000Y-95782500D03*
%TD*%
D13*
%TO.C,C12*%
X86430000Y-66025000D03*
X88930000Y-66025000D03*
%TD*%
%TO.C,C9*%
X146050000Y-66005000D03*
X143550000Y-66005000D03*
%TD*%
D18*
%TO.C,U6*%
X83835000Y-71100000D03*
D19*
X83835000Y-73640000D03*
X83835000Y-76180000D03*
X83835000Y-78720000D03*
X83835000Y-81260000D03*
X83835000Y-83800000D03*
X83835000Y-86340000D03*
X91455000Y-86340000D03*
X91455000Y-83800000D03*
X91455000Y-81260000D03*
X91455000Y-78720000D03*
X91455000Y-76180000D03*
X91455000Y-73640000D03*
X91455000Y-71100000D03*
%TD*%
D13*
%TO.C,C6*%
X69835000Y-66055000D03*
X67335000Y-66055000D03*
%TD*%
D10*
%TO.C,R17*%
X107950000Y-43180000D03*
D11*
X107950000Y-50800000D03*
%TD*%
M02*
