%TF.GenerationSoftware,KiCad,Pcbnew,(6.0.6)*%
%TF.CreationDate,2022-08-14T19:07:44-04:00*%
%TF.ProjectId,button_presser,62757474-6f6e-45f7-9072-65737365722e,rev?*%
%TF.SameCoordinates,Original*%
%TF.FileFunction,Legend,Top*%
%TF.FilePolarity,Positive*%
%FSLAX46Y46*%
G04 Gerber Fmt 4.6, Leading zero omitted, Abs format (unit mm)*
G04 Created by KiCad (PCBNEW (6.0.6)) date 2022-08-14 19:07:44*
%MOMM*%
%LPD*%
G01*
G04 APERTURE LIST*
%ADD10C,0.152400*%
%ADD11C,0.203200*%
%ADD12C,0.150000*%
%ADD13C,0.120000*%
G04 APERTURE END LIST*
D10*
X33465104Y-50301676D02*
X33465104Y-50843542D01*
X32652304Y-50495200D01*
X33194171Y-51501523D02*
X32652304Y-51501523D01*
X33503809Y-51308000D02*
X32923238Y-51114476D01*
X32923238Y-51617638D01*
X32652304Y-51927276D02*
X33465104Y-51927276D01*
X33078057Y-51927276D02*
X33078057Y-52391733D01*
X32652304Y-52391733D02*
X33465104Y-52391733D01*
X32729714Y-53243238D02*
X32691009Y-53204533D01*
X32652304Y-53088419D01*
X32652304Y-53011009D01*
X32691009Y-52894895D01*
X32768419Y-52817485D01*
X32845828Y-52778780D01*
X33000647Y-52740076D01*
X33116761Y-52740076D01*
X33271580Y-52778780D01*
X33348990Y-52817485D01*
X33426400Y-52894895D01*
X33465104Y-53011009D01*
X33465104Y-53088419D01*
X33426400Y-53204533D01*
X33387695Y-53243238D01*
X33194171Y-53939923D02*
X32652304Y-53939923D01*
X33503809Y-53746400D02*
X32923238Y-53552876D01*
X32923238Y-54056038D01*
X33465104Y-54520495D02*
X33465104Y-54597904D01*
X33426400Y-54675314D01*
X33387695Y-54714019D01*
X33310285Y-54752723D01*
X33155466Y-54791428D01*
X32961942Y-54791428D01*
X32807123Y-54752723D01*
X32729714Y-54714019D01*
X32691009Y-54675314D01*
X32652304Y-54597904D01*
X32652304Y-54520495D01*
X32691009Y-54443085D01*
X32729714Y-54404380D01*
X32807123Y-54365676D01*
X32961942Y-54326971D01*
X33155466Y-54326971D01*
X33310285Y-54365676D01*
X33387695Y-54404380D01*
X33426400Y-54443085D01*
X33465104Y-54520495D01*
X33465104Y-55526819D02*
X33465104Y-55139771D01*
X33078057Y-55101066D01*
X33116761Y-55139771D01*
X33155466Y-55217180D01*
X33155466Y-55410704D01*
X33116761Y-55488114D01*
X33078057Y-55526819D01*
X33000647Y-55565523D01*
X32807123Y-55565523D01*
X32729714Y-55526819D01*
X32691009Y-55488114D01*
X32652304Y-55410704D01*
X32652304Y-55217180D01*
X32691009Y-55139771D01*
X32729714Y-55101066D01*
X32652304Y-56339619D02*
X32652304Y-55875161D01*
X32652304Y-56107390D02*
X33465104Y-56107390D01*
X33348990Y-56029980D01*
X33271580Y-55952571D01*
X33232876Y-55875161D01*
D11*
X77747222Y-17762099D02*
X78424556Y-18778099D01*
X78424556Y-17762099D02*
X77747222Y-18778099D01*
X79247032Y-18778099D02*
X79247032Y-18245908D01*
X79198651Y-18149146D01*
X79101889Y-18100765D01*
X78908365Y-18100765D01*
X78811603Y-18149146D01*
X79247032Y-18729718D02*
X79150270Y-18778099D01*
X78908365Y-18778099D01*
X78811603Y-18729718D01*
X78763222Y-18632956D01*
X78763222Y-18536194D01*
X78811603Y-18439432D01*
X78908365Y-18391051D01*
X79150270Y-18391051D01*
X79247032Y-18342670D01*
X79730841Y-18100765D02*
X79730841Y-18778099D01*
X79730841Y-18197527D02*
X79779222Y-18149146D01*
X79875984Y-18100765D01*
X80021127Y-18100765D01*
X80117889Y-18149146D01*
X80166270Y-18245908D01*
X80166270Y-18778099D01*
X80504937Y-18100765D02*
X80891984Y-18100765D01*
X80650080Y-17762099D02*
X80650080Y-18632956D01*
X80698460Y-18729718D01*
X80795222Y-18778099D01*
X80891984Y-18778099D01*
X81230651Y-18778099D02*
X81230651Y-17762099D01*
X81666080Y-18778099D02*
X81666080Y-18245908D01*
X81617699Y-18149146D01*
X81520937Y-18100765D01*
X81375794Y-18100765D01*
X81279032Y-18149146D01*
X81230651Y-18197527D01*
X82149889Y-18778099D02*
X82149889Y-18100765D01*
X82149889Y-17762099D02*
X82101508Y-17810480D01*
X82149889Y-17858860D01*
X82198270Y-17810480D01*
X82149889Y-17762099D01*
X82149889Y-17858860D01*
X82633699Y-18100765D02*
X82633699Y-19116765D01*
X82633699Y-18149146D02*
X82730460Y-18100765D01*
X82923984Y-18100765D01*
X83020746Y-18149146D01*
X83069127Y-18197527D01*
X83117508Y-18294289D01*
X83117508Y-18584575D01*
X83069127Y-18681337D01*
X83020746Y-18729718D01*
X82923984Y-18778099D01*
X82730460Y-18778099D01*
X82633699Y-18729718D01*
X83552937Y-18100765D02*
X83552937Y-19116765D01*
X83552937Y-18149146D02*
X83649699Y-18100765D01*
X83843222Y-18100765D01*
X83939984Y-18149146D01*
X83988365Y-18197527D01*
X84036746Y-18294289D01*
X84036746Y-18584575D01*
X83988365Y-18681337D01*
X83939984Y-18729718D01*
X83843222Y-18778099D01*
X83649699Y-18778099D01*
X83552937Y-18729718D01*
X84859222Y-18729718D02*
X84762460Y-18778099D01*
X84568937Y-18778099D01*
X84472175Y-18729718D01*
X84423794Y-18632956D01*
X84423794Y-18245908D01*
X84472175Y-18149146D01*
X84568937Y-18100765D01*
X84762460Y-18100765D01*
X84859222Y-18149146D01*
X84907603Y-18245908D01*
X84907603Y-18342670D01*
X84423794Y-18439432D01*
X85971984Y-17762099D02*
X86310651Y-18778099D01*
X86649318Y-17762099D01*
X87375032Y-18729718D02*
X87278270Y-18778099D01*
X87084746Y-18778099D01*
X86987984Y-18729718D01*
X86939603Y-18632956D01*
X86939603Y-18245908D01*
X86987984Y-18149146D01*
X87084746Y-18100765D01*
X87278270Y-18100765D01*
X87375032Y-18149146D01*
X87423413Y-18245908D01*
X87423413Y-18342670D01*
X86939603Y-18439432D01*
X87858841Y-18778099D02*
X87858841Y-18100765D01*
X87858841Y-18294289D02*
X87907222Y-18197527D01*
X87955603Y-18149146D01*
X88052365Y-18100765D01*
X88149127Y-18100765D01*
X88439413Y-18729718D02*
X88536175Y-18778099D01*
X88729699Y-18778099D01*
X88826460Y-18729718D01*
X88874841Y-18632956D01*
X88874841Y-18584575D01*
X88826460Y-18487813D01*
X88729699Y-18439432D01*
X88584556Y-18439432D01*
X88487794Y-18391051D01*
X88439413Y-18294289D01*
X88439413Y-18245908D01*
X88487794Y-18149146D01*
X88584556Y-18100765D01*
X88729699Y-18100765D01*
X88826460Y-18149146D01*
X89310270Y-18778099D02*
X89310270Y-18100765D01*
X89310270Y-17762099D02*
X89261889Y-17810480D01*
X89310270Y-17858860D01*
X89358651Y-17810480D01*
X89310270Y-17762099D01*
X89310270Y-17858860D01*
X89939222Y-18778099D02*
X89842460Y-18729718D01*
X89794080Y-18681337D01*
X89745699Y-18584575D01*
X89745699Y-18294289D01*
X89794080Y-18197527D01*
X89842460Y-18149146D01*
X89939222Y-18100765D01*
X90084365Y-18100765D01*
X90181127Y-18149146D01*
X90229508Y-18197527D01*
X90277889Y-18294289D01*
X90277889Y-18584575D01*
X90229508Y-18681337D01*
X90181127Y-18729718D01*
X90084365Y-18778099D01*
X89939222Y-18778099D01*
X90713318Y-18100765D02*
X90713318Y-18778099D01*
X90713318Y-18197527D02*
X90761699Y-18149146D01*
X90858460Y-18100765D01*
X91003603Y-18100765D01*
X91100365Y-18149146D01*
X91148746Y-18245908D01*
X91148746Y-18778099D01*
X92938841Y-18778099D02*
X92358270Y-18778099D01*
X92648556Y-18778099D02*
X92648556Y-17762099D01*
X92551794Y-17907241D01*
X92455032Y-18004003D01*
X92358270Y-18052384D01*
X93374270Y-18681337D02*
X93422651Y-18729718D01*
X93374270Y-18778099D01*
X93325889Y-18729718D01*
X93374270Y-18681337D01*
X93374270Y-18778099D01*
X94390270Y-18778099D02*
X93809699Y-18778099D01*
X94099984Y-18778099D02*
X94099984Y-17762099D01*
X94003222Y-17907241D01*
X93906460Y-18004003D01*
X93809699Y-18052384D01*
X77795603Y-20365478D02*
X77940746Y-20413859D01*
X78182651Y-20413859D01*
X78279413Y-20365478D01*
X78327794Y-20317097D01*
X78376175Y-20220335D01*
X78376175Y-20123573D01*
X78327794Y-20026811D01*
X78279413Y-19978430D01*
X78182651Y-19930049D01*
X77989127Y-19881668D01*
X77892365Y-19833287D01*
X77843984Y-19784906D01*
X77795603Y-19688144D01*
X77795603Y-19591382D01*
X77843984Y-19494620D01*
X77892365Y-19446240D01*
X77989127Y-19397859D01*
X78231032Y-19397859D01*
X78376175Y-19446240D01*
X79198651Y-20365478D02*
X79101889Y-20413859D01*
X78908365Y-20413859D01*
X78811603Y-20365478D01*
X78763222Y-20268716D01*
X78763222Y-19881668D01*
X78811603Y-19784906D01*
X78908365Y-19736525D01*
X79101889Y-19736525D01*
X79198651Y-19784906D01*
X79247032Y-19881668D01*
X79247032Y-19978430D01*
X78763222Y-20075192D01*
X79682460Y-20413859D02*
X79682460Y-19736525D01*
X79682460Y-19930049D02*
X79730841Y-19833287D01*
X79779222Y-19784906D01*
X79875984Y-19736525D01*
X79972746Y-19736525D01*
X80311413Y-20413859D02*
X80311413Y-19736525D01*
X80311413Y-19397859D02*
X80263032Y-19446240D01*
X80311413Y-19494620D01*
X80359794Y-19446240D01*
X80311413Y-19397859D01*
X80311413Y-19494620D01*
X81230651Y-20413859D02*
X81230651Y-19881668D01*
X81182270Y-19784906D01*
X81085508Y-19736525D01*
X80891984Y-19736525D01*
X80795222Y-19784906D01*
X81230651Y-20365478D02*
X81133889Y-20413859D01*
X80891984Y-20413859D01*
X80795222Y-20365478D01*
X80746841Y-20268716D01*
X80746841Y-20171954D01*
X80795222Y-20075192D01*
X80891984Y-20026811D01*
X81133889Y-20026811D01*
X81230651Y-19978430D01*
X81859603Y-20413859D02*
X81762841Y-20365478D01*
X81714460Y-20268716D01*
X81714460Y-19397859D01*
X83020746Y-20413859D02*
X83020746Y-19736525D01*
X83020746Y-19397859D02*
X82972365Y-19446240D01*
X83020746Y-19494620D01*
X83069127Y-19446240D01*
X83020746Y-19397859D01*
X83020746Y-19494620D01*
X83504556Y-19736525D02*
X83504556Y-20413859D01*
X83504556Y-19833287D02*
X83552937Y-19784906D01*
X83649699Y-19736525D01*
X83794841Y-19736525D01*
X83891603Y-19784906D01*
X83939984Y-19881668D01*
X83939984Y-20413859D01*
X84278651Y-19736525D02*
X84665699Y-19736525D01*
X84423794Y-19397859D02*
X84423794Y-20268716D01*
X84472175Y-20365478D01*
X84568937Y-20413859D01*
X84665699Y-20413859D01*
X85391413Y-20365478D02*
X85294651Y-20413859D01*
X85101127Y-20413859D01*
X85004365Y-20365478D01*
X84955984Y-20268716D01*
X84955984Y-19881668D01*
X85004365Y-19784906D01*
X85101127Y-19736525D01*
X85294651Y-19736525D01*
X85391413Y-19784906D01*
X85439794Y-19881668D01*
X85439794Y-19978430D01*
X84955984Y-20075192D01*
X85875222Y-20413859D02*
X85875222Y-19736525D01*
X85875222Y-19930049D02*
X85923603Y-19833287D01*
X85971984Y-19784906D01*
X86068746Y-19736525D01*
X86165508Y-19736525D01*
X86359032Y-19736525D02*
X86746080Y-19736525D01*
X86504175Y-20413859D02*
X86504175Y-19543001D01*
X86552556Y-19446240D01*
X86649318Y-19397859D01*
X86746080Y-19397859D01*
X87520175Y-20413859D02*
X87520175Y-19881668D01*
X87471794Y-19784906D01*
X87375032Y-19736525D01*
X87181508Y-19736525D01*
X87084746Y-19784906D01*
X87520175Y-20365478D02*
X87423413Y-20413859D01*
X87181508Y-20413859D01*
X87084746Y-20365478D01*
X87036365Y-20268716D01*
X87036365Y-20171954D01*
X87084746Y-20075192D01*
X87181508Y-20026811D01*
X87423413Y-20026811D01*
X87520175Y-19978430D01*
X88439413Y-20365478D02*
X88342651Y-20413859D01*
X88149127Y-20413859D01*
X88052365Y-20365478D01*
X88003984Y-20317097D01*
X87955603Y-20220335D01*
X87955603Y-19930049D01*
X88003984Y-19833287D01*
X88052365Y-19784906D01*
X88149127Y-19736525D01*
X88342651Y-19736525D01*
X88439413Y-19784906D01*
X89261889Y-20365478D02*
X89165127Y-20413859D01*
X88971603Y-20413859D01*
X88874841Y-20365478D01*
X88826460Y-20268716D01*
X88826460Y-19881668D01*
X88874841Y-19784906D01*
X88971603Y-19736525D01*
X89165127Y-19736525D01*
X89261889Y-19784906D01*
X89310270Y-19881668D01*
X89310270Y-19978430D01*
X88826460Y-20075192D01*
X90374651Y-19736525D02*
X90761699Y-19736525D01*
X90519794Y-19397859D02*
X90519794Y-20268716D01*
X90568175Y-20365478D01*
X90664937Y-20413859D01*
X90761699Y-20413859D01*
X91245508Y-20413859D02*
X91148746Y-20365478D01*
X91100365Y-20317097D01*
X91051984Y-20220335D01*
X91051984Y-19930049D01*
X91100365Y-19833287D01*
X91148746Y-19784906D01*
X91245508Y-19736525D01*
X91390651Y-19736525D01*
X91487413Y-19784906D01*
X91535794Y-19833287D01*
X91584175Y-19930049D01*
X91584175Y-20220335D01*
X91535794Y-20317097D01*
X91487413Y-20365478D01*
X91390651Y-20413859D01*
X91245508Y-20413859D01*
X92648556Y-19397859D02*
X93229127Y-19397859D01*
X92938841Y-20413859D02*
X92938841Y-19397859D01*
X93567794Y-20413859D02*
X93567794Y-19397859D01*
X93954841Y-19397859D02*
X94583794Y-19397859D01*
X94245127Y-19784906D01*
X94390270Y-19784906D01*
X94487032Y-19833287D01*
X94535413Y-19881668D01*
X94583794Y-19978430D01*
X94583794Y-20220335D01*
X94535413Y-20317097D01*
X94487032Y-20365478D01*
X94390270Y-20413859D01*
X94099984Y-20413859D01*
X94003222Y-20365478D01*
X93954841Y-20317097D01*
X95212746Y-19397859D02*
X95309508Y-19397859D01*
X95406270Y-19446240D01*
X95454651Y-19494620D01*
X95503032Y-19591382D01*
X95551413Y-19784906D01*
X95551413Y-20026811D01*
X95503032Y-20220335D01*
X95454651Y-20317097D01*
X95406270Y-20365478D01*
X95309508Y-20413859D01*
X95212746Y-20413859D01*
X95115984Y-20365478D01*
X95067603Y-20317097D01*
X95019222Y-20220335D01*
X94970841Y-20026811D01*
X94970841Y-19784906D01*
X95019222Y-19591382D01*
X95067603Y-19494620D01*
X95115984Y-19446240D01*
X95212746Y-19397859D01*
X95986841Y-20026811D02*
X96760937Y-20026811D01*
X97147984Y-19397859D02*
X97825318Y-20413859D01*
X97825318Y-19397859D02*
X97147984Y-20413859D01*
X98647794Y-20413859D02*
X98647794Y-19881668D01*
X98599413Y-19784906D01*
X98502651Y-19736525D01*
X98309127Y-19736525D01*
X98212365Y-19784906D01*
X98647794Y-20365478D02*
X98551032Y-20413859D01*
X98309127Y-20413859D01*
X98212365Y-20365478D01*
X98163984Y-20268716D01*
X98163984Y-20171954D01*
X98212365Y-20075192D01*
X98309127Y-20026811D01*
X98551032Y-20026811D01*
X98647794Y-19978430D01*
X78182651Y-21517428D02*
X78327794Y-21565809D01*
X78376175Y-21614190D01*
X78424556Y-21710952D01*
X78424556Y-21856095D01*
X78376175Y-21952857D01*
X78327794Y-22001238D01*
X78231032Y-22049619D01*
X77843984Y-22049619D01*
X77843984Y-21033619D01*
X78182651Y-21033619D01*
X78279413Y-21082000D01*
X78327794Y-21130380D01*
X78376175Y-21227142D01*
X78376175Y-21323904D01*
X78327794Y-21420666D01*
X78279413Y-21469047D01*
X78182651Y-21517428D01*
X77843984Y-21517428D01*
X79295413Y-21372285D02*
X79295413Y-22049619D01*
X78859984Y-21372285D02*
X78859984Y-21904476D01*
X78908365Y-22001238D01*
X79005127Y-22049619D01*
X79150270Y-22049619D01*
X79247032Y-22001238D01*
X79295413Y-21952857D01*
X79634080Y-21372285D02*
X80021127Y-21372285D01*
X79779222Y-21033619D02*
X79779222Y-21904476D01*
X79827603Y-22001238D01*
X79924365Y-22049619D01*
X80021127Y-22049619D01*
X80214651Y-21372285D02*
X80601699Y-21372285D01*
X80359794Y-21033619D02*
X80359794Y-21904476D01*
X80408175Y-22001238D01*
X80504937Y-22049619D01*
X80601699Y-22049619D01*
X81085508Y-22049619D02*
X80988746Y-22001238D01*
X80940365Y-21952857D01*
X80891984Y-21856095D01*
X80891984Y-21565809D01*
X80940365Y-21469047D01*
X80988746Y-21420666D01*
X81085508Y-21372285D01*
X81230651Y-21372285D01*
X81327413Y-21420666D01*
X81375794Y-21469047D01*
X81424175Y-21565809D01*
X81424175Y-21856095D01*
X81375794Y-21952857D01*
X81327413Y-22001238D01*
X81230651Y-22049619D01*
X81085508Y-22049619D01*
X81859603Y-21372285D02*
X81859603Y-22049619D01*
X81859603Y-21469047D02*
X81907984Y-21420666D01*
X82004746Y-21372285D01*
X82149889Y-21372285D01*
X82246651Y-21420666D01*
X82295032Y-21517428D01*
X82295032Y-22049619D01*
X83552937Y-21372285D02*
X83552937Y-22388285D01*
X83552937Y-21420666D02*
X83649699Y-21372285D01*
X83843222Y-21372285D01*
X83939984Y-21420666D01*
X83988365Y-21469047D01*
X84036746Y-21565809D01*
X84036746Y-21856095D01*
X83988365Y-21952857D01*
X83939984Y-22001238D01*
X83843222Y-22049619D01*
X83649699Y-22049619D01*
X83552937Y-22001238D01*
X84472175Y-22049619D02*
X84472175Y-21372285D01*
X84472175Y-21565809D02*
X84520556Y-21469047D01*
X84568937Y-21420666D01*
X84665699Y-21372285D01*
X84762460Y-21372285D01*
X85488175Y-22001238D02*
X85391413Y-22049619D01*
X85197889Y-22049619D01*
X85101127Y-22001238D01*
X85052746Y-21904476D01*
X85052746Y-21517428D01*
X85101127Y-21420666D01*
X85197889Y-21372285D01*
X85391413Y-21372285D01*
X85488175Y-21420666D01*
X85536556Y-21517428D01*
X85536556Y-21614190D01*
X85052746Y-21710952D01*
X85923603Y-22001238D02*
X86020365Y-22049619D01*
X86213889Y-22049619D01*
X86310651Y-22001238D01*
X86359032Y-21904476D01*
X86359032Y-21856095D01*
X86310651Y-21759333D01*
X86213889Y-21710952D01*
X86068746Y-21710952D01*
X85971984Y-21662571D01*
X85923603Y-21565809D01*
X85923603Y-21517428D01*
X85971984Y-21420666D01*
X86068746Y-21372285D01*
X86213889Y-21372285D01*
X86310651Y-21420666D01*
X86746080Y-22001238D02*
X86842841Y-22049619D01*
X87036365Y-22049619D01*
X87133127Y-22001238D01*
X87181508Y-21904476D01*
X87181508Y-21856095D01*
X87133127Y-21759333D01*
X87036365Y-21710952D01*
X86891222Y-21710952D01*
X86794460Y-21662571D01*
X86746080Y-21565809D01*
X86746080Y-21517428D01*
X86794460Y-21420666D01*
X86891222Y-21372285D01*
X87036365Y-21372285D01*
X87133127Y-21420666D01*
X87616937Y-22049619D02*
X87616937Y-21372285D01*
X87616937Y-21033619D02*
X87568556Y-21082000D01*
X87616937Y-21130380D01*
X87665318Y-21082000D01*
X87616937Y-21033619D01*
X87616937Y-21130380D01*
X88100746Y-21372285D02*
X88100746Y-22049619D01*
X88100746Y-21469047D02*
X88149127Y-21420666D01*
X88245889Y-21372285D01*
X88391032Y-21372285D01*
X88487794Y-21420666D01*
X88536175Y-21517428D01*
X88536175Y-22049619D01*
X89455413Y-21372285D02*
X89455413Y-22194761D01*
X89407032Y-22291523D01*
X89358651Y-22339904D01*
X89261889Y-22388285D01*
X89116746Y-22388285D01*
X89019984Y-22339904D01*
X89455413Y-22001238D02*
X89358651Y-22049619D01*
X89165127Y-22049619D01*
X89068365Y-22001238D01*
X89019984Y-21952857D01*
X88971603Y-21856095D01*
X88971603Y-21565809D01*
X89019984Y-21469047D01*
X89068365Y-21420666D01*
X89165127Y-21372285D01*
X89358651Y-21372285D01*
X89455413Y-21420666D01*
X90713318Y-21372285D02*
X90713318Y-22388285D01*
X90713318Y-21420666D02*
X90810080Y-21372285D01*
X91003603Y-21372285D01*
X91100365Y-21420666D01*
X91148746Y-21469047D01*
X91197127Y-21565809D01*
X91197127Y-21856095D01*
X91148746Y-21952857D01*
X91100365Y-22001238D01*
X91003603Y-22049619D01*
X90810080Y-22049619D01*
X90713318Y-22001238D01*
X92067984Y-22049619D02*
X92067984Y-21517428D01*
X92019603Y-21420666D01*
X91922841Y-21372285D01*
X91729318Y-21372285D01*
X91632556Y-21420666D01*
X92067984Y-22001238D02*
X91971222Y-22049619D01*
X91729318Y-22049619D01*
X91632556Y-22001238D01*
X91584175Y-21904476D01*
X91584175Y-21807714D01*
X91632556Y-21710952D01*
X91729318Y-21662571D01*
X91971222Y-21662571D01*
X92067984Y-21614190D01*
X92503413Y-22001238D02*
X92600175Y-22049619D01*
X92793699Y-22049619D01*
X92890460Y-22001238D01*
X92938841Y-21904476D01*
X92938841Y-21856095D01*
X92890460Y-21759333D01*
X92793699Y-21710952D01*
X92648556Y-21710952D01*
X92551794Y-21662571D01*
X92503413Y-21565809D01*
X92503413Y-21517428D01*
X92551794Y-21420666D01*
X92648556Y-21372285D01*
X92793699Y-21372285D01*
X92890460Y-21420666D01*
X93325889Y-22001238D02*
X93422651Y-22049619D01*
X93616175Y-22049619D01*
X93712937Y-22001238D01*
X93761318Y-21904476D01*
X93761318Y-21856095D01*
X93712937Y-21759333D01*
X93616175Y-21710952D01*
X93471032Y-21710952D01*
X93374270Y-21662571D01*
X93325889Y-21565809D01*
X93325889Y-21517428D01*
X93374270Y-21420666D01*
X93471032Y-21372285D01*
X93616175Y-21372285D01*
X93712937Y-21420666D01*
X94051603Y-21372285D02*
X94438651Y-21372285D01*
X94196746Y-21033619D02*
X94196746Y-21904476D01*
X94245127Y-22001238D01*
X94341889Y-22049619D01*
X94438651Y-22049619D01*
X94777318Y-22049619D02*
X94777318Y-21033619D01*
X95212746Y-22049619D02*
X95212746Y-21517428D01*
X95164365Y-21420666D01*
X95067603Y-21372285D01*
X94922460Y-21372285D01*
X94825699Y-21420666D01*
X94777318Y-21469047D01*
X95696556Y-22049619D02*
X95696556Y-21372285D01*
X95696556Y-21565809D02*
X95744937Y-21469047D01*
X95793318Y-21420666D01*
X95890080Y-21372285D01*
X95986841Y-21372285D01*
X96470651Y-22049619D02*
X96373889Y-22001238D01*
X96325508Y-21952857D01*
X96277127Y-21856095D01*
X96277127Y-21565809D01*
X96325508Y-21469047D01*
X96373889Y-21420666D01*
X96470651Y-21372285D01*
X96615794Y-21372285D01*
X96712556Y-21420666D01*
X96760937Y-21469047D01*
X96809318Y-21565809D01*
X96809318Y-21856095D01*
X96760937Y-21952857D01*
X96712556Y-22001238D01*
X96615794Y-22049619D01*
X96470651Y-22049619D01*
X97680175Y-21372285D02*
X97680175Y-22049619D01*
X97244746Y-21372285D02*
X97244746Y-21904476D01*
X97293127Y-22001238D01*
X97389889Y-22049619D01*
X97535032Y-22049619D01*
X97631794Y-22001238D01*
X97680175Y-21952857D01*
X98599413Y-21372285D02*
X98599413Y-22194761D01*
X98551032Y-22291523D01*
X98502651Y-22339904D01*
X98405889Y-22388285D01*
X98260746Y-22388285D01*
X98163984Y-22339904D01*
X98599413Y-22001238D02*
X98502651Y-22049619D01*
X98309127Y-22049619D01*
X98212365Y-22001238D01*
X98163984Y-21952857D01*
X98115603Y-21856095D01*
X98115603Y-21565809D01*
X98163984Y-21469047D01*
X98212365Y-21420666D01*
X98309127Y-21372285D01*
X98502651Y-21372285D01*
X98599413Y-21420666D01*
X99083222Y-22049619D02*
X99083222Y-21033619D01*
X99518651Y-22049619D02*
X99518651Y-21517428D01*
X99470270Y-21420666D01*
X99373508Y-21372285D01*
X99228365Y-21372285D01*
X99131603Y-21420666D01*
X99083222Y-21469047D01*
X77795603Y-23395093D02*
X78279413Y-23395093D01*
X77698841Y-23685379D02*
X78037508Y-22669379D01*
X78376175Y-23685379D01*
X78859984Y-23685379D02*
X78763222Y-23636998D01*
X78714841Y-23540236D01*
X78714841Y-22669379D01*
X79682460Y-23685379D02*
X79682460Y-22669379D01*
X79682460Y-23636998D02*
X79585699Y-23685379D01*
X79392175Y-23685379D01*
X79295413Y-23636998D01*
X79247032Y-23588617D01*
X79198651Y-23491855D01*
X79198651Y-23201569D01*
X79247032Y-23104807D01*
X79295413Y-23056426D01*
X79392175Y-23008045D01*
X79585699Y-23008045D01*
X79682460Y-23056426D01*
X80553318Y-23636998D02*
X80456556Y-23685379D01*
X80263032Y-23685379D01*
X80166270Y-23636998D01*
X80117889Y-23540236D01*
X80117889Y-23153188D01*
X80166270Y-23056426D01*
X80263032Y-23008045D01*
X80456556Y-23008045D01*
X80553318Y-23056426D01*
X80601699Y-23153188D01*
X80601699Y-23249950D01*
X80117889Y-23346712D01*
X81037127Y-23008045D02*
X81037127Y-23685379D01*
X81037127Y-23104807D02*
X81085508Y-23056426D01*
X81182270Y-23008045D01*
X81327413Y-23008045D01*
X81424175Y-23056426D01*
X81472556Y-23153188D01*
X81472556Y-23685379D01*
X83069127Y-23153188D02*
X83214270Y-23201569D01*
X83262651Y-23249950D01*
X83311032Y-23346712D01*
X83311032Y-23491855D01*
X83262651Y-23588617D01*
X83214270Y-23636998D01*
X83117508Y-23685379D01*
X82730460Y-23685379D01*
X82730460Y-22669379D01*
X83069127Y-22669379D01*
X83165889Y-22717760D01*
X83214270Y-22766140D01*
X83262651Y-22862902D01*
X83262651Y-22959664D01*
X83214270Y-23056426D01*
X83165889Y-23104807D01*
X83069127Y-23153188D01*
X82730460Y-23153188D01*
X83746460Y-23685379D02*
X83746460Y-23008045D01*
X83746460Y-23201569D02*
X83794841Y-23104807D01*
X83843222Y-23056426D01*
X83939984Y-23008045D01*
X84036746Y-23008045D01*
X84810841Y-23685379D02*
X84810841Y-23153188D01*
X84762460Y-23056426D01*
X84665699Y-23008045D01*
X84472175Y-23008045D01*
X84375413Y-23056426D01*
X84810841Y-23636998D02*
X84714080Y-23685379D01*
X84472175Y-23685379D01*
X84375413Y-23636998D01*
X84327032Y-23540236D01*
X84327032Y-23443474D01*
X84375413Y-23346712D01*
X84472175Y-23298331D01*
X84714080Y-23298331D01*
X84810841Y-23249950D01*
X85730080Y-23685379D02*
X85730080Y-22669379D01*
X85730080Y-23636998D02*
X85633318Y-23685379D01*
X85439794Y-23685379D01*
X85343032Y-23636998D01*
X85294651Y-23588617D01*
X85246270Y-23491855D01*
X85246270Y-23201569D01*
X85294651Y-23104807D01*
X85343032Y-23056426D01*
X85439794Y-23008045D01*
X85633318Y-23008045D01*
X85730080Y-23056426D01*
X86068746Y-23008045D02*
X86455794Y-23008045D01*
X86213889Y-23685379D02*
X86213889Y-22814521D01*
X86262270Y-22717760D01*
X86359032Y-22669379D01*
X86455794Y-22669379D01*
X86939603Y-23685379D02*
X86842841Y-23636998D01*
X86794460Y-23588617D01*
X86746080Y-23491855D01*
X86746080Y-23201569D01*
X86794460Y-23104807D01*
X86842841Y-23056426D01*
X86939603Y-23008045D01*
X87084746Y-23008045D01*
X87181508Y-23056426D01*
X87229889Y-23104807D01*
X87278270Y-23201569D01*
X87278270Y-23491855D01*
X87229889Y-23588617D01*
X87181508Y-23636998D01*
X87084746Y-23685379D01*
X86939603Y-23685379D01*
X87713699Y-23685379D02*
X87713699Y-23008045D01*
X87713699Y-23201569D02*
X87762080Y-23104807D01*
X87810460Y-23056426D01*
X87907222Y-23008045D01*
X88003984Y-23008045D01*
X88778080Y-23685379D02*
X88778080Y-22669379D01*
X88778080Y-23636998D02*
X88681318Y-23685379D01*
X88487794Y-23685379D01*
X88391032Y-23636998D01*
X88342651Y-23588617D01*
X88294270Y-23491855D01*
X88294270Y-23201569D01*
X88342651Y-23104807D01*
X88391032Y-23056426D01*
X88487794Y-23008045D01*
X88681318Y-23008045D01*
X88778080Y-23056426D01*
X89987603Y-22766140D02*
X90035984Y-22717760D01*
X90132746Y-22669379D01*
X90374651Y-22669379D01*
X90471413Y-22717760D01*
X90519794Y-22766140D01*
X90568175Y-22862902D01*
X90568175Y-22959664D01*
X90519794Y-23104807D01*
X89939222Y-23685379D01*
X90568175Y-23685379D01*
X91197127Y-22669379D02*
X91293889Y-22669379D01*
X91390651Y-22717760D01*
X91439032Y-22766140D01*
X91487413Y-22862902D01*
X91535794Y-23056426D01*
X91535794Y-23298331D01*
X91487413Y-23491855D01*
X91439032Y-23588617D01*
X91390651Y-23636998D01*
X91293889Y-23685379D01*
X91197127Y-23685379D01*
X91100365Y-23636998D01*
X91051984Y-23588617D01*
X91003603Y-23491855D01*
X90955222Y-23298331D01*
X90955222Y-23056426D01*
X91003603Y-22862902D01*
X91051984Y-22766140D01*
X91100365Y-22717760D01*
X91197127Y-22669379D01*
X91922841Y-22766140D02*
X91971222Y-22717760D01*
X92067984Y-22669379D01*
X92309889Y-22669379D01*
X92406651Y-22717760D01*
X92455032Y-22766140D01*
X92503413Y-22862902D01*
X92503413Y-22959664D01*
X92455032Y-23104807D01*
X91874460Y-23685379D01*
X92503413Y-23685379D01*
X92890460Y-22766140D02*
X92938841Y-22717760D01*
X93035603Y-22669379D01*
X93277508Y-22669379D01*
X93374270Y-22717760D01*
X93422651Y-22766140D01*
X93471032Y-22862902D01*
X93471032Y-22959664D01*
X93422651Y-23104807D01*
X92842080Y-23685379D01*
X93471032Y-23685379D01*
X78279413Y-25321139D02*
X78279413Y-24788948D01*
X78231032Y-24692186D01*
X78134270Y-24643805D01*
X77940746Y-24643805D01*
X77843984Y-24692186D01*
X78279413Y-25272758D02*
X78182651Y-25321139D01*
X77940746Y-25321139D01*
X77843984Y-25272758D01*
X77795603Y-25175996D01*
X77795603Y-25079234D01*
X77843984Y-24982472D01*
X77940746Y-24934091D01*
X78182651Y-24934091D01*
X78279413Y-24885710D01*
X78908365Y-25321139D02*
X78811603Y-25272758D01*
X78763222Y-25175996D01*
X78763222Y-24305139D01*
X79730841Y-25321139D02*
X79730841Y-24305139D01*
X79730841Y-25272758D02*
X79634080Y-25321139D01*
X79440556Y-25321139D01*
X79343794Y-25272758D01*
X79295413Y-25224377D01*
X79247032Y-25127615D01*
X79247032Y-24837329D01*
X79295413Y-24740567D01*
X79343794Y-24692186D01*
X79440556Y-24643805D01*
X79634080Y-24643805D01*
X79730841Y-24692186D01*
X80601699Y-25272758D02*
X80504937Y-25321139D01*
X80311413Y-25321139D01*
X80214651Y-25272758D01*
X80166270Y-25175996D01*
X80166270Y-24788948D01*
X80214651Y-24692186D01*
X80311413Y-24643805D01*
X80504937Y-24643805D01*
X80601699Y-24692186D01*
X80650080Y-24788948D01*
X80650080Y-24885710D01*
X80166270Y-24982472D01*
X81085508Y-24643805D02*
X81085508Y-25321139D01*
X81085508Y-24740567D02*
X81133889Y-24692186D01*
X81230651Y-24643805D01*
X81375794Y-24643805D01*
X81472556Y-24692186D01*
X81520937Y-24788948D01*
X81520937Y-25321139D01*
X82004746Y-25321139D02*
X82004746Y-24305139D01*
X82004746Y-24692186D02*
X82101508Y-24643805D01*
X82295032Y-24643805D01*
X82391794Y-24692186D01*
X82440175Y-24740567D01*
X82488556Y-24837329D01*
X82488556Y-25127615D01*
X82440175Y-25224377D01*
X82391794Y-25272758D01*
X82295032Y-25321139D01*
X82101508Y-25321139D01*
X82004746Y-25272758D01*
X82923984Y-25321139D02*
X82923984Y-24643805D01*
X82923984Y-24837329D02*
X82972365Y-24740567D01*
X83020746Y-24692186D01*
X83117508Y-24643805D01*
X83214270Y-24643805D01*
X83988365Y-25321139D02*
X83988365Y-24788948D01*
X83939984Y-24692186D01*
X83843222Y-24643805D01*
X83649699Y-24643805D01*
X83552937Y-24692186D01*
X83988365Y-25272758D02*
X83891603Y-25321139D01*
X83649699Y-25321139D01*
X83552937Y-25272758D01*
X83504556Y-25175996D01*
X83504556Y-25079234D01*
X83552937Y-24982472D01*
X83649699Y-24934091D01*
X83891603Y-24934091D01*
X83988365Y-24885710D01*
X84907603Y-25321139D02*
X84907603Y-24305139D01*
X84907603Y-25272758D02*
X84810841Y-25321139D01*
X84617318Y-25321139D01*
X84520556Y-25272758D01*
X84472175Y-25224377D01*
X84423794Y-25127615D01*
X84423794Y-24837329D01*
X84472175Y-24740567D01*
X84520556Y-24692186D01*
X84617318Y-24643805D01*
X84810841Y-24643805D01*
X84907603Y-24692186D01*
X85246270Y-24643805D02*
X85633318Y-24643805D01*
X85391413Y-25321139D02*
X85391413Y-24450281D01*
X85439794Y-24353520D01*
X85536556Y-24305139D01*
X85633318Y-24305139D01*
X86117127Y-25321139D02*
X86020365Y-25272758D01*
X85971984Y-25224377D01*
X85923603Y-25127615D01*
X85923603Y-24837329D01*
X85971984Y-24740567D01*
X86020365Y-24692186D01*
X86117127Y-24643805D01*
X86262270Y-24643805D01*
X86359032Y-24692186D01*
X86407413Y-24740567D01*
X86455794Y-24837329D01*
X86455794Y-25127615D01*
X86407413Y-25224377D01*
X86359032Y-25272758D01*
X86262270Y-25321139D01*
X86117127Y-25321139D01*
X86891222Y-25321139D02*
X86891222Y-24643805D01*
X86891222Y-24837329D02*
X86939603Y-24740567D01*
X86987984Y-24692186D01*
X87084746Y-24643805D01*
X87181508Y-24643805D01*
X87955603Y-25321139D02*
X87955603Y-24305139D01*
X87955603Y-25272758D02*
X87858841Y-25321139D01*
X87665318Y-25321139D01*
X87568556Y-25272758D01*
X87520175Y-25224377D01*
X87471794Y-25127615D01*
X87471794Y-24837329D01*
X87520175Y-24740567D01*
X87568556Y-24692186D01*
X87665318Y-24643805D01*
X87858841Y-24643805D01*
X87955603Y-24692186D01*
X88439413Y-25224377D02*
X88487794Y-25272758D01*
X88439413Y-25321139D01*
X88391032Y-25272758D01*
X88439413Y-25224377D01*
X88439413Y-25321139D01*
X89358651Y-25272758D02*
X89261889Y-25321139D01*
X89068365Y-25321139D01*
X88971603Y-25272758D01*
X88923222Y-25224377D01*
X88874841Y-25127615D01*
X88874841Y-24837329D01*
X88923222Y-24740567D01*
X88971603Y-24692186D01*
X89068365Y-24643805D01*
X89261889Y-24643805D01*
X89358651Y-24692186D01*
X89939222Y-25321139D02*
X89842460Y-25272758D01*
X89794080Y-25224377D01*
X89745699Y-25127615D01*
X89745699Y-24837329D01*
X89794080Y-24740567D01*
X89842460Y-24692186D01*
X89939222Y-24643805D01*
X90084365Y-24643805D01*
X90181127Y-24692186D01*
X90229508Y-24740567D01*
X90277889Y-24837329D01*
X90277889Y-25127615D01*
X90229508Y-25224377D01*
X90181127Y-25272758D01*
X90084365Y-25321139D01*
X89939222Y-25321139D01*
X90713318Y-25321139D02*
X90713318Y-24643805D01*
X90713318Y-24740567D02*
X90761699Y-24692186D01*
X90858460Y-24643805D01*
X91003603Y-24643805D01*
X91100365Y-24692186D01*
X91148746Y-24788948D01*
X91148746Y-25321139D01*
X91148746Y-24788948D02*
X91197127Y-24692186D01*
X91293889Y-24643805D01*
X91439032Y-24643805D01*
X91535794Y-24692186D01*
X91584175Y-24788948D01*
X91584175Y-25321139D01*
D10*
X30925104Y-49585638D02*
X30344533Y-49585638D01*
X30228419Y-49546933D01*
X30151009Y-49469523D01*
X30112304Y-49353409D01*
X30112304Y-49276000D01*
X30112304Y-50359733D02*
X30112304Y-49972685D01*
X30925104Y-49972685D01*
X30189714Y-51095123D02*
X30151009Y-51056419D01*
X30112304Y-50940304D01*
X30112304Y-50862895D01*
X30151009Y-50746780D01*
X30228419Y-50669371D01*
X30305828Y-50630666D01*
X30460647Y-50591961D01*
X30576761Y-50591961D01*
X30731580Y-50630666D01*
X30808990Y-50669371D01*
X30886400Y-50746780D01*
X30925104Y-50862895D01*
X30925104Y-50940304D01*
X30886400Y-51056419D01*
X30847695Y-51095123D01*
X30925104Y-51675695D02*
X30344533Y-51675695D01*
X30228419Y-51636990D01*
X30151009Y-51559580D01*
X30112304Y-51443466D01*
X30112304Y-51366057D01*
X30112304Y-52449790D02*
X30112304Y-52062742D01*
X30925104Y-52062742D01*
X30189714Y-53185180D02*
X30151009Y-53146476D01*
X30112304Y-53030361D01*
X30112304Y-52952952D01*
X30151009Y-52836838D01*
X30228419Y-52759428D01*
X30305828Y-52720723D01*
X30460647Y-52682019D01*
X30576761Y-52682019D01*
X30731580Y-52720723D01*
X30808990Y-52759428D01*
X30886400Y-52836838D01*
X30925104Y-52952952D01*
X30925104Y-53030361D01*
X30886400Y-53146476D01*
X30847695Y-53185180D01*
X30925104Y-53765752D02*
X30344533Y-53765752D01*
X30228419Y-53727047D01*
X30151009Y-53649638D01*
X30112304Y-53533523D01*
X30112304Y-53456114D01*
X30112304Y-54539847D02*
X30112304Y-54152800D01*
X30925104Y-54152800D01*
X30189714Y-55275238D02*
X30151009Y-55236533D01*
X30112304Y-55120419D01*
X30112304Y-55043009D01*
X30151009Y-54926895D01*
X30228419Y-54849485D01*
X30305828Y-54810780D01*
X30460647Y-54772076D01*
X30576761Y-54772076D01*
X30731580Y-54810780D01*
X30808990Y-54849485D01*
X30886400Y-54926895D01*
X30925104Y-55043009D01*
X30925104Y-55120419D01*
X30886400Y-55236533D01*
X30847695Y-55275238D01*
X30925104Y-55855809D02*
X30344533Y-55855809D01*
X30228419Y-55817104D01*
X30151009Y-55739695D01*
X30112304Y-55623580D01*
X30112304Y-55546171D01*
X30112304Y-56629904D02*
X30112304Y-56242857D01*
X30925104Y-56242857D01*
X30189714Y-57365295D02*
X30151009Y-57326590D01*
X30112304Y-57210476D01*
X30112304Y-57133066D01*
X30151009Y-57016952D01*
X30228419Y-56939542D01*
X30305828Y-56900838D01*
X30460647Y-56862133D01*
X30576761Y-56862133D01*
X30731580Y-56900838D01*
X30808990Y-56939542D01*
X30886400Y-57016952D01*
X30925104Y-57133066D01*
X30925104Y-57210476D01*
X30886400Y-57326590D01*
X30847695Y-57365295D01*
X43625104Y-24901676D02*
X43625104Y-25443542D01*
X42812304Y-25095200D01*
X43354171Y-26101523D02*
X42812304Y-26101523D01*
X43663809Y-25908000D02*
X43083238Y-25714476D01*
X43083238Y-26217638D01*
X42812304Y-26527276D02*
X43625104Y-26527276D01*
X43238057Y-26527276D02*
X43238057Y-26991733D01*
X42812304Y-26991733D02*
X43625104Y-26991733D01*
X42889714Y-27843238D02*
X42851009Y-27804533D01*
X42812304Y-27688419D01*
X42812304Y-27611009D01*
X42851009Y-27494895D01*
X42928419Y-27417485D01*
X43005828Y-27378780D01*
X43160647Y-27340076D01*
X43276761Y-27340076D01*
X43431580Y-27378780D01*
X43508990Y-27417485D01*
X43586400Y-27494895D01*
X43625104Y-27611009D01*
X43625104Y-27688419D01*
X43586400Y-27804533D01*
X43547695Y-27843238D01*
X43354171Y-28539923D02*
X42812304Y-28539923D01*
X43663809Y-28346400D02*
X43083238Y-28152876D01*
X43083238Y-28656038D01*
X43625104Y-29120495D02*
X43625104Y-29197904D01*
X43586400Y-29275314D01*
X43547695Y-29314019D01*
X43470285Y-29352723D01*
X43315466Y-29391428D01*
X43121942Y-29391428D01*
X42967123Y-29352723D01*
X42889714Y-29314019D01*
X42851009Y-29275314D01*
X42812304Y-29197904D01*
X42812304Y-29120495D01*
X42851009Y-29043085D01*
X42889714Y-29004380D01*
X42967123Y-28965676D01*
X43121942Y-28926971D01*
X43315466Y-28926971D01*
X43470285Y-28965676D01*
X43547695Y-29004380D01*
X43586400Y-29043085D01*
X43625104Y-29120495D01*
X43625104Y-30126819D02*
X43625104Y-29739771D01*
X43238057Y-29701066D01*
X43276761Y-29739771D01*
X43315466Y-29817180D01*
X43315466Y-30010704D01*
X43276761Y-30088114D01*
X43238057Y-30126819D01*
X43160647Y-30165523D01*
X42967123Y-30165523D01*
X42889714Y-30126819D01*
X42851009Y-30088114D01*
X42812304Y-30010704D01*
X42812304Y-29817180D01*
X42851009Y-29739771D01*
X42889714Y-29701066D01*
X42812304Y-30939619D02*
X42812304Y-30475161D01*
X42812304Y-30707390D02*
X43625104Y-30707390D01*
X43508990Y-30629980D01*
X43431580Y-30552571D01*
X43392876Y-30475161D01*
X43625104Y-50301676D02*
X43625104Y-50843542D01*
X42812304Y-50495200D01*
X43354171Y-51501523D02*
X42812304Y-51501523D01*
X43663809Y-51308000D02*
X43083238Y-51114476D01*
X43083238Y-51617638D01*
X42812304Y-51927276D02*
X43625104Y-51927276D01*
X43238057Y-51927276D02*
X43238057Y-52391733D01*
X42812304Y-52391733D02*
X43625104Y-52391733D01*
X42889714Y-53243238D02*
X42851009Y-53204533D01*
X42812304Y-53088419D01*
X42812304Y-53011009D01*
X42851009Y-52894895D01*
X42928419Y-52817485D01*
X43005828Y-52778780D01*
X43160647Y-52740076D01*
X43276761Y-52740076D01*
X43431580Y-52778780D01*
X43508990Y-52817485D01*
X43586400Y-52894895D01*
X43625104Y-53011009D01*
X43625104Y-53088419D01*
X43586400Y-53204533D01*
X43547695Y-53243238D01*
X43354171Y-53939923D02*
X42812304Y-53939923D01*
X43663809Y-53746400D02*
X43083238Y-53552876D01*
X43083238Y-54056038D01*
X43625104Y-54520495D02*
X43625104Y-54597904D01*
X43586400Y-54675314D01*
X43547695Y-54714019D01*
X43470285Y-54752723D01*
X43315466Y-54791428D01*
X43121942Y-54791428D01*
X42967123Y-54752723D01*
X42889714Y-54714019D01*
X42851009Y-54675314D01*
X42812304Y-54597904D01*
X42812304Y-54520495D01*
X42851009Y-54443085D01*
X42889714Y-54404380D01*
X42967123Y-54365676D01*
X43121942Y-54326971D01*
X43315466Y-54326971D01*
X43470285Y-54365676D01*
X43547695Y-54404380D01*
X43586400Y-54443085D01*
X43625104Y-54520495D01*
X43625104Y-55526819D02*
X43625104Y-55139771D01*
X43238057Y-55101066D01*
X43276761Y-55139771D01*
X43315466Y-55217180D01*
X43315466Y-55410704D01*
X43276761Y-55488114D01*
X43238057Y-55526819D01*
X43160647Y-55565523D01*
X42967123Y-55565523D01*
X42889714Y-55526819D01*
X42851009Y-55488114D01*
X42812304Y-55410704D01*
X42812304Y-55217180D01*
X42851009Y-55139771D01*
X42889714Y-55101066D01*
X42812304Y-56339619D02*
X42812304Y-55875161D01*
X42812304Y-56107390D02*
X43625104Y-56107390D01*
X43508990Y-56029980D01*
X43431580Y-55952571D01*
X43392876Y-55875161D01*
D12*
%TO.C,U3*%
X34798095Y-41572380D02*
X34798095Y-42381904D01*
X34845714Y-42477142D01*
X34893333Y-42524761D01*
X34988571Y-42572380D01*
X35179047Y-42572380D01*
X35274285Y-42524761D01*
X35321904Y-42477142D01*
X35369523Y-42381904D01*
X35369523Y-41572380D01*
X35750476Y-41572380D02*
X36369523Y-41572380D01*
X36036190Y-41953333D01*
X36179047Y-41953333D01*
X36274285Y-42000952D01*
X36321904Y-42048571D01*
X36369523Y-42143809D01*
X36369523Y-42381904D01*
X36321904Y-42477142D01*
X36274285Y-42524761D01*
X36179047Y-42572380D01*
X35893333Y-42572380D01*
X35798095Y-42524761D01*
X35750476Y-42477142D01*
%TO.C,U1*%
X46228095Y-16062380D02*
X46228095Y-16871904D01*
X46275714Y-16967142D01*
X46323333Y-17014761D01*
X46418571Y-17062380D01*
X46609047Y-17062380D01*
X46704285Y-17014761D01*
X46751904Y-16967142D01*
X46799523Y-16871904D01*
X46799523Y-16062380D01*
X47799523Y-17062380D02*
X47228095Y-17062380D01*
X47513809Y-17062380D02*
X47513809Y-16062380D01*
X47418571Y-16205238D01*
X47323333Y-16300476D01*
X47228095Y-16348095D01*
%TO.C,J1*%
X18716666Y-27392380D02*
X18716666Y-28106666D01*
X18669047Y-28249523D01*
X18573809Y-28344761D01*
X18430952Y-28392380D01*
X18335714Y-28392380D01*
X19716666Y-28392380D02*
X19145238Y-28392380D01*
X19430952Y-28392380D02*
X19430952Y-27392380D01*
X19335714Y-27535238D01*
X19240476Y-27630476D01*
X19145238Y-27678095D01*
%TO.C,R2*%
X67143333Y-14854180D02*
X66810000Y-14377990D01*
X66571904Y-14854180D02*
X66571904Y-13854180D01*
X66952857Y-13854180D01*
X67048095Y-13901800D01*
X67095714Y-13949419D01*
X67143333Y-14044657D01*
X67143333Y-14187514D01*
X67095714Y-14282752D01*
X67048095Y-14330371D01*
X66952857Y-14377990D01*
X66571904Y-14377990D01*
X67524285Y-13949419D02*
X67571904Y-13901800D01*
X67667142Y-13854180D01*
X67905238Y-13854180D01*
X68000476Y-13901800D01*
X68048095Y-13949419D01*
X68095714Y-14044657D01*
X68095714Y-14139895D01*
X68048095Y-14282752D01*
X67476666Y-14854180D01*
X68095714Y-14854180D01*
%TO.C,C2*%
X46823333Y-40997142D02*
X46775714Y-41044761D01*
X46632857Y-41092380D01*
X46537619Y-41092380D01*
X46394761Y-41044761D01*
X46299523Y-40949523D01*
X46251904Y-40854285D01*
X46204285Y-40663809D01*
X46204285Y-40520952D01*
X46251904Y-40330476D01*
X46299523Y-40235238D01*
X46394761Y-40140000D01*
X46537619Y-40092380D01*
X46632857Y-40092380D01*
X46775714Y-40140000D01*
X46823333Y-40187619D01*
X47204285Y-40187619D02*
X47251904Y-40140000D01*
X47347142Y-40092380D01*
X47585238Y-40092380D01*
X47680476Y-40140000D01*
X47728095Y-40187619D01*
X47775714Y-40282857D01*
X47775714Y-40378095D01*
X47728095Y-40520952D01*
X47156666Y-41092380D01*
X47775714Y-41092380D01*
%TO.C,Q1*%
X58357619Y-21685238D02*
X58310000Y-21780476D01*
X58214761Y-21875714D01*
X58071904Y-22018571D01*
X58024285Y-22113809D01*
X58024285Y-22209047D01*
X58262380Y-22161428D02*
X58214761Y-22256666D01*
X58119523Y-22351904D01*
X57929047Y-22399523D01*
X57595714Y-22399523D01*
X57405238Y-22351904D01*
X57310000Y-22256666D01*
X57262380Y-22161428D01*
X57262380Y-21970952D01*
X57310000Y-21875714D01*
X57405238Y-21780476D01*
X57595714Y-21732857D01*
X57929047Y-21732857D01*
X58119523Y-21780476D01*
X58214761Y-21875714D01*
X58262380Y-21970952D01*
X58262380Y-22161428D01*
X58262380Y-20780476D02*
X58262380Y-21351904D01*
X58262380Y-21066190D02*
X57262380Y-21066190D01*
X57405238Y-21161428D01*
X57500476Y-21256666D01*
X57548095Y-21351904D01*
%TO.C,SW1*%
X33837619Y-23423809D02*
X34837619Y-23423809D01*
X34837619Y-23804761D01*
X34790000Y-23899999D01*
X34742380Y-23947619D01*
X34647142Y-23995238D01*
X34504285Y-23995238D01*
X34409047Y-23947619D01*
X34361428Y-23899999D01*
X34313809Y-23804761D01*
X34313809Y-23423809D01*
X33837619Y-24566666D02*
X33885238Y-24471428D01*
X33932857Y-24423809D01*
X34028095Y-24376190D01*
X34313809Y-24376190D01*
X34409047Y-24423809D01*
X34456666Y-24471428D01*
X34504285Y-24566666D01*
X34504285Y-24709523D01*
X34456666Y-24804761D01*
X34409047Y-24852380D01*
X34313809Y-24900000D01*
X34028095Y-24900000D01*
X33932857Y-24852380D01*
X33885238Y-24804761D01*
X33837619Y-24709523D01*
X33837619Y-24566666D01*
X34504285Y-25233333D02*
X33837619Y-25423809D01*
X34313809Y-25614285D01*
X33837619Y-25804761D01*
X34504285Y-25995238D01*
X33885238Y-26757142D02*
X33837619Y-26661904D01*
X33837619Y-26471428D01*
X33885238Y-26376190D01*
X33980476Y-26328571D01*
X34361428Y-26328571D01*
X34456666Y-26376190D01*
X34504285Y-26471428D01*
X34504285Y-26661904D01*
X34456666Y-26757142D01*
X34361428Y-26804761D01*
X34266190Y-26804761D01*
X34170952Y-26328571D01*
X33837619Y-27233333D02*
X34504285Y-27233333D01*
X34313809Y-27233333D02*
X34409047Y-27280952D01*
X34456666Y-27328571D01*
X34504285Y-27423809D01*
X34504285Y-27519047D01*
X29567142Y-29844761D02*
X29614761Y-29892380D01*
X29662380Y-30035238D01*
X29662380Y-30130476D01*
X29614761Y-30273333D01*
X29519523Y-30368571D01*
X29424285Y-30416190D01*
X29233809Y-30463809D01*
X29090952Y-30463809D01*
X28900476Y-30416190D01*
X28805238Y-30368571D01*
X28710000Y-30273333D01*
X28662380Y-30130476D01*
X28662380Y-30035238D01*
X28710000Y-29892380D01*
X28757619Y-29844761D01*
X29662380Y-29273333D02*
X29614761Y-29368571D01*
X29567142Y-29416190D01*
X29471904Y-29463809D01*
X29186190Y-29463809D01*
X29090952Y-29416190D01*
X29043333Y-29368571D01*
X28995714Y-29273333D01*
X28995714Y-29130476D01*
X29043333Y-29035238D01*
X29090952Y-28987619D01*
X29186190Y-28940000D01*
X29471904Y-28940000D01*
X29567142Y-28987619D01*
X29614761Y-29035238D01*
X29662380Y-29130476D01*
X29662380Y-29273333D01*
X28995714Y-28511428D02*
X29662380Y-28511428D01*
X29090952Y-28511428D02*
X29043333Y-28463809D01*
X28995714Y-28368571D01*
X28995714Y-28225714D01*
X29043333Y-28130476D01*
X29138571Y-28082857D01*
X29662380Y-28082857D01*
X28995714Y-27749523D02*
X28995714Y-27368571D01*
X28662380Y-27606666D02*
X29519523Y-27606666D01*
X29614761Y-27559047D01*
X29662380Y-27463809D01*
X29662380Y-27368571D01*
X29662380Y-27035238D02*
X28995714Y-27035238D01*
X29186190Y-27035238D02*
X29090952Y-26987619D01*
X29043333Y-26940000D01*
X28995714Y-26844761D01*
X28995714Y-26749523D01*
X29662380Y-26273333D02*
X29614761Y-26368571D01*
X29567142Y-26416190D01*
X29471904Y-26463809D01*
X29186190Y-26463809D01*
X29090952Y-26416190D01*
X29043333Y-26368571D01*
X28995714Y-26273333D01*
X28995714Y-26130476D01*
X29043333Y-26035238D01*
X29090952Y-25987619D01*
X29186190Y-25940000D01*
X29471904Y-25940000D01*
X29567142Y-25987619D01*
X29614761Y-26035238D01*
X29662380Y-26130476D01*
X29662380Y-26273333D01*
X29662380Y-25368571D02*
X29614761Y-25463809D01*
X29519523Y-25511428D01*
X28662380Y-25511428D01*
%TO.C,C3*%
X35393333Y-40997142D02*
X35345714Y-41044761D01*
X35202857Y-41092380D01*
X35107619Y-41092380D01*
X34964761Y-41044761D01*
X34869523Y-40949523D01*
X34821904Y-40854285D01*
X34774285Y-40663809D01*
X34774285Y-40520952D01*
X34821904Y-40330476D01*
X34869523Y-40235238D01*
X34964761Y-40140000D01*
X35107619Y-40092380D01*
X35202857Y-40092380D01*
X35345714Y-40140000D01*
X35393333Y-40187619D01*
X35726666Y-40092380D02*
X36345714Y-40092380D01*
X36012380Y-40473333D01*
X36155238Y-40473333D01*
X36250476Y-40520952D01*
X36298095Y-40568571D01*
X36345714Y-40663809D01*
X36345714Y-40901904D01*
X36298095Y-40997142D01*
X36250476Y-41044761D01*
X36155238Y-41092380D01*
X35869523Y-41092380D01*
X35774285Y-41044761D01*
X35726666Y-40997142D01*
%TO.C,R1*%
X67143333Y-22042380D02*
X66810000Y-21566190D01*
X66571904Y-22042380D02*
X66571904Y-21042380D01*
X66952857Y-21042380D01*
X67048095Y-21090000D01*
X67095714Y-21137619D01*
X67143333Y-21232857D01*
X67143333Y-21375714D01*
X67095714Y-21470952D01*
X67048095Y-21518571D01*
X66952857Y-21566190D01*
X66571904Y-21566190D01*
X68095714Y-22042380D02*
X67524285Y-22042380D01*
X67810000Y-22042380D02*
X67810000Y-21042380D01*
X67714761Y-21185238D01*
X67619523Y-21280476D01*
X67524285Y-21328095D01*
%TO.C,J4*%
X110962380Y-34263333D02*
X111676666Y-34263333D01*
X111819523Y-34310952D01*
X111914761Y-34406190D01*
X111962380Y-34549047D01*
X111962380Y-34644285D01*
X111295714Y-33358571D02*
X111962380Y-33358571D01*
X110914761Y-33596666D02*
X111629047Y-33834761D01*
X111629047Y-33215714D01*
%TO.C,U2*%
X46228095Y-41462380D02*
X46228095Y-42271904D01*
X46275714Y-42367142D01*
X46323333Y-42414761D01*
X46418571Y-42462380D01*
X46609047Y-42462380D01*
X46704285Y-42414761D01*
X46751904Y-42367142D01*
X46799523Y-42271904D01*
X46799523Y-41462380D01*
X47228095Y-41557619D02*
X47275714Y-41510000D01*
X47370952Y-41462380D01*
X47609047Y-41462380D01*
X47704285Y-41510000D01*
X47751904Y-41557619D01*
X47799523Y-41652857D01*
X47799523Y-41748095D01*
X47751904Y-41890952D01*
X47180476Y-42462380D01*
X47799523Y-42462380D01*
%TO.C,C1*%
X46783333Y-15597142D02*
X46735714Y-15644761D01*
X46592857Y-15692380D01*
X46497619Y-15692380D01*
X46354761Y-15644761D01*
X46259523Y-15549523D01*
X46211904Y-15454285D01*
X46164285Y-15263809D01*
X46164285Y-15120952D01*
X46211904Y-14930476D01*
X46259523Y-14835238D01*
X46354761Y-14740000D01*
X46497619Y-14692380D01*
X46592857Y-14692380D01*
X46735714Y-14740000D01*
X46783333Y-14787619D01*
X47735714Y-15692380D02*
X47164285Y-15692380D01*
X47450000Y-15692380D02*
X47450000Y-14692380D01*
X47354761Y-14835238D01*
X47259523Y-14930476D01*
X47164285Y-14978095D01*
%TO.C,J3*%
X94432380Y-58763333D02*
X95146666Y-58763333D01*
X95289523Y-58810952D01*
X95384761Y-58906190D01*
X95432380Y-59049047D01*
X95432380Y-59144285D01*
X94432380Y-58382380D02*
X94432380Y-57763333D01*
X94813333Y-58096666D01*
X94813333Y-57953809D01*
X94860952Y-57858571D01*
X94908571Y-57810952D01*
X95003809Y-57763333D01*
X95241904Y-57763333D01*
X95337142Y-57810952D01*
X95384761Y-57858571D01*
X95432380Y-57953809D01*
X95432380Y-58239523D01*
X95384761Y-58334761D01*
X95337142Y-58382380D01*
%TO.C,J2*%
X110962380Y-45693333D02*
X111676666Y-45693333D01*
X111819523Y-45740952D01*
X111914761Y-45836190D01*
X111962380Y-45979047D01*
X111962380Y-46074285D01*
X111057619Y-45264761D02*
X111010000Y-45217142D01*
X110962380Y-45121904D01*
X110962380Y-44883809D01*
X111010000Y-44788571D01*
X111057619Y-44740952D01*
X111152857Y-44693333D01*
X111248095Y-44693333D01*
X111390952Y-44740952D01*
X111962380Y-45312380D01*
X111962380Y-44693333D01*
D13*
%TO.C,U3*%
X34000000Y-43120000D02*
X32750000Y-43120000D01*
X29500000Y-63560000D02*
X34000000Y-63560000D01*
X30750000Y-43120000D02*
X29500000Y-43120000D01*
X34000000Y-63560000D02*
X34000000Y-43120000D01*
X29500000Y-43120000D02*
X29500000Y-63560000D01*
X30750000Y-43120000D02*
G75*
G03*
X32750000Y-43120000I1000000J0D01*
G01*
%TO.C,U1*%
X40915000Y-38160000D02*
X45415000Y-38160000D01*
X42165000Y-17720000D02*
X40915000Y-17720000D01*
X45415000Y-17720000D02*
X44165000Y-17720000D01*
X45415000Y-38160000D02*
X45415000Y-17720000D01*
X40915000Y-17720000D02*
X40915000Y-38160000D01*
X42165000Y-17720000D02*
G75*
G03*
X44165000Y-17720000I1000000J0D01*
G01*
%TO.C,J1*%
X15800000Y-41420000D02*
X15800000Y-41420000D01*
X14490000Y-53470000D02*
X14490000Y-25270000D01*
X15800000Y-37320000D02*
X15800000Y-26570000D01*
X14100000Y-30480000D02*
X13100000Y-29980000D01*
X15800000Y-52170000D02*
X15800000Y-41420000D01*
X22300000Y-26570000D02*
X22300000Y-52170000D01*
X23610000Y-53470000D02*
X14490000Y-53470000D01*
X15800000Y-26570000D02*
X22300000Y-26570000D01*
X15800000Y-41420000D02*
X14490000Y-41420000D01*
X13100000Y-30980000D02*
X14100000Y-30480000D01*
X22300000Y-52170000D02*
X15800000Y-52170000D01*
X23610000Y-25270000D02*
X23610000Y-53470000D01*
X14490000Y-37320000D02*
X15800000Y-37320000D01*
X13100000Y-29980000D02*
X13100000Y-30980000D01*
X14490000Y-25270000D02*
X23610000Y-25270000D01*
%TO.C,R2*%
X61130000Y-18211800D02*
X62240000Y-18211800D01*
X72380000Y-20131800D02*
X72380000Y-16291800D01*
X73490000Y-18211800D02*
X72380000Y-18211800D01*
X62240000Y-16291800D02*
X62240000Y-20131800D01*
X62240000Y-20131800D02*
X72380000Y-20131800D01*
X72380000Y-16291800D02*
X62240000Y-16291800D01*
%TO.C,C2*%
X40540000Y-42010000D02*
X45780000Y-42010000D01*
X45780000Y-39270000D02*
X45780000Y-42010000D01*
X40540000Y-39270000D02*
X40540000Y-42010000D01*
X40540000Y-39270000D02*
X45780000Y-39270000D01*
%TO.C,Q1*%
X52400000Y-19790000D02*
X52400000Y-23390000D01*
X56850000Y-21590000D02*
G75*
G03*
X55348807Y-19233600I-2600000J0D01*
G01*
X53127205Y-19265816D02*
G75*
G03*
X52400000Y-19790000I1122795J-2324184D01*
G01*
X55348807Y-23946400D02*
G75*
G03*
X56850000Y-21590000I-1098807J2356400D01*
G01*
X52400000Y-23390000D02*
G75*
G03*
X53127205Y-23914184I1850000J1800000D01*
G01*
%TO.C,SW1*%
X29845000Y-30480000D02*
X33020000Y-30480000D01*
X33020000Y-30480000D02*
X33020000Y-25400000D01*
X33020000Y-25400000D02*
X29845000Y-25400000D01*
X29845000Y-25400000D02*
X29845000Y-30480000D01*
X33655000Y-27940000D02*
X30480000Y-27940000D01*
X30480000Y-27940000D02*
X30480000Y-22860000D01*
X30480000Y-22860000D02*
X33655000Y-22860000D01*
X33655000Y-22860000D02*
X33655000Y-27940000D01*
%TO.C,C3*%
X29110000Y-39270000D02*
X29110000Y-42010000D01*
X29110000Y-39270000D02*
X34350000Y-39270000D01*
X29110000Y-42010000D02*
X34350000Y-42010000D01*
X34350000Y-39270000D02*
X34350000Y-42010000D01*
%TO.C,R1*%
X62240000Y-23480000D02*
X62240000Y-27320000D01*
X72380000Y-27320000D02*
X72380000Y-23480000D01*
X72380000Y-23480000D02*
X62240000Y-23480000D01*
X73490000Y-25400000D02*
X72380000Y-25400000D01*
X61130000Y-25400000D02*
X62240000Y-25400000D01*
X62240000Y-27320000D02*
X72380000Y-27320000D01*
%TO.C,J4*%
X105410000Y-28980000D02*
X105910000Y-27980000D01*
X79230000Y-30680000D02*
X79230000Y-29370000D01*
X109320000Y-30680000D02*
X109320000Y-37180000D01*
X79230000Y-30680000D02*
X79230000Y-30680000D01*
X51940000Y-38490000D02*
X51940000Y-29370000D01*
X51940000Y-29370000D02*
X110620000Y-29370000D01*
X83330000Y-29370000D02*
X83330000Y-30680000D01*
X110620000Y-38490000D02*
X51940000Y-38490000D01*
X53240000Y-30680000D02*
X79230000Y-30680000D01*
X53240000Y-37180000D02*
X53240000Y-30680000D01*
X83330000Y-30680000D02*
X109320000Y-30680000D01*
X104910000Y-27980000D02*
X105410000Y-28980000D01*
X105910000Y-27980000D02*
X104910000Y-27980000D01*
X109320000Y-37180000D02*
X53240000Y-37180000D01*
X110620000Y-29370000D02*
X110620000Y-38490000D01*
%TO.C,U2*%
X40930000Y-43120000D02*
X40930000Y-63560000D01*
X42180000Y-43120000D02*
X40930000Y-43120000D01*
X45430000Y-43120000D02*
X44180000Y-43120000D01*
X40930000Y-63560000D02*
X45430000Y-63560000D01*
X45430000Y-63560000D02*
X45430000Y-43120000D01*
X42180000Y-43120000D02*
G75*
G03*
X44180000Y-43120000I1000000J0D01*
G01*
%TO.C,C1*%
X40540000Y-16610000D02*
X40540000Y-13870000D01*
X45780000Y-16610000D02*
X45780000Y-13870000D01*
X45780000Y-16610000D02*
X40540000Y-16610000D01*
X45780000Y-13870000D02*
X40540000Y-13870000D01*
%TO.C,J3*%
X80390000Y-55087929D02*
X80390000Y-55485000D01*
X77090000Y-55087929D02*
X77090000Y-55485000D01*
X82930000Y-58145000D02*
X82930000Y-64145000D01*
X93090000Y-55155000D02*
X93090000Y-55485000D01*
X88010000Y-64145000D02*
X87250000Y-64145000D01*
X77850000Y-55087929D02*
X77850000Y-55485000D01*
X84710000Y-64145000D02*
X84710000Y-58145000D01*
X79630000Y-55087929D02*
X79630000Y-55485000D01*
X94040000Y-55485000D02*
X68520000Y-55485000D01*
X93980000Y-52775000D02*
X93980000Y-54045000D01*
X76200000Y-55485000D02*
X76200000Y-58145000D01*
X70230000Y-55087929D02*
X70230000Y-55485000D01*
X88900000Y-55485000D02*
X88900000Y-58145000D01*
X82170000Y-64145000D02*
X82170000Y-58145000D01*
X75310000Y-64145000D02*
X74550000Y-64145000D01*
X87250000Y-64145000D02*
X87250000Y-58145000D01*
X85470000Y-55087929D02*
X85470000Y-55485000D01*
X72770000Y-58145000D02*
X72770000Y-64145000D01*
X79630000Y-64145000D02*
X79630000Y-58145000D01*
X88010000Y-58145000D02*
X88010000Y-64145000D01*
X87250000Y-55087929D02*
X87250000Y-55485000D01*
X94040000Y-58145000D02*
X94040000Y-55485000D01*
X92910000Y-58145000D02*
X92910000Y-64145000D01*
X68520000Y-58145000D02*
X94040000Y-58145000D01*
X92330000Y-64145000D02*
X92330000Y-58145000D01*
X85470000Y-58145000D02*
X85470000Y-64145000D01*
X82930000Y-64145000D02*
X82170000Y-64145000D01*
X89790000Y-55087929D02*
X89790000Y-55485000D01*
X91440000Y-55485000D02*
X91440000Y-58145000D01*
X72770000Y-64145000D02*
X72010000Y-64145000D01*
X69470000Y-64145000D02*
X69470000Y-58145000D01*
X92430000Y-58145000D02*
X92430000Y-64145000D01*
X74550000Y-55087929D02*
X74550000Y-55485000D01*
X89790000Y-64145000D02*
X89790000Y-58145000D01*
X84710000Y-55087929D02*
X84710000Y-55485000D01*
X92670000Y-58145000D02*
X92670000Y-64145000D01*
X80390000Y-58145000D02*
X80390000Y-64145000D01*
X92790000Y-58145000D02*
X92790000Y-64145000D01*
X78740000Y-55485000D02*
X78740000Y-58145000D01*
X77090000Y-64145000D02*
X77090000Y-58145000D01*
X88010000Y-55087929D02*
X88010000Y-55485000D01*
X72010000Y-55087929D02*
X72010000Y-55485000D01*
X82170000Y-55087929D02*
X82170000Y-55485000D01*
X93090000Y-64145000D02*
X92330000Y-64145000D01*
X92710000Y-52775000D02*
X93980000Y-52775000D01*
X82930000Y-55087929D02*
X82930000Y-55485000D01*
X71120000Y-55485000D02*
X71120000Y-58145000D01*
X93090000Y-58145000D02*
X93090000Y-64145000D01*
X70230000Y-58145000D02*
X70230000Y-64145000D01*
X92330000Y-55155000D02*
X92330000Y-55485000D01*
X74550000Y-64145000D02*
X74550000Y-58145000D01*
X90550000Y-64145000D02*
X89790000Y-64145000D01*
X77850000Y-58145000D02*
X77850000Y-64145000D01*
X90550000Y-58145000D02*
X90550000Y-64145000D01*
X77850000Y-64145000D02*
X77090000Y-64145000D01*
X86360000Y-55485000D02*
X86360000Y-58145000D01*
X70230000Y-64145000D02*
X69470000Y-64145000D01*
X92550000Y-58145000D02*
X92550000Y-64145000D01*
X80390000Y-64145000D02*
X79630000Y-64145000D01*
X68520000Y-55485000D02*
X68520000Y-58145000D01*
X90550000Y-55087929D02*
X90550000Y-55485000D01*
X85470000Y-64145000D02*
X84710000Y-64145000D01*
X72010000Y-64145000D02*
X72010000Y-58145000D01*
X81280000Y-55485000D02*
X81280000Y-58145000D01*
X69470000Y-55087929D02*
X69470000Y-55485000D01*
X73660000Y-55485000D02*
X73660000Y-58145000D01*
X75310000Y-55087929D02*
X75310000Y-55485000D01*
X72770000Y-55087929D02*
X72770000Y-55485000D01*
X93030000Y-58145000D02*
X93030000Y-64145000D01*
X75310000Y-58145000D02*
X75310000Y-64145000D01*
X83820000Y-55485000D02*
X83820000Y-58145000D01*
%TO.C,J2*%
X110620000Y-49920000D02*
X51940000Y-49920000D01*
X53240000Y-42110000D02*
X79230000Y-42110000D01*
X83330000Y-42110000D02*
X109320000Y-42110000D01*
X51940000Y-40800000D02*
X110620000Y-40800000D01*
X105410000Y-40410000D02*
X105910000Y-39410000D01*
X105910000Y-39410000D02*
X104910000Y-39410000D01*
X110620000Y-40800000D02*
X110620000Y-49920000D01*
X109320000Y-48610000D02*
X53240000Y-48610000D01*
X109320000Y-42110000D02*
X109320000Y-48610000D01*
X53240000Y-48610000D02*
X53240000Y-42110000D01*
X79230000Y-42110000D02*
X79230000Y-40800000D01*
X104910000Y-39410000D02*
X105410000Y-40410000D01*
X79230000Y-42110000D02*
X79230000Y-42110000D01*
X51940000Y-49920000D02*
X51940000Y-40800000D01*
X83330000Y-40800000D02*
X83330000Y-42110000D01*
%TD*%
M02*
