M48
; DRILL file {KiCad (6.0.6)} date Sun Aug 14 19:07:48 2022
; FORMAT={-:-/ absolute / inch / decimal}
; #@! TF.CreationDate,2022-08-14T19:07:48-04:00
; #@! TF.GenerationSoftware,Kicad,Pcbnew,(6.0.6)
; #@! TF.FileFunction,Plated,1,2,PTH
FMAT,2
INCH
; #@! TA.AperFunction,Plated,PTH,ComponentDrill
T1C0.0236
; #@! TA.AperFunction,Plated,PTH,ComponentDrill
T2C0.0315
; #@! TA.AperFunction,Plated,PTH,ComponentDrill
T3C0.0394
; #@! TA.AperFunction,Plated,PTH,ComponentDrill
T4C0.0472
; #@! TA.AperFunction,Plated,PTH,ComponentDrill
T5C0.1969
%
G90
G05
T1
X0.6024Y-0.75
X0.6024Y-2.35
X0.6456Y-0.6456
X0.6456Y-0.8544
X0.6456Y-2.2456
X0.6456Y-2.4544
X0.75Y-0.6024
X0.75Y-0.8976
X0.75Y-2.2024
X0.75Y-2.4976
X0.8544Y-0.6456
X0.8544Y-0.8544
X0.8544Y-2.2456
X0.8544Y-2.4544
X0.8976Y-0.75
X0.8976Y-2.35
X4.0524Y-0.75
X4.0524Y-2.35
X4.0956Y-0.6456
X4.0956Y-0.8544
X4.0956Y-2.2456
X4.0956Y-2.4544
X4.2Y-0.6024
X4.2Y-0.8976
X4.2Y-2.2024
X4.2Y-2.4976
X4.3044Y-0.6456
X4.3044Y-0.8544
X4.3044Y-2.2456
X4.3044Y-2.4544
X4.3476Y-0.75
X4.3476Y-2.35
T2
X1.1Y-1.75
X1.1Y-1.85
X1.1Y-1.95
X1.1Y-2.05
X1.1Y-2.15
X1.1Y-2.25
X1.1Y-2.35
X1.1Y-2.45
X1.2Y-1.6
X1.2984Y-1.6
X1.4Y-1.75
X1.4Y-1.85
X1.4Y-1.95
X1.4Y-2.05
X1.4Y-2.15
X1.4Y-2.25
X1.4Y-2.35
X1.4Y-2.45
X1.5494Y-0.75
X1.5494Y-0.85
X1.5494Y-0.95
X1.5494Y-1.05
X1.5494Y-1.15
X1.5494Y-1.25
X1.5494Y-1.35
X1.5494Y-1.45
X1.55Y-1.75
X1.55Y-1.85
X1.55Y-1.95
X1.55Y-2.05
X1.55Y-2.15
X1.55Y-2.25
X1.55Y-2.35
X1.55Y-2.45
X1.65Y-0.6
X1.65Y-1.6
X1.7484Y-0.6
X1.7484Y-1.6
X1.8494Y-0.75
X1.8494Y-0.85
X1.8494Y-0.95
X1.8494Y-1.05
X1.8494Y-1.15
X1.8494Y-1.25
X1.8494Y-1.35
X1.8494Y-1.45
X1.85Y-1.75
X1.85Y-1.85
X1.85Y-1.95
X1.85Y-2.05
X1.85Y-2.15
X1.85Y-2.25
X1.85Y-2.35
X1.85Y-2.45
X2.1358Y-0.75
X2.1358Y-0.85
X2.1358Y-0.95
T3
X0.7Y-1.2
X0.7Y-1.3
X0.7Y-1.4
X0.7Y-1.5
X0.7Y-1.6
X0.7Y-1.7
X0.7Y-1.8
X0.7Y-1.9
X0.8Y-1.2
X0.8Y-1.3
X0.8Y-1.4
X0.8Y-1.5
X0.8Y-1.6
X0.8Y-1.7
X0.8Y-1.8
X0.8Y-1.9
X1.25Y-0.95
X1.25Y-1.05
X1.25Y-1.15
X2.25Y-1.2858
X2.25Y-1.3858
X2.25Y-1.7358
X2.25Y-1.8358
X2.35Y-1.2858
X2.35Y-1.3858
X2.35Y-1.7358
X2.35Y-1.8358
X2.45Y-1.2858
X2.45Y-1.3858
X2.45Y-1.7358
X2.45Y-1.8358
X2.55Y-1.2858
X2.55Y-1.3858
X2.55Y-1.7358
X2.55Y-1.8358
X2.65Y-1.2858
X2.65Y-1.3858
X2.65Y-1.7358
X2.65Y-1.8358
X2.75Y-1.2858
X2.75Y-1.3858
X2.75Y-1.7358
X2.75Y-1.8358
X2.75Y-2.1278
X2.85Y-1.2858
X2.85Y-1.3858
X2.85Y-1.7358
X2.85Y-1.8358
X2.85Y-2.1278
X2.95Y-1.2858
X2.95Y-1.3858
X2.95Y-1.7358
X2.95Y-1.8358
X2.95Y-2.1278
X3.05Y-1.2858
X3.05Y-1.3858
X3.05Y-1.7358
X3.05Y-1.8358
X3.05Y-2.1278
X3.15Y-1.2858
X3.15Y-1.3858
X3.15Y-1.7358
X3.15Y-1.8358
X3.15Y-2.1278
X3.25Y-1.2858
X3.25Y-1.3858
X3.25Y-1.7358
X3.25Y-1.8358
X3.25Y-2.1278
X3.35Y-1.2858
X3.35Y-1.3858
X3.35Y-1.7358
X3.35Y-1.8358
X3.35Y-2.1278
X3.45Y-1.2858
X3.45Y-1.3858
X3.45Y-1.7358
X3.45Y-1.8358
X3.45Y-2.1278
X3.55Y-1.2858
X3.55Y-1.3858
X3.55Y-1.7358
X3.55Y-1.8358
X3.55Y-2.1278
X3.65Y-1.2858
X3.65Y-1.3858
X3.65Y-1.7358
X3.65Y-1.8358
X3.65Y-2.1278
X3.75Y-1.2858
X3.75Y-1.3858
X3.75Y-1.7358
X3.75Y-1.8358
X3.85Y-1.2858
X3.85Y-1.3858
X3.85Y-1.7358
X3.85Y-1.8358
X3.95Y-1.2858
X3.95Y-1.3858
X3.95Y-1.7358
X3.95Y-1.8358
X4.05Y-1.2858
X4.05Y-1.3858
X4.05Y-1.7358
X4.05Y-1.8358
X4.15Y-1.2858
X4.15Y-1.3858
X4.15Y-1.7358
X4.15Y-1.8358
T4
X2.35Y-0.717
X2.35Y-1.0
X2.95Y-0.717
X2.95Y-1.0
T5
X0.75Y-0.75
X0.75Y-2.35
X4.2Y-0.75
X4.2Y-2.35
T0
M30
