%TF.GenerationSoftware,KiCad,Pcbnew,(6.0.6)*%
%TF.CreationDate,2022-08-14T19:07:44-04:00*%
%TF.ProjectId,button_presser,62757474-6f6e-45f7-9072-65737365722e,rev?*%
%TF.SameCoordinates,Original*%
%TF.FileFunction,Copper,L1,Top*%
%TF.FilePolarity,Positive*%
%FSLAX46Y46*%
G04 Gerber Fmt 4.6, Leading zero omitted, Abs format (unit mm)*
G04 Created by KiCad (PCBNEW (6.0.6)) date 2022-08-14 19:07:44*
%MOMM*%
%LPD*%
G01*
G04 APERTURE LIST*
G04 Aperture macros list*
%AMRoundRect*
0 Rectangle with rounded corners*
0 $1 Rounding radius*
0 $2 $3 $4 $5 $6 $7 $8 $9 X,Y pos of 4 corners*
0 Add a 4 corners polygon primitive as box body*
4,1,4,$2,$3,$4,$5,$6,$7,$8,$9,$2,$3,0*
0 Add four circle primitives for the rounded corners*
1,1,$1+$1,$2,$3*
1,1,$1+$1,$4,$5*
1,1,$1+$1,$6,$7*
1,1,$1+$1,$8,$9*
0 Add four rect primitives between the rounded corners*
20,1,$1+$1,$2,$3,$4,$5,0*
20,1,$1+$1,$4,$5,$6,$7,0*
20,1,$1+$1,$6,$7,$8,$9,0*
20,1,$1+$1,$8,$9,$2,$3,0*%
G04 Aperture macros list end*
%TA.AperFunction,ComponentPad*%
%ADD10R,2.400000X1.600000*%
%TD*%
%TA.AperFunction,ComponentPad*%
%ADD11O,2.400000X1.600000*%
%TD*%
%TA.AperFunction,ComponentPad*%
%ADD12C,0.900000*%
%TD*%
%TA.AperFunction,ComponentPad*%
%ADD13C,10.000000*%
%TD*%
%TA.AperFunction,ComponentPad*%
%ADD14RoundRect,0.250000X-0.600000X-0.600000X0.600000X-0.600000X0.600000X0.600000X-0.600000X0.600000X0*%
%TD*%
%TA.AperFunction,ComponentPad*%
%ADD15C,1.700000*%
%TD*%
%TA.AperFunction,ComponentPad*%
%ADD16C,2.400000*%
%TD*%
%TA.AperFunction,ComponentPad*%
%ADD17O,2.400000X2.400000*%
%TD*%
%TA.AperFunction,ComponentPad*%
%ADD18C,1.600000*%
%TD*%
%TA.AperFunction,ComponentPad*%
%ADD19R,1.500000X1.500000*%
%TD*%
%TA.AperFunction,ComponentPad*%
%ADD20C,1.500000*%
%TD*%
%TA.AperFunction,ComponentPad*%
%ADD21R,1.700000X1.700000*%
%TD*%
%TA.AperFunction,ComponentPad*%
%ADD22O,1.700000X1.700000*%
%TD*%
%TA.AperFunction,ComponentPad*%
%ADD23RoundRect,0.250000X-0.600000X0.600000X-0.600000X-0.600000X0.600000X-0.600000X0.600000X0.600000X0*%
%TD*%
%TA.AperFunction,Conductor*%
%ADD24C,0.508000*%
%TD*%
%TA.AperFunction,Conductor*%
%ADD25C,0.254000*%
%TD*%
G04 APERTURE END LIST*
D10*
%TO.P,U3,1,A4*%
%TO.N,unconnected-(U3-Pad1)*%
X27940000Y-44450000D03*
D11*
%TO.P,U3,2,A6*%
%TO.N,unconnected-(U3-Pad2)*%
X27940000Y-46990000D03*
%TO.P,U3,3,A*%
%TO.N,GND*%
X27940000Y-49530000D03*
%TO.P,U3,4,A7*%
%TO.N,Net-(J3-Pad10)*%
X27940000Y-52070000D03*
%TO.P,U3,5,A5*%
%TO.N,unconnected-(U3-Pad5)*%
X27940000Y-54610000D03*
%TO.P,U3,6,~{E}*%
%TO.N,Net-(J1-Pad11)*%
X27940000Y-57150000D03*
%TO.P,U3,7,VEE*%
%TO.N,GND*%
X27940000Y-59690000D03*
%TO.P,U3,8,GND*%
X27940000Y-62230000D03*
%TO.P,U3,9,S2*%
%TO.N,Net-(J1-Pad10)*%
X35560000Y-62230000D03*
%TO.P,U3,10,S1*%
%TO.N,Net-(J1-Pad8)*%
X35560000Y-59690000D03*
%TO.P,U3,11,S0*%
%TO.N,Net-(J1-Pad6)*%
X35560000Y-57150000D03*
%TO.P,U3,12,A3*%
%TO.N,unconnected-(U3-Pad12)*%
X35560000Y-54610000D03*
%TO.P,U3,13,A0*%
%TO.N,unconnected-(U3-Pad13)*%
X35560000Y-52070000D03*
%TO.P,U3,14,A1*%
%TO.N,unconnected-(U3-Pad14)*%
X35560000Y-49530000D03*
%TO.P,U3,15,A2*%
%TO.N,unconnected-(U3-Pad15)*%
X35560000Y-46990000D03*
%TO.P,U3,16,VCC*%
%TO.N,+3V3*%
X35560000Y-44450000D03*
%TD*%
D10*
%TO.P,U1,1,A4*%
%TO.N,Net-(J3-Pad2)*%
X39355000Y-19050000D03*
D11*
%TO.P,U1,2,A6*%
%TO.N,Net-(J3-Pad4)*%
X39355000Y-21590000D03*
%TO.P,U1,3,A*%
%TO.N,Net-(U1-Pad3)*%
X39355000Y-24130000D03*
%TO.P,U1,4,A7*%
%TO.N,Net-(J3-Pad5)*%
X39355000Y-26670000D03*
%TO.P,U1,5,A5*%
%TO.N,Net-(J3-Pad3)*%
X39355000Y-29210000D03*
%TO.P,U1,6,~{E}*%
%TO.N,Net-(J1-Pad11)*%
X39355000Y-31750000D03*
%TO.P,U1,7,VEE*%
%TO.N,GND*%
X39355000Y-34290000D03*
%TO.P,U1,8,GND*%
X39355000Y-36830000D03*
%TO.P,U1,9,S2*%
%TO.N,Net-(J1-Pad9)*%
X46975000Y-36830000D03*
%TO.P,U1,10,S1*%
%TO.N,Net-(J1-Pad7)*%
X46975000Y-34290000D03*
%TO.P,U1,11,S0*%
%TO.N,Net-(J1-Pad5)*%
X46975000Y-31750000D03*
%TO.P,U1,12,A3*%
%TO.N,Net-(J3-Pad1)*%
X46975000Y-29210000D03*
%TO.P,U1,13,A0*%
%TO.N,Net-(J2-Pad34)*%
X46975000Y-26670000D03*
%TO.P,U1,14,A1*%
%TO.N,Net-(J2-Pad36)*%
X46975000Y-24130000D03*
%TO.P,U1,15,A2*%
%TO.N,Net-(J2-Pad38)*%
X46975000Y-21590000D03*
%TO.P,U1,16,VCC*%
%TO.N,+3V3*%
X46975000Y-19050000D03*
%TD*%
D12*
%TO.P,H2,1,1*%
%TO.N,GND*%
X104028350Y-62341650D03*
X109331650Y-62341650D03*
X106680000Y-55940000D03*
X109331650Y-57038350D03*
X106680000Y-63440000D03*
X110430000Y-59690000D03*
D13*
X106680000Y-59690000D03*
D12*
X104028350Y-57038350D03*
X102930000Y-59690000D03*
%TD*%
D14*
%TO.P,J1,1,3V3*%
%TO.N,+3V3*%
X17780000Y-30480000D03*
D15*
%TO.P,J1,2,3V3_dup*%
X20320000Y-30480000D03*
%TO.P,J1,3,GND*%
%TO.N,GND*%
X17780000Y-33020000D03*
%TO.P,J1,4,GND2*%
X20320000Y-33020000D03*
%TO.P,J1,5,S0*%
%TO.N,Net-(J1-Pad5)*%
X17780000Y-35560000D03*
%TO.P,J1,6,S3*%
%TO.N,Net-(J1-Pad6)*%
X20320000Y-35560000D03*
%TO.P,J1,7,S1*%
%TO.N,Net-(J1-Pad7)*%
X17780000Y-38100000D03*
%TO.P,J1,8,S4*%
%TO.N,Net-(J1-Pad8)*%
X20320000Y-38100000D03*
%TO.P,J1,9,S2*%
%TO.N,Net-(J1-Pad9)*%
X17780000Y-40640000D03*
%TO.P,J1,10,S5*%
%TO.N,Net-(J1-Pad10)*%
X20320000Y-40640000D03*
%TO.P,J1,11,~{E}*%
%TO.N,Net-(J1-Pad11)*%
X17780000Y-43180000D03*
%TO.P,J1,12,~{E}_dup*%
X20320000Y-43180000D03*
%TO.P,J1,13,POW*%
%TO.N,Net-(J1-Pad13)*%
X17780000Y-45720000D03*
%TO.P,J1,14,POW_dup*%
X20320000Y-45720000D03*
%TO.P,J1,15,GND3*%
%TO.N,GND*%
X17780000Y-48260000D03*
%TO.P,J1,16,GND4*%
X20320000Y-48260000D03*
%TD*%
D16*
%TO.P,R2,1*%
%TO.N,+3V3*%
X59690000Y-18211800D03*
D17*
%TO.P,R2,2*%
%TO.N,Net-(J1-Pad11)*%
X74930000Y-18211800D03*
%TD*%
D18*
%TO.P,C2,1*%
%TO.N,+3V3*%
X41910000Y-40640000D03*
%TO.P,C2,2*%
%TO.N,GND*%
X44410000Y-40640000D03*
%TD*%
D19*
%TO.P,Q1,1,S*%
%TO.N,Net-(Q1-Pad1)*%
X54250000Y-19050000D03*
D20*
%TO.P,Q1,2,G*%
%TO.N,Net-(J1-Pad13)*%
X54250000Y-21590000D03*
%TO.P,Q1,3,D*%
%TO.N,+1V5*%
X54250000Y-24130000D03*
%TD*%
D21*
%TO.P,SW1,1,1*%
%TO.N,Net-(Q1-Pad1)*%
X31750000Y-29210000D03*
D22*
%TO.P,SW1,2,2*%
%TO.N,Net-(J2-Pad39)*%
X31750000Y-26670000D03*
%TO.P,SW1,3,3*%
%TO.N,+1V5*%
X31750000Y-24130000D03*
%TD*%
D18*
%TO.P,C3,1*%
%TO.N,+3V3*%
X30480000Y-40640000D03*
%TO.P,C3,2*%
%TO.N,GND*%
X32980000Y-40640000D03*
%TD*%
D16*
%TO.P,R1,1*%
%TO.N,Net-(J1-Pad13)*%
X59690000Y-25400000D03*
D17*
%TO.P,R1,2*%
%TO.N,GND*%
X74930000Y-25400000D03*
%TD*%
D23*
%TO.P,J4,1,LCD_31*%
%TO.N,Net-(J2-Pad1)*%
X105410000Y-32660000D03*
D15*
%TO.P,J4,2,LCD_32*%
%TO.N,Net-(J2-Pad2)*%
X105410000Y-35200000D03*
%TO.P,J4,3,LCD_29*%
%TO.N,Net-(J2-Pad3)*%
X102870000Y-32660000D03*
%TO.P,J4,4,LCD_30*%
%TO.N,Net-(J2-Pad4)*%
X102870000Y-35200000D03*
%TO.P,J4,5,LCD_27*%
%TO.N,Net-(J2-Pad5)*%
X100330000Y-32660000D03*
%TO.P,J4,6,LCD_28*%
%TO.N,Net-(J2-Pad6)*%
X100330000Y-35200000D03*
%TO.P,J4,7,LCD_25*%
%TO.N,Net-(J2-Pad7)*%
X97790000Y-32660000D03*
%TO.P,J4,8,LCD_26*%
%TO.N,Net-(J2-Pad8)*%
X97790000Y-35200000D03*
%TO.P,J4,9,LCD_23*%
%TO.N,Net-(J2-Pad9)*%
X95250000Y-32660000D03*
%TO.P,J4,10,LCD_24*%
%TO.N,Net-(J2-Pad10)*%
X95250000Y-35200000D03*
%TO.P,J4,11,LCD_21*%
%TO.N,Net-(J2-Pad11)*%
X92710000Y-32660000D03*
%TO.P,J4,12,LCD_22*%
%TO.N,Net-(J2-Pad12)*%
X92710000Y-35200000D03*
%TO.P,J4,13,LCD_19*%
%TO.N,Net-(J2-Pad13)*%
X90170000Y-32660000D03*
%TO.P,J4,14,LCD_20*%
%TO.N,Net-(J2-Pad14)*%
X90170000Y-35200000D03*
%TO.P,J4,15,LCD_17*%
%TO.N,Net-(J2-Pad15)*%
X87630000Y-32660000D03*
%TO.P,J4,16,LCD_18*%
%TO.N,Net-(J2-Pad16)*%
X87630000Y-35200000D03*
%TO.P,J4,17,LCD_15*%
%TO.N,Net-(J2-Pad17)*%
X85090000Y-32660000D03*
%TO.P,J4,18,LCD_16*%
%TO.N,Net-(J2-Pad18)*%
X85090000Y-35200000D03*
%TO.P,J4,19,LCD_13*%
%TO.N,Net-(J2-Pad19)*%
X82550000Y-32660000D03*
%TO.P,J4,20,LCD_14*%
%TO.N,Net-(J2-Pad20)*%
X82550000Y-35200000D03*
%TO.P,J4,21,LCD_11*%
%TO.N,Net-(J2-Pad21)*%
X80010000Y-32660000D03*
%TO.P,J4,22,LCD_12*%
%TO.N,Net-(J2-Pad22)*%
X80010000Y-35200000D03*
%TO.P,J4,23,LCD_9*%
%TO.N,Net-(J2-Pad23)*%
X77470000Y-32660000D03*
%TO.P,J4,24,LCD_10*%
%TO.N,Net-(J2-Pad24)*%
X77470000Y-35200000D03*
%TO.P,J4,25,LCD_7*%
%TO.N,Net-(J2-Pad25)*%
X74930000Y-32660000D03*
%TO.P,J4,26,LCD_8*%
%TO.N,Net-(J2-Pad26)*%
X74930000Y-35200000D03*
%TO.P,J4,27,LCD_5*%
%TO.N,Net-(J2-Pad27)*%
X72390000Y-32660000D03*
%TO.P,J4,28,LCD_6*%
%TO.N,Net-(J2-Pad28)*%
X72390000Y-35200000D03*
%TO.P,J4,29,LCD_3(A)*%
%TO.N,Net-(J2-Pad29)*%
X69850000Y-32660000D03*
%TO.P,J4,30,LCD_4(B)*%
%TO.N,Net-(J2-Pad30)*%
X69850000Y-35200000D03*
%TO.P,J4,31,LCD_1(D)*%
%TO.N,Net-(J2-Pad31)*%
X67310000Y-32660000D03*
%TO.P,J4,32,LCD_2(C)*%
%TO.N,Net-(J2-Pad32)*%
X67310000Y-35200000D03*
%TO.P,J4,33,B0*%
%TO.N,unconnected-(J4-Pad33)*%
X64770000Y-32660000D03*
%TO.P,J4,34,A0*%
%TO.N,unconnected-(J4-Pad34)*%
X64770000Y-35200000D03*
%TO.P,J4,35,B1*%
%TO.N,unconnected-(J4-Pad35)*%
X62230000Y-32660000D03*
%TO.P,J4,36,A1*%
%TO.N,unconnected-(J4-Pad36)*%
X62230000Y-35200000D03*
%TO.P,J4,37,B2*%
%TO.N,unconnected-(J4-Pad37)*%
X59690000Y-32660000D03*
%TO.P,J4,38,A2*%
%TO.N,unconnected-(J4-Pad38)*%
X59690000Y-35200000D03*
%TO.P,J4,39,B+*%
%TO.N,+1V5*%
X57150000Y-32660000D03*
%TO.P,J4,40,GND*%
%TO.N,GND*%
X57150000Y-35200000D03*
%TD*%
D10*
%TO.P,U2,1,A4*%
%TO.N,Net-(J3-Pad7)*%
X39370000Y-44450000D03*
D11*
%TO.P,U2,2,A6*%
%TO.N,Net-(J3-Pad9)*%
X39370000Y-46990000D03*
%TO.P,U2,3,A*%
%TO.N,Net-(U1-Pad3)*%
X39370000Y-49530000D03*
%TO.P,U2,4,A7*%
%TO.N,unconnected-(U2-Pad4)*%
X39370000Y-52070000D03*
%TO.P,U2,5,A5*%
%TO.N,Net-(J3-Pad8)*%
X39370000Y-54610000D03*
%TO.P,U2,6,~{E}*%
%TO.N,Net-(J1-Pad11)*%
X39370000Y-57150000D03*
%TO.P,U2,7,VEE*%
%TO.N,GND*%
X39370000Y-59690000D03*
%TO.P,U2,8,GND*%
X39370000Y-62230000D03*
%TO.P,U2,9,S2*%
%TO.N,Net-(J1-Pad10)*%
X46990000Y-62230000D03*
%TO.P,U2,10,S1*%
%TO.N,Net-(J1-Pad8)*%
X46990000Y-59690000D03*
%TO.P,U2,11,S0*%
%TO.N,Net-(J1-Pad6)*%
X46990000Y-57150000D03*
%TO.P,U2,12,A3*%
%TO.N,Net-(J3-Pad6)*%
X46990000Y-54610000D03*
%TO.P,U2,13,A0*%
%TO.N,Net-(J2-Pad33)*%
X46990000Y-52070000D03*
%TO.P,U2,14,A1*%
%TO.N,Net-(J2-Pad35)*%
X46990000Y-49530000D03*
%TO.P,U2,15,A2*%
%TO.N,Net-(J2-Pad37)*%
X46990000Y-46990000D03*
%TO.P,U2,16,VCC*%
%TO.N,+3V3*%
X46990000Y-44450000D03*
%TD*%
D18*
%TO.P,C1,1*%
%TO.N,+3V3*%
X44410000Y-15240000D03*
%TO.P,C1,2*%
%TO.N,GND*%
X41910000Y-15240000D03*
%TD*%
D12*
%TO.P,H1,1,1*%
%TO.N,GND*%
X106680000Y-22800000D03*
X102930000Y-19050000D03*
D13*
X106680000Y-19050000D03*
D12*
X106680000Y-15300000D03*
X104028350Y-21701650D03*
X110430000Y-19050000D03*
X104028350Y-16398350D03*
X109331650Y-16398350D03*
X109331650Y-21701650D03*
%TD*%
D21*
%TO.P,J3,1,A3*%
%TO.N,Net-(J3-Pad1)*%
X92710000Y-54045000D03*
D22*
%TO.P,J3,2,A4*%
%TO.N,Net-(J3-Pad2)*%
X90170000Y-54045000D03*
%TO.P,J3,3,A5*%
%TO.N,Net-(J3-Pad3)*%
X87630000Y-54045000D03*
%TO.P,J3,4,A6*%
%TO.N,Net-(J3-Pad4)*%
X85090000Y-54045000D03*
%TO.P,J3,5,A7*%
%TO.N,Net-(J3-Pad5)*%
X82550000Y-54045000D03*
%TO.P,J3,6,B3*%
%TO.N,Net-(J3-Pad6)*%
X80010000Y-54045000D03*
%TO.P,J3,7,B4*%
%TO.N,Net-(J3-Pad7)*%
X77470000Y-54045000D03*
%TO.P,J3,8,B5*%
%TO.N,Net-(J3-Pad8)*%
X74930000Y-54045000D03*
%TO.P,J3,9,B6*%
%TO.N,Net-(J3-Pad9)*%
X72390000Y-54045000D03*
%TO.P,J3,10,RESET*%
%TO.N,Net-(J3-Pad10)*%
X69850000Y-54045000D03*
%TD*%
D23*
%TO.P,J2,1,LCD_31*%
%TO.N,Net-(J2-Pad1)*%
X105410000Y-44090000D03*
D15*
%TO.P,J2,2,LCD_32*%
%TO.N,Net-(J2-Pad2)*%
X105410000Y-46630000D03*
%TO.P,J2,3,LCD_29*%
%TO.N,Net-(J2-Pad3)*%
X102870000Y-44090000D03*
%TO.P,J2,4,LCD_30*%
%TO.N,Net-(J2-Pad4)*%
X102870000Y-46630000D03*
%TO.P,J2,5,LCD_27*%
%TO.N,Net-(J2-Pad5)*%
X100330000Y-44090000D03*
%TO.P,J2,6,LCD_28*%
%TO.N,Net-(J2-Pad6)*%
X100330000Y-46630000D03*
%TO.P,J2,7,LCD_25*%
%TO.N,Net-(J2-Pad7)*%
X97790000Y-44090000D03*
%TO.P,J2,8,LCD_26*%
%TO.N,Net-(J2-Pad8)*%
X97790000Y-46630000D03*
%TO.P,J2,9,LCD_23*%
%TO.N,Net-(J2-Pad9)*%
X95250000Y-44090000D03*
%TO.P,J2,10,LCD_24*%
%TO.N,Net-(J2-Pad10)*%
X95250000Y-46630000D03*
%TO.P,J2,11,LCD_21*%
%TO.N,Net-(J2-Pad11)*%
X92710000Y-44090000D03*
%TO.P,J2,12,LCD_22*%
%TO.N,Net-(J2-Pad12)*%
X92710000Y-46630000D03*
%TO.P,J2,13,LCD_19*%
%TO.N,Net-(J2-Pad13)*%
X90170000Y-44090000D03*
%TO.P,J2,14,LCD_20*%
%TO.N,Net-(J2-Pad14)*%
X90170000Y-46630000D03*
%TO.P,J2,15,LCD_17*%
%TO.N,Net-(J2-Pad15)*%
X87630000Y-44090000D03*
%TO.P,J2,16,LCD_18*%
%TO.N,Net-(J2-Pad16)*%
X87630000Y-46630000D03*
%TO.P,J2,17,LCD_15*%
%TO.N,Net-(J2-Pad17)*%
X85090000Y-44090000D03*
%TO.P,J2,18,LCD_16*%
%TO.N,Net-(J2-Pad18)*%
X85090000Y-46630000D03*
%TO.P,J2,19,LCD_13*%
%TO.N,Net-(J2-Pad19)*%
X82550000Y-44090000D03*
%TO.P,J2,20,LCD_14*%
%TO.N,Net-(J2-Pad20)*%
X82550000Y-46630000D03*
%TO.P,J2,21,LCD_11*%
%TO.N,Net-(J2-Pad21)*%
X80010000Y-44090000D03*
%TO.P,J2,22,LCD_12*%
%TO.N,Net-(J2-Pad22)*%
X80010000Y-46630000D03*
%TO.P,J2,23,LCD_9*%
%TO.N,Net-(J2-Pad23)*%
X77470000Y-44090000D03*
%TO.P,J2,24,LCD_10*%
%TO.N,Net-(J2-Pad24)*%
X77470000Y-46630000D03*
%TO.P,J2,25,LCD_7*%
%TO.N,Net-(J2-Pad25)*%
X74930000Y-44090000D03*
%TO.P,J2,26,LCD_8*%
%TO.N,Net-(J2-Pad26)*%
X74930000Y-46630000D03*
%TO.P,J2,27,LCD_5*%
%TO.N,Net-(J2-Pad27)*%
X72390000Y-44090000D03*
%TO.P,J2,28,LCD_6*%
%TO.N,Net-(J2-Pad28)*%
X72390000Y-46630000D03*
%TO.P,J2,29,LCD_3(A)*%
%TO.N,Net-(J2-Pad29)*%
X69850000Y-44090000D03*
%TO.P,J2,30,LCD_4(B)*%
%TO.N,Net-(J2-Pad30)*%
X69850000Y-46630000D03*
%TO.P,J2,31,LCD_1(D)*%
%TO.N,Net-(J2-Pad31)*%
X67310000Y-44090000D03*
%TO.P,J2,32,LCD_2(C)*%
%TO.N,Net-(J2-Pad32)*%
X67310000Y-46630000D03*
%TO.P,J2,33,B0*%
%TO.N,Net-(J2-Pad33)*%
X64770000Y-44090000D03*
%TO.P,J2,34,A0*%
%TO.N,Net-(J2-Pad34)*%
X64770000Y-46630000D03*
%TO.P,J2,35,B1*%
%TO.N,Net-(J2-Pad35)*%
X62230000Y-44090000D03*
%TO.P,J2,36,A1*%
%TO.N,Net-(J2-Pad36)*%
X62230000Y-46630000D03*
%TO.P,J2,37,B2*%
%TO.N,Net-(J2-Pad37)*%
X59690000Y-44090000D03*
%TO.P,J2,38,A2*%
%TO.N,Net-(J2-Pad38)*%
X59690000Y-46630000D03*
%TO.P,J2,39,B+*%
%TO.N,Net-(J2-Pad39)*%
X57150000Y-44090000D03*
%TO.P,J2,40,GND*%
%TO.N,GND*%
X57150000Y-46630000D03*
%TD*%
D12*
%TO.P,H3,1,1*%
%TO.N,GND*%
X16398350Y-21701650D03*
D13*
X19050000Y-19050000D03*
D12*
X19050000Y-22800000D03*
X15300000Y-19050000D03*
X21701650Y-21701650D03*
X16398350Y-16398350D03*
X19050000Y-15300000D03*
X22800000Y-19050000D03*
X21701650Y-16398350D03*
%TD*%
%TO.P,H4,1,1*%
%TO.N,GND*%
X22800000Y-59690000D03*
X21701650Y-62341650D03*
D13*
X19050000Y-59690000D03*
D12*
X16398350Y-62341650D03*
X21701650Y-57038350D03*
X16398350Y-57038350D03*
X19050000Y-55940000D03*
X19050000Y-63440000D03*
X15300000Y-59690000D03*
%TD*%
D24*
%TO.N,GND*%
X58420000Y-32131000D02*
X65151000Y-25400000D01*
X65151000Y-25400000D02*
X74930000Y-25400000D01*
X58420000Y-33930000D02*
X58420000Y-32131000D01*
X57150000Y-35200000D02*
X58420000Y-33930000D01*
X58381000Y-36431000D02*
X58381000Y-45399000D01*
X57150000Y-35200000D02*
X58381000Y-36431000D01*
X58381000Y-45399000D02*
X57150000Y-46630000D01*
D25*
%TO.N,Net-(J1-Pad11)*%
X22047200Y-44907200D02*
X20320000Y-43180000D01*
X27000200Y-57150000D02*
X22047200Y-52197000D01*
X22047200Y-52197000D02*
X22047200Y-44907200D01*
%TO.N,Net-(J1-Pad10)*%
X19075400Y-41884600D02*
X20320000Y-40640000D01*
X19075400Y-50749200D02*
X19075400Y-41884600D01*
X26746200Y-58420000D02*
X19075400Y-50749200D01*
X35560000Y-62230000D02*
X31750000Y-58420000D01*
X31750000Y-58420000D02*
X26746200Y-58420000D01*
D24*
%TO.N,GND*%
X34326200Y-39293800D02*
X32980000Y-40640000D01*
X43063800Y-39293800D02*
X34326200Y-39293800D01*
X44410000Y-40640000D02*
X43063800Y-39293800D01*
D25*
%TO.N,Net-(J1-Pad5)*%
X19050000Y-34290000D02*
X17780000Y-35560000D01*
X21818600Y-34290000D02*
X19050000Y-34290000D01*
X26136600Y-38608000D02*
X21818600Y-34290000D01*
X49403000Y-34178000D02*
X49403000Y-37592000D01*
X46975000Y-31750000D02*
X49403000Y-34178000D01*
X49403000Y-37592000D02*
X48387000Y-38608000D01*
X48387000Y-38608000D02*
X26136600Y-38608000D01*
%TO.N,Net-(J1-Pad7)*%
X16586200Y-36906200D02*
X17780000Y-38100000D01*
X16586200Y-35026600D02*
X16586200Y-36906200D01*
X17322800Y-34290000D02*
X16586200Y-35026600D01*
X18288000Y-34290000D02*
X17322800Y-34290000D01*
X19050000Y-33528000D02*
X18288000Y-34290000D01*
X19685000Y-31775400D02*
X19050000Y-32410400D01*
X47980600Y-37998400D02*
X27457400Y-37998400D01*
X48539400Y-37439600D02*
X47980600Y-37998400D01*
X21234400Y-31775400D02*
X19685000Y-31775400D01*
X48539400Y-35560000D02*
X48539400Y-37439600D01*
X47269400Y-34290000D02*
X48539400Y-35560000D01*
X27457400Y-37998400D02*
X21234400Y-31775400D01*
X19050000Y-32410400D02*
X19050000Y-33528000D01*
%TO.N,Net-(J1-Pad9)*%
X27914600Y-35534600D02*
X27851100Y-35471100D01*
X45679600Y-35534600D02*
X27914600Y-35534600D01*
X46975000Y-36830000D02*
X45679600Y-35534600D01*
X21336000Y-28956000D02*
X27851100Y-35471100D01*
X19723100Y-28956000D02*
X21336000Y-28956000D01*
X19050000Y-31343600D02*
X19050000Y-29629100D01*
X18618200Y-31775400D02*
X19050000Y-31343600D01*
X19050000Y-29629100D02*
X19723100Y-28956000D01*
X16154400Y-32816800D02*
X17195800Y-31775400D01*
X17195800Y-31775400D02*
X18618200Y-31775400D01*
X16154400Y-39014400D02*
X16154400Y-32816800D01*
X17780000Y-40640000D02*
X16154400Y-39014400D01*
D24*
%TO.N,+3V3*%
X39370000Y-40640000D02*
X35560000Y-44450000D01*
X35560000Y-44450000D02*
X34290000Y-44450000D01*
X56718200Y-15240000D02*
X44410000Y-15240000D01*
X34290000Y-44450000D02*
X30480000Y-40640000D01*
X17780000Y-29845000D02*
X19444199Y-28180801D01*
X36912714Y-13970000D02*
X43140000Y-13970000D01*
X46990000Y-44450000D02*
X45720000Y-44450000D01*
X43140000Y-13970000D02*
X44410000Y-15240000D01*
X41910000Y-40640000D02*
X39370000Y-40640000D01*
X59690000Y-18211800D02*
X56718200Y-15240000D01*
X17780000Y-30480000D02*
X17780000Y-29845000D01*
X19444199Y-28180801D02*
X22701914Y-28180801D01*
X22701914Y-28180801D02*
X36912714Y-13970000D01*
X45720000Y-44450000D02*
X41910000Y-40640000D01*
D25*
%TO.N,Net-(J1-Pad6)*%
X46990000Y-57150000D02*
X45745400Y-58394600D01*
X45745400Y-58394600D02*
X36804600Y-58394600D01*
X31750000Y-53340000D02*
X27107216Y-53340000D01*
X23774400Y-39014400D02*
X20320000Y-35560000D01*
X36804600Y-58394600D02*
X35560000Y-57150000D01*
X23774400Y-50007184D02*
X23774400Y-39014400D01*
X35560000Y-57150000D02*
X31750000Y-53340000D01*
X27107216Y-53340000D02*
X23774400Y-50007184D01*
%TO.N,Net-(J1-Pad8)*%
X26847800Y-55930800D02*
X22885400Y-51968400D01*
X45669200Y-61010800D02*
X36880800Y-61010800D01*
X36880800Y-61010800D02*
X35560000Y-59690000D01*
X22885400Y-51968400D02*
X22885400Y-40665400D01*
X46990000Y-59690000D02*
X45669200Y-61010800D01*
X31800800Y-55930800D02*
X26847800Y-55930800D01*
X35560000Y-59690000D02*
X31800800Y-55930800D01*
X22885400Y-40665400D02*
X20320000Y-38100000D01*
%TO.N,Net-(J1-Pad10)*%
X46990000Y-62230000D02*
X45770800Y-63449200D01*
X45770800Y-63449200D02*
X36779200Y-63449200D01*
X36779200Y-63449200D02*
X35560000Y-62230000D01*
%TO.N,Net-(J1-Pad11)*%
X99517200Y-57327800D02*
X108585000Y-48260000D01*
X108585000Y-32385000D02*
X94411800Y-18211800D01*
X39370000Y-57150000D02*
X40614600Y-55905400D01*
X108585000Y-48260000D02*
X108585000Y-32385000D01*
X66929000Y-55905400D02*
X68351400Y-57327800D01*
X94411800Y-18211800D02*
X74930000Y-18211800D01*
X40614600Y-55905400D02*
X66929000Y-55905400D01*
X68351400Y-57327800D02*
X99517200Y-57327800D01*
%TO.N,Net-(J1-Pad13)*%
X59690000Y-25400000D02*
X62230000Y-22860000D01*
X18148300Y-27673300D02*
X15671800Y-30149800D01*
X62230000Y-22860000D02*
X62230000Y-17145000D01*
X55880000Y-21590000D02*
X59690000Y-25400000D01*
X15671800Y-43611800D02*
X17780000Y-45720000D01*
X54250000Y-21590000D02*
X55880000Y-21590000D01*
X22491700Y-27673300D02*
X18148300Y-27673300D01*
X62230000Y-17145000D02*
X58547000Y-13462000D01*
X15671800Y-30149800D02*
X15671800Y-43611800D01*
X58547000Y-13462000D02*
X36703000Y-13462000D01*
X36703000Y-13462000D02*
X22491700Y-27673300D01*
%TO.N,Net-(J2-Pad1)*%
X105410000Y-44090000D02*
X104165400Y-42845400D01*
X104165400Y-33904600D02*
X105410000Y-32660000D01*
X104165400Y-42845400D02*
X104165400Y-33904600D01*
%TO.N,Net-(J2-Pad2)*%
X106514000Y-45526000D02*
X106514000Y-43281236D01*
X105410000Y-46630000D02*
X106514000Y-45526000D01*
X106514000Y-43281236D02*
X105435400Y-42202636D01*
X105435400Y-42202636D02*
X105435400Y-35225400D01*
%TO.N,Net-(J2-Pad3)*%
X102870000Y-44090000D02*
X101600000Y-42820000D01*
X101600000Y-33930000D02*
X102870000Y-32660000D01*
X101600000Y-42820000D02*
X101600000Y-33930000D01*
%TO.N,Net-(J2-Pad4)*%
X103974000Y-43632708D02*
X102895400Y-42554108D01*
X102895400Y-42554108D02*
X102895400Y-35225400D01*
X103974000Y-45526000D02*
X103974000Y-43632708D01*
X102870000Y-46630000D02*
X103974000Y-45526000D01*
%TO.N,Net-(J2-Pad5)*%
X99060000Y-33930000D02*
X100330000Y-32660000D01*
X99060000Y-42820000D02*
X99060000Y-33930000D01*
X100330000Y-44090000D02*
X99060000Y-42820000D01*
%TO.N,Net-(J2-Pad6)*%
X101434000Y-45526000D02*
X101434000Y-43632708D01*
X100330000Y-46630000D02*
X101434000Y-45526000D01*
X101434000Y-43632708D02*
X100380800Y-42579508D01*
X100380800Y-42579508D02*
X100380800Y-35250800D01*
%TO.N,Net-(J2-Pad7)*%
X97790000Y-44090000D02*
X96520000Y-42820000D01*
X96520000Y-33930000D02*
X97790000Y-32660000D01*
X96520000Y-42820000D02*
X96520000Y-33930000D01*
%TO.N,Net-(J2-Pad8)*%
X97815400Y-42554108D02*
X97815400Y-35225400D01*
X97790000Y-46630000D02*
X98894000Y-45526000D01*
X98894000Y-43632708D02*
X97815400Y-42554108D01*
X98894000Y-45526000D02*
X98894000Y-43632708D01*
%TO.N,Net-(J2-Pad9)*%
X95250000Y-44090000D02*
X93903800Y-42743800D01*
X93903800Y-34006200D02*
X95250000Y-32660000D01*
X93903800Y-42743800D02*
X93903800Y-34006200D01*
%TO.N,Net-(J2-Pad10)*%
X96354000Y-45526000D02*
X96354000Y-43632708D01*
X95250000Y-46630000D02*
X96354000Y-45526000D01*
X96354000Y-43632708D02*
X95275400Y-42554108D01*
X95275400Y-42554108D02*
X95275400Y-35225400D01*
%TO.N,Net-(J2-Pad11)*%
X92710000Y-44090000D02*
X91465400Y-42845400D01*
X91465400Y-33904600D02*
X92710000Y-32660000D01*
X91465400Y-42845400D02*
X91465400Y-33904600D01*
%TO.N,Net-(J2-Pad12)*%
X93814000Y-45526000D02*
X93814000Y-43632708D01*
X92735400Y-42554108D02*
X92735400Y-35225400D01*
X93814000Y-43632708D02*
X92735400Y-42554108D01*
X92710000Y-46630000D02*
X93814000Y-45526000D01*
%TO.N,Net-(J2-Pad13)*%
X88925400Y-33904600D02*
X90170000Y-32660000D01*
X90170000Y-44090000D02*
X88925400Y-42845400D01*
X88925400Y-42845400D02*
X88925400Y-33904600D01*
%TO.N,Net-(J2-Pad14)*%
X90170000Y-46630000D02*
X91274000Y-45526000D01*
X91274000Y-45526000D02*
X91274000Y-43632708D01*
X91274000Y-43632708D02*
X90195400Y-42554108D01*
X90195400Y-42554108D02*
X90195400Y-35225400D01*
%TO.N,Net-(J2-Pad15)*%
X87630000Y-44090000D02*
X86334600Y-42794600D01*
X86334600Y-42794600D02*
X86334600Y-33955400D01*
X86334600Y-33955400D02*
X87630000Y-32660000D01*
%TO.N,Net-(J2-Pad16)*%
X87604600Y-42503308D02*
X87604600Y-35225400D01*
X88734000Y-43632708D02*
X87604600Y-42503308D01*
X88734000Y-45526000D02*
X88734000Y-43632708D01*
X87630000Y-46630000D02*
X88734000Y-45526000D01*
%TO.N,Net-(J2-Pad17)*%
X83769200Y-42769200D02*
X83769200Y-33980800D01*
X85090000Y-44090000D02*
X83769200Y-42769200D01*
X83769200Y-33980800D02*
X85090000Y-32660000D01*
%TO.N,Net-(J2-Pad18)*%
X85090000Y-46630000D02*
X86194000Y-45526000D01*
X85115400Y-42554108D02*
X85115400Y-35225400D01*
X86194000Y-45526000D02*
X86194000Y-43632708D01*
X86194000Y-43632708D02*
X85115400Y-42554108D01*
%TO.N,Net-(J2-Pad19)*%
X82550000Y-44090000D02*
X81305400Y-42845400D01*
X81305400Y-33904600D02*
X82550000Y-32660000D01*
X81305400Y-42845400D02*
X81305400Y-33904600D01*
%TO.N,Net-(J2-Pad20)*%
X83654000Y-45526000D02*
X83654000Y-43632708D01*
X82550000Y-46630000D02*
X83654000Y-45526000D01*
X83654000Y-43632708D02*
X82575400Y-42554108D01*
X82575400Y-42554108D02*
X82575400Y-35225400D01*
%TO.N,Net-(J2-Pad21)*%
X78765400Y-33904600D02*
X80010000Y-32660000D01*
X78765400Y-42845400D02*
X78765400Y-33904600D01*
X80010000Y-44090000D02*
X78765400Y-42845400D01*
%TO.N,Net-(J2-Pad22)*%
X80010000Y-46630000D02*
X81114000Y-45526000D01*
X81114000Y-45526000D02*
X81114000Y-43632708D01*
X81114000Y-43632708D02*
X80060800Y-42579508D01*
X80060800Y-42579508D02*
X80060800Y-35250800D01*
%TO.N,Net-(J2-Pad23)*%
X77470000Y-44090000D02*
X76276200Y-42896200D01*
X76276200Y-33853800D02*
X77470000Y-32660000D01*
X76276200Y-42896200D02*
X76276200Y-33853800D01*
%TO.N,Net-(J2-Pad24)*%
X77495400Y-42554108D02*
X77495400Y-35225400D01*
X78574000Y-43632708D02*
X77495400Y-42554108D01*
X77470000Y-46630000D02*
X78574000Y-45526000D01*
X78574000Y-45526000D02*
X78574000Y-43632708D01*
%TO.N,Net-(J2-Pad25)*%
X73634600Y-33955400D02*
X74930000Y-32660000D01*
X73634600Y-42794600D02*
X73634600Y-33955400D01*
X74930000Y-44090000D02*
X73634600Y-42794600D01*
%TO.N,Net-(J2-Pad26)*%
X76034000Y-45526000D02*
X76034000Y-43632708D01*
X74980800Y-42579508D02*
X74980800Y-35250800D01*
X74930000Y-46630000D02*
X76034000Y-45526000D01*
X76034000Y-43632708D02*
X74980800Y-42579508D01*
%TO.N,Net-(J2-Pad27)*%
X71094600Y-33955400D02*
X72390000Y-32660000D01*
X72390000Y-44090000D02*
X71094600Y-42794600D01*
X71094600Y-42794600D02*
X71094600Y-33955400D01*
%TO.N,Net-(J2-Pad28)*%
X73494000Y-43632708D02*
X72440800Y-42579508D01*
X72440800Y-42579508D02*
X72440800Y-35250800D01*
X73494000Y-45526000D02*
X73494000Y-43632708D01*
X72390000Y-46630000D02*
X73494000Y-45526000D01*
%TO.N,Net-(J2-Pad29)*%
X68630800Y-42870800D02*
X68630800Y-33879200D01*
X68630800Y-33879200D02*
X69850000Y-32660000D01*
X69850000Y-44090000D02*
X68630800Y-42870800D01*
%TO.N,Net-(J2-Pad30)*%
X69875400Y-42554108D02*
X69875400Y-35225400D01*
X69850000Y-46630000D02*
X70954000Y-45526000D01*
X70954000Y-43632708D02*
X69875400Y-42554108D01*
X70954000Y-45526000D02*
X70954000Y-43632708D01*
%TO.N,Net-(J2-Pad31)*%
X66192400Y-33777600D02*
X67310000Y-32660000D01*
X66192400Y-42972400D02*
X66192400Y-33777600D01*
X67310000Y-44090000D02*
X66192400Y-42972400D01*
%TO.N,Net-(J2-Pad32)*%
X67335400Y-42554108D02*
X67335400Y-35225400D01*
X67310000Y-46630000D02*
X68414000Y-45526000D01*
X68414000Y-45526000D02*
X68414000Y-43632708D01*
X68414000Y-43632708D02*
X67335400Y-42554108D01*
D24*
%TO.N,Net-(J2-Pad39)*%
X37465000Y-17780000D02*
X41992133Y-17780000D01*
X32994600Y-22250400D02*
X37465000Y-17780000D01*
X44532133Y-20320000D02*
X48260000Y-20320000D01*
X55829200Y-42769200D02*
X57150000Y-44090000D01*
X32994600Y-25425400D02*
X32994600Y-22250400D01*
X55829200Y-27889200D02*
X55829200Y-42769200D01*
X48260000Y-20320000D02*
X55829200Y-27889200D01*
X31750000Y-26670000D02*
X32994600Y-25425400D01*
X41992133Y-17780000D02*
X44532133Y-20320000D01*
D25*
%TO.N,Net-(J3-Pad1)*%
X88773000Y-50088800D02*
X92710000Y-54025800D01*
X46975000Y-29210000D02*
X48133000Y-29210000D01*
X51536600Y-32613600D02*
X51536600Y-46431200D01*
X51536600Y-46431200D02*
X55194200Y-50088800D01*
X48133000Y-29210000D02*
X51536600Y-32613600D01*
X55194200Y-50088800D02*
X88773000Y-50088800D01*
%TO.N,Net-(J3-Pad2)*%
X36499800Y-26060400D02*
X38379400Y-27940000D01*
X38150800Y-19050000D02*
X36499800Y-20701000D01*
X93726000Y-55397400D02*
X91522400Y-55397400D01*
X94081600Y-55041800D02*
X93726000Y-55397400D01*
X91522400Y-55397400D02*
X90170000Y-54045000D01*
X94081600Y-52959000D02*
X94081600Y-55041800D01*
X52654200Y-32359600D02*
X52654200Y-46482000D01*
X48234600Y-27940000D02*
X52654200Y-32359600D01*
X39355000Y-19050000D02*
X38150800Y-19050000D01*
X36499800Y-20701000D02*
X36499800Y-26060400D01*
X52654200Y-46482000D02*
X55727600Y-49555400D01*
X55727600Y-49555400D02*
X90678000Y-49555400D01*
X90678000Y-49555400D02*
X94081600Y-52959000D01*
X38379400Y-27940000D02*
X48234600Y-27940000D01*
%TO.N,Net-(J3-Pad3)*%
X54532802Y-50722802D02*
X50330100Y-46520100D01*
X44450000Y-29210000D02*
X39355000Y-29210000D01*
X47828200Y-30480000D02*
X45720000Y-30480000D01*
X50330100Y-32981900D02*
X47828200Y-30480000D01*
X50330100Y-46520100D02*
X50330100Y-32981900D01*
X87630000Y-54045000D02*
X84307802Y-50722802D01*
X45720000Y-30480000D02*
X44450000Y-29210000D01*
X84307802Y-50722802D02*
X54532802Y-50722802D01*
%TO.N,Net-(J3-Pad4)*%
X94691200Y-52552600D02*
X94691200Y-55270400D01*
X87128200Y-56083200D02*
X85090000Y-54045000D01*
X53695600Y-30861000D02*
X53695600Y-46456600D01*
X94691200Y-55270400D02*
X93878400Y-56083200D01*
X53695600Y-46456600D02*
X56210200Y-48971200D01*
X93878400Y-56083200D02*
X87128200Y-56083200D01*
X43139600Y-25374600D02*
X48209200Y-25374600D01*
X48209200Y-25374600D02*
X53695600Y-30861000D01*
X91109800Y-48971200D02*
X94691200Y-52552600D01*
X39355000Y-21590000D02*
X43139600Y-25374600D01*
X56210200Y-48971200D02*
X91109800Y-48971200D01*
%TO.N,Net-(J3-Pad5)*%
X95326200Y-52273200D02*
X95326200Y-55448200D01*
X42900600Y-22910800D02*
X48310800Y-22910800D01*
X95326200Y-55448200D02*
X94107000Y-56667400D01*
X91389200Y-48336200D02*
X95326200Y-52273200D01*
X40436800Y-20447000D02*
X42900600Y-22910800D01*
X39355000Y-26670000D02*
X37566600Y-24881600D01*
X48310800Y-22910800D02*
X54762400Y-29362400D01*
X37566600Y-24881600D02*
X37566600Y-21285200D01*
X56591200Y-48336200D02*
X91389200Y-48336200D01*
X54762400Y-29362400D02*
X54762400Y-46507400D01*
X94107000Y-56667400D02*
X85172400Y-56667400D01*
X37566600Y-21285200D02*
X38404800Y-20447000D01*
X85172400Y-56667400D02*
X82550000Y-54045000D01*
X38404800Y-20447000D02*
X40436800Y-20447000D01*
X54762400Y-46507400D02*
X56591200Y-48336200D01*
%TO.N,Net-(J3-Pad6)*%
X67030600Y-54610000D02*
X68402200Y-55981600D01*
X76885800Y-52755800D02*
X78720800Y-52755800D01*
X46990000Y-54610000D02*
X67030600Y-54610000D01*
X68402200Y-55981600D02*
X75082400Y-55981600D01*
X76149200Y-53492400D02*
X76885800Y-52755800D01*
X78720800Y-52755800D02*
X80010000Y-54045000D01*
X76149200Y-54914800D02*
X76149200Y-53492400D01*
X75082400Y-55981600D02*
X76149200Y-54914800D01*
%TO.N,Net-(J3-Pad7)*%
X80543400Y-55473600D02*
X78898600Y-55473600D01*
X79222600Y-51358800D02*
X81280000Y-53416200D01*
X54102000Y-51358800D02*
X79222600Y-51358800D01*
X40640000Y-45720000D02*
X48463200Y-45720000D01*
X39370000Y-44450000D02*
X40640000Y-45720000D01*
X81280000Y-53416200D02*
X81280000Y-54737000D01*
X81280000Y-54737000D02*
X80543400Y-55473600D01*
X48463200Y-45720000D02*
X54102000Y-51358800D01*
X78898600Y-55473600D02*
X77470000Y-54045000D01*
%TO.N,Net-(J3-Pad8)*%
X67081400Y-53416200D02*
X69011800Y-55346600D01*
X40563800Y-53416200D02*
X67081400Y-53416200D01*
X73628400Y-55346600D02*
X74930000Y-54045000D01*
X39370000Y-54610000D02*
X40563800Y-53416200D01*
X69011800Y-55346600D02*
X73628400Y-55346600D01*
%TO.N,Net-(J3-Pad9)*%
X53492400Y-51892200D02*
X70237200Y-51892200D01*
X40640000Y-48260000D02*
X49860200Y-48260000D01*
X49860200Y-48260000D02*
X53492400Y-51892200D01*
X39370000Y-46990000D02*
X40640000Y-48260000D01*
X70237200Y-51892200D02*
X72390000Y-54045000D01*
%TO.N,Net-(J3-Pad10)*%
X29133800Y-50876200D02*
X51206400Y-50876200D01*
X27940000Y-52070000D02*
X29133800Y-50876200D01*
X51206400Y-50876200D02*
X52882800Y-52552600D01*
X52882800Y-52552600D02*
X68357600Y-52552600D01*
X68357600Y-52552600D02*
X69850000Y-54045000D01*
D24*
%TO.N,+1V5*%
X36880800Y-17094200D02*
X31750000Y-22225000D01*
X57150000Y-27030000D02*
X54250000Y-24130000D01*
X31750000Y-22225000D02*
X31750000Y-24130000D01*
X54250000Y-23973200D02*
X47371000Y-17094200D01*
X47371000Y-17094200D02*
X36880800Y-17094200D01*
X57150000Y-32660000D02*
X57150000Y-27030000D01*
%TO.N,Net-(Q1-Pad1)*%
X36271200Y-16433800D02*
X30480000Y-22225000D01*
X51633800Y-16433800D02*
X36271200Y-16433800D01*
X30480000Y-22225000D02*
X30480000Y-27940000D01*
X54250000Y-19050000D02*
X51633800Y-16433800D01*
X30480000Y-27940000D02*
X31750000Y-29210000D01*
%TD*%
M02*
