%TF.GenerationSoftware,KiCad,Pcbnew,(6.0.6)*%
%TF.CreationDate,2022-08-14T19:07:44-04:00*%
%TF.ProjectId,button_presser,62757474-6f6e-45f7-9072-65737365722e,rev?*%
%TF.SameCoordinates,Original*%
%TF.FileFunction,Soldermask,Top*%
%TF.FilePolarity,Negative*%
%FSLAX46Y46*%
G04 Gerber Fmt 4.6, Leading zero omitted, Abs format (unit mm)*
G04 Created by KiCad (PCBNEW (6.0.6)) date 2022-08-14 19:07:44*
%MOMM*%
%LPD*%
G01*
G04 APERTURE LIST*
G04 Aperture macros list*
%AMRoundRect*
0 Rectangle with rounded corners*
0 $1 Rounding radius*
0 $2 $3 $4 $5 $6 $7 $8 $9 X,Y pos of 4 corners*
0 Add a 4 corners polygon primitive as box body*
4,1,4,$2,$3,$4,$5,$6,$7,$8,$9,$2,$3,0*
0 Add four circle primitives for the rounded corners*
1,1,$1+$1,$2,$3*
1,1,$1+$1,$4,$5*
1,1,$1+$1,$6,$7*
1,1,$1+$1,$8,$9*
0 Add four rect primitives between the rounded corners*
20,1,$1+$1,$2,$3,$4,$5,0*
20,1,$1+$1,$4,$5,$6,$7,0*
20,1,$1+$1,$6,$7,$8,$9,0*
20,1,$1+$1,$8,$9,$2,$3,0*%
G04 Aperture macros list end*
%ADD10R,2.400000X1.600000*%
%ADD11O,2.400000X1.600000*%
%ADD12C,0.900000*%
%ADD13C,10.000000*%
%ADD14RoundRect,0.250000X-0.600000X-0.600000X0.600000X-0.600000X0.600000X0.600000X-0.600000X0.600000X0*%
%ADD15C,1.700000*%
%ADD16C,2.400000*%
%ADD17O,2.400000X2.400000*%
%ADD18C,1.600000*%
%ADD19R,1.500000X1.500000*%
%ADD20C,1.500000*%
%ADD21R,1.700000X1.700000*%
%ADD22O,1.700000X1.700000*%
%ADD23RoundRect,0.250000X-0.600000X0.600000X-0.600000X-0.600000X0.600000X-0.600000X0.600000X0.600000X0*%
G04 APERTURE END LIST*
D10*
%TO.C,U3*%
X27940000Y-44450000D03*
D11*
X27940000Y-46990000D03*
X27940000Y-49530000D03*
X27940000Y-52070000D03*
X27940000Y-54610000D03*
X27940000Y-57150000D03*
X27940000Y-59690000D03*
X27940000Y-62230000D03*
X35560000Y-62230000D03*
X35560000Y-59690000D03*
X35560000Y-57150000D03*
X35560000Y-54610000D03*
X35560000Y-52070000D03*
X35560000Y-49530000D03*
X35560000Y-46990000D03*
X35560000Y-44450000D03*
%TD*%
D10*
%TO.C,U1*%
X39355000Y-19050000D03*
D11*
X39355000Y-21590000D03*
X39355000Y-24130000D03*
X39355000Y-26670000D03*
X39355000Y-29210000D03*
X39355000Y-31750000D03*
X39355000Y-34290000D03*
X39355000Y-36830000D03*
X46975000Y-36830000D03*
X46975000Y-34290000D03*
X46975000Y-31750000D03*
X46975000Y-29210000D03*
X46975000Y-26670000D03*
X46975000Y-24130000D03*
X46975000Y-21590000D03*
X46975000Y-19050000D03*
%TD*%
D12*
%TO.C,H2*%
X104028350Y-62341650D03*
X109331650Y-62341650D03*
X106680000Y-55940000D03*
X109331650Y-57038350D03*
X106680000Y-63440000D03*
X110430000Y-59690000D03*
D13*
X106680000Y-59690000D03*
D12*
X104028350Y-57038350D03*
X102930000Y-59690000D03*
%TD*%
D14*
%TO.C,J1*%
X17780000Y-30480000D03*
D15*
X20320000Y-30480000D03*
X17780000Y-33020000D03*
X20320000Y-33020000D03*
X17780000Y-35560000D03*
X20320000Y-35560000D03*
X17780000Y-38100000D03*
X20320000Y-38100000D03*
X17780000Y-40640000D03*
X20320000Y-40640000D03*
X17780000Y-43180000D03*
X20320000Y-43180000D03*
X17780000Y-45720000D03*
X20320000Y-45720000D03*
X17780000Y-48260000D03*
X20320000Y-48260000D03*
%TD*%
D16*
%TO.C,R2*%
X59690000Y-18211800D03*
D17*
X74930000Y-18211800D03*
%TD*%
D18*
%TO.C,C2*%
X41910000Y-40640000D03*
X44410000Y-40640000D03*
%TD*%
D19*
%TO.C,Q1*%
X54250000Y-19050000D03*
D20*
X54250000Y-21590000D03*
X54250000Y-24130000D03*
%TD*%
D21*
%TO.C,SW1*%
X31750000Y-29210000D03*
D22*
X31750000Y-26670000D03*
X31750000Y-24130000D03*
%TD*%
D18*
%TO.C,C3*%
X30480000Y-40640000D03*
X32980000Y-40640000D03*
%TD*%
D16*
%TO.C,R1*%
X59690000Y-25400000D03*
D17*
X74930000Y-25400000D03*
%TD*%
D23*
%TO.C,J4*%
X105410000Y-32660000D03*
D15*
X105410000Y-35200000D03*
X102870000Y-32660000D03*
X102870000Y-35200000D03*
X100330000Y-32660000D03*
X100330000Y-35200000D03*
X97790000Y-32660000D03*
X97790000Y-35200000D03*
X95250000Y-32660000D03*
X95250000Y-35200000D03*
X92710000Y-32660000D03*
X92710000Y-35200000D03*
X90170000Y-32660000D03*
X90170000Y-35200000D03*
X87630000Y-32660000D03*
X87630000Y-35200000D03*
X85090000Y-32660000D03*
X85090000Y-35200000D03*
X82550000Y-32660000D03*
X82550000Y-35200000D03*
X80010000Y-32660000D03*
X80010000Y-35200000D03*
X77470000Y-32660000D03*
X77470000Y-35200000D03*
X74930000Y-32660000D03*
X74930000Y-35200000D03*
X72390000Y-32660000D03*
X72390000Y-35200000D03*
X69850000Y-32660000D03*
X69850000Y-35200000D03*
X67310000Y-32660000D03*
X67310000Y-35200000D03*
X64770000Y-32660000D03*
X64770000Y-35200000D03*
X62230000Y-32660000D03*
X62230000Y-35200000D03*
X59690000Y-32660000D03*
X59690000Y-35200000D03*
X57150000Y-32660000D03*
X57150000Y-35200000D03*
%TD*%
D10*
%TO.C,U2*%
X39370000Y-44450000D03*
D11*
X39370000Y-46990000D03*
X39370000Y-49530000D03*
X39370000Y-52070000D03*
X39370000Y-54610000D03*
X39370000Y-57150000D03*
X39370000Y-59690000D03*
X39370000Y-62230000D03*
X46990000Y-62230000D03*
X46990000Y-59690000D03*
X46990000Y-57150000D03*
X46990000Y-54610000D03*
X46990000Y-52070000D03*
X46990000Y-49530000D03*
X46990000Y-46990000D03*
X46990000Y-44450000D03*
%TD*%
D18*
%TO.C,C1*%
X44410000Y-15240000D03*
X41910000Y-15240000D03*
%TD*%
D12*
%TO.C,H1*%
X106680000Y-22800000D03*
X102930000Y-19050000D03*
D13*
X106680000Y-19050000D03*
D12*
X106680000Y-15300000D03*
X104028350Y-21701650D03*
X110430000Y-19050000D03*
X104028350Y-16398350D03*
X109331650Y-16398350D03*
X109331650Y-21701650D03*
%TD*%
D21*
%TO.C,J3*%
X92710000Y-54045000D03*
D22*
X90170000Y-54045000D03*
X87630000Y-54045000D03*
X85090000Y-54045000D03*
X82550000Y-54045000D03*
X80010000Y-54045000D03*
X77470000Y-54045000D03*
X74930000Y-54045000D03*
X72390000Y-54045000D03*
X69850000Y-54045000D03*
%TD*%
D23*
%TO.C,J2*%
X105410000Y-44090000D03*
D15*
X105410000Y-46630000D03*
X102870000Y-44090000D03*
X102870000Y-46630000D03*
X100330000Y-44090000D03*
X100330000Y-46630000D03*
X97790000Y-44090000D03*
X97790000Y-46630000D03*
X95250000Y-44090000D03*
X95250000Y-46630000D03*
X92710000Y-44090000D03*
X92710000Y-46630000D03*
X90170000Y-44090000D03*
X90170000Y-46630000D03*
X87630000Y-44090000D03*
X87630000Y-46630000D03*
X85090000Y-44090000D03*
X85090000Y-46630000D03*
X82550000Y-44090000D03*
X82550000Y-46630000D03*
X80010000Y-44090000D03*
X80010000Y-46630000D03*
X77470000Y-44090000D03*
X77470000Y-46630000D03*
X74930000Y-44090000D03*
X74930000Y-46630000D03*
X72390000Y-44090000D03*
X72390000Y-46630000D03*
X69850000Y-44090000D03*
X69850000Y-46630000D03*
X67310000Y-44090000D03*
X67310000Y-46630000D03*
X64770000Y-44090000D03*
X64770000Y-46630000D03*
X62230000Y-44090000D03*
X62230000Y-46630000D03*
X59690000Y-44090000D03*
X59690000Y-46630000D03*
X57150000Y-44090000D03*
X57150000Y-46630000D03*
%TD*%
D12*
%TO.C,H3*%
X16398350Y-21701650D03*
D13*
X19050000Y-19050000D03*
D12*
X19050000Y-22800000D03*
X15300000Y-19050000D03*
X21701650Y-21701650D03*
X16398350Y-16398350D03*
X19050000Y-15300000D03*
X22800000Y-19050000D03*
X21701650Y-16398350D03*
%TD*%
%TO.C,H4*%
X22800000Y-59690000D03*
X21701650Y-62341650D03*
D13*
X19050000Y-59690000D03*
D12*
X16398350Y-62341650D03*
X21701650Y-57038350D03*
X16398350Y-57038350D03*
X19050000Y-55940000D03*
X19050000Y-63440000D03*
X15300000Y-59690000D03*
%TD*%
M02*
