%TF.GenerationSoftware,KiCad,Pcbnew,(6.0.6)*%
%TF.CreationDate,2022-08-14T22:29:33-04:00*%
%TF.ProjectId,raspberry_pi_wiring_harness,72617370-6265-4727-9279-5f70695f7769,rev?*%
%TF.SameCoordinates,Original*%
%TF.FileFunction,Soldermask,Top*%
%TF.FilePolarity,Negative*%
%FSLAX46Y46*%
G04 Gerber Fmt 4.6, Leading zero omitted, Abs format (unit mm)*
G04 Created by KiCad (PCBNEW (6.0.6)) date 2022-08-14 22:29:33*
%MOMM*%
%LPD*%
G01*
G04 APERTURE LIST*
G04 Aperture macros list*
%AMRoundRect*
0 Rectangle with rounded corners*
0 $1 Rounding radius*
0 $2 $3 $4 $5 $6 $7 $8 $9 X,Y pos of 4 corners*
0 Add a 4 corners polygon primitive as box body*
4,1,4,$2,$3,$4,$5,$6,$7,$8,$9,$2,$3,0*
0 Add four circle primitives for the rounded corners*
1,1,$1+$1,$2,$3*
1,1,$1+$1,$4,$5*
1,1,$1+$1,$6,$7*
1,1,$1+$1,$8,$9*
0 Add four rect primitives between the rounded corners*
20,1,$1+$1,$2,$3,$4,$5,0*
20,1,$1+$1,$4,$5,$6,$7,0*
20,1,$1+$1,$6,$7,$8,$9,0*
20,1,$1+$1,$8,$9,$2,$3,0*%
G04 Aperture macros list end*
%ADD10C,1.440000*%
%ADD11RoundRect,0.250000X-0.600000X0.600000X-0.600000X-0.600000X0.600000X-0.600000X0.600000X0.600000X0*%
%ADD12C,1.700000*%
%ADD13RoundRect,0.250000X-0.600000X-0.600000X0.600000X-0.600000X0.600000X0.600000X-0.600000X0.600000X0*%
%ADD14R,3.000000X3.000000*%
%ADD15C,3.000000*%
%ADD16C,0.900000*%
%ADD17C,10.000000*%
%ADD18R,1.800000X2.600000*%
%ADD19O,1.800000X2.600000*%
G04 APERTURE END LIST*
D10*
%TO.C,RV1*%
X126200000Y-55080000D03*
X126200000Y-57620000D03*
X126200000Y-60160000D03*
%TD*%
D11*
%TO.C,J5*%
X108420000Y-57620000D03*
D12*
X108420000Y-60160000D03*
X105880000Y-57620000D03*
X105880000Y-60160000D03*
X103340000Y-57620000D03*
X103340000Y-60160000D03*
X100800000Y-57620000D03*
X100800000Y-60160000D03*
X98260000Y-57620000D03*
X98260000Y-60160000D03*
X95720000Y-57620000D03*
X95720000Y-60160000D03*
X93180000Y-57620000D03*
X93180000Y-60160000D03*
X90640000Y-57620000D03*
X90640000Y-60160000D03*
%TD*%
D13*
%TO.C,J4*%
X140687500Y-74130000D03*
D12*
X143227500Y-74130000D03*
X140687500Y-76670000D03*
X143227500Y-76670000D03*
X140687500Y-79210000D03*
X143227500Y-79210000D03*
X140687500Y-81750000D03*
X143227500Y-81750000D03*
X140687500Y-84290000D03*
X143227500Y-84290000D03*
X140687500Y-86830000D03*
X143227500Y-86830000D03*
X140687500Y-89370000D03*
X143227500Y-89370000D03*
X140687500Y-91910000D03*
X143227500Y-91910000D03*
%TD*%
D14*
%TO.C,J3*%
X72072600Y-56197600D03*
D15*
X77152600Y-56197600D03*
%TD*%
D11*
%TO.C,J2*%
X123660000Y-126200000D03*
D12*
X123660000Y-128740000D03*
X121120000Y-126200000D03*
X121120000Y-128740000D03*
X118580000Y-126200000D03*
X118580000Y-128740000D03*
X116040000Y-126200000D03*
X116040000Y-128740000D03*
X113500000Y-126200000D03*
X113500000Y-128740000D03*
X110960000Y-126200000D03*
X110960000Y-128740000D03*
X108420000Y-126200000D03*
X108420000Y-128740000D03*
X105880000Y-126200000D03*
X105880000Y-128740000D03*
X103340000Y-126200000D03*
X103340000Y-128740000D03*
X100800000Y-126200000D03*
X100800000Y-128740000D03*
X98260000Y-126200000D03*
X98260000Y-128740000D03*
X95720000Y-126200000D03*
X95720000Y-128740000D03*
X93180000Y-126200000D03*
X93180000Y-128740000D03*
X90640000Y-126200000D03*
X90640000Y-128740000D03*
X88100000Y-126200000D03*
X88100000Y-128740000D03*
X85560000Y-126200000D03*
X85560000Y-128740000D03*
X83020000Y-126200000D03*
X83020000Y-128740000D03*
X80480000Y-126200000D03*
X80480000Y-128740000D03*
X77940000Y-126200000D03*
X77940000Y-128740000D03*
X75400000Y-126200000D03*
X75400000Y-128740000D03*
%TD*%
D11*
%TO.C,J1*%
X123660000Y-113500000D03*
D12*
X123660000Y-116040000D03*
X121120000Y-113500000D03*
X121120000Y-116040000D03*
X118580000Y-113500000D03*
X118580000Y-116040000D03*
X116040000Y-113500000D03*
X116040000Y-116040000D03*
X113500000Y-113500000D03*
X113500000Y-116040000D03*
X110960000Y-113500000D03*
X110960000Y-116040000D03*
X108420000Y-113500000D03*
X108420000Y-116040000D03*
X105880000Y-113500000D03*
X105880000Y-116040000D03*
X103340000Y-113500000D03*
X103340000Y-116040000D03*
X100800000Y-113500000D03*
X100800000Y-116040000D03*
X98260000Y-113500000D03*
X98260000Y-116040000D03*
X95720000Y-113500000D03*
X95720000Y-116040000D03*
X93180000Y-113500000D03*
X93180000Y-116040000D03*
X90640000Y-113500000D03*
X90640000Y-116040000D03*
X88100000Y-113500000D03*
X88100000Y-116040000D03*
X85560000Y-113500000D03*
X85560000Y-116040000D03*
X83020000Y-113500000D03*
X83020000Y-116040000D03*
X80480000Y-113500000D03*
X80480000Y-116040000D03*
X77940000Y-113500000D03*
X77940000Y-116040000D03*
X75400000Y-113500000D03*
X75400000Y-116040000D03*
%TD*%
D16*
%TO.C,H4*%
X57620000Y-132490000D03*
X57620000Y-124990000D03*
X60271650Y-126088350D03*
X53870000Y-128740000D03*
D17*
X57620000Y-128740000D03*
D16*
X61370000Y-128740000D03*
X54968350Y-126088350D03*
X60271650Y-131391650D03*
X54968350Y-131391650D03*
%TD*%
%TO.C,H3*%
X57620000Y-61370000D03*
X57620000Y-53870000D03*
X60271650Y-54968350D03*
X53870000Y-57620000D03*
D17*
X57620000Y-57620000D03*
D16*
X61370000Y-57620000D03*
X54968350Y-54968350D03*
X60271650Y-60271650D03*
X54968350Y-60271650D03*
%TD*%
%TO.C,H2*%
X141440000Y-132490000D03*
X141440000Y-124990000D03*
X144091650Y-126088350D03*
X137690000Y-128740000D03*
D17*
X141440000Y-128740000D03*
D16*
X145190000Y-128740000D03*
X138788350Y-126088350D03*
X144091650Y-131391650D03*
X138788350Y-131391650D03*
%TD*%
%TO.C,H1*%
X141440000Y-61370000D03*
X141440000Y-53870000D03*
X144091650Y-54968350D03*
X137690000Y-57620000D03*
D17*
X141440000Y-57620000D03*
D16*
X145190000Y-57620000D03*
X138788350Y-54968350D03*
X144091650Y-60271650D03*
X138788350Y-60271650D03*
%TD*%
D15*
%TO.C,DS1*%
X130679480Y-101203200D03*
X55680900Y-70202500D03*
X55680900Y-101203200D03*
X130680000Y-70202500D03*
D18*
X61180000Y-70202500D03*
D19*
X63720000Y-70202500D03*
X66260000Y-70202500D03*
X68800000Y-70202500D03*
X71340000Y-70202500D03*
X73880000Y-70202500D03*
X76420000Y-70202500D03*
X78960000Y-70202500D03*
X81500000Y-70202500D03*
X84040000Y-70202500D03*
X86580000Y-70202500D03*
X89120000Y-70202500D03*
X91660000Y-70202500D03*
X94200000Y-70202500D03*
X96740000Y-70202500D03*
X99280000Y-70202500D03*
%TD*%
G36*
X126205294Y-59433472D02*
G01*
X126365689Y-59452598D01*
X126366123Y-59452700D01*
X126518299Y-59506887D01*
X126518700Y-59507082D01*
X126655084Y-59593634D01*
X126655431Y-59593914D01*
X126769251Y-59708532D01*
X126769528Y-59708881D01*
X126855127Y-59845867D01*
X126855320Y-59846269D01*
X126908443Y-59998819D01*
X126908542Y-59999254D01*
X126926877Y-60162714D01*
X126926889Y-60162965D01*
X126926689Y-60177333D01*
X126926670Y-60177583D01*
X126903778Y-60340466D01*
X126903667Y-60340898D01*
X126846304Y-60491907D01*
X126846100Y-60492304D01*
X126756714Y-60626841D01*
X126756427Y-60627182D01*
X126639445Y-60738582D01*
X126639090Y-60738852D01*
X126500341Y-60821563D01*
X126499935Y-60821747D01*
X126346312Y-60871663D01*
X126345875Y-60871753D01*
X126185008Y-60886393D01*
X126184562Y-60886383D01*
X126024448Y-60865019D01*
X126024016Y-60864912D01*
X125872614Y-60808607D01*
X125872216Y-60808406D01*
X125737056Y-60719959D01*
X125736712Y-60719674D01*
X125624499Y-60603474D01*
X125624227Y-60603121D01*
X125540552Y-60464957D01*
X125540365Y-60464552D01*
X125489376Y-60311275D01*
X125489284Y-60310839D01*
X125473522Y-60150078D01*
X125473524Y-60149913D01*
X125477527Y-60149913D01*
X125493245Y-60310223D01*
X125544091Y-60463073D01*
X125627537Y-60600857D01*
X125739433Y-60716728D01*
X125874221Y-60804931D01*
X126025204Y-60861082D01*
X126184866Y-60882385D01*
X126345289Y-60867785D01*
X126498485Y-60818009D01*
X126636851Y-60735527D01*
X126753498Y-60624445D01*
X126842642Y-60490273D01*
X126899843Y-60339690D01*
X126922276Y-60180076D01*
X126922554Y-60160100D01*
X126904587Y-59999921D01*
X126851612Y-59847798D01*
X126766252Y-59711193D01*
X126652752Y-59596897D01*
X126516739Y-59510581D01*
X126364994Y-59456548D01*
X126205043Y-59437475D01*
X126044844Y-59454312D01*
X125892355Y-59506223D01*
X125755159Y-59590627D01*
X125640068Y-59703331D01*
X125552809Y-59838732D01*
X125497716Y-59990098D01*
X125477527Y-60149913D01*
X125473524Y-60149913D01*
X125473528Y-60149632D01*
X125493772Y-59989376D01*
X125493877Y-59988943D01*
X125549125Y-59837149D01*
X125549323Y-59836750D01*
X125636825Y-59700975D01*
X125637107Y-59700629D01*
X125752517Y-59587611D01*
X125752868Y-59587337D01*
X125890451Y-59502696D01*
X125890854Y-59502506D01*
X126043768Y-59450449D01*
X126044204Y-59450353D01*
X126204848Y-59433469D01*
X126205294Y-59433472D01*
G37*
G36*
X126205294Y-56893472D02*
G01*
X126365689Y-56912598D01*
X126366123Y-56912700D01*
X126518299Y-56966887D01*
X126518700Y-56967082D01*
X126655084Y-57053634D01*
X126655431Y-57053914D01*
X126769251Y-57168532D01*
X126769528Y-57168881D01*
X126855127Y-57305867D01*
X126855320Y-57306269D01*
X126908443Y-57458819D01*
X126908542Y-57459254D01*
X126926877Y-57622714D01*
X126926889Y-57622965D01*
X126926689Y-57637333D01*
X126926670Y-57637583D01*
X126903778Y-57800466D01*
X126903667Y-57800898D01*
X126846304Y-57951907D01*
X126846100Y-57952304D01*
X126756714Y-58086841D01*
X126756427Y-58087182D01*
X126639445Y-58198582D01*
X126639090Y-58198852D01*
X126500341Y-58281563D01*
X126499935Y-58281747D01*
X126346312Y-58331663D01*
X126345875Y-58331753D01*
X126185008Y-58346393D01*
X126184562Y-58346383D01*
X126024448Y-58325019D01*
X126024016Y-58324912D01*
X125872614Y-58268607D01*
X125872216Y-58268406D01*
X125737056Y-58179959D01*
X125736712Y-58179674D01*
X125624499Y-58063474D01*
X125624227Y-58063121D01*
X125540552Y-57924957D01*
X125540365Y-57924552D01*
X125489376Y-57771275D01*
X125489284Y-57770839D01*
X125473522Y-57610078D01*
X125473524Y-57609913D01*
X125477527Y-57609913D01*
X125493245Y-57770223D01*
X125544091Y-57923073D01*
X125627537Y-58060857D01*
X125739433Y-58176728D01*
X125874221Y-58264931D01*
X126025204Y-58321082D01*
X126184866Y-58342385D01*
X126345289Y-58327785D01*
X126498485Y-58278009D01*
X126636851Y-58195527D01*
X126753498Y-58084445D01*
X126842642Y-57950273D01*
X126899843Y-57799690D01*
X126922276Y-57640076D01*
X126922554Y-57620100D01*
X126904587Y-57459921D01*
X126851612Y-57307798D01*
X126766252Y-57171193D01*
X126652752Y-57056897D01*
X126516739Y-56970581D01*
X126364994Y-56916548D01*
X126205043Y-56897475D01*
X126044844Y-56914312D01*
X125892355Y-56966223D01*
X125755159Y-57050627D01*
X125640068Y-57163331D01*
X125552809Y-57298732D01*
X125497716Y-57450098D01*
X125477527Y-57609913D01*
X125473524Y-57609913D01*
X125473528Y-57609632D01*
X125493772Y-57449376D01*
X125493877Y-57448943D01*
X125549125Y-57297149D01*
X125549323Y-57296750D01*
X125636825Y-57160975D01*
X125637107Y-57160629D01*
X125752517Y-57047611D01*
X125752868Y-57047337D01*
X125890451Y-56962696D01*
X125890854Y-56962506D01*
X126043768Y-56910449D01*
X126044204Y-56910353D01*
X126204848Y-56893469D01*
X126205294Y-56893472D01*
G37*
G36*
X126205294Y-54353472D02*
G01*
X126365689Y-54372598D01*
X126366123Y-54372700D01*
X126518299Y-54426887D01*
X126518700Y-54427082D01*
X126655084Y-54513634D01*
X126655431Y-54513914D01*
X126769251Y-54628532D01*
X126769528Y-54628881D01*
X126855127Y-54765867D01*
X126855320Y-54766269D01*
X126908443Y-54918819D01*
X126908542Y-54919254D01*
X126926877Y-55082714D01*
X126926889Y-55082965D01*
X126926689Y-55097333D01*
X126926670Y-55097583D01*
X126903778Y-55260466D01*
X126903667Y-55260898D01*
X126846304Y-55411907D01*
X126846100Y-55412304D01*
X126756714Y-55546841D01*
X126756427Y-55547182D01*
X126639445Y-55658582D01*
X126639090Y-55658852D01*
X126500341Y-55741563D01*
X126499935Y-55741747D01*
X126346312Y-55791663D01*
X126345875Y-55791753D01*
X126185008Y-55806393D01*
X126184562Y-55806383D01*
X126024448Y-55785019D01*
X126024016Y-55784912D01*
X125872614Y-55728607D01*
X125872216Y-55728406D01*
X125737056Y-55639959D01*
X125736712Y-55639674D01*
X125624499Y-55523474D01*
X125624227Y-55523121D01*
X125540552Y-55384957D01*
X125540365Y-55384552D01*
X125489376Y-55231275D01*
X125489284Y-55230839D01*
X125473522Y-55070078D01*
X125473524Y-55069913D01*
X125477527Y-55069913D01*
X125493245Y-55230223D01*
X125544091Y-55383073D01*
X125627537Y-55520857D01*
X125739433Y-55636728D01*
X125874221Y-55724931D01*
X126025204Y-55781082D01*
X126184866Y-55802385D01*
X126345289Y-55787785D01*
X126498485Y-55738009D01*
X126636851Y-55655527D01*
X126753498Y-55544445D01*
X126842642Y-55410273D01*
X126899843Y-55259690D01*
X126922276Y-55100076D01*
X126922554Y-55080100D01*
X126904587Y-54919921D01*
X126851612Y-54767798D01*
X126766252Y-54631193D01*
X126652752Y-54516897D01*
X126516739Y-54430581D01*
X126364994Y-54376548D01*
X126205043Y-54357475D01*
X126044844Y-54374312D01*
X125892355Y-54426223D01*
X125755159Y-54510627D01*
X125640068Y-54623331D01*
X125552809Y-54758732D01*
X125497716Y-54910098D01*
X125477527Y-55069913D01*
X125473524Y-55069913D01*
X125473528Y-55069632D01*
X125493772Y-54909376D01*
X125493877Y-54908943D01*
X125549125Y-54757149D01*
X125549323Y-54756750D01*
X125636825Y-54620975D01*
X125637107Y-54620629D01*
X125752517Y-54507611D01*
X125752868Y-54507337D01*
X125890451Y-54422696D01*
X125890854Y-54422506D01*
X126043768Y-54370449D01*
X126044204Y-54370353D01*
X126204848Y-54353469D01*
X126205294Y-54353472D01*
G37*
M02*
