M48
; DRILL file {KiCad (6.0.6)} date Sun Aug 14 22:29:39 2022
; FORMAT={-:-/ absolute / inch / decimal}
; #@! TF.CreationDate,2022-08-14T22:29:39-04:00
; #@! TF.GenerationSoftware,Kicad,Pcbnew,(6.0.6)
; #@! TF.FileFunction,Plated,1,2,PTH
FMAT,2
INCH
; #@! TA.AperFunction,Plated,PTH,ViaDrill
T1C0.0118
; #@! TA.AperFunction,Plated,PTH,ComponentDrill
T2C0.0236
; #@! TA.AperFunction,Plated,PTH,ComponentDrill
T3C0.0315
; #@! TA.AperFunction,Plated,PTH,ComponentDrill
T4C0.0394
; #@! TA.AperFunction,Plated,PTH,ComponentDrill
T5C0.0472
; #@! TA.AperFunction,Plated,PTH,ComponentDrill
T6C0.0598
; #@! TA.AperFunction,Plated,PTH,ComponentDrill
T7C0.0984
; #@! TA.AperFunction,Plated,PTH,ComponentDrill
T8C0.1969
%
G90
G05
T1
X2.8697Y-4.7861
X2.8717Y-4.756
X3.45Y-4.387
X3.526Y-4.372
X3.5581Y-4.3495
X3.5764Y-4.3276
X3.663Y-3.764
X3.688Y-3.745
X3.743Y-3.838
X3.7637Y-3.8183
X4.009Y-3.474
X4.0186Y-3.5015
X4.029Y-3.53
X4.056Y-3.426
X4.072Y-3.451
X4.094Y-3.472
X4.2445Y-4.3445
X4.3025Y-4.3415
X4.65Y-4.241
X4.6693Y-4.267
X4.6886Y-4.242
X5.435Y-3.396
X5.468Y-3.395
T2
X2.1209Y-2.2685
X2.1209Y-5.0685
X2.1641Y-2.1641
X2.1641Y-2.3729
X2.1641Y-4.9641
X2.1641Y-5.1729
X2.2685Y-2.1209
X2.2685Y-2.4161
X2.2685Y-4.9209
X2.2685Y-5.2161
X2.3729Y-2.1641
X2.3729Y-2.3729
X2.3729Y-4.9641
X2.3729Y-5.1729
X2.4161Y-2.2685
X2.4161Y-5.0685
X5.4209Y-2.2685
X5.4209Y-5.0685
X5.4641Y-2.1641
X5.4641Y-2.3729
X5.4641Y-4.9641
X5.4641Y-5.1729
X5.5685Y-2.1209
X5.5685Y-2.4161
X5.5685Y-4.9209
X5.5685Y-5.2161
X5.6729Y-2.1641
X5.6729Y-2.3729
X5.6729Y-4.9641
X5.6729Y-5.1729
X5.7161Y-2.2685
X5.7161Y-5.0685
T3
X4.9685Y-2.1685
X4.9685Y-2.2685
X4.9685Y-2.3685
T4
X2.9685Y-4.4685
X2.9685Y-4.5685
X2.9685Y-4.9685
X2.9685Y-5.0685
X3.0685Y-4.4685
X3.0685Y-4.5685
X3.0685Y-4.9685
X3.0685Y-5.0685
X3.1685Y-4.4685
X3.1685Y-4.5685
X3.1685Y-4.9685
X3.1685Y-5.0685
X3.2685Y-4.4685
X3.2685Y-4.5685
X3.2685Y-4.9685
X3.2685Y-5.0685
X3.3685Y-4.4685
X3.3685Y-4.5685
X3.3685Y-4.9685
X3.3685Y-5.0685
X3.4685Y-4.4685
X3.4685Y-4.5685
X3.4685Y-4.9685
X3.4685Y-5.0685
X3.5685Y-2.2685
X3.5685Y-2.3685
X3.5685Y-4.4685
X3.5685Y-4.5685
X3.5685Y-4.9685
X3.5685Y-5.0685
X3.6685Y-2.2685
X3.6685Y-2.3685
X3.6685Y-4.4685
X3.6685Y-4.5685
X3.6685Y-4.9685
X3.6685Y-5.0685
X3.7685Y-2.2685
X3.7685Y-2.3685
X3.7685Y-4.4685
X3.7685Y-4.5685
X3.7685Y-4.9685
X3.7685Y-5.0685
X3.8685Y-2.2685
X3.8685Y-2.3685
X3.8685Y-4.4685
X3.8685Y-4.5685
X3.8685Y-4.9685
X3.8685Y-5.0685
X3.9685Y-2.2685
X3.9685Y-2.3685
X3.9685Y-4.4685
X3.9685Y-4.5685
X3.9685Y-4.9685
X3.9685Y-5.0685
X4.0685Y-2.2685
X4.0685Y-2.3685
X4.0685Y-4.4685
X4.0685Y-4.5685
X4.0685Y-4.9685
X4.0685Y-5.0685
X4.1685Y-2.2685
X4.1685Y-2.3685
X4.1685Y-4.4685
X4.1685Y-4.5685
X4.1685Y-4.9685
X4.1685Y-5.0685
X4.2685Y-2.2685
X4.2685Y-2.3685
X4.2685Y-4.4685
X4.2685Y-4.5685
X4.2685Y-4.9685
X4.2685Y-5.0685
X4.3685Y-4.4685
X4.3685Y-4.5685
X4.3685Y-4.9685
X4.3685Y-5.0685
X4.4685Y-4.4685
X4.4685Y-4.5685
X4.4685Y-4.9685
X4.4685Y-5.0685
X4.5685Y-4.4685
X4.5685Y-4.5685
X4.5685Y-4.9685
X4.5685Y-5.0685
X4.6685Y-4.4685
X4.6685Y-4.5685
X4.6685Y-4.9685
X4.6685Y-5.0685
X4.7685Y-4.4685
X4.7685Y-4.5685
X4.7685Y-4.9685
X4.7685Y-5.0685
X4.8685Y-4.4685
X4.8685Y-4.5685
X4.8685Y-4.9685
X4.8685Y-5.0685
X5.5389Y-2.9185
X5.5389Y-3.0185
X5.5389Y-3.1185
X5.5389Y-3.2185
X5.5389Y-3.3185
X5.5389Y-3.4185
X5.5389Y-3.5185
X5.5389Y-3.6185
X5.6389Y-2.9185
X5.6389Y-3.0185
X5.6389Y-3.1185
X5.6389Y-3.2185
X5.6389Y-3.3185
X5.6389Y-3.4185
X5.6389Y-3.5185
X5.6389Y-3.6185
T5
X2.4087Y-2.7639
X2.5087Y-2.7639
X2.6087Y-2.7639
X2.7087Y-2.7639
X2.8087Y-2.7639
X2.9087Y-2.7639
X3.0087Y-2.7639
X3.1087Y-2.7639
X3.2087Y-2.7639
X3.3087Y-2.7639
X3.4087Y-2.7639
X3.5087Y-2.7639
X3.6087Y-2.7639
X3.7087Y-2.7639
X3.8087Y-2.7639
X3.9087Y-2.7639
T6
X2.8375Y-2.2125
X3.0375Y-2.2125
T7
X2.1922Y-2.7639
X2.1922Y-3.9844
X5.1449Y-3.9844
X5.1449Y-2.7639
T8
X2.2685Y-2.2685
X2.2685Y-5.0685
X5.5685Y-2.2685
X5.5685Y-5.0685
T0
M30
