%TF.GenerationSoftware,KiCad,Pcbnew,(6.0.6)*%
%TF.CreationDate,2022-07-31T05:49:08-04:00*%
%TF.ProjectId,calculator_interface,63616c63-756c-4617-946f-725f696e7465,rev?*%
%TF.SameCoordinates,Original*%
%TF.FileFunction,Copper,L1,Top*%
%TF.FilePolarity,Positive*%
%FSLAX46Y46*%
G04 Gerber Fmt 4.6, Leading zero omitted, Abs format (unit mm)*
G04 Created by KiCad (PCBNEW (6.0.6)) date 2022-07-31 05:49:08*
%MOMM*%
%LPD*%
G01*
G04 APERTURE LIST*
G04 Aperture macros list*
%AMRoundRect*
0 Rectangle with rounded corners*
0 $1 Rounding radius*
0 $2 $3 $4 $5 $6 $7 $8 $9 X,Y pos of 4 corners*
0 Add a 4 corners polygon primitive as box body*
4,1,4,$2,$3,$4,$5,$6,$7,$8,$9,$2,$3,0*
0 Add four circle primitives for the rounded corners*
1,1,$1+$1,$2,$3*
1,1,$1+$1,$4,$5*
1,1,$1+$1,$6,$7*
1,1,$1+$1,$8,$9*
0 Add four rect primitives between the rounded corners*
20,1,$1+$1,$2,$3,$4,$5,0*
20,1,$1+$1,$4,$5,$6,$7,0*
20,1,$1+$1,$6,$7,$8,$9,0*
20,1,$1+$1,$8,$9,$2,$3,0*%
G04 Aperture macros list end*
%TA.AperFunction,ComponentPad*%
%ADD10C,1.400000*%
%TD*%
%TA.AperFunction,ComponentPad*%
%ADD11O,1.400000X1.400000*%
%TD*%
%TA.AperFunction,ComponentPad*%
%ADD12R,1.600000X1.600000*%
%TD*%
%TA.AperFunction,ComponentPad*%
%ADD13C,1.600000*%
%TD*%
%TA.AperFunction,ComponentPad*%
%ADD14C,0.900000*%
%TD*%
%TA.AperFunction,ComponentPad*%
%ADD15C,10.000000*%
%TD*%
%TA.AperFunction,ComponentPad*%
%ADD16R,1.500000X1.050000*%
%TD*%
%TA.AperFunction,ComponentPad*%
%ADD17O,1.500000X1.050000*%
%TD*%
%TA.AperFunction,ComponentPad*%
%ADD18R,2.400000X1.600000*%
%TD*%
%TA.AperFunction,ComponentPad*%
%ADD19O,2.400000X1.600000*%
%TD*%
%TA.AperFunction,ComponentPad*%
%ADD20R,1.200000X1.200000*%
%TD*%
%TA.AperFunction,ComponentPad*%
%ADD21C,1.200000*%
%TD*%
%TA.AperFunction,ComponentPad*%
%ADD22R,1.700000X1.700000*%
%TD*%
%TA.AperFunction,ComponentPad*%
%ADD23O,1.700000X1.700000*%
%TD*%
%TA.AperFunction,ComponentPad*%
%ADD24RoundRect,0.250000X-0.600000X0.600000X-0.600000X-0.600000X0.600000X-0.600000X0.600000X0.600000X0*%
%TD*%
%TA.AperFunction,ComponentPad*%
%ADD25C,1.700000*%
%TD*%
%TA.AperFunction,ViaPad*%
%ADD26C,0.660400*%
%TD*%
%TA.AperFunction,Conductor*%
%ADD27C,0.152400*%
%TD*%
%TA.AperFunction,Conductor*%
%ADD28C,0.508000*%
%TD*%
G04 APERTURE END LIST*
D10*
%TO.P,R13,1*%
%TO.N,+3V3*%
X105410000Y-60960000D03*
D11*
%TO.P,R13,2*%
%TO.N,/LCD Reading/DAT-13*%
X105410000Y-53340000D03*
%TD*%
D12*
%TO.P,C5,1*%
%TO.N,+3V3*%
X66040000Y-93980000D03*
D13*
%TO.P,C5,2*%
%TO.N,GND*%
X66040000Y-91480000D03*
%TD*%
%TO.P,C2,1*%
%TO.N,+5V*%
X92710000Y-100330000D03*
%TO.P,C2,2*%
%TO.N,GND*%
X92710000Y-97830000D03*
%TD*%
D14*
%TO.P,J4,1,Pin_1*%
%TO.N,GND*%
X157591650Y-30368350D03*
X152288350Y-30368350D03*
X151190000Y-33020000D03*
X152288350Y-35671650D03*
X157591650Y-35671650D03*
D15*
X154940000Y-33020000D03*
D14*
X154940000Y-29270000D03*
X154940000Y-36770000D03*
X158690000Y-33020000D03*
%TD*%
D10*
%TO.P,R11,1*%
%TO.N,+3V3*%
X85090000Y-60960000D03*
D11*
%TO.P,R11,2*%
%TO.N,/LCD Reading/DAT-11*%
X85090000Y-53340000D03*
%TD*%
D16*
%TO.P,Q8,1,S*%
%TO.N,Net-(Q1-Pad1)*%
X39370000Y-62245000D03*
D17*
%TO.P,Q8,2,G*%
%TO.N,/Keypad Driving/XA7*%
X39370000Y-63515000D03*
%TO.P,Q8,3,D*%
%TO.N,/Keypad Driving/A7*%
X39370000Y-64785000D03*
%TD*%
D13*
%TO.P,C20,1*%
%TO.N,+3V3*%
X50800000Y-68595000D03*
%TO.P,C20,2*%
%TO.N,GND*%
X48300000Y-68595000D03*
%TD*%
D18*
%TO.P,U9,1*%
%TO.N,/LCD Reading/DAT-18*%
X109205000Y-71115000D03*
D19*
%TO.P,U9,2*%
%TO.N,/LCD Reading/DAT-17*%
X109205000Y-73655000D03*
%TO.P,U9,3,V+*%
%TO.N,+5V*%
X109205000Y-76195000D03*
%TO.P,U9,4,-*%
%TO.N,Net-(C17-Pad1)*%
X109205000Y-78735000D03*
%TO.P,U9,5,+*%
%TO.N,/LCD Reading/LCD-17*%
X109205000Y-81275000D03*
%TO.P,U9,6,-*%
%TO.N,Net-(C17-Pad1)*%
X109205000Y-83815000D03*
%TO.P,U9,7,+*%
%TO.N,/LCD Reading/LCD-18*%
X109205000Y-86355000D03*
%TO.P,U9,8,-*%
%TO.N,Net-(C17-Pad1)*%
X116825000Y-86355000D03*
%TO.P,U9,9,+*%
%TO.N,/LCD Reading/LCD-20*%
X116825000Y-83815000D03*
%TO.P,U9,10,-*%
%TO.N,Net-(C17-Pad1)*%
X116825000Y-81275000D03*
%TO.P,U9,11,+*%
%TO.N,/LCD Reading/LCD-19*%
X116825000Y-78735000D03*
%TO.P,U9,12,V-*%
%TO.N,GND*%
X116825000Y-76195000D03*
%TO.P,U9,13*%
%TO.N,/LCD Reading/DAT-19*%
X116825000Y-73655000D03*
%TO.P,U9,14*%
%TO.N,/LCD Reading/DAT-20*%
X116825000Y-71115000D03*
%TD*%
D10*
%TO.P,R33,1*%
%TO.N,+1V5*%
X81280000Y-93980000D03*
D11*
%TO.P,R33,2*%
%TO.N,Net-(C17-Pad1)*%
X88900000Y-93980000D03*
%TD*%
D10*
%TO.P,R9,1*%
%TO.N,+3V3*%
X82550000Y-43180000D03*
D11*
%TO.P,R9,2*%
%TO.N,/LCD Reading/DAT-9*%
X82550000Y-50800000D03*
%TD*%
D20*
%TO.P,C4,1*%
%TO.N,+1V5*%
X76200000Y-97790000D03*
D21*
%TO.P,C4,2*%
%TO.N,GND*%
X76200000Y-95790000D03*
%TD*%
D13*
%TO.P,C3,1*%
%TO.N,+1V5*%
X82550000Y-97790000D03*
%TO.P,C3,2*%
%TO.N,GND*%
X82550000Y-100290000D03*
%TD*%
D10*
%TO.P,R27,1*%
%TO.N,+3V3*%
X135890000Y-60960000D03*
D11*
%TO.P,R27,2*%
%TO.N,/LCD Reading/DAT-27*%
X135890000Y-53340000D03*
%TD*%
D10*
%TO.P,R23,1*%
%TO.N,+3V3*%
X128270000Y-43180000D03*
D11*
%TO.P,R23,2*%
%TO.N,/LCD Reading/DAT-23*%
X128270000Y-50800000D03*
%TD*%
D18*
%TO.P,U8,1,~{PL}*%
%TO.N,/LCD Reading/~{SAMPLE}*%
X123190000Y-60960000D03*
D19*
%TO.P,U8,2,CP*%
%TO.N,/LCD Reading/CLOCK*%
X123190000Y-58420000D03*
%TO.P,U8,3,D4*%
%TO.N,/LCD Reading/DAT-21*%
X123190000Y-55880000D03*
%TO.P,U8,4,D5*%
%TO.N,/LCD Reading/DAT-22*%
X123190000Y-53340000D03*
%TO.P,U8,5,D6*%
%TO.N,/LCD Reading/DAT-23*%
X123190000Y-50800000D03*
%TO.P,U8,6,D7*%
%TO.N,/LCD Reading/DAT-24*%
X123190000Y-48260000D03*
%TO.P,U8,7,~{Q7}*%
%TO.N,unconnected-(U8-Pad7)*%
X123190000Y-45720000D03*
%TO.P,U8,8,GND*%
%TO.N,GND*%
X123190000Y-43180000D03*
%TO.P,U8,9,Q7*%
%TO.N,Net-(U11-Pad10)*%
X115570000Y-43180000D03*
%TO.P,U8,10,DS*%
%TO.N,Net-(U5-Pad9)*%
X115570000Y-45720000D03*
%TO.P,U8,11,D0*%
%TO.N,/LCD Reading/DAT-17*%
X115570000Y-48260000D03*
%TO.P,U8,12,D1*%
%TO.N,/LCD Reading/DAT-18*%
X115570000Y-50800000D03*
%TO.P,U8,13,D2*%
%TO.N,/LCD Reading/DAT-19*%
X115570000Y-53340000D03*
%TO.P,U8,14,D3*%
%TO.N,/LCD Reading/DAT-20*%
X115570000Y-55880000D03*
%TO.P,U8,15,~{CE}*%
%TO.N,GND*%
X115570000Y-58420000D03*
%TO.P,U8,16,VCC*%
%TO.N,+3V3*%
X115570000Y-60960000D03*
%TD*%
D14*
%TO.P,J6,1,Pin_1*%
%TO.N,GND*%
X154940000Y-112970000D03*
D15*
X154940000Y-109220000D03*
D14*
X152288350Y-106568350D03*
X157591650Y-106568350D03*
X152288350Y-111871650D03*
X151190000Y-109220000D03*
X157591650Y-111871650D03*
X154940000Y-105470000D03*
X158690000Y-109220000D03*
%TD*%
D13*
%TO.P,C16,1*%
%TO.N,+5V*%
X137185000Y-66035000D03*
%TO.P,C16,2*%
%TO.N,GND*%
X139685000Y-66035000D03*
%TD*%
D10*
%TO.P,R34,1*%
%TO.N,Net-(C17-Pad1)*%
X88860000Y-91440000D03*
D11*
%TO.P,R34,2*%
%TO.N,GND*%
X81240000Y-91440000D03*
%TD*%
D16*
%TO.P,Q4,1,S*%
%TO.N,Net-(Q1-Pad1)*%
X39370000Y-49545000D03*
D17*
%TO.P,Q4,2,G*%
%TO.N,/Keypad Driving/XA3*%
X39370000Y-50815000D03*
%TO.P,Q4,3,D*%
%TO.N,/Keypad Driving/A3*%
X39370000Y-52085000D03*
%TD*%
D18*
%TO.P,U13,1*%
%TO.N,/LCD Reading/DAT-30*%
X147305000Y-71110000D03*
D19*
%TO.P,U13,2*%
%TO.N,/LCD Reading/DAT-29*%
X147305000Y-73650000D03*
%TO.P,U13,3,V+*%
%TO.N,+5V*%
X147305000Y-76190000D03*
%TO.P,U13,4,-*%
%TO.N,Net-(C17-Pad1)*%
X147305000Y-78730000D03*
%TO.P,U13,5,+*%
%TO.N,/LCD Reading/LCD-29*%
X147305000Y-81270000D03*
%TO.P,U13,6,-*%
%TO.N,Net-(C17-Pad1)*%
X147305000Y-83810000D03*
%TO.P,U13,7,+*%
%TO.N,/LCD Reading/LCD-30*%
X147305000Y-86350000D03*
%TO.P,U13,8,-*%
%TO.N,Net-(C17-Pad1)*%
X154925000Y-86350000D03*
%TO.P,U13,9,+*%
%TO.N,/LCD Reading/LCD-32*%
X154925000Y-83810000D03*
%TO.P,U13,10,-*%
%TO.N,Net-(C17-Pad1)*%
X154925000Y-81270000D03*
%TO.P,U13,11,+*%
%TO.N,/LCD Reading/LCD-31*%
X154925000Y-78730000D03*
%TO.P,U13,12,V-*%
%TO.N,GND*%
X154925000Y-76190000D03*
%TO.P,U13,13*%
%TO.N,/LCD Reading/DAT-31*%
X154925000Y-73650000D03*
%TO.P,U13,14*%
%TO.N,/LCD Reading/DAT-32*%
X154925000Y-71110000D03*
%TD*%
D10*
%TO.P,R32,1*%
%TO.N,+3V3*%
X154940000Y-43180000D03*
D11*
%TO.P,R32,2*%
%TO.N,/LCD Reading/DAT-32*%
X154940000Y-50800000D03*
%TD*%
D10*
%TO.P,R8,1*%
%TO.N,+3V3*%
X80010000Y-43180000D03*
D11*
%TO.P,R8,2*%
%TO.N,/LCD Reading/DAT-8*%
X80010000Y-50800000D03*
%TD*%
D13*
%TO.P,C7,1*%
%TO.N,GND*%
X95280000Y-66025000D03*
%TO.P,C7,2*%
%TO.N,+3V3*%
X92780000Y-66025000D03*
%TD*%
D16*
%TO.P,Q2,1,S*%
%TO.N,Net-(Q1-Pad1)*%
X39370000Y-43195000D03*
D17*
%TO.P,Q2,2,G*%
%TO.N,/Keypad Driving/XA1*%
X39370000Y-44465000D03*
%TO.P,Q2,3,D*%
%TO.N,/Keypad Driving/A1*%
X39370000Y-45735000D03*
%TD*%
D18*
%TO.P,U7,1*%
%TO.N,/LCD Reading/DAT-14*%
X96535000Y-71100000D03*
D19*
%TO.P,U7,2*%
%TO.N,/LCD Reading/DAT-13*%
X96535000Y-73640000D03*
%TO.P,U7,3,V+*%
%TO.N,+5V*%
X96535000Y-76180000D03*
%TO.P,U7,4,-*%
%TO.N,Net-(C17-Pad1)*%
X96535000Y-78720000D03*
%TO.P,U7,5,+*%
%TO.N,/LCD Reading/LCD-13*%
X96535000Y-81260000D03*
%TO.P,U7,6,-*%
%TO.N,Net-(C17-Pad1)*%
X96535000Y-83800000D03*
%TO.P,U7,7,+*%
%TO.N,/LCD Reading/LCD-14*%
X96535000Y-86340000D03*
%TO.P,U7,8,-*%
%TO.N,Net-(C17-Pad1)*%
X104155000Y-86340000D03*
%TO.P,U7,9,+*%
%TO.N,/LCD Reading/LCD-16*%
X104155000Y-83800000D03*
%TO.P,U7,10,-*%
%TO.N,Net-(C17-Pad1)*%
X104155000Y-81260000D03*
%TO.P,U7,11,+*%
%TO.N,/LCD Reading/LCD-15*%
X104155000Y-78720000D03*
%TO.P,U7,12,V-*%
%TO.N,GND*%
X104155000Y-76180000D03*
%TO.P,U7,13*%
%TO.N,/LCD Reading/DAT-15*%
X104155000Y-73640000D03*
%TO.P,U7,14*%
%TO.N,/LCD Reading/DAT-16*%
X104155000Y-71100000D03*
%TD*%
D10*
%TO.P,R15,1*%
%TO.N,+3V3*%
X102870000Y-43180000D03*
D11*
%TO.P,R15,2*%
%TO.N,/LCD Reading/DAT-15*%
X102870000Y-50800000D03*
%TD*%
D10*
%TO.P,R16,1*%
%TO.N,+3V3*%
X105410000Y-43180000D03*
D11*
%TO.P,R16,2*%
%TO.N,/LCD Reading/DAT-16*%
X105410000Y-50800000D03*
%TD*%
D10*
%TO.P,R18,1*%
%TO.N,+3V3*%
X110490000Y-43180000D03*
D11*
%TO.P,R18,2*%
%TO.N,/LCD Reading/DAT-18*%
X110490000Y-50800000D03*
%TD*%
D16*
%TO.P,Q16,1,S*%
%TO.N,GND*%
X39340000Y-87630000D03*
D17*
%TO.P,Q16,2,G*%
%TO.N,/Keypad Driving/XRESET*%
X39340000Y-88900000D03*
%TO.P,Q16,3,D*%
%TO.N,/Keypad Driving/RESET*%
X39340000Y-90170000D03*
%TD*%
D16*
%TO.P,Q5,1,S*%
%TO.N,Net-(Q1-Pad1)*%
X33020000Y-55880000D03*
D17*
%TO.P,Q5,2,G*%
%TO.N,/Keypad Driving/XA4*%
X33020000Y-57150000D03*
%TO.P,Q5,3,D*%
%TO.N,/Keypad Driving/A4*%
X33020000Y-58420000D03*
%TD*%
D10*
%TO.P,R30,1*%
%TO.N,+3V3*%
X152400000Y-60960000D03*
D11*
%TO.P,R30,2*%
%TO.N,/LCD Reading/DAT-30*%
X152400000Y-53340000D03*
%TD*%
D13*
%TO.P,C14,1*%
%TO.N,+5V*%
X111745000Y-66040000D03*
%TO.P,C14,2*%
%TO.N,GND*%
X114245000Y-66040000D03*
%TD*%
D14*
%TO.P,J3,1,Pin_1*%
%TO.N,GND*%
X36770000Y-33020000D03*
X30368350Y-30368350D03*
X35671650Y-30368350D03*
D15*
X33020000Y-33020000D03*
D14*
X29270000Y-33020000D03*
X33020000Y-29270000D03*
X30368350Y-35671650D03*
X35671650Y-35671650D03*
X33020000Y-36770000D03*
%TD*%
D10*
%TO.P,R26,1*%
%TO.N,+3V3*%
X135890000Y-43180000D03*
D11*
%TO.P,R26,2*%
%TO.N,/LCD Reading/DAT-26*%
X135890000Y-50800000D03*
%TD*%
D18*
%TO.P,U2,1,~{PL}*%
%TO.N,/LCD Reading/~{SAMPLE}*%
X72375000Y-60975000D03*
D19*
%TO.P,U2,2,CP*%
%TO.N,/LCD Reading/CLOCK*%
X72375000Y-58435000D03*
%TO.P,U2,3,D4*%
%TO.N,/LCD Reading/DAT-5*%
X72375000Y-55895000D03*
%TO.P,U2,4,D5*%
%TO.N,/LCD Reading/DAT-6*%
X72375000Y-53355000D03*
%TO.P,U2,5,D6*%
%TO.N,/LCD Reading/DAT-7*%
X72375000Y-50815000D03*
%TO.P,U2,6,D7*%
%TO.N,/LCD Reading/DAT-8*%
X72375000Y-48275000D03*
%TO.P,U2,7,~{Q7}*%
%TO.N,unconnected-(U2-Pad7)*%
X72375000Y-45735000D03*
%TO.P,U2,8,GND*%
%TO.N,GND*%
X72375000Y-43195000D03*
%TO.P,U2,9,Q7*%
%TO.N,Net-(U2-Pad9)*%
X64755000Y-43195000D03*
%TO.P,U2,10,DS*%
%TO.N,GND*%
X64755000Y-45735000D03*
%TO.P,U2,11,D0*%
%TO.N,/LCD Reading/DAT-1*%
X64755000Y-48275000D03*
%TO.P,U2,12,D1*%
%TO.N,/LCD Reading/DAT-2*%
X64755000Y-50815000D03*
%TO.P,U2,13,D2*%
%TO.N,/LCD Reading/DAT-3*%
X64755000Y-53355000D03*
%TO.P,U2,14,D3*%
%TO.N,/LCD Reading/DAT-4*%
X64755000Y-55895000D03*
%TO.P,U2,15,~{CE}*%
%TO.N,GND*%
X64755000Y-58435000D03*
%TO.P,U2,16,VCC*%
%TO.N,+3V3*%
X64755000Y-60975000D03*
%TD*%
D10*
%TO.P,R25,1*%
%TO.N,+3V3*%
X133350000Y-43180000D03*
D11*
%TO.P,R25,2*%
%TO.N,/LCD Reading/DAT-25*%
X133350000Y-50800000D03*
%TD*%
D10*
%TO.P,R19,1*%
%TO.N,+3V3*%
X110490000Y-60960000D03*
D11*
%TO.P,R19,2*%
%TO.N,/LCD Reading/DAT-19*%
X110490000Y-53340000D03*
%TD*%
D10*
%TO.P,R20,1*%
%TO.N,+3V3*%
X107950000Y-60960000D03*
D11*
%TO.P,R20,2*%
%TO.N,/LCD Reading/DAT-20*%
X107950000Y-53340000D03*
%TD*%
D16*
%TO.P,Q1,1,S*%
%TO.N,Net-(Q1-Pad1)*%
X33020000Y-43180000D03*
D17*
%TO.P,Q1,2,G*%
%TO.N,/Keypad Driving/XA0*%
X33020000Y-44450000D03*
%TO.P,Q1,3,D*%
%TO.N,/Keypad Driving/A0*%
X33020000Y-45720000D03*
%TD*%
D16*
%TO.P,Q11,1,S*%
%TO.N,/Keypad Driving/B2*%
X32990000Y-74930000D03*
D17*
%TO.P,Q11,2,G*%
%TO.N,/Keypad Driving/XB2*%
X32990000Y-76200000D03*
%TO.P,Q11,3,D*%
%TO.N,Net-(Q1-Pad1)*%
X32990000Y-77470000D03*
%TD*%
D10*
%TO.P,R2,1*%
%TO.N,+3V3*%
X60960000Y-43180000D03*
D11*
%TO.P,R2,2*%
%TO.N,/LCD Reading/DAT-2*%
X60960000Y-50800000D03*
%TD*%
D10*
%TO.P,R6,1*%
%TO.N,+3V3*%
X77470000Y-60960000D03*
D11*
%TO.P,R6,2*%
%TO.N,/LCD Reading/DAT-6*%
X77470000Y-53340000D03*
%TD*%
D16*
%TO.P,Q14,1,S*%
%TO.N,/Keypad Driving/B5*%
X39325000Y-81280000D03*
D17*
%TO.P,Q14,2,G*%
%TO.N,/Keypad Driving/XB5*%
X39325000Y-82550000D03*
%TO.P,Q14,3,D*%
%TO.N,Net-(Q1-Pad1)*%
X39325000Y-83820000D03*
%TD*%
D10*
%TO.P,R21,1*%
%TO.N,+3V3*%
X130810000Y-60960000D03*
D11*
%TO.P,R21,2*%
%TO.N,/LCD Reading/DAT-21*%
X130810000Y-53340000D03*
%TD*%
D13*
%TO.P,C11,1*%
%TO.N,+5V*%
X73645000Y-66055000D03*
%TO.P,C11,2*%
%TO.N,GND*%
X76145000Y-66055000D03*
%TD*%
D22*
%TO.P,J7,1,A3*%
%TO.N,/Keypad Driving/A3*%
X138425000Y-102320000D03*
D23*
%TO.P,J7,2,A4*%
%TO.N,/Keypad Driving/A4*%
X135885000Y-102320000D03*
%TO.P,J7,3,A5*%
%TO.N,/Keypad Driving/A5*%
X133345000Y-102320000D03*
%TO.P,J7,4,A6*%
%TO.N,/Keypad Driving/A6*%
X130805000Y-102320000D03*
%TO.P,J7,5,A7*%
%TO.N,/Keypad Driving/A7*%
X128265000Y-102320000D03*
%TO.P,J7,6,B3*%
%TO.N,/Keypad Driving/B3*%
X125725000Y-102320000D03*
%TO.P,J7,7,B4*%
%TO.N,/Keypad Driving/B4*%
X123185000Y-102320000D03*
%TO.P,J7,8,B5*%
%TO.N,/Keypad Driving/B5*%
X120645000Y-102320000D03*
%TO.P,J7,9,B6*%
%TO.N,/Keypad Driving/B6*%
X118105000Y-102320000D03*
%TO.P,J7,10,RESET*%
%TO.N,/Keypad Driving/RESET*%
X115565000Y-102320000D03*
%TD*%
D16*
%TO.P,Q9,1,S*%
%TO.N,/Keypad Driving/B0*%
X32990000Y-68580000D03*
D17*
%TO.P,Q9,2,G*%
%TO.N,/Keypad Driving/XB0*%
X32990000Y-69850000D03*
%TO.P,Q9,3,D*%
%TO.N,Net-(Q1-Pad1)*%
X32990000Y-71120000D03*
%TD*%
D18*
%TO.P,U4,1*%
%TO.N,/LCD Reading/DAT-6*%
X71090000Y-71130000D03*
D19*
%TO.P,U4,2*%
%TO.N,/LCD Reading/DAT-5*%
X71090000Y-73670000D03*
%TO.P,U4,3,V+*%
%TO.N,+5V*%
X71090000Y-76210000D03*
%TO.P,U4,4,-*%
%TO.N,Net-(C17-Pad1)*%
X71090000Y-78750000D03*
%TO.P,U4,5,+*%
%TO.N,/LCD Reading/LCD-5*%
X71090000Y-81290000D03*
%TO.P,U4,6,-*%
%TO.N,Net-(C17-Pad1)*%
X71090000Y-83830000D03*
%TO.P,U4,7,+*%
%TO.N,/LCD Reading/LCD-6*%
X71090000Y-86370000D03*
%TO.P,U4,8,-*%
%TO.N,Net-(C17-Pad1)*%
X78710000Y-86370000D03*
%TO.P,U4,9,+*%
%TO.N,/LCD Reading/LCD-8*%
X78710000Y-83830000D03*
%TO.P,U4,10,-*%
%TO.N,Net-(C17-Pad1)*%
X78710000Y-81290000D03*
%TO.P,U4,11,+*%
%TO.N,/LCD Reading/LCD-7*%
X78710000Y-78750000D03*
%TO.P,U4,12,V-*%
%TO.N,GND*%
X78710000Y-76210000D03*
%TO.P,U4,13*%
%TO.N,/LCD Reading/DAT-7*%
X78710000Y-73670000D03*
%TO.P,U4,14*%
%TO.N,/LCD Reading/DAT-8*%
X78710000Y-71130000D03*
%TD*%
D13*
%TO.P,C13,1*%
%TO.N,+5V*%
X99130000Y-66025000D03*
%TO.P,C13,2*%
%TO.N,GND*%
X101630000Y-66025000D03*
%TD*%
D16*
%TO.P,Q10,1,S*%
%TO.N,/Keypad Driving/B1*%
X39340000Y-68580000D03*
D17*
%TO.P,Q10,2,G*%
%TO.N,/Keypad Driving/XB1*%
X39340000Y-69850000D03*
%TO.P,Q10,3,D*%
%TO.N,Net-(Q1-Pad1)*%
X39340000Y-71120000D03*
%TD*%
D10*
%TO.P,R22,1*%
%TO.N,+3V3*%
X128270000Y-60960000D03*
D11*
%TO.P,R22,2*%
%TO.N,/LCD Reading/DAT-22*%
X128270000Y-53340000D03*
%TD*%
D16*
%TO.P,U1,1,GND*%
%TO.N,GND*%
X87630000Y-100330000D03*
D17*
%TO.P,U1,2,VIN*%
%TO.N,+5V*%
X87630000Y-99060000D03*
%TO.P,U1,3,VOUT*%
%TO.N,+1V5*%
X87630000Y-97790000D03*
%TD*%
D10*
%TO.P,R29,1*%
%TO.N,+3V3*%
X154940000Y-60960000D03*
D11*
%TO.P,R29,2*%
%TO.N,/LCD Reading/DAT-29*%
X154940000Y-53340000D03*
%TD*%
D16*
%TO.P,Q7,1,S*%
%TO.N,Net-(Q1-Pad1)*%
X33020000Y-62230000D03*
D17*
%TO.P,Q7,2,G*%
%TO.N,/Keypad Driving/XA6*%
X33020000Y-63500000D03*
%TO.P,Q7,3,D*%
%TO.N,/Keypad Driving/A6*%
X33020000Y-64770000D03*
%TD*%
D18*
%TO.P,U3,1*%
%TO.N,/LCD Reading/DAT-2*%
X58390000Y-71130000D03*
D19*
%TO.P,U3,2*%
%TO.N,/LCD Reading/DAT-1*%
X58390000Y-73670000D03*
%TO.P,U3,3,V+*%
%TO.N,+5V*%
X58390000Y-76210000D03*
%TO.P,U3,4,-*%
%TO.N,+3V3*%
X58390000Y-78750000D03*
%TO.P,U3,5,+*%
%TO.N,/LCD Reading/LCD-1*%
X58390000Y-81290000D03*
%TO.P,U3,6,-*%
%TO.N,+3V3*%
X58390000Y-83830000D03*
%TO.P,U3,7,+*%
%TO.N,/LCD Reading/LCD-2*%
X58390000Y-86370000D03*
%TO.P,U3,8,-*%
%TO.N,+3V3*%
X66010000Y-86370000D03*
%TO.P,U3,9,+*%
%TO.N,/LCD Reading/LCD-4*%
X66010000Y-83830000D03*
%TO.P,U3,10,-*%
%TO.N,+3V3*%
X66010000Y-81290000D03*
%TO.P,U3,11,+*%
%TO.N,/LCD Reading/LCD-3*%
X66010000Y-78750000D03*
%TO.P,U3,12,V-*%
%TO.N,GND*%
X66010000Y-76210000D03*
%TO.P,U3,13*%
%TO.N,/LCD Reading/DAT-3*%
X66010000Y-73670000D03*
%TO.P,U3,14*%
%TO.N,/LCD Reading/DAT-4*%
X66010000Y-71130000D03*
%TD*%
D13*
%TO.P,C19,1*%
%TO.N,GND*%
X48260000Y-43195000D03*
%TO.P,C19,2*%
%TO.N,+3V3*%
X50760000Y-43195000D03*
%TD*%
D18*
%TO.P,U15,1,QB*%
%TO.N,/Keypad Driving/XB1*%
X45705000Y-72450000D03*
D19*
%TO.P,U15,2,QC*%
%TO.N,/Keypad Driving/XB2*%
X45705000Y-74990000D03*
%TO.P,U15,3,QD*%
%TO.N,/Keypad Driving/XB3*%
X45705000Y-77530000D03*
%TO.P,U15,4,QE*%
%TO.N,/Keypad Driving/XB4*%
X45705000Y-80070000D03*
%TO.P,U15,5,QF*%
%TO.N,/Keypad Driving/XB5*%
X45705000Y-82610000D03*
%TO.P,U15,6,QG*%
%TO.N,/Keypad Driving/XB6*%
X45705000Y-85150000D03*
%TO.P,U15,7,QH*%
%TO.N,/Keypad Driving/XRESET*%
X45705000Y-87690000D03*
%TO.P,U15,8,GND*%
%TO.N,GND*%
X45705000Y-90230000D03*
%TO.P,U15,9,QH'*%
%TO.N,unconnected-(U15-Pad9)*%
X53325000Y-90230000D03*
%TO.P,U15,10,~{SRCLR}*%
%TO.N,/Keypad Driving/~{BLANK}*%
X53325000Y-87690000D03*
%TO.P,U15,11,SRCLK*%
%TO.N,/Keypad Driving/CLOCK*%
X53325000Y-85150000D03*
%TO.P,U15,12,RCLK*%
%TO.N,/Keypad Driving/SHOW*%
X53325000Y-82610000D03*
%TO.P,U15,13,~{OE}*%
%TO.N,GND*%
X53325000Y-80070000D03*
%TO.P,U15,14,SER*%
%TO.N,Net-(U14-Pad9)*%
X53325000Y-77530000D03*
%TO.P,U15,15,QA*%
%TO.N,/Keypad Driving/XB0*%
X53325000Y-74990000D03*
%TO.P,U15,16,VCC*%
%TO.N,+3V3*%
X53325000Y-72450000D03*
%TD*%
D10*
%TO.P,R12,1*%
%TO.N,+3V3*%
X82550000Y-60960000D03*
D11*
%TO.P,R12,2*%
%TO.N,/LCD Reading/DAT-12*%
X82550000Y-53340000D03*
%TD*%
D13*
%TO.P,C18,1*%
%TO.N,+5V*%
X149845000Y-66035000D03*
%TO.P,C18,2*%
%TO.N,GND*%
X152345000Y-66035000D03*
%TD*%
D10*
%TO.P,R3,1*%
%TO.N,+3V3*%
X60960000Y-60960000D03*
D11*
%TO.P,R3,2*%
%TO.N,/LCD Reading/DAT-3*%
X60960000Y-53340000D03*
%TD*%
D13*
%TO.P,C10,1*%
%TO.N,+5V*%
X60945000Y-66055000D03*
%TO.P,C10,2*%
%TO.N,GND*%
X63445000Y-66055000D03*
%TD*%
D12*
%TO.P,C1,1*%
%TO.N,+5V*%
X66040000Y-101560000D03*
D13*
%TO.P,C1,2*%
%TO.N,GND*%
X66040000Y-99060000D03*
%TD*%
D18*
%TO.P,U10,1*%
%TO.N,/LCD Reading/DAT-22*%
X121920000Y-71120000D03*
D19*
%TO.P,U10,2*%
%TO.N,/LCD Reading/DAT-21*%
X121920000Y-73660000D03*
%TO.P,U10,3,V+*%
%TO.N,+5V*%
X121920000Y-76200000D03*
%TO.P,U10,4,-*%
%TO.N,Net-(C17-Pad1)*%
X121920000Y-78740000D03*
%TO.P,U10,5,+*%
%TO.N,/LCD Reading/LCD-21*%
X121920000Y-81280000D03*
%TO.P,U10,6,-*%
%TO.N,Net-(C17-Pad1)*%
X121920000Y-83820000D03*
%TO.P,U10,7,+*%
%TO.N,/LCD Reading/LCD-22*%
X121920000Y-86360000D03*
%TO.P,U10,8,-*%
%TO.N,Net-(C17-Pad1)*%
X129540000Y-86360000D03*
%TO.P,U10,9,+*%
%TO.N,/LCD Reading/LCD-24*%
X129540000Y-83820000D03*
%TO.P,U10,10,-*%
%TO.N,Net-(C17-Pad1)*%
X129540000Y-81280000D03*
%TO.P,U10,11,+*%
%TO.N,/LCD Reading/LCD-23*%
X129540000Y-78740000D03*
%TO.P,U10,12,V-*%
%TO.N,GND*%
X129540000Y-76200000D03*
%TO.P,U10,13*%
%TO.N,/LCD Reading/DAT-23*%
X129540000Y-73660000D03*
%TO.P,U10,14*%
%TO.N,/LCD Reading/DAT-24*%
X129540000Y-71120000D03*
%TD*%
D16*
%TO.P,Q6,1,S*%
%TO.N,Net-(Q1-Pad1)*%
X39370000Y-55895000D03*
D17*
%TO.P,Q6,2,G*%
%TO.N,/Keypad Driving/XA5*%
X39370000Y-57165000D03*
%TO.P,Q6,3,D*%
%TO.N,/Keypad Driving/A5*%
X39370000Y-58435000D03*
%TD*%
D18*
%TO.P,U14,1,QB*%
%TO.N,/Keypad Driving/XA1*%
X45690000Y-47020000D03*
D19*
%TO.P,U14,2,QC*%
%TO.N,/Keypad Driving/XA2*%
X45690000Y-49560000D03*
%TO.P,U14,3,QD*%
%TO.N,/Keypad Driving/XA3*%
X45690000Y-52100000D03*
%TO.P,U14,4,QE*%
%TO.N,/Keypad Driving/XA4*%
X45690000Y-54640000D03*
%TO.P,U14,5,QF*%
%TO.N,/Keypad Driving/XA5*%
X45690000Y-57180000D03*
%TO.P,U14,6,QG*%
%TO.N,/Keypad Driving/XA6*%
X45690000Y-59720000D03*
%TO.P,U14,7,QH*%
%TO.N,/Keypad Driving/XA7*%
X45690000Y-62260000D03*
%TO.P,U14,8,GND*%
%TO.N,GND*%
X45690000Y-64800000D03*
%TO.P,U14,9,QH'*%
%TO.N,Net-(U14-Pad9)*%
X53310000Y-64800000D03*
%TO.P,U14,10,~{SRCLR}*%
%TO.N,/Keypad Driving/~{BLANK}*%
X53310000Y-62260000D03*
%TO.P,U14,11,SRCLK*%
%TO.N,/Keypad Driving/CLOCK*%
X53310000Y-59720000D03*
%TO.P,U14,12,RCLK*%
%TO.N,/Keypad Driving/SHOW*%
X53310000Y-57180000D03*
%TO.P,U14,13,~{OE}*%
%TO.N,GND*%
X53310000Y-54640000D03*
%TO.P,U14,14,SER*%
%TO.N,/Keypad Driving/DATA*%
X53310000Y-52100000D03*
%TO.P,U14,15,QA*%
%TO.N,/Keypad Driving/XA0*%
X53310000Y-49560000D03*
%TO.P,U14,16,VCC*%
%TO.N,+3V3*%
X53310000Y-47020000D03*
%TD*%
D16*
%TO.P,Q13,1,S*%
%TO.N,/Keypad Driving/B4*%
X32975000Y-81280000D03*
D17*
%TO.P,Q13,2,G*%
%TO.N,/Keypad Driving/XB4*%
X32975000Y-82550000D03*
%TO.P,Q13,3,D*%
%TO.N,Net-(Q1-Pad1)*%
X32975000Y-83820000D03*
%TD*%
D18*
%TO.P,U12,1*%
%TO.N,/LCD Reading/DAT-26*%
X134605000Y-71115000D03*
D19*
%TO.P,U12,2*%
%TO.N,/LCD Reading/DAT-25*%
X134605000Y-73655000D03*
%TO.P,U12,3,V+*%
%TO.N,+5V*%
X134605000Y-76195000D03*
%TO.P,U12,4,-*%
%TO.N,Net-(C17-Pad1)*%
X134605000Y-78735000D03*
%TO.P,U12,5,+*%
%TO.N,/LCD Reading/LCD-25*%
X134605000Y-81275000D03*
%TO.P,U12,6,-*%
%TO.N,Net-(C17-Pad1)*%
X134605000Y-83815000D03*
%TO.P,U12,7,+*%
%TO.N,/LCD Reading/LCD-26*%
X134605000Y-86355000D03*
%TO.P,U12,8,-*%
%TO.N,Net-(C17-Pad1)*%
X142225000Y-86355000D03*
%TO.P,U12,9,+*%
%TO.N,/LCD Reading/LCD-28*%
X142225000Y-83815000D03*
%TO.P,U12,10,-*%
%TO.N,Net-(C17-Pad1)*%
X142225000Y-81275000D03*
%TO.P,U12,11,+*%
%TO.N,/LCD Reading/LCD-27*%
X142225000Y-78735000D03*
%TO.P,U12,12,V-*%
%TO.N,GND*%
X142225000Y-76195000D03*
%TO.P,U12,13*%
%TO.N,/LCD Reading/DAT-27*%
X142225000Y-73655000D03*
%TO.P,U12,14*%
%TO.N,/LCD Reading/DAT-28*%
X142225000Y-71115000D03*
%TD*%
D16*
%TO.P,Q12,1,S*%
%TO.N,/Keypad Driving/B3*%
X39340000Y-74930000D03*
D17*
%TO.P,Q12,2,G*%
%TO.N,/Keypad Driving/XB3*%
X39340000Y-76200000D03*
%TO.P,Q12,3,D*%
%TO.N,Net-(Q1-Pad1)*%
X39340000Y-77470000D03*
%TD*%
D10*
%TO.P,R5,1*%
%TO.N,+3V3*%
X80010000Y-60960000D03*
D11*
%TO.P,R5,2*%
%TO.N,/LCD Reading/DAT-5*%
X80010000Y-53340000D03*
%TD*%
D10*
%TO.P,R4,1*%
%TO.N,+3V3*%
X58420000Y-60960000D03*
D11*
%TO.P,R4,2*%
%TO.N,/LCD Reading/DAT-4*%
X58420000Y-53340000D03*
%TD*%
D16*
%TO.P,Q15,1,S*%
%TO.N,/Keypad Driving/B6*%
X32975000Y-87630000D03*
D17*
%TO.P,Q15,2,G*%
%TO.N,/Keypad Driving/XB6*%
X32975000Y-88900000D03*
%TO.P,Q15,3,D*%
%TO.N,Net-(Q1-Pad1)*%
X32975000Y-90170000D03*
%TD*%
D10*
%TO.P,R14,1*%
%TO.N,+3V3*%
X102870000Y-60960000D03*
D11*
%TO.P,R14,2*%
%TO.N,/LCD Reading/DAT-14*%
X102870000Y-53340000D03*
%TD*%
D18*
%TO.P,U5,1,~{PL}*%
%TO.N,/LCD Reading/~{SAMPLE}*%
X97820000Y-60945000D03*
D19*
%TO.P,U5,2,CP*%
%TO.N,/LCD Reading/CLOCK*%
X97820000Y-58405000D03*
%TO.P,U5,3,D4*%
%TO.N,/LCD Reading/DAT-13*%
X97820000Y-55865000D03*
%TO.P,U5,4,D5*%
%TO.N,/LCD Reading/DAT-14*%
X97820000Y-53325000D03*
%TO.P,U5,5,D6*%
%TO.N,/LCD Reading/DAT-15*%
X97820000Y-50785000D03*
%TO.P,U5,6,D7*%
%TO.N,/LCD Reading/DAT-16*%
X97820000Y-48245000D03*
%TO.P,U5,7,~{Q7}*%
%TO.N,unconnected-(U5-Pad7)*%
X97820000Y-45705000D03*
%TO.P,U5,8,GND*%
%TO.N,GND*%
X97820000Y-43165000D03*
%TO.P,U5,9,Q7*%
%TO.N,Net-(U5-Pad9)*%
X90200000Y-43165000D03*
%TO.P,U5,10,DS*%
%TO.N,Net-(U2-Pad9)*%
X90200000Y-45705000D03*
%TO.P,U5,11,D0*%
%TO.N,/LCD Reading/DAT-9*%
X90200000Y-48245000D03*
%TO.P,U5,12,D1*%
%TO.N,/LCD Reading/DAT-10*%
X90200000Y-50785000D03*
%TO.P,U5,13,D2*%
%TO.N,/LCD Reading/DAT-11*%
X90200000Y-53325000D03*
%TO.P,U5,14,D3*%
%TO.N,/LCD Reading/DAT-12*%
X90200000Y-55865000D03*
%TO.P,U5,15,~{CE}*%
%TO.N,GND*%
X90200000Y-58405000D03*
%TO.P,U5,16,VCC*%
%TO.N,+3V3*%
X90200000Y-60945000D03*
%TD*%
D10*
%TO.P,R24,1*%
%TO.N,+3V3*%
X130810000Y-43180000D03*
D11*
%TO.P,R24,2*%
%TO.N,/LCD Reading/DAT-24*%
X130810000Y-50800000D03*
%TD*%
D24*
%TO.P,J1,1,GND*%
%TO.N,GND*%
X54610000Y-97037500D03*
D25*
%TO.P,J1,2,GND2*%
X54610000Y-99577500D03*
%TO.P,J1,3,3V3*%
%TO.N,+3V3*%
X52070000Y-97037500D03*
%TO.P,J1,4,5V*%
%TO.N,+5V*%
X52070000Y-99577500D03*
%TO.P,J1,5,KEYPAD_CLOCK*%
%TO.N,/Keypad Driving/CLOCK*%
X49530000Y-97037500D03*
%TO.P,J1,6,KEYPAD_DATA*%
%TO.N,/Keypad Driving/DATA*%
X49530000Y-99577500D03*
%TO.P,J1,7,KEYPAD_SHOW*%
%TO.N,/Keypad Driving/SHOW*%
X46990000Y-97037500D03*
%TO.P,J1,8,KEYPAD_~{BLANK}*%
%TO.N,/Keypad Driving/~{BLANK}*%
X46990000Y-99577500D03*
%TO.P,J1,9,LCD_CLOCK*%
%TO.N,/LCD Reading/CLOCK*%
X44450000Y-97037500D03*
%TO.P,J1,10,LCD_DATA*%
%TO.N,/LCD Reading/DATA*%
X44450000Y-99577500D03*
%TO.P,J1,11,LCD_PLANE_1*%
%TO.N,/LCD Reading/DAT-1*%
X41910000Y-97037500D03*
%TO.P,J1,12,LCD_PLANE_2*%
%TO.N,/LCD Reading/DAT-2*%
X41910000Y-99577500D03*
%TO.P,J1,13,LCD_PLANE_3*%
%TO.N,/LCD Reading/DAT-3*%
X39370000Y-97037500D03*
%TO.P,J1,14,LCD_PLANE_4*%
%TO.N,/LCD Reading/DAT-4*%
X39370000Y-99577500D03*
%TO.P,J1,15,LCD_~{SAMPLE}*%
%TO.N,/LCD Reading/~{SAMPLE}*%
X36830000Y-97037500D03*
%TO.P,J1,16,GND3*%
%TO.N,GND*%
X36830000Y-99577500D03*
%TD*%
D14*
%TO.P,J5,1,Pin_1*%
%TO.N,GND*%
X33020000Y-112970000D03*
D15*
X33020000Y-109220000D03*
D14*
X30368350Y-106568350D03*
X33020000Y-105470000D03*
X36770000Y-109220000D03*
X29270000Y-109220000D03*
X30368350Y-111871650D03*
X35671650Y-111871650D03*
X35671650Y-106568350D03*
%TD*%
D18*
%TO.P,U11,1,~{PL}*%
%TO.N,/LCD Reading/~{SAMPLE}*%
X148590000Y-60925000D03*
D19*
%TO.P,U11,2,CP*%
%TO.N,/LCD Reading/CLOCK*%
X148590000Y-58385000D03*
%TO.P,U11,3,D4*%
%TO.N,/LCD Reading/DAT-29*%
X148590000Y-55845000D03*
%TO.P,U11,4,D5*%
%TO.N,/LCD Reading/DAT-30*%
X148590000Y-53305000D03*
%TO.P,U11,5,D6*%
%TO.N,/LCD Reading/DAT-31*%
X148590000Y-50765000D03*
%TO.P,U11,6,D7*%
%TO.N,/LCD Reading/DAT-32*%
X148590000Y-48225000D03*
%TO.P,U11,7,~{Q7}*%
%TO.N,unconnected-(U11-Pad7)*%
X148590000Y-45685000D03*
%TO.P,U11,8,GND*%
%TO.N,GND*%
X148590000Y-43145000D03*
%TO.P,U11,9,Q7*%
%TO.N,/LCD Reading/DATA*%
X140970000Y-43145000D03*
%TO.P,U11,10,DS*%
%TO.N,Net-(U11-Pad10)*%
X140970000Y-45685000D03*
%TO.P,U11,11,D0*%
%TO.N,/LCD Reading/DAT-25*%
X140970000Y-48225000D03*
%TO.P,U11,12,D1*%
%TO.N,/LCD Reading/DAT-26*%
X140970000Y-50765000D03*
%TO.P,U11,13,D2*%
%TO.N,/LCD Reading/DAT-27*%
X140970000Y-53305000D03*
%TO.P,U11,14,D3*%
%TO.N,/LCD Reading/DAT-28*%
X140970000Y-55845000D03*
%TO.P,U11,15,~{CE}*%
%TO.N,GND*%
X140970000Y-58385000D03*
%TO.P,U11,16,VCC*%
%TO.N,+3V3*%
X140970000Y-60925000D03*
%TD*%
D10*
%TO.P,R31,1*%
%TO.N,+3V3*%
X152400000Y-43180000D03*
D11*
%TO.P,R31,2*%
%TO.N,/LCD Reading/DAT-31*%
X152400000Y-50800000D03*
%TD*%
D16*
%TO.P,Q3,1,S*%
%TO.N,Net-(Q1-Pad1)*%
X33020000Y-49530000D03*
D17*
%TO.P,Q3,2,G*%
%TO.N,/Keypad Driving/XA2*%
X33020000Y-50800000D03*
%TO.P,Q3,3,D*%
%TO.N,/Keypad Driving/A2*%
X33020000Y-52070000D03*
%TD*%
D13*
%TO.P,C17,1*%
%TO.N,Net-(C17-Pad1)*%
X92670000Y-91480000D03*
%TO.P,C17,2*%
%TO.N,GND*%
X92670000Y-93980000D03*
%TD*%
D10*
%TO.P,R28,1*%
%TO.N,+3V3*%
X133350000Y-60960000D03*
D11*
%TO.P,R28,2*%
%TO.N,/LCD Reading/DAT-28*%
X133350000Y-53340000D03*
%TD*%
D13*
%TO.P,C15,1*%
%TO.N,+5V*%
X124500000Y-66040000D03*
%TO.P,C15,2*%
%TO.N,GND*%
X127000000Y-66040000D03*
%TD*%
D10*
%TO.P,R10,1*%
%TO.N,+3V3*%
X85090000Y-43180000D03*
D11*
%TO.P,R10,2*%
%TO.N,/LCD Reading/DAT-10*%
X85090000Y-50800000D03*
%TD*%
D10*
%TO.P,R7,1*%
%TO.N,+3V3*%
X77470000Y-43180000D03*
D11*
%TO.P,R7,2*%
%TO.N,/LCD Reading/DAT-7*%
X77470000Y-50800000D03*
%TD*%
D10*
%TO.P,R1,1*%
%TO.N,+3V3*%
X58420000Y-43180000D03*
D11*
%TO.P,R1,2*%
%TO.N,/LCD Reading/DAT-1*%
X58420000Y-50800000D03*
%TD*%
D13*
%TO.P,C8,1*%
%TO.N,GND*%
X120650000Y-66040000D03*
%TO.P,C8,2*%
%TO.N,+3V3*%
X118150000Y-66040000D03*
%TD*%
D24*
%TO.P,J2,1,LCD_31*%
%TO.N,/LCD Reading/LCD-31*%
X151130000Y-93242500D03*
D25*
%TO.P,J2,2,LCD_32*%
%TO.N,/LCD Reading/LCD-32*%
X151130000Y-95782500D03*
%TO.P,J2,3,LCD_29*%
%TO.N,/LCD Reading/LCD-29*%
X148590000Y-93242500D03*
%TO.P,J2,4,LCD_30*%
%TO.N,/LCD Reading/LCD-30*%
X148590000Y-95782500D03*
%TO.P,J2,5,LCD_27*%
%TO.N,/LCD Reading/LCD-27*%
X146050000Y-93242500D03*
%TO.P,J2,6,LCD_28*%
%TO.N,/LCD Reading/LCD-28*%
X146050000Y-95782500D03*
%TO.P,J2,7,LCD_25*%
%TO.N,/LCD Reading/LCD-25*%
X143510000Y-93242500D03*
%TO.P,J2,8,LCD_26*%
%TO.N,/LCD Reading/LCD-26*%
X143510000Y-95782500D03*
%TO.P,J2,9,LCD_23*%
%TO.N,/LCD Reading/LCD-23*%
X140970000Y-93242500D03*
%TO.P,J2,10,LCD_24*%
%TO.N,/LCD Reading/LCD-24*%
X140970000Y-95782500D03*
%TO.P,J2,11,LCD_21*%
%TO.N,/LCD Reading/LCD-21*%
X138430000Y-93242500D03*
%TO.P,J2,12,LCD_22*%
%TO.N,/LCD Reading/LCD-22*%
X138430000Y-95782500D03*
%TO.P,J2,13,LCD_19*%
%TO.N,/LCD Reading/LCD-19*%
X135890000Y-93242500D03*
%TO.P,J2,14,LCD_20*%
%TO.N,/LCD Reading/LCD-20*%
X135890000Y-95782500D03*
%TO.P,J2,15,LCD_17*%
%TO.N,/LCD Reading/LCD-17*%
X133350000Y-93242500D03*
%TO.P,J2,16,LCD_18*%
%TO.N,/LCD Reading/LCD-18*%
X133350000Y-95782500D03*
%TO.P,J2,17,LCD_15*%
%TO.N,/LCD Reading/LCD-15*%
X130810000Y-93242500D03*
%TO.P,J2,18,LCD_16*%
%TO.N,/LCD Reading/LCD-16*%
X130810000Y-95782500D03*
%TO.P,J2,19,LCD_13*%
%TO.N,/LCD Reading/LCD-13*%
X128270000Y-93242500D03*
%TO.P,J2,20,LCD_14*%
%TO.N,/LCD Reading/LCD-14*%
X128270000Y-95782500D03*
%TO.P,J2,21,LCD_11*%
%TO.N,/LCD Reading/LCD-11*%
X125730000Y-93242500D03*
%TO.P,J2,22,LCD_12*%
%TO.N,/LCD Reading/LCD-12*%
X125730000Y-95782500D03*
%TO.P,J2,23,LCD_9*%
%TO.N,/LCD Reading/LCD-9*%
X123190000Y-93242500D03*
%TO.P,J2,24,LCD_10*%
%TO.N,/LCD Reading/LCD-10*%
X123190000Y-95782500D03*
%TO.P,J2,25,LCD_7*%
%TO.N,/LCD Reading/LCD-7*%
X120650000Y-93242500D03*
%TO.P,J2,26,LCD_8*%
%TO.N,/LCD Reading/LCD-8*%
X120650000Y-95782500D03*
%TO.P,J2,27,LCD_5*%
%TO.N,/LCD Reading/LCD-5*%
X118110000Y-93242500D03*
%TO.P,J2,28,LCD_6*%
%TO.N,/LCD Reading/LCD-6*%
X118110000Y-95782500D03*
%TO.P,J2,29,LCD_3(A)*%
%TO.N,/LCD Reading/LCD-3*%
X115570000Y-93242500D03*
%TO.P,J2,30,LCD_4(B)*%
%TO.N,/LCD Reading/LCD-4*%
X115570000Y-95782500D03*
%TO.P,J2,31,LCD_1(D)*%
%TO.N,/LCD Reading/LCD-1*%
X113030000Y-93242500D03*
%TO.P,J2,32,LCD_2(C)*%
%TO.N,/LCD Reading/LCD-2*%
X113030000Y-95782500D03*
%TO.P,J2,33,B0*%
%TO.N,/Keypad Driving/B0*%
X110490000Y-93242500D03*
%TO.P,J2,34,A0*%
%TO.N,/Keypad Driving/A0*%
X110490000Y-95782500D03*
%TO.P,J2,35,B1*%
%TO.N,/Keypad Driving/B1*%
X107950000Y-93242500D03*
%TO.P,J2,36,A1*%
%TO.N,/Keypad Driving/A1*%
X107950000Y-95782500D03*
%TO.P,J2,37,B2*%
%TO.N,/Keypad Driving/B2*%
X105410000Y-93242500D03*
%TO.P,J2,38,A2*%
%TO.N,/Keypad Driving/A2*%
X105410000Y-95782500D03*
%TO.P,J2,39,B+*%
%TO.N,+1V5*%
X102870000Y-93242500D03*
%TO.P,J2,40,GND*%
%TO.N,GND*%
X102870000Y-95782500D03*
%TD*%
D13*
%TO.P,C12,1*%
%TO.N,+5V*%
X86430000Y-66025000D03*
%TO.P,C12,2*%
%TO.N,GND*%
X88930000Y-66025000D03*
%TD*%
%TO.P,C9,1*%
%TO.N,GND*%
X146050000Y-66005000D03*
%TO.P,C9,2*%
%TO.N,+3V3*%
X143550000Y-66005000D03*
%TD*%
D18*
%TO.P,U6,1*%
%TO.N,/LCD Reading/DAT-10*%
X83835000Y-71100000D03*
D19*
%TO.P,U6,2*%
%TO.N,/LCD Reading/DAT-9*%
X83835000Y-73640000D03*
%TO.P,U6,3,V+*%
%TO.N,+5V*%
X83835000Y-76180000D03*
%TO.P,U6,4,-*%
%TO.N,Net-(C17-Pad1)*%
X83835000Y-78720000D03*
%TO.P,U6,5,+*%
%TO.N,/LCD Reading/LCD-9*%
X83835000Y-81260000D03*
%TO.P,U6,6,-*%
%TO.N,Net-(C17-Pad1)*%
X83835000Y-83800000D03*
%TO.P,U6,7,+*%
%TO.N,/LCD Reading/LCD-10*%
X83835000Y-86340000D03*
%TO.P,U6,8,-*%
%TO.N,Net-(C17-Pad1)*%
X91455000Y-86340000D03*
%TO.P,U6,9,+*%
%TO.N,/LCD Reading/LCD-12*%
X91455000Y-83800000D03*
%TO.P,U6,10,-*%
%TO.N,Net-(C17-Pad1)*%
X91455000Y-81260000D03*
%TO.P,U6,11,+*%
%TO.N,/LCD Reading/LCD-11*%
X91455000Y-78720000D03*
%TO.P,U6,12,V-*%
%TO.N,GND*%
X91455000Y-76180000D03*
%TO.P,U6,13*%
%TO.N,/LCD Reading/DAT-11*%
X91455000Y-73640000D03*
%TO.P,U6,14*%
%TO.N,/LCD Reading/DAT-12*%
X91455000Y-71100000D03*
%TD*%
D13*
%TO.P,C6,1*%
%TO.N,GND*%
X69835000Y-66055000D03*
%TO.P,C6,2*%
%TO.N,+3V3*%
X67335000Y-66055000D03*
%TD*%
D10*
%TO.P,R17,1*%
%TO.N,+3V3*%
X107950000Y-43180000D03*
D11*
%TO.P,R17,2*%
%TO.N,/LCD Reading/DAT-17*%
X107950000Y-50800000D03*
%TD*%
D26*
%TO.N,/Keypad Driving/CLOCK*%
X51435000Y-83185000D03*
%TO.N,/LCD Reading/CLOCK*%
X82550000Y-57150000D03*
X107950000Y-57150000D03*
X130810000Y-57150000D03*
X105410000Y-57150000D03*
X57785000Y-57150000D03*
X80010000Y-57150000D03*
X133350000Y-57150000D03*
%TO.N,/LCD Reading/~{SAMPLE}*%
X133350000Y-58420000D03*
X82550000Y-58420000D03*
X57785000Y-59690000D03*
X105410000Y-58420000D03*
X130810000Y-58420000D03*
X80010000Y-58420000D03*
X107950000Y-58420000D03*
%TO.N,/Keypad Driving/B0*%
X30480000Y-68580000D03*
%TO.N,/Keypad Driving/A0*%
X34036500Y-41992140D03*
%TO.N,/Keypad Driving/B1*%
X31115000Y-67310000D03*
%TO.N,/Keypad Driving/A1*%
X36830000Y-41910000D03*
%TO.N,/Keypad Driving/B2*%
X31115000Y-74930000D03*
%TO.N,/Keypad Driving/A2*%
X33655000Y-41275000D03*
%TO.N,/Keypad Driving/A3*%
X36830000Y-40716700D03*
%TO.N,/Keypad Driving/A4*%
X34290000Y-40640000D03*
%TO.N,/Keypad Driving/A5*%
X38216559Y-40523440D03*
%TO.N,/Keypad Driving/A6*%
X34925000Y-40005000D03*
%TO.N,/Keypad Driving/A7*%
X39370000Y-40005000D03*
%TO.N,/Keypad Driving/B3*%
X30193080Y-73601180D03*
%TO.N,/Keypad Driving/B4*%
X29972500Y-81280000D03*
%TO.N,/Keypad Driving/B5*%
X29972500Y-80010000D03*
%TO.N,/Keypad Driving/B6*%
X30244716Y-91675283D03*
%TO.N,/Keypad Driving/RESET*%
X33153640Y-95015260D03*
%TO.N,Net-(U2-Pad9)*%
X87630000Y-43180000D03*
%TO.N,Net-(U5-Pad9)*%
X113030000Y-43180000D03*
%TO.N,Net-(U11-Pad10)*%
X138430000Y-43180000D03*
%TO.N,/Keypad Driving/XA0*%
X48971700Y-49555400D03*
%TO.N,/Keypad Driving/XB0*%
X45720000Y-71120000D03*
%TD*%
D27*
%TO.N,/Keypad Driving/XA0*%
X36830000Y-46990000D02*
X34290000Y-44450000D01*
X48971700Y-49555400D02*
X47676300Y-48260000D01*
X34290000Y-44450000D02*
X33020000Y-44450000D01*
X47676300Y-48260000D02*
X43180000Y-48260000D01*
X43180000Y-48260000D02*
X41910000Y-46990000D01*
X41910000Y-46990000D02*
X36830000Y-46990000D01*
%TO.N,/LCD Reading/LCD-13*%
X103091436Y-87993200D02*
X96535000Y-81436764D01*
X114022228Y-87993200D02*
X103091436Y-87993200D01*
X115246428Y-89217400D02*
X114022228Y-87993200D01*
X96535000Y-81436764D02*
X96535000Y-81260000D01*
X124244900Y-89217400D02*
X115246428Y-89217400D01*
X128270000Y-93242500D02*
X124244900Y-89217400D01*
%TO.N,/LCD Reading/LCD-16*%
X102421600Y-85533400D02*
X104155000Y-83800000D01*
X103217688Y-87688400D02*
X102421600Y-86892312D01*
X114148480Y-87688400D02*
X103217688Y-87688400D01*
X126049048Y-88912600D02*
X115372680Y-88912600D01*
X115372680Y-88912600D02*
X114148480Y-87688400D01*
X102421600Y-86892312D02*
X102421600Y-85533400D01*
X129540000Y-92403552D02*
X126049048Y-88912600D01*
X129540000Y-94512500D02*
X129540000Y-92403552D01*
X130810000Y-95782500D02*
X129540000Y-94512500D01*
D28*
%TO.N,GND*%
X54610000Y-99577500D02*
X54610000Y-97037500D01*
D27*
%TO.N,/Keypad Driving/CLOCK*%
X49530000Y-97037500D02*
X49530000Y-95326200D01*
X49530000Y-95326200D02*
X49530000Y-88945000D01*
%TO.N,/LCD Reading/DATA*%
X45606600Y-98420900D02*
X45606600Y-98386000D01*
X44450000Y-99577500D02*
X45606600Y-98420900D01*
X45606600Y-94728400D02*
X45606600Y-98386000D01*
%TO.N,/Keypad Driving/DATA*%
X47423400Y-68016939D02*
X47423400Y-57986600D01*
X47423400Y-57986600D02*
X53310000Y-52100000D01*
X47271400Y-68168939D02*
X47423400Y-68016939D01*
X47271400Y-70970348D02*
X47271400Y-68168939D01*
X47929800Y-92920014D02*
X47929800Y-71628748D01*
X47929800Y-71628748D02*
X47271400Y-70970348D01*
X45911400Y-94938414D02*
X47929800Y-92920014D01*
X45911400Y-100024271D02*
X45911400Y-94938414D01*
X46543229Y-100656100D02*
X45911400Y-100024271D01*
X48451400Y-100656100D02*
X46543229Y-100656100D01*
X49530000Y-99577500D02*
X48451400Y-100656100D01*
%TO.N,/Keypad Driving/SHOW*%
X49225200Y-86690200D02*
X49225200Y-94919800D01*
X49225200Y-94919800D02*
X46990000Y-97155000D01*
%TO.N,/LCD Reading/DATA*%
X47625000Y-92710000D02*
X45606600Y-94728400D01*
X47625000Y-71755000D02*
X47625000Y-92710000D01*
X46966600Y-71096600D02*
X47625000Y-71755000D01*
X46966600Y-68042687D02*
X46966600Y-71096600D01*
X47118600Y-57860348D02*
X47118600Y-67890687D01*
X47118600Y-67890687D02*
X46966600Y-68042687D01*
X49530000Y-55448948D02*
X47118600Y-57860348D01*
X49837752Y-41602248D02*
X49530000Y-41910000D01*
X49530000Y-41910000D02*
X49530000Y-55448948D01*
X139392248Y-41602248D02*
X49837752Y-41602248D01*
X140935000Y-43145000D02*
X139392248Y-41602248D01*
%TO.N,/Keypad Driving/~{BLANK}*%
X50297042Y-98292958D02*
X50800000Y-97790000D01*
X46990000Y-99577500D02*
X48274542Y-98292958D01*
X50800000Y-97790000D02*
X50800000Y-90215000D01*
X48274542Y-98292958D02*
X50297042Y-98292958D01*
D28*
%TO.N,+3V3*%
X55112500Y-93995000D02*
X55880000Y-93995000D01*
X52070000Y-97037500D02*
X55112500Y-93995000D01*
%TO.N,+5V*%
X54052500Y-101560000D02*
X52070000Y-99577500D01*
X66040000Y-101560000D02*
X54052500Y-101560000D01*
%TO.N,GND*%
X64017500Y-97037500D02*
X54610000Y-97037500D01*
X66040000Y-99060000D02*
X64017500Y-97037500D01*
%TO.N,+5V*%
X110470000Y-74930000D02*
X120650000Y-74930000D01*
X107940000Y-74930000D02*
X109205000Y-76195000D01*
X87630000Y-99060000D02*
X91440000Y-99060000D01*
X99130000Y-66025000D02*
X99130000Y-73585000D01*
X86430000Y-73585000D02*
X83835000Y-76180000D01*
X71090000Y-76210000D02*
X72296400Y-75003600D01*
X84312200Y-101560000D02*
X86812200Y-99060000D01*
X149845000Y-66035000D02*
X149845000Y-73650000D01*
X137185000Y-73615000D02*
X134605000Y-76195000D01*
X59596400Y-75003600D02*
X69883600Y-75003600D01*
X124500000Y-66040000D02*
X124500000Y-73620000D01*
X86430000Y-66025000D02*
X86430000Y-73585000D01*
X85085000Y-74930000D02*
X95285000Y-74930000D01*
X99130000Y-73585000D02*
X96535000Y-76180000D01*
X60945000Y-73655000D02*
X60945000Y-66055000D01*
X135870000Y-74930000D02*
X146045000Y-74930000D01*
X97785000Y-74930000D02*
X107940000Y-74930000D01*
X137185000Y-66035000D02*
X137185000Y-73615000D01*
X58390000Y-76210000D02*
X59596400Y-75003600D01*
X86812200Y-99060000D02*
X87630000Y-99060000D01*
X72296400Y-75003600D02*
X82658600Y-75003600D01*
X66040000Y-101560000D02*
X84312200Y-101560000D01*
X111745000Y-66040000D02*
X111745000Y-73655000D01*
X58390000Y-76210000D02*
X60945000Y-73655000D01*
X73645000Y-66055000D02*
X73645000Y-73655000D01*
X146045000Y-74930000D02*
X147305000Y-76190000D01*
X69883600Y-75003600D02*
X71090000Y-76210000D01*
X73645000Y-73655000D02*
X71090000Y-76210000D01*
X121920000Y-76200000D02*
X123190000Y-74930000D01*
X133340000Y-74930000D02*
X134605000Y-76195000D01*
X95285000Y-74930000D02*
X96535000Y-76180000D01*
X109205000Y-76195000D02*
X110470000Y-74930000D01*
X91440000Y-99060000D02*
X92710000Y-100330000D01*
X120650000Y-74930000D02*
X121920000Y-76200000D01*
X82658600Y-75003600D02*
X83835000Y-76180000D01*
X134605000Y-76195000D02*
X135870000Y-74930000D01*
X111745000Y-73655000D02*
X109205000Y-76195000D01*
X124500000Y-73620000D02*
X121920000Y-76200000D01*
X123190000Y-74930000D02*
X133340000Y-74930000D01*
X83835000Y-76180000D02*
X85085000Y-74930000D01*
X149845000Y-73650000D02*
X147305000Y-76190000D01*
X96535000Y-76180000D02*
X97785000Y-74930000D01*
%TO.N,GND*%
X115515000Y-67310000D02*
X119380000Y-67310000D01*
X114245000Y-66040000D02*
X115515000Y-67310000D01*
X139685000Y-66035000D02*
X140960000Y-67310000D01*
X88930000Y-66025000D02*
X90215000Y-67310000D01*
X102865000Y-77470000D02*
X104155000Y-76180000D01*
X66010000Y-76210000D02*
X67216400Y-77416400D01*
X142235000Y-76195000D02*
X143510000Y-77470000D01*
X128270000Y-77470000D02*
X129540000Y-76200000D01*
X128270000Y-64770000D02*
X138420000Y-64770000D01*
X119380000Y-67310000D02*
X120650000Y-66040000D01*
X69835000Y-66055000D02*
X68580000Y-67310000D01*
X127000000Y-66040000D02*
X128270000Y-64770000D01*
X121920000Y-64770000D02*
X125730000Y-64770000D01*
X66040000Y-91480000D02*
X71890000Y-91480000D01*
X90215000Y-67310000D02*
X93995000Y-67310000D01*
X102870000Y-64785000D02*
X102870000Y-64770000D01*
X118100000Y-77470000D02*
X128270000Y-77470000D01*
X116825000Y-76195000D02*
X118100000Y-77470000D01*
X153645000Y-77470000D02*
X154925000Y-76190000D01*
X104155000Y-76180000D02*
X105445000Y-77470000D01*
X140960000Y-67310000D02*
X144745000Y-67310000D01*
X125730000Y-64770000D02*
X127000000Y-66040000D01*
X100375000Y-64770000D02*
X101630000Y-66025000D01*
X151080000Y-64770000D02*
X152345000Y-66035000D01*
X71890000Y-91480000D02*
X76200000Y-95790000D01*
X77430000Y-64770000D02*
X88265000Y-64770000D01*
X95280000Y-66025000D02*
X96535000Y-64770000D01*
X93995000Y-67310000D02*
X95280000Y-66025000D01*
X92710000Y-77470000D02*
X102865000Y-77470000D01*
X143510000Y-77470000D02*
X153645000Y-77470000D01*
X120650000Y-66040000D02*
X121920000Y-64770000D01*
X68580000Y-67310000D02*
X64700000Y-67310000D01*
X67216400Y-77416400D02*
X77503600Y-77416400D01*
X138420000Y-64770000D02*
X139685000Y-66035000D01*
X101630000Y-66025000D02*
X102870000Y-64785000D01*
X129540000Y-76200000D02*
X130810000Y-77470000D01*
X88265000Y-64770000D02*
X88930000Y-65435000D01*
X140950000Y-77470000D02*
X142225000Y-76195000D01*
X91455000Y-76215000D02*
X92710000Y-77470000D01*
X112975000Y-64770000D02*
X114245000Y-66040000D01*
X144745000Y-67310000D02*
X146050000Y-66005000D01*
X115550000Y-77470000D02*
X116825000Y-76195000D01*
X79970000Y-77470000D02*
X90165000Y-77470000D01*
X78710000Y-76210000D02*
X79970000Y-77470000D01*
X71120000Y-64770000D02*
X69835000Y-66055000D01*
X76145000Y-66055000D02*
X77430000Y-64770000D01*
X77503600Y-77416400D02*
X78710000Y-76210000D01*
X88930000Y-65435000D02*
X88930000Y-66025000D01*
X74860000Y-64770000D02*
X71120000Y-64770000D01*
X130810000Y-77470000D02*
X140950000Y-77470000D01*
X105445000Y-77470000D02*
X115550000Y-77470000D01*
X90165000Y-77470000D02*
X91455000Y-76180000D01*
X76145000Y-66055000D02*
X74860000Y-64770000D01*
X146050000Y-66005000D02*
X147285000Y-64770000D01*
X102870000Y-64770000D02*
X112975000Y-64770000D01*
X64700000Y-67310000D02*
X63445000Y-66055000D01*
X96535000Y-64770000D02*
X100375000Y-64770000D01*
X147285000Y-64770000D02*
X151080000Y-64770000D01*
%TO.N,+1V5*%
X87630000Y-97790000D02*
X87630000Y-95250000D01*
X82550000Y-97790000D02*
X87630000Y-97790000D01*
X100940500Y-93242500D02*
X102870000Y-93242500D01*
X76200000Y-97790000D02*
X82010000Y-97790000D01*
X82486400Y-95186400D02*
X87693600Y-95186400D01*
X81280000Y-93980000D02*
X82486400Y-95186400D01*
X98996600Y-95186400D02*
X100940500Y-93242500D01*
X87630000Y-95250000D02*
X87693600Y-95186400D01*
X87693600Y-95186400D02*
X98996600Y-95186400D01*
%TO.N,+3V3*%
X115570000Y-60960000D02*
X106680000Y-60960000D01*
X102870000Y-43180000D02*
X106680000Y-43180000D01*
X85090000Y-43180000D02*
X86281400Y-44371400D01*
X85090000Y-43180000D02*
X81280000Y-43180000D01*
X81280000Y-60930000D02*
X81295000Y-60945000D01*
X156046400Y-59853600D02*
X154940000Y-60960000D01*
X132080000Y-43180000D02*
X135890000Y-43180000D01*
X66040000Y-93980000D02*
X55895000Y-93980000D01*
X55880000Y-93995000D02*
X55880000Y-83820000D01*
X128270000Y-60960000D02*
X135890000Y-60960000D01*
X53310000Y-47020000D02*
X53310000Y-45745000D01*
X53310000Y-45745000D02*
X50760000Y-43195000D01*
X127063600Y-44386400D02*
X128270000Y-43180000D01*
X62230000Y-44450000D02*
X76200000Y-44450000D01*
X55880000Y-44450000D02*
X57150000Y-43180000D01*
X55880000Y-72390000D02*
X55880000Y-60960000D01*
X55880000Y-80840000D02*
X55880000Y-72390000D01*
X53325000Y-72450000D02*
X55820000Y-72450000D01*
X118150000Y-66040000D02*
X118150000Y-63540000D01*
X156046400Y-44286400D02*
X156046400Y-59853600D01*
X55890000Y-83830000D02*
X55890000Y-80850000D01*
X60960000Y-43180000D02*
X62230000Y-44450000D01*
X64755000Y-60975000D02*
X55895000Y-60975000D01*
X57150000Y-43180000D02*
X58420000Y-43180000D01*
X81280000Y-43180000D02*
X77470000Y-43180000D01*
X63470000Y-83830000D02*
X66010000Y-86370000D01*
X132115000Y-60925000D02*
X140970000Y-60925000D01*
X67335000Y-66055000D02*
X67335000Y-63555000D01*
X55820000Y-72450000D02*
X55880000Y-72390000D01*
X60930000Y-81290000D02*
X66010000Y-81290000D01*
X128270000Y-43180000D02*
X132080000Y-43180000D01*
X132080000Y-60960000D02*
X132115000Y-60925000D01*
X55890000Y-83830000D02*
X55880000Y-83820000D01*
X151228600Y-44351400D02*
X152400000Y-43180000D01*
X135890000Y-43180000D02*
X137061400Y-44351400D01*
X132080000Y-43180000D02*
X132080000Y-60960000D01*
X111696400Y-44386400D02*
X127063600Y-44386400D01*
X76200000Y-44450000D02*
X77470000Y-43180000D01*
X154940000Y-60960000D02*
X152400000Y-60960000D01*
X55880000Y-46990000D02*
X55850000Y-47020000D01*
X110490000Y-43180000D02*
X111696400Y-44386400D01*
X67335000Y-63555000D02*
X64755000Y-60975000D01*
X106680000Y-43180000D02*
X110490000Y-43180000D01*
X154940000Y-43180000D02*
X152400000Y-43180000D01*
X58420000Y-43180000D02*
X60960000Y-43180000D01*
X55895000Y-93980000D02*
X55880000Y-93995000D01*
X106680000Y-60960000D02*
X102870000Y-60960000D01*
X55880000Y-60960000D02*
X55880000Y-44450000D01*
X53310000Y-47020000D02*
X55850000Y-47020000D01*
X55890000Y-80850000D02*
X55880000Y-80840000D01*
X58390000Y-83830000D02*
X63470000Y-83830000D01*
X90200000Y-60945000D02*
X81295000Y-60945000D01*
X58390000Y-83830000D02*
X55890000Y-83830000D01*
X143550000Y-66005000D02*
X143550000Y-63505000D01*
X143550000Y-63505000D02*
X140970000Y-60925000D01*
X101678600Y-44371400D02*
X102870000Y-43180000D01*
X92780000Y-63525000D02*
X90200000Y-60945000D01*
X86281400Y-44371400D02*
X101678600Y-44371400D01*
X55895000Y-60975000D02*
X55880000Y-60960000D01*
X106680000Y-43180000D02*
X106680000Y-60960000D01*
X92780000Y-66025000D02*
X92780000Y-63525000D01*
X81295000Y-60945000D02*
X77485000Y-60945000D01*
X58390000Y-78750000D02*
X60930000Y-81290000D01*
X50800000Y-68595000D02*
X50800000Y-69925000D01*
X81280000Y-43180000D02*
X81280000Y-60930000D01*
X154940000Y-43180000D02*
X156046400Y-44286400D01*
X50800000Y-69925000D02*
X53325000Y-72450000D01*
X58390000Y-78750000D02*
X55890000Y-78750000D01*
X137061400Y-44351400D02*
X151228600Y-44351400D01*
X118150000Y-63540000D02*
X115570000Y-60960000D01*
D27*
%TO.N,Net-(C17-Pad1)*%
X83835000Y-78720000D02*
X88915000Y-78720000D01*
X96535000Y-78720000D02*
X101615000Y-78720000D01*
X127000000Y-78740000D02*
X129540000Y-81280000D01*
X88860000Y-91440000D02*
X92630000Y-91440000D01*
X78710000Y-86370000D02*
X81265000Y-86370000D01*
X71090000Y-78750000D02*
X76170000Y-78750000D01*
X142225000Y-86355000D02*
X144760000Y-86355000D01*
X149845000Y-81270000D02*
X147305000Y-78730000D01*
X114285000Y-78735000D02*
X116825000Y-81275000D01*
X76170000Y-78750000D02*
X78710000Y-81290000D01*
X106680000Y-86340000D02*
X109205000Y-83815000D01*
X88915000Y-78720000D02*
X91455000Y-81260000D01*
X81265000Y-86370000D02*
X83835000Y-83800000D01*
X121920000Y-78740000D02*
X127000000Y-78740000D01*
X139685000Y-78735000D02*
X142225000Y-81275000D01*
X144760000Y-86355000D02*
X147305000Y-83810000D01*
X119385000Y-86355000D02*
X121920000Y-83820000D01*
X116825000Y-86355000D02*
X119385000Y-86355000D01*
X154925000Y-81270000D02*
X149845000Y-81270000D01*
X88900000Y-93980000D02*
X88900000Y-91480000D01*
X101615000Y-78720000D02*
X104155000Y-81260000D01*
X134605000Y-78735000D02*
X139685000Y-78735000D01*
X109205000Y-78735000D02*
X114285000Y-78735000D01*
X132060000Y-86360000D02*
X134605000Y-83815000D01*
X104155000Y-86340000D02*
X106680000Y-86340000D01*
X129540000Y-86360000D02*
X132060000Y-86360000D01*
%TO.N,/Keypad Driving/CLOCK*%
X49633400Y-68306939D02*
X50165000Y-67775339D01*
X51435000Y-83185000D02*
X49633400Y-81383400D01*
X49633400Y-81383400D02*
X49633400Y-68306939D01*
X50165000Y-62865000D02*
X53310000Y-59720000D01*
X50165000Y-67775339D02*
X50165000Y-62865000D01*
X49530000Y-88945000D02*
X53325000Y-85150000D01*
%TO.N,/Keypad Driving/SHOW*%
X53325000Y-82610000D02*
X49244800Y-86690200D01*
X49860200Y-67516800D02*
X49328600Y-68048400D01*
X49328600Y-68048400D02*
X49328600Y-81584652D01*
X51435000Y-59055000D02*
X51435000Y-61163948D01*
X49244800Y-86690200D02*
X49225200Y-86690200D01*
X51435000Y-61163948D02*
X49860200Y-62738748D01*
X53310000Y-57180000D02*
X51435000Y-59055000D01*
X49225200Y-81688052D02*
X49328600Y-81584652D01*
X49225200Y-86690200D02*
X49225200Y-81688052D01*
X49860200Y-62738748D02*
X49860200Y-67516800D01*
%TO.N,/Keypad Driving/~{BLANK}*%
X50800000Y-90215000D02*
X53325000Y-87690000D01*
%TO.N,/LCD Reading/CLOCK*%
X57785000Y-57150000D02*
X67945000Y-57150000D01*
X148590000Y-58385000D02*
X147355000Y-57150000D01*
X97820000Y-58405000D02*
X92695000Y-58405000D01*
X78725000Y-58435000D02*
X72375000Y-58435000D01*
X147355000Y-57150000D02*
X133350000Y-57150000D01*
X129540000Y-58420000D02*
X123190000Y-58420000D01*
X121920000Y-57150000D02*
X107950000Y-57150000D01*
X105410000Y-57150000D02*
X104155000Y-58405000D01*
X80010000Y-57150000D02*
X78725000Y-58435000D01*
X104155000Y-58405000D02*
X97820000Y-58405000D01*
X91440000Y-57150000D02*
X82550000Y-57150000D01*
X123190000Y-58420000D02*
X121920000Y-57150000D01*
X130810000Y-57150000D02*
X129540000Y-58420000D01*
X69230000Y-58435000D02*
X72375000Y-58435000D01*
X92695000Y-58405000D02*
X91440000Y-57150000D01*
X67945000Y-57150000D02*
X69230000Y-58435000D01*
%TO.N,/LCD Reading/DAT-1*%
X58420000Y-50800000D02*
X60945000Y-48275000D01*
X60945000Y-48275000D02*
X64755000Y-48275000D01*
%TO.N,/LCD Reading/DAT-2*%
X64755000Y-50815000D02*
X60975000Y-50815000D01*
%TO.N,/LCD Reading/DAT-3*%
X64755000Y-53355000D02*
X60975000Y-53355000D01*
%TO.N,/LCD Reading/DAT-4*%
X60975000Y-55895000D02*
X58420000Y-53340000D01*
X64755000Y-55895000D02*
X60975000Y-55895000D01*
%TO.N,/LCD Reading/~{SAMPLE}*%
X71090000Y-59690000D02*
X72375000Y-60975000D01*
X123190000Y-60960000D02*
X122161400Y-59931400D01*
X130810000Y-58420000D02*
X129254576Y-59975424D01*
X57785000Y-59690000D02*
X71090000Y-59690000D01*
X97820000Y-60945000D02*
X92695000Y-60945000D01*
X98789576Y-59975424D02*
X97820000Y-60945000D01*
X124174576Y-59975424D02*
X123190000Y-60960000D01*
X122161400Y-59931400D02*
X109461400Y-59931400D01*
X83820000Y-59690000D02*
X82550000Y-58420000D01*
X105410000Y-58420000D02*
X103854576Y-59975424D01*
X134343600Y-59413600D02*
X133350000Y-58420000D01*
X80010000Y-58420000D02*
X78742952Y-59687048D01*
X129254576Y-59975424D02*
X124174576Y-59975424D01*
X144745000Y-60925000D02*
X143233600Y-59413600D01*
X73662952Y-59687048D02*
X72375000Y-60975000D01*
X148590000Y-60925000D02*
X144745000Y-60925000D01*
X109461400Y-59931400D02*
X107950000Y-58420000D01*
X78742952Y-59687048D02*
X73662952Y-59687048D01*
X103854576Y-59975424D02*
X98789576Y-59975424D01*
X143233600Y-59413600D02*
X134343600Y-59413600D01*
X91440000Y-59690000D02*
X83820000Y-59690000D01*
X92695000Y-60945000D02*
X91440000Y-59690000D01*
%TO.N,/LCD Reading/LCD-31*%
X154581740Y-82298600D02*
X155826400Y-82298600D01*
X156353600Y-81771400D02*
X156353600Y-80158600D01*
X151130000Y-93242500D02*
X151130000Y-85750340D01*
X151130000Y-85750340D02*
X154581740Y-82298600D01*
X155826400Y-82298600D02*
X156353600Y-81771400D01*
X156353600Y-80158600D02*
X154925000Y-78730000D01*
%TO.N,/LCD Reading/LCD-32*%
X151130000Y-95782500D02*
X153496400Y-93416100D01*
X153496400Y-93416100D02*
X153496400Y-85238600D01*
X153496400Y-85238600D02*
X154925000Y-83810000D01*
%TO.N,/LCD Reading/LCD-29*%
X149860000Y-83825000D02*
X147305000Y-81270000D01*
X148590000Y-93242500D02*
X149860000Y-91972500D01*
X149860000Y-91972500D02*
X149860000Y-83825000D01*
%TO.N,/LCD Reading/LCD-30*%
X147305000Y-94497500D02*
X147305000Y-86350000D01*
X148590000Y-95782500D02*
X147305000Y-94497500D01*
%TO.N,/LCD Reading/LCD-27*%
X140796400Y-85928940D02*
X141635340Y-85090000D01*
X140796400Y-87988900D02*
X140796400Y-85928940D01*
X144780000Y-83114660D02*
X144780000Y-81290000D01*
X142804660Y-85090000D02*
X144780000Y-83114660D01*
X144780000Y-81290000D02*
X142225000Y-78735000D01*
X141635340Y-85090000D02*
X142804660Y-85090000D01*
X146050000Y-93242500D02*
X140796400Y-87988900D01*
%TO.N,/LCD Reading/LCD-28*%
X146050000Y-95782500D02*
X144971400Y-94703900D01*
X140491600Y-88115152D02*
X140491600Y-85548400D01*
X144971400Y-94703900D02*
X144971400Y-92594952D01*
X144971400Y-92594952D02*
X140491600Y-88115152D01*
X140491600Y-85548400D02*
X142225000Y-83815000D01*
%TO.N,/LCD Reading/LCD-25*%
X143510000Y-93242500D02*
X143510000Y-91564604D01*
X136033600Y-84088204D02*
X136033600Y-82703600D01*
X136033600Y-82703600D02*
X134605000Y-81275000D01*
X143510000Y-91564604D02*
X136033600Y-84088204D01*
%TO.N,/LCD Reading/LCD-26*%
X143510000Y-95782500D02*
X142166708Y-94439208D01*
X142166708Y-92636708D02*
X135890000Y-86360000D01*
X142166708Y-94439208D02*
X142166708Y-92636708D01*
X135890000Y-86360000D02*
X134610000Y-86360000D01*
%TO.N,/LCD Reading/LCD-23*%
X140970000Y-93242500D02*
X135357500Y-87630000D01*
X130366060Y-84848600D02*
X130968600Y-84246060D01*
X128111400Y-85933940D02*
X129196740Y-84848600D01*
X128111400Y-86786060D02*
X128111400Y-85933940D01*
X129196740Y-84848600D02*
X130366060Y-84848600D01*
X135357500Y-87630000D02*
X128955340Y-87630000D01*
X130968600Y-84246060D02*
X130968600Y-80168600D01*
X130968600Y-80168600D02*
X129540000Y-78740000D01*
X128955340Y-87630000D02*
X128111400Y-86786060D01*
%TO.N,/LCD Reading/LCD-24*%
X139700000Y-92710000D02*
X134924800Y-87934800D01*
X127806600Y-85553400D02*
X129540000Y-83820000D01*
X128574800Y-87934800D02*
X127806600Y-87166600D01*
X127806600Y-87166600D02*
X127806600Y-85553400D01*
X139700000Y-94512500D02*
X139700000Y-92710000D01*
X140970000Y-95782500D02*
X139700000Y-94512500D01*
X134924800Y-87934800D02*
X128574800Y-87934800D01*
%TO.N,/LCD Reading/LCD-21*%
X128448548Y-88239600D02*
X121920000Y-81711052D01*
X138430000Y-93242500D02*
X133427100Y-88239600D01*
X133427100Y-88239600D02*
X128448548Y-88239600D01*
%TO.N,/LCD Reading/LCD-22*%
X126137896Y-86360000D02*
X121920000Y-86360000D01*
X138430000Y-95782500D02*
X137160000Y-94512500D01*
X128322296Y-88544400D02*
X126137896Y-86360000D01*
X132994400Y-88544400D02*
X128322296Y-88544400D01*
X137160000Y-94512500D02*
X137160000Y-92710000D01*
X137160000Y-92710000D02*
X132994400Y-88544400D01*
%TO.N,/LCD Reading/LCD-19*%
X118253600Y-80163600D02*
X116825000Y-78735000D01*
X135890000Y-93242500D02*
X131496700Y-88849200D01*
X116481740Y-84843600D02*
X117651060Y-84843600D01*
X115998940Y-87383600D02*
X115396400Y-86781060D01*
X126735444Y-87388600D02*
X120250000Y-87388600D01*
X120250000Y-87388600D02*
X120245000Y-87383600D01*
X131496700Y-88849200D02*
X128196044Y-88849200D01*
X115396400Y-86781060D02*
X115396400Y-85928940D01*
X115396400Y-85928940D02*
X116481740Y-84843600D01*
X118253600Y-84241060D02*
X118253600Y-80163600D01*
X117651060Y-84843600D02*
X118253600Y-84241060D01*
X128196044Y-88849200D02*
X126735444Y-87388600D01*
X120245000Y-87383600D02*
X115998940Y-87383600D01*
%TO.N,/LCD Reading/LCD-20*%
X128069792Y-89154000D02*
X126609192Y-87693400D01*
X134620000Y-94512500D02*
X134620000Y-92987129D01*
X119594052Y-87688400D02*
X115872688Y-87688400D01*
X135890000Y-95782500D02*
X134620000Y-94512500D01*
X130786871Y-89154000D02*
X128069792Y-89154000D01*
X126609192Y-87693400D02*
X119599052Y-87693400D01*
X134620000Y-92987129D02*
X130786871Y-89154000D01*
X115091600Y-85548400D02*
X116825000Y-83815000D01*
X115091600Y-86907312D02*
X115091600Y-85548400D01*
X115872688Y-87688400D02*
X115091600Y-86907312D01*
X119599052Y-87693400D02*
X119594052Y-87688400D01*
%TO.N,/LCD Reading/LCD-17*%
X129566300Y-89458800D02*
X127943540Y-89458800D01*
X126482940Y-87998200D02*
X115751436Y-87998200D01*
X133350000Y-93242500D02*
X129566300Y-89458800D01*
X115751436Y-87998200D02*
X109205000Y-81451764D01*
X127943540Y-89458800D02*
X126482940Y-87998200D01*
%TO.N,/LCD Reading/LCD-18*%
X126356688Y-88303000D02*
X115625184Y-88303000D01*
X133350000Y-95782500D02*
X132006708Y-94439208D01*
X127817288Y-89763600D02*
X126356688Y-88303000D01*
X132006708Y-94439208D02*
X132006708Y-92636708D01*
X113677184Y-86355000D02*
X109205000Y-86355000D01*
X132006708Y-92636708D02*
X129133600Y-89763600D01*
X129133600Y-89763600D02*
X127817288Y-89763600D01*
X115625184Y-88303000D02*
X113677184Y-86355000D01*
%TO.N,/LCD Reading/LCD-15*%
X104981060Y-84828600D02*
X105583600Y-84226060D01*
X102726400Y-86766060D02*
X102726400Y-85913940D01*
X114274732Y-87383600D02*
X103343940Y-87383600D01*
X103343940Y-87383600D02*
X102726400Y-86766060D01*
X103811740Y-84828600D02*
X104981060Y-84828600D01*
X105583600Y-80148600D02*
X104155000Y-78720000D01*
X102726400Y-85913940D02*
X103811740Y-84828600D01*
X105583600Y-84226060D02*
X105583600Y-80148600D01*
X115498932Y-88607800D02*
X114274732Y-87383600D01*
X130810000Y-93242500D02*
X126175300Y-88607800D01*
X126175300Y-88607800D02*
X115498932Y-88607800D01*
%TO.N,/LCD Reading/LCD-14*%
X128270000Y-95782500D02*
X126926708Y-94439208D01*
X126926708Y-94439208D02*
X126926708Y-92636708D01*
X123812200Y-89522200D02*
X115120176Y-89522200D01*
X113895976Y-88298000D02*
X98493000Y-88298000D01*
X126926708Y-92636708D02*
X123812200Y-89522200D01*
X98493000Y-88298000D02*
X96535000Y-86340000D01*
X115120176Y-89522200D02*
X113895976Y-88298000D01*
%TO.N,/LCD Reading/LCD-11*%
X114993924Y-89827000D02*
X113769724Y-88602800D01*
X125730000Y-93242500D02*
X122314500Y-89827000D01*
X98366748Y-88602800D02*
X97139948Y-87376000D01*
X113769724Y-88602800D02*
X98366748Y-88602800D01*
X122314500Y-89827000D02*
X114993924Y-89827000D01*
X93980000Y-81245000D02*
X91455000Y-78720000D01*
X97139948Y-87376000D02*
X95250000Y-87376000D01*
X95250000Y-87376000D02*
X93980000Y-86106000D01*
X93980000Y-86106000D02*
X93980000Y-81245000D01*
%TO.N,/LCD Reading/LCD-12*%
X125730000Y-95782500D02*
X124386708Y-94439208D01*
X114867672Y-90131800D02*
X113643472Y-88907600D01*
X97013696Y-87680800D02*
X95123748Y-87680800D01*
X124386708Y-94439208D02*
X124386708Y-92636708D01*
X124386708Y-92636708D02*
X121881800Y-90131800D01*
X113643472Y-88907600D02*
X98240496Y-88907600D01*
X95123748Y-87680800D02*
X91455000Y-84012052D01*
X121881800Y-90131800D02*
X114867672Y-90131800D01*
X98240496Y-88907600D02*
X97013696Y-87680800D01*
%TO.N,/LCD Reading/LCD-9*%
X89265660Y-87376000D02*
X83835000Y-81945340D01*
X120384100Y-90436600D02*
X114741420Y-90436600D01*
X113517220Y-89212400D02*
X98114244Y-89212400D01*
X123190000Y-93242500D02*
X120384100Y-90436600D01*
X114741420Y-90436600D02*
X113517220Y-89212400D01*
X94234000Y-87376000D02*
X89265660Y-87376000D01*
X96887444Y-87985600D02*
X94843600Y-87985600D01*
X94843600Y-87985600D02*
X94234000Y-87376000D01*
X98114244Y-89212400D02*
X96887444Y-87985600D01*
%TO.N,/LCD Reading/LCD-10*%
X123190000Y-95782500D02*
X121920000Y-94512500D01*
X96761192Y-88290400D02*
X94717348Y-88290400D01*
X121920000Y-92987129D02*
X119674271Y-90741400D01*
X113390968Y-89517200D02*
X97987992Y-89517200D01*
X94717348Y-88290400D02*
X94107748Y-87680800D01*
X121920000Y-94512500D02*
X121920000Y-92987129D01*
X97987992Y-89517200D02*
X96761192Y-88290400D01*
X94107748Y-87680800D02*
X85175800Y-87680800D01*
X114615168Y-90741400D02*
X113390968Y-89517200D01*
X119674271Y-90741400D02*
X114615168Y-90741400D01*
X85175800Y-87680800D02*
X83835000Y-86340000D01*
%TO.N,/LCD Reading/LCD-7*%
X80138600Y-84256060D02*
X80138600Y-80178600D01*
X94591096Y-88595200D02*
X93981496Y-87985600D01*
X77281400Y-86796060D02*
X77281400Y-85943940D01*
X84693948Y-87630000D02*
X78115340Y-87630000D01*
X97861740Y-89822000D02*
X96634940Y-88595200D01*
X78135340Y-85090000D02*
X79304660Y-85090000D01*
X78115340Y-87630000D02*
X77281400Y-86796060D01*
X80138600Y-80178600D02*
X78710000Y-78750000D01*
X120650000Y-93242500D02*
X118453700Y-91046200D01*
X85049548Y-87985600D02*
X84693948Y-87630000D01*
X77281400Y-85943940D02*
X78135340Y-85090000D01*
X93981496Y-87985600D02*
X85049548Y-87985600D01*
X118453700Y-91046200D02*
X114488916Y-91046200D01*
X79304660Y-85090000D02*
X80138600Y-84256060D01*
X96634940Y-88595200D02*
X94591096Y-88595200D01*
X113264716Y-89822000D02*
X97861740Y-89822000D01*
X114488916Y-91046200D02*
X113264716Y-89822000D01*
%TO.N,/LCD Reading/LCD-8*%
X119571400Y-93104600D02*
X117817800Y-91351000D01*
X96508688Y-88900000D02*
X94464844Y-88900000D01*
X76976600Y-85563400D02*
X78710000Y-83830000D01*
X119571400Y-94703900D02*
X119571400Y-93104600D01*
X84567696Y-87934800D02*
X77989088Y-87934800D01*
X97735488Y-90126800D02*
X96508688Y-88900000D01*
X84923296Y-88290400D02*
X84567696Y-87934800D01*
X94464844Y-88900000D02*
X93855244Y-88290400D01*
X77989088Y-87934800D02*
X76976600Y-86922312D01*
X117817800Y-91351000D02*
X114362664Y-91351000D01*
X114362664Y-91351000D02*
X113138464Y-90126800D01*
X113138464Y-90126800D02*
X97735488Y-90126800D01*
X120650000Y-95782500D02*
X119571400Y-94703900D01*
X93855244Y-88290400D02*
X84923296Y-88290400D01*
X76976600Y-86922312D02*
X76976600Y-85563400D01*
%TO.N,/LCD Reading/LCD-5*%
X97609236Y-90431600D02*
X96382436Y-89204800D01*
X77862836Y-88239600D02*
X71090000Y-81466764D01*
X84797044Y-88595200D02*
X84441444Y-88239600D01*
X84441444Y-88239600D02*
X77862836Y-88239600D01*
X118110000Y-93242500D02*
X116523300Y-91655800D01*
X114236412Y-91655800D02*
X113012212Y-90431600D01*
X113012212Y-90431600D02*
X97609236Y-90431600D01*
X116523300Y-91655800D02*
X114236412Y-91655800D01*
X93728992Y-88595200D02*
X84797044Y-88595200D01*
X94338592Y-89204800D02*
X93728992Y-88595200D01*
X96382436Y-89204800D02*
X94338592Y-89204800D01*
%TO.N,/LCD Reading/LCD-6*%
X112885960Y-90736400D02*
X97482984Y-90736400D01*
X116840000Y-94512500D02*
X116840000Y-92403552D01*
X116840000Y-92403552D02*
X116397048Y-91960600D01*
X118110000Y-95782500D02*
X116840000Y-94512500D01*
X96256184Y-89509600D02*
X94212340Y-89509600D01*
X84315192Y-88544400D02*
X73264400Y-88544400D01*
X114110160Y-91960600D02*
X112885960Y-90736400D01*
X73264400Y-88544400D02*
X71090000Y-86370000D01*
X116397048Y-91960600D02*
X114110160Y-91960600D01*
X93602740Y-88900000D02*
X84670792Y-88900000D01*
X97482984Y-90736400D02*
X96256184Y-89509600D01*
X94212340Y-89509600D02*
X93602740Y-88900000D01*
X84670792Y-88900000D02*
X84315192Y-88544400D01*
%TO.N,/LCD Reading/LCD-3*%
X112759708Y-91041200D02*
X97356732Y-91041200D01*
X113983908Y-92265400D02*
X112759708Y-91041200D01*
X115570000Y-93242500D02*
X114592900Y-92265400D01*
X96129932Y-89814400D02*
X94086088Y-89814400D01*
X94086088Y-89814400D02*
X93476488Y-89204800D01*
X71704200Y-88849200D02*
X68249800Y-85394800D01*
X114592900Y-92265400D02*
X113983908Y-92265400D01*
X97356732Y-91041200D02*
X96129932Y-89814400D01*
X68249800Y-80989800D02*
X66010000Y-78750000D01*
X68249800Y-85394800D02*
X68249800Y-80989800D01*
X84188940Y-88849200D02*
X71704200Y-88849200D01*
X93476488Y-89204800D02*
X84544540Y-89204800D01*
X84544540Y-89204800D02*
X84188940Y-88849200D01*
%TO.N,/LCD Reading/LCD-4*%
X84292036Y-89814400D02*
X83936436Y-89458800D01*
X111937052Y-92710000D02*
X110896026Y-91668974D01*
X115570000Y-95782500D02*
X114491400Y-94703900D01*
X111937800Y-92710000D02*
X111937052Y-92710000D01*
X110896026Y-91668974D02*
X98653974Y-91668974D01*
X71451696Y-89458800D02*
X66010000Y-84017104D01*
X93833584Y-90424000D02*
X93223984Y-89814400D01*
X114491400Y-94703900D02*
X112382452Y-94703900D01*
X93223984Y-89814400D02*
X84292036Y-89814400D01*
X112382452Y-94703900D02*
X111937800Y-94259248D01*
X98653974Y-91668974D02*
X98635800Y-91650800D01*
X111937800Y-94259248D02*
X111937800Y-92710000D01*
X97104228Y-91650800D02*
X95877428Y-90424000D01*
X95877428Y-90424000D02*
X93833584Y-90424000D01*
X83936436Y-89458800D02*
X71451696Y-89458800D01*
X98635800Y-91650800D02*
X97104228Y-91650800D01*
%TO.N,/LCD Reading/LCD-1*%
X111133500Y-91346000D02*
X97230480Y-91346000D01*
X97230480Y-91346000D02*
X96003680Y-90119200D01*
X96003680Y-90119200D02*
X93959836Y-90119200D01*
X84062688Y-89154000D02*
X71577948Y-89154000D01*
X67438600Y-85014652D02*
X67438600Y-83313600D01*
X59650000Y-82550000D02*
X58390000Y-81290000D01*
X113030000Y-93242500D02*
X111133500Y-91346000D01*
X67438600Y-83313600D02*
X66675000Y-82550000D01*
X66675000Y-82550000D02*
X59650000Y-82550000D01*
X71577948Y-89154000D02*
X67438600Y-85014652D01*
X84418288Y-89509600D02*
X84062688Y-89154000D01*
X93959836Y-90119200D02*
X93350236Y-89509600D01*
X93350236Y-89509600D02*
X84418288Y-89509600D01*
%TO.N,/LCD Reading/LCD-2*%
X95751176Y-90728800D02*
X93707332Y-90728800D01*
X93097732Y-90119200D02*
X84165784Y-90119200D01*
X83835584Y-89789000D02*
X61809000Y-89789000D01*
X84165784Y-90119200D02*
X83835584Y-89789000D01*
X61809000Y-89789000D02*
X58390000Y-86370000D01*
X111633000Y-94385500D02*
X111633000Y-92837000D01*
X93707332Y-90728800D02*
X93097732Y-90119200D01*
X96996150Y-91973774D02*
X95751176Y-90728800D01*
X111633000Y-92837000D02*
X110769774Y-91973774D01*
X113030000Y-95782500D02*
X111633000Y-94385500D01*
X110769774Y-91973774D02*
X96996150Y-91973774D01*
%TO.N,/Keypad Driving/B0*%
X30835600Y-90183455D02*
X34950400Y-94298255D01*
X34950400Y-100852875D02*
X37349925Y-103252400D01*
X37349925Y-103252400D02*
X92808704Y-103252400D01*
X103581436Y-97155000D02*
X104140000Y-96596436D01*
X104140000Y-96596436D02*
X104140000Y-95462597D01*
X30810200Y-73773617D02*
X30251400Y-74332417D01*
X92808704Y-103252400D02*
X98906104Y-97155000D01*
X30480000Y-68580000D02*
X30810200Y-68910200D01*
X104898697Y-94703900D02*
X109028600Y-94703900D01*
X30810200Y-68910200D02*
X30810200Y-73773617D01*
X104140000Y-95462597D02*
X104898697Y-94703900D01*
X34950400Y-94298255D02*
X34950400Y-100852875D01*
X109028600Y-94703900D02*
X110490000Y-93242500D01*
X98906104Y-97155000D02*
X103581436Y-97155000D01*
X30835600Y-75871915D02*
X30835600Y-90183455D01*
X30251400Y-74332417D02*
X30251400Y-75287715D01*
X30251400Y-75287715D02*
X30835600Y-75871915D01*
%TO.N,/Keypad Driving/A0*%
X42648600Y-42441400D02*
X38203600Y-42441400D01*
X38100000Y-42545000D02*
X34589360Y-42545000D01*
X43792552Y-41297448D02*
X42648600Y-42441400D01*
X34589360Y-42545000D02*
X34036500Y-41992140D01*
X112037216Y-97329716D02*
X151939716Y-97329716D01*
X156845000Y-92424432D02*
X156845000Y-43771761D01*
X110490000Y-95782500D02*
X112037216Y-97329716D01*
X151939716Y-97329716D02*
X156845000Y-92424432D01*
X154370687Y-41297448D02*
X43792552Y-41297448D01*
X156845000Y-43771761D02*
X154370687Y-41297448D01*
X38203600Y-42441400D02*
X38100000Y-42545000D01*
%TO.N,/Keypad Driving/B1*%
X101345252Y-94284800D02*
X101907625Y-94284800D01*
X92682452Y-102947600D02*
X101345252Y-94284800D01*
X31115000Y-73899869D02*
X30556200Y-74458669D01*
X37476177Y-102947600D02*
X92682452Y-102947600D01*
X31140400Y-90057203D02*
X35255200Y-94172003D01*
X30556200Y-74458669D02*
X30556200Y-75161463D01*
X104510100Y-94625900D02*
X104775000Y-94361000D01*
X35255200Y-100726623D02*
X37476177Y-102947600D01*
X30556200Y-75161463D02*
X31140400Y-75745663D01*
X35255200Y-94172003D02*
X35255200Y-100726623D01*
X31115000Y-67310000D02*
X31115000Y-73899869D01*
X31140400Y-75745663D02*
X31140400Y-90057203D01*
X104775000Y-94361000D02*
X106831500Y-94361000D01*
X106831500Y-94361000D02*
X107950000Y-93242500D01*
X101907625Y-94284800D02*
X102248725Y-94625900D01*
X102248725Y-94625900D02*
X104510100Y-94625900D01*
%TO.N,/Keypad Driving/A1*%
X43666300Y-40992648D02*
X154496939Y-40992648D01*
X109802016Y-97634516D02*
X107950000Y-95782500D01*
X36830000Y-41910000D02*
X37056600Y-42136600D01*
X152065968Y-97634516D02*
X109802016Y-97634516D01*
X42522348Y-42136600D02*
X43666300Y-40992648D01*
X37056600Y-42136600D02*
X42522348Y-42136600D01*
X157149800Y-92550684D02*
X152065968Y-97634516D01*
X157149800Y-43645509D02*
X157149800Y-92550684D01*
X154496939Y-40992648D02*
X157149800Y-43645509D01*
%TO.N,/Keypad Driving/B2*%
X35560000Y-94045751D02*
X35560000Y-100600371D01*
X31445200Y-75260200D02*
X31445200Y-89930951D01*
X31445200Y-89930951D02*
X35560000Y-94045751D01*
X102033877Y-93980000D02*
X102374977Y-94321100D01*
X31115000Y-74930000D02*
X31445200Y-75260200D01*
X102374977Y-94321100D02*
X104331400Y-94321100D01*
X101219000Y-93980000D02*
X102033877Y-93980000D01*
X92556200Y-102642800D02*
X101219000Y-93980000D01*
X35560000Y-100600371D02*
X37602429Y-102642800D01*
X104331400Y-94321100D02*
X105410000Y-93242500D01*
X37602429Y-102642800D02*
X92556200Y-102642800D01*
%TO.N,/Keypad Driving/A2*%
X33655000Y-41275000D02*
X33731200Y-41351200D01*
X157480000Y-43544657D02*
X157480000Y-92651536D01*
X152192220Y-97939316D02*
X107566816Y-97939316D01*
X43540048Y-40687848D02*
X154623191Y-40687848D01*
X107566816Y-97939316D02*
X105410000Y-95782500D01*
X42396096Y-41831800D02*
X43540048Y-40687848D01*
X33731200Y-41351200D02*
X37061463Y-41351200D01*
X157480000Y-92651536D02*
X152192220Y-97939316D01*
X154623191Y-40687848D02*
X157480000Y-43544657D01*
X37061463Y-41351200D02*
X37542063Y-41831800D01*
X37542063Y-41831800D02*
X42396096Y-41831800D01*
%TO.N,/Keypad Driving/A3*%
X42269844Y-41527000D02*
X43413796Y-40383048D01*
X36830000Y-40716700D02*
X36858015Y-40716700D01*
X142420884Y-98244116D02*
X138425000Y-102240000D01*
X43413796Y-40383048D02*
X154749443Y-40383048D01*
X36858015Y-40716700D02*
X37668315Y-41527000D01*
X157784800Y-92777788D02*
X152318472Y-98244116D01*
X154749443Y-40383048D02*
X157784800Y-43418405D01*
X152318472Y-98244116D02*
X142420884Y-98244116D01*
X157784800Y-43418405D02*
X157784800Y-92777788D01*
X37668315Y-41527000D02*
X42269844Y-41527000D01*
%TO.N,/Keypad Driving/A4*%
X38125763Y-41222200D02*
X37061463Y-40157900D01*
X37061463Y-40157900D02*
X36598537Y-40157900D01*
X43287544Y-40078248D02*
X42143592Y-41222200D01*
X144300484Y-98548916D02*
X152444724Y-98548916D01*
X137070000Y-103505000D02*
X139344400Y-103505000D01*
X42143592Y-41222200D02*
X38125763Y-41222200D01*
X36116436Y-40640000D02*
X34290000Y-40640000D01*
X154875695Y-40078248D02*
X43287544Y-40078248D01*
X152444724Y-98548916D02*
X158115000Y-92878640D01*
X158115000Y-43317553D02*
X154875695Y-40078248D01*
X139344400Y-103505000D02*
X144300484Y-98548916D01*
X36598537Y-40157900D02*
X36116436Y-40640000D01*
X135885000Y-102320000D02*
X137070000Y-103505000D01*
X158115000Y-92878640D02*
X158115000Y-43317553D01*
%TO.N,/Keypad Driving/A5*%
X43161292Y-39773448D02*
X155001947Y-39773448D01*
X139470652Y-103809800D02*
X134924800Y-103809800D01*
X155001947Y-39773448D02*
X158419800Y-43191301D01*
X134924800Y-103809800D02*
X133350000Y-102235000D01*
X38610519Y-40917400D02*
X42017340Y-40917400D01*
X158419800Y-93004892D02*
X152570976Y-98853716D01*
X38216559Y-40523440D02*
X38610519Y-40917400D01*
X42017340Y-40917400D02*
X43161292Y-39773448D01*
X144426736Y-98853716D02*
X139470652Y-103809800D01*
X158419800Y-43191301D02*
X158419800Y-93004892D01*
X152570976Y-98853716D02*
X144426736Y-98853716D01*
%TO.N,/Keypad Driving/A6*%
X35076900Y-39853100D02*
X34925000Y-40005000D01*
X41891088Y-40612600D02*
X39095982Y-40612600D01*
X43035040Y-39468648D02*
X41891088Y-40612600D01*
X152697228Y-99158516D02*
X158750000Y-93105744D01*
X158750000Y-93105744D02*
X158750000Y-43090449D01*
X158750000Y-43090449D02*
X155128199Y-39468648D01*
X155128199Y-39468648D02*
X43035040Y-39468648D01*
X39095982Y-40612600D02*
X38336482Y-39853100D01*
X139571504Y-104140000D02*
X144552988Y-99158516D01*
X38336482Y-39853100D02*
X35076900Y-39853100D01*
X132625000Y-104140000D02*
X139571504Y-104140000D01*
X144552988Y-99158516D02*
X152697228Y-99158516D01*
X130805000Y-102320000D02*
X132625000Y-104140000D01*
%TO.N,/Keypad Driving/A7*%
X159054800Y-93231996D02*
X152823480Y-99463316D01*
X130389800Y-104444800D02*
X128265000Y-102320000D01*
X42908788Y-39163848D02*
X155254451Y-39163848D01*
X155254451Y-39163848D02*
X159054800Y-42964197D01*
X41764836Y-40307800D02*
X42908788Y-39163848D01*
X144679240Y-99463316D02*
X139697756Y-104444800D01*
X159054800Y-42964197D02*
X159054800Y-93231996D01*
X39370000Y-40005000D02*
X39672800Y-40307800D01*
X152823480Y-99463316D02*
X144679240Y-99463316D01*
X139697756Y-104444800D02*
X130389800Y-104444800D01*
X39672800Y-40307800D02*
X41764836Y-40307800D01*
%TO.N,/Keypad Driving/B3*%
X30530800Y-90309707D02*
X34645600Y-94424507D01*
X34645600Y-94424507D02*
X34645600Y-100979127D01*
X30530800Y-75998167D02*
X30530800Y-90309707D01*
X29946600Y-75413967D02*
X30530800Y-75998167D01*
X29946600Y-74206165D02*
X29946600Y-75413967D01*
X34645600Y-100979127D02*
X37223673Y-103557200D01*
X30193080Y-73601180D02*
X30193080Y-73959685D01*
X30193080Y-73959685D02*
X29946600Y-74206165D01*
X37223673Y-103557200D02*
X92934956Y-103557200D01*
X121649116Y-98244116D02*
X125725000Y-102320000D01*
X92934956Y-103557200D02*
X98248040Y-98244116D01*
X98248040Y-98244116D02*
X121649116Y-98244116D01*
%TO.N,/Keypad Driving/B4*%
X98374292Y-98548916D02*
X119413916Y-98548916D01*
X93061208Y-103862000D02*
X98374292Y-98548916D01*
X34340800Y-94550759D02*
X34340800Y-101105379D01*
X37097421Y-103862000D02*
X93061208Y-103862000D01*
X30226000Y-81533500D02*
X30226000Y-90435959D01*
X34340800Y-101105379D02*
X37097421Y-103862000D01*
X29972500Y-81280000D02*
X30226000Y-81533500D01*
X119413916Y-98548916D02*
X123185000Y-102320000D01*
X30226000Y-90435959D02*
X34340800Y-94550759D01*
%TO.N,/Keypad Driving/B5*%
X98500544Y-98853716D02*
X117178716Y-98853716D01*
X93187460Y-104166800D02*
X98500544Y-98853716D01*
X29972500Y-80010000D02*
X29413700Y-80568800D01*
X34036000Y-101231631D02*
X36971169Y-104166800D01*
X117178716Y-98853716D02*
X120645000Y-102320000D01*
X29413700Y-80568800D02*
X29413700Y-81610700D01*
X29413700Y-81610700D02*
X29921200Y-82118200D01*
X36971169Y-104166800D02*
X93187460Y-104166800D01*
X29921200Y-90562211D02*
X34036000Y-94677011D01*
X34036000Y-94677011D02*
X34036000Y-101231631D01*
X29921200Y-82118200D02*
X29921200Y-90562211D01*
%TO.N,/Keypad Driving/B6*%
X30603220Y-91675283D02*
X33731200Y-94803263D01*
X33731200Y-94803263D02*
X33731200Y-101357883D01*
X114943516Y-99158516D02*
X118105000Y-102320000D01*
X33731200Y-101357883D02*
X36844917Y-104471600D01*
X93313712Y-104471600D02*
X98626796Y-99158516D01*
X36844917Y-104471600D02*
X93313712Y-104471600D01*
X30244716Y-91675283D02*
X30603220Y-91675283D01*
X98626796Y-99158516D02*
X114943516Y-99158516D01*
%TO.N,/Keypad Driving/RESET*%
X33426400Y-95288020D02*
X33426400Y-101484135D01*
X112708316Y-99463316D02*
X115565000Y-102320000D01*
X33153640Y-95015260D02*
X33426400Y-95288020D01*
X93439964Y-104776400D02*
X98753048Y-99463316D01*
X36718665Y-104776400D02*
X93439964Y-104776400D01*
X98753048Y-99463316D02*
X112708316Y-99463316D01*
X33426400Y-101484135D02*
X36718665Y-104776400D01*
%TO.N,Net-(Q1-Pad1)*%
X31750000Y-71120000D02*
X39340000Y-71120000D01*
X31750000Y-77470000D02*
X31750000Y-71120000D01*
X39145000Y-55895000D02*
X35350000Y-59690000D01*
X31750000Y-77470000D02*
X39340000Y-77470000D01*
X31750000Y-49530000D02*
X31750000Y-43180000D01*
X31765000Y-43195000D02*
X39370000Y-43195000D01*
X31750000Y-43180000D02*
X31765000Y-43195000D01*
X35350000Y-59690000D02*
X31750000Y-59690000D01*
X32522600Y-90170000D02*
X31750000Y-89397400D01*
X31750000Y-62230000D02*
X31750000Y-59690000D01*
X31750000Y-49530000D02*
X33020000Y-49530000D01*
X31750000Y-62230000D02*
X33020000Y-62230000D01*
X35350000Y-66040000D02*
X31750000Y-66040000D01*
X31750000Y-55880000D02*
X33020000Y-55880000D01*
X39145000Y-62245000D02*
X35350000Y-66040000D01*
X31750000Y-89397400D02*
X31750000Y-83820000D01*
X31750000Y-55880000D02*
X31750000Y-49530000D01*
X31750000Y-59690000D02*
X31750000Y-55880000D01*
X31750000Y-71120000D02*
X31750000Y-62230000D01*
X39145000Y-49545000D02*
X35350000Y-53340000D01*
X31750000Y-83820000D02*
X39325000Y-83820000D01*
X35350000Y-53340000D02*
X31750000Y-53340000D01*
X31750000Y-83820000D02*
X31750000Y-77470000D01*
%TO.N,/LCD Reading/DAT-5*%
X77455000Y-55895000D02*
X80010000Y-53340000D01*
X72375000Y-55895000D02*
X77455000Y-55895000D01*
%TO.N,/LCD Reading/DAT-6*%
X72375000Y-53355000D02*
X77455000Y-53355000D01*
%TO.N,/LCD Reading/DAT-7*%
X72375000Y-50815000D02*
X77455000Y-50815000D01*
%TO.N,/LCD Reading/DAT-8*%
X72375000Y-48275000D02*
X77485000Y-48275000D01*
X77485000Y-48275000D02*
X80010000Y-50800000D01*
%TO.N,/LCD Reading/DAT-9*%
X82550000Y-50800000D02*
X85105000Y-48245000D01*
X85105000Y-48245000D02*
X90200000Y-48245000D01*
%TO.N,/LCD Reading/DAT-10*%
X85090000Y-50800000D02*
X90185000Y-50800000D01*
%TO.N,/LCD Reading/DAT-11*%
X85090000Y-53340000D02*
X90185000Y-53340000D01*
%TO.N,/LCD Reading/DAT-12*%
X82550000Y-53340000D02*
X85075000Y-55865000D01*
X85075000Y-55865000D02*
X90200000Y-55865000D01*
%TO.N,/LCD Reading/DAT-13*%
X102885000Y-55865000D02*
X105410000Y-53340000D01*
X97820000Y-55865000D02*
X102885000Y-55865000D01*
%TO.N,/LCD Reading/DAT-14*%
X97820000Y-53325000D02*
X102855000Y-53325000D01*
%TO.N,/LCD Reading/DAT-15*%
X97820000Y-50785000D02*
X102855000Y-50785000D01*
%TO.N,/LCD Reading/DAT-16*%
X97820000Y-48245000D02*
X102855000Y-48245000D01*
X102855000Y-48245000D02*
X105410000Y-50800000D01*
%TO.N,/LCD Reading/DAT-17*%
X110490000Y-48260000D02*
X115570000Y-48260000D01*
X107950000Y-50800000D02*
X110490000Y-48260000D01*
%TO.N,/LCD Reading/DAT-18*%
X110490000Y-50800000D02*
X115570000Y-50800000D01*
%TO.N,/LCD Reading/DAT-19*%
X110490000Y-53340000D02*
X115570000Y-53340000D01*
%TO.N,/LCD Reading/DAT-20*%
X110490000Y-55880000D02*
X115570000Y-55880000D01*
X107950000Y-53340000D02*
X110490000Y-55880000D01*
%TO.N,/LCD Reading/DAT-21*%
X128270000Y-55880000D02*
X130810000Y-53340000D01*
X123190000Y-55880000D02*
X128270000Y-55880000D01*
%TO.N,/LCD Reading/DAT-22*%
X123190000Y-53340000D02*
X128270000Y-53340000D01*
%TO.N,/LCD Reading/DAT-23*%
X123190000Y-50800000D02*
X128270000Y-50800000D01*
%TO.N,/LCD Reading/DAT-24*%
X128270000Y-48260000D02*
X130810000Y-50800000D01*
X123190000Y-48260000D02*
X128270000Y-48260000D01*
%TO.N,/LCD Reading/DAT-25*%
X135925000Y-48225000D02*
X140970000Y-48225000D01*
X133350000Y-50800000D02*
X135925000Y-48225000D01*
%TO.N,/LCD Reading/DAT-26*%
X135890000Y-50800000D02*
X140935000Y-50800000D01*
%TO.N,/LCD Reading/DAT-27*%
X135890000Y-53340000D02*
X140935000Y-53340000D01*
%TO.N,/LCD Reading/DAT-28*%
X135855000Y-55845000D02*
X140970000Y-55845000D01*
X133350000Y-53340000D02*
X135855000Y-55845000D01*
%TO.N,/LCD Reading/DAT-29*%
X152435000Y-55845000D02*
X148590000Y-55845000D01*
X154940000Y-53340000D02*
X152435000Y-55845000D01*
%TO.N,/LCD Reading/DAT-30*%
X152400000Y-53340000D02*
X148625000Y-53340000D01*
%TO.N,/LCD Reading/DAT-31*%
X152400000Y-50800000D02*
X148625000Y-50800000D01*
%TO.N,/LCD Reading/DAT-32*%
X154940000Y-50800000D02*
X152365000Y-48225000D01*
X152365000Y-48225000D02*
X148590000Y-48225000D01*
%TO.N,Net-(U2-Pad9)*%
X87630000Y-43180000D02*
X86357048Y-41907048D01*
X66042952Y-41907048D02*
X64755000Y-43195000D01*
X86357048Y-41907048D02*
X66042952Y-41907048D01*
%TO.N,Net-(U5-Pad9)*%
X111757048Y-41907048D02*
X91457952Y-41907048D01*
X91457952Y-41907048D02*
X90200000Y-43165000D01*
X113030000Y-43180000D02*
X111757048Y-41907048D01*
%TO.N,Net-(U11-Pad10)*%
X138430000Y-43180000D02*
X137157048Y-41907048D01*
X137157048Y-41907048D02*
X116842952Y-41907048D01*
X116842952Y-41907048D02*
X115570000Y-43180000D01*
%TO.N,/Keypad Driving/XA1*%
X43135000Y-44465000D02*
X39370000Y-44465000D01*
X45690000Y-47020000D02*
X43135000Y-44465000D01*
%TO.N,/Keypad Driving/XA2*%
X45690000Y-49560000D02*
X43210000Y-49560000D01*
X36830000Y-48260000D02*
X34290000Y-50800000D01*
X34290000Y-50800000D02*
X33020000Y-50800000D01*
X41910000Y-48260000D02*
X36830000Y-48260000D01*
X43210000Y-49560000D02*
X41910000Y-48260000D01*
%TO.N,/Keypad Driving/XA3*%
X45690000Y-52100000D02*
X44405000Y-50815000D01*
X44405000Y-50815000D02*
X39370000Y-50815000D01*
%TO.N,/Keypad Driving/XA4*%
X36075136Y-57150000D02*
X33020000Y-57150000D01*
X38585136Y-54640000D02*
X36075136Y-57150000D01*
X45690000Y-54640000D02*
X38585136Y-54640000D01*
%TO.N,/Keypad Driving/XA5*%
X45690000Y-57180000D02*
X39385000Y-57180000D01*
%TO.N,/Keypad Driving/XA6*%
X36075136Y-63500000D02*
X33020000Y-63500000D01*
X39855136Y-59720000D02*
X36075136Y-63500000D01*
X45690000Y-59720000D02*
X39855136Y-59720000D01*
%TO.N,/Keypad Driving/XA7*%
X44435000Y-63515000D02*
X39370000Y-63515000D01*
X45690000Y-62260000D02*
X44435000Y-63515000D01*
%TO.N,/Keypad Driving/XB0*%
X36878663Y-67261337D02*
X34290000Y-69850000D01*
X34290000Y-69850000D02*
X32990000Y-69850000D01*
X45720000Y-71120000D02*
X41861337Y-67261337D01*
X41861337Y-67261337D02*
X36878663Y-67261337D01*
%TO.N,/Keypad Driving/XB1*%
X43105000Y-69850000D02*
X45705000Y-72450000D01*
X39340000Y-69850000D02*
X43105000Y-69850000D01*
%TO.N,/Keypad Driving/XB2*%
X32990000Y-76200000D02*
X36030136Y-76200000D01*
X44375000Y-73660000D02*
X45705000Y-74990000D01*
X36030136Y-76200000D02*
X38570136Y-73660000D01*
X38570136Y-73660000D02*
X44375000Y-73660000D01*
%TO.N,/Keypad Driving/XB3*%
X44375000Y-76200000D02*
X45705000Y-77530000D01*
X39340000Y-76200000D02*
X44375000Y-76200000D01*
%TO.N,/Keypad Driving/XB4*%
X36015136Y-82550000D02*
X38495136Y-80070000D01*
X38495136Y-80070000D02*
X45705000Y-80070000D01*
X32975000Y-82550000D02*
X36015136Y-82550000D01*
%TO.N,/Keypad Driving/XB5*%
X45705000Y-82610000D02*
X39385000Y-82610000D01*
%TO.N,/Keypad Driving/XB6*%
X39780136Y-85150000D02*
X45705000Y-85150000D01*
X36030136Y-88900000D02*
X39780136Y-85150000D01*
X32975000Y-88900000D02*
X36030136Y-88900000D01*
%TO.N,/Keypad Driving/XRESET*%
X44495000Y-88900000D02*
X45705000Y-87690000D01*
X39340000Y-88900000D02*
X44495000Y-88900000D01*
%TD*%
M02*
