M48
; DRILL file {KiCad (6.0.6)} date Sun Jul 31 05:49:12 2022
; FORMAT={-:-/ absolute / inch / decimal}
; #@! TF.CreationDate,2022-07-31T05:49:12-04:00
; #@! TF.GenerationSoftware,Kicad,Pcbnew,(6.0.6)
; #@! TF.FileFunction,Plated,1,2,PTH
FMAT,2
INCH
; #@! TA.AperFunction,Plated,PTH,ViaDrill
T1C0.0130
; #@! TA.AperFunction,Plated,PTH,ComponentDrill
T2C0.0236
; #@! TA.AperFunction,Plated,PTH,ComponentDrill
T3C0.0276
; #@! TA.AperFunction,Plated,PTH,ComponentDrill
T4C0.0295
; #@! TA.AperFunction,Plated,PTH,ComponentDrill
T5C0.0315
; #@! TA.AperFunction,Plated,PTH,ComponentDrill
T6C0.0394
; #@! TA.AperFunction,Plated,PTH,ComponentDrill
T7C0.1969
%
G90
G05
T1
X1.18Y-3.15
X1.18Y-3.2
X1.1887Y-2.8977
X1.1907Y-3.6093
X1.2Y-2.7
X1.225Y-2.65
X1.225Y-2.95
X1.3053Y-3.7408
X1.325Y-1.625
X1.34Y-1.6532
X1.35Y-1.6
X1.375Y-1.575
X1.45Y-1.603
X1.45Y-1.65
X1.5046Y-1.5954
X1.55Y-1.575
X1.8Y-2.8
X1.928Y-1.951
X2.025Y-3.275
X2.275Y-2.25
X2.275Y-2.35
X3.15Y-2.25
X3.15Y-2.3
X3.25Y-2.25
X3.25Y-2.3
X3.45Y-1.7
X4.15Y-2.25
X4.15Y-2.3
X4.25Y-2.25
X4.25Y-2.3
X4.45Y-1.7
X5.15Y-2.25
X5.15Y-2.3
X5.25Y-2.25
X5.25Y-2.3
X5.45Y-1.7
T2
X1.1524Y-1.3
X1.1524Y-4.3
X1.1956Y-1.1956
X1.1956Y-1.4044
X1.1956Y-4.1956
X1.1956Y-4.4044
X1.3Y-1.1524
X1.3Y-1.4476
X1.3Y-4.1524
X1.3Y-4.4476
X1.4044Y-1.1956
X1.4044Y-1.4044
X1.4044Y-4.1956
X1.4044Y-4.4044
X1.4476Y-1.3
X1.4476Y-4.3
X3.0Y-3.7713
X3.0Y-3.85
X5.9524Y-1.3
X5.9524Y-4.3
X5.9956Y-1.1956
X5.9956Y-1.4044
X5.9956Y-4.1956
X5.9956Y-4.4044
X6.1Y-1.1524
X6.1Y-1.4476
X6.1Y-4.1524
X6.1Y-4.4476
X6.2044Y-1.1956
X6.2044Y-1.4044
X6.2044Y-4.1956
X6.2044Y-4.4044
X6.2476Y-1.3
X6.2476Y-4.3
T3
X2.3Y-1.7
X2.3Y-2.0
X2.3Y-2.1
X2.3Y-2.4
X2.4Y-1.7
X2.4Y-2.0
X2.4Y-2.1
X2.4Y-2.4
X3.05Y-1.7
X3.05Y-2.0
X3.05Y-2.1
X3.05Y-2.4
X3.15Y-1.7
X3.15Y-2.0
X3.15Y-2.1
X3.15Y-2.4
X3.1984Y-3.6
X3.2Y-3.7
X3.25Y-1.7
X3.25Y-2.0
X3.25Y-2.1
X3.25Y-2.4
X3.35Y-1.7
X3.35Y-2.0
X3.35Y-2.1
X3.35Y-2.4
X3.4984Y-3.6
X3.5Y-3.7
X4.05Y-1.7
X4.05Y-2.0
X4.05Y-2.1
X4.05Y-2.4
X4.15Y-1.7
X4.15Y-2.0
X4.15Y-2.1
X4.15Y-2.4
X4.25Y-1.7
X4.25Y-2.0
X4.25Y-2.1
X4.25Y-2.4
X4.35Y-1.7
X4.35Y-2.0
X4.35Y-2.1
X4.35Y-2.4
X5.05Y-1.7
X5.05Y-2.0
X5.05Y-2.1
X5.05Y-2.4
X5.15Y-1.7
X5.15Y-2.0
X5.15Y-2.1
X5.15Y-2.4
X5.25Y-1.7
X5.25Y-2.0
X5.25Y-2.1
X5.25Y-2.4
X5.35Y-1.7
X5.35Y-2.0
X5.35Y-2.1
X5.35Y-2.4
X6.0Y-1.7
X6.0Y-2.0
X6.0Y-2.1
X6.0Y-2.4
X6.1Y-1.7
X6.1Y-2.0
X6.1Y-2.1
X6.1Y-2.4
T4
X1.2982Y-3.2
X1.2982Y-3.25
X1.2982Y-3.3
X1.2982Y-3.45
X1.2982Y-3.5
X1.2982Y-3.55
X1.2988Y-2.7
X1.2988Y-2.75
X1.2988Y-2.8
X1.2988Y-2.95
X1.2988Y-3.0
X1.2988Y-3.05
X1.3Y-1.7
X1.3Y-1.75
X1.3Y-1.8
X1.3Y-1.95
X1.3Y-2.0
X1.3Y-2.05
X1.3Y-2.2
X1.3Y-2.25
X1.3Y-2.3
X1.3Y-2.45
X1.3Y-2.5
X1.3Y-2.55
X1.5482Y-3.2
X1.5482Y-3.25
X1.5482Y-3.3
X1.5488Y-2.7
X1.5488Y-2.75
X1.5488Y-2.8
X1.5488Y-2.95
X1.5488Y-3.0
X1.5488Y-3.05
X1.5488Y-3.45
X1.5488Y-3.5
X1.5488Y-3.55
X1.55Y-1.7006
X1.55Y-1.7506
X1.55Y-1.8006
X1.55Y-1.9506
X1.55Y-2.0006
X1.55Y-2.0506
X1.55Y-2.2006
X1.55Y-2.2506
X1.55Y-2.3006
X1.55Y-2.4506
X1.55Y-2.5006
X1.55Y-2.5506
X3.45Y-3.85
X3.45Y-3.9
X3.45Y-3.95
T5
X1.7988Y-1.8512
X1.7988Y-1.9512
X1.7988Y-2.0512
X1.7988Y-2.1512
X1.7988Y-2.2512
X1.7988Y-2.3512
X1.7988Y-2.4512
X1.7988Y-2.5512
X1.7994Y-2.8524
X1.7994Y-2.9524
X1.7994Y-3.0524
X1.7994Y-3.1524
X1.7994Y-3.2524
X1.7994Y-3.3524
X1.7994Y-3.4524
X1.7994Y-3.5524
X1.9Y-1.7006
X1.9016Y-2.7006
X1.9984Y-1.7006
X2.0Y-2.7006
X2.0988Y-1.8512
X2.0988Y-1.9512
X2.0988Y-2.0512
X2.0988Y-2.1512
X2.0988Y-2.2512
X2.0988Y-2.3512
X2.0988Y-2.4512
X2.0988Y-2.5512
X2.0994Y-2.8524
X2.0994Y-2.9524
X2.0994Y-3.0524
X2.0994Y-3.1524
X2.0994Y-3.2524
X2.0994Y-3.3524
X2.0994Y-3.4524
X2.0994Y-3.5524
X2.2988Y-2.8004
X2.2988Y-2.9004
X2.2988Y-3.0004
X2.2988Y-3.1004
X2.2988Y-3.2004
X2.2988Y-3.3004
X2.2988Y-3.4004
X2.3994Y-2.6006
X2.4978Y-2.6006
X2.5494Y-1.7006
X2.5494Y-1.8006
X2.5494Y-1.9006
X2.5494Y-2.0006
X2.5494Y-2.1006
X2.5494Y-2.2006
X2.5494Y-2.3006
X2.5494Y-2.4006
X2.5988Y-2.8004
X2.5988Y-2.9004
X2.5988Y-3.0004
X2.5988Y-3.1004
X2.5988Y-3.2004
X2.5988Y-3.3004
X2.5988Y-3.4004
X2.6Y-3.6016
X2.6Y-3.7
X2.6Y-3.9
X2.6Y-3.9984
X2.651Y-2.6006
X2.7494Y-2.6006
X2.7988Y-2.8004
X2.7988Y-2.9004
X2.7988Y-3.0004
X2.7988Y-3.1004
X2.7988Y-3.2004
X2.7988Y-3.3004
X2.7988Y-3.4004
X2.8494Y-1.7006
X2.8494Y-1.8006
X2.8494Y-1.9006
X2.8494Y-2.0006
X2.8494Y-2.1006
X2.8494Y-2.2006
X2.8494Y-2.3006
X2.8494Y-2.4006
X2.8994Y-2.6006
X2.9978Y-2.6006
X3.0988Y-2.8004
X3.0988Y-2.9004
X3.0988Y-3.0004
X3.0988Y-3.1004
X3.0988Y-3.2004
X3.0988Y-3.3004
X3.0988Y-3.4004
X3.25Y-3.85
X3.25Y-3.9484
X3.3006Y-2.7992
X3.3006Y-2.8992
X3.3006Y-2.9992
X3.3006Y-3.0992
X3.3006Y-3.1992
X3.3006Y-3.2992
X3.3006Y-3.3992
X3.4028Y-2.5994
X3.5012Y-2.5994
X3.5512Y-1.6994
X3.5512Y-1.7994
X3.5512Y-1.8994
X3.5512Y-1.9994
X3.5512Y-2.0994
X3.5512Y-2.1994
X3.5512Y-2.2994
X3.5512Y-2.3994
X3.6006Y-2.7992
X3.6006Y-2.8992
X3.6006Y-2.9992
X3.6006Y-3.0992
X3.6006Y-3.1992
X3.6006Y-3.2992
X3.6006Y-3.3992
X3.6484Y-3.6016
X3.6484Y-3.7
X3.65Y-3.8516
X3.65Y-3.95
X3.6528Y-2.5994
X3.7512Y-2.5994
X3.8006Y-2.7992
X3.8006Y-2.8992
X3.8006Y-2.9992
X3.8006Y-3.0992
X3.8006Y-3.1992
X3.8006Y-3.2992
X3.8006Y-3.3992
X3.8512Y-1.6994
X3.8512Y-1.7994
X3.8512Y-1.8994
X3.8512Y-1.9994
X3.8512Y-2.0994
X3.8512Y-2.1994
X3.8512Y-2.2994
X3.8512Y-2.3994
X3.9028Y-2.5994
X4.0012Y-2.5994
X4.1006Y-2.7992
X4.1006Y-2.8992
X4.1006Y-2.9992
X4.1006Y-3.0992
X4.1006Y-3.1992
X4.1006Y-3.2992
X4.1006Y-3.3992
X4.2994Y-2.7998
X4.2994Y-2.8998
X4.2994Y-2.9998
X4.2994Y-3.0998
X4.2994Y-3.1998
X4.2994Y-3.2998
X4.2994Y-3.3998
X4.3994Y-2.6
X4.4978Y-2.6
X4.55Y-1.7
X4.55Y-1.8
X4.55Y-1.9
X4.55Y-2.0
X4.55Y-2.1
X4.55Y-2.2
X4.55Y-2.3
X4.55Y-2.4
X4.5994Y-2.7998
X4.5994Y-2.8998
X4.5994Y-2.9998
X4.5994Y-3.0998
X4.5994Y-3.1998
X4.5994Y-3.2998
X4.5994Y-3.3998
X4.6516Y-2.6
X4.75Y-2.6
X4.8Y-2.8
X4.8Y-2.9
X4.8Y-3.0
X4.8Y-3.1
X4.8Y-3.2
X4.8Y-3.3
X4.8Y-3.4
X4.85Y-1.7
X4.85Y-1.8
X4.85Y-1.9
X4.85Y-2.0
X4.85Y-2.1
X4.85Y-2.2
X4.85Y-2.3
X4.85Y-2.4
X4.9016Y-2.6
X5.0Y-2.6
X5.1Y-2.8
X5.1Y-2.9
X5.1Y-3.0
X5.1Y-3.1
X5.1Y-3.2
X5.1Y-3.3
X5.1Y-3.4
X5.2994Y-2.7998
X5.2994Y-2.8998
X5.2994Y-2.9998
X5.2994Y-3.0998
X5.2994Y-3.1998
X5.2994Y-3.2998
X5.2994Y-3.3998
X5.401Y-2.5998
X5.4994Y-2.5998
X5.55Y-1.6986
X5.55Y-1.7986
X5.55Y-1.8986
X5.55Y-1.9986
X5.55Y-2.0986
X5.55Y-2.1986
X5.55Y-2.2986
X5.55Y-2.3986
X5.5994Y-2.7998
X5.5994Y-2.8998
X5.5994Y-2.9998
X5.5994Y-3.0998
X5.5994Y-3.1998
X5.5994Y-3.2998
X5.5994Y-3.3998
X5.6516Y-2.5986
X5.75Y-2.5986
X5.7994Y-2.7996
X5.7994Y-2.8996
X5.7994Y-2.9996
X5.7994Y-3.0996
X5.7994Y-3.1996
X5.7994Y-3.2996
X5.7994Y-3.3996
X5.85Y-1.6986
X5.85Y-1.7986
X5.85Y-1.8986
X5.85Y-1.9986
X5.85Y-2.0986
X5.85Y-2.1986
X5.85Y-2.2986
X5.85Y-2.3986
X5.8994Y-2.5998
X5.9978Y-2.5998
X6.0994Y-2.7996
X6.0994Y-2.8996
X6.0994Y-2.9996
X6.0994Y-3.0996
X6.0994Y-3.1996
X6.0994Y-3.2996
X6.0994Y-3.3996
T6
X1.45Y-3.8204
X1.45Y-3.9204
X1.55Y-3.8204
X1.55Y-3.9204
X1.65Y-3.8204
X1.65Y-3.9204
X1.75Y-3.8204
X1.75Y-3.9204
X1.85Y-3.8204
X1.85Y-3.9204
X1.95Y-3.8204
X1.95Y-3.9204
X2.05Y-3.8204
X2.05Y-3.9204
X2.15Y-3.8204
X2.15Y-3.9204
X4.05Y-3.671
X4.05Y-3.771
X4.15Y-3.671
X4.15Y-3.771
X4.25Y-3.671
X4.25Y-3.771
X4.35Y-3.671
X4.35Y-3.771
X4.45Y-3.671
X4.45Y-3.771
X4.5498Y-4.0283
X4.55Y-3.671
X4.55Y-3.771
X4.6498Y-4.0283
X4.65Y-3.671
X4.65Y-3.771
X4.7498Y-4.0283
X4.75Y-3.671
X4.75Y-3.771
X4.8498Y-4.0283
X4.85Y-3.671
X4.85Y-3.771
X4.9498Y-4.0283
X4.95Y-3.671
X4.95Y-3.771
X5.0498Y-4.0283
X5.05Y-3.671
X5.05Y-3.771
X5.1498Y-4.0283
X5.15Y-3.671
X5.15Y-3.771
X5.2498Y-4.0283
X5.25Y-3.671
X5.25Y-3.771
X5.3498Y-4.0283
X5.35Y-3.671
X5.35Y-3.771
X5.4498Y-4.0283
X5.45Y-3.671
X5.45Y-3.771
X5.55Y-3.671
X5.55Y-3.771
X5.65Y-3.671
X5.65Y-3.771
X5.75Y-3.671
X5.75Y-3.771
X5.85Y-3.671
X5.85Y-3.771
X5.95Y-3.671
X5.95Y-3.771
T7
X1.3Y-1.3
X1.3Y-4.3
X6.1Y-1.3
X6.1Y-4.3
T0
M30
