%TF.GenerationSoftware,KiCad,Pcbnew,(6.0.6)*%
%TF.CreationDate,2022-07-31T05:49:08-04:00*%
%TF.ProjectId,calculator_interface,63616c63-756c-4617-946f-725f696e7465,rev?*%
%TF.SameCoordinates,Original*%
%TF.FileFunction,Legend,Top*%
%TF.FilePolarity,Positive*%
%FSLAX46Y46*%
G04 Gerber Fmt 4.6, Leading zero omitted, Abs format (unit mm)*
G04 Created by KiCad (PCBNEW (6.0.6)) date 2022-07-31 05:49:08*
%MOMM*%
%LPD*%
G01*
G04 APERTURE LIST*
%ADD10C,0.150000*%
%ADD11C,0.300000*%
%ADD12C,0.120000*%
G04 APERTURE END LIST*
D10*
X122380952Y-99782380D02*
X122380952Y-100496666D01*
X122333333Y-100639523D01*
X122238095Y-100734761D01*
X122095238Y-100782380D01*
X122000000Y-100782380D01*
X123333333Y-100782380D02*
X122857142Y-100782380D01*
X122857142Y-99782380D01*
X124238095Y-100687142D02*
X124190476Y-100734761D01*
X124047619Y-100782380D01*
X123952380Y-100782380D01*
X123809523Y-100734761D01*
X123714285Y-100639523D01*
X123666666Y-100544285D01*
X123619047Y-100353809D01*
X123619047Y-100210952D01*
X123666666Y-100020476D01*
X123714285Y-99925238D01*
X123809523Y-99830000D01*
X123952380Y-99782380D01*
X124047619Y-99782380D01*
X124190476Y-99830000D01*
X124238095Y-99877619D01*
X124952380Y-99782380D02*
X124952380Y-100496666D01*
X124904761Y-100639523D01*
X124809523Y-100734761D01*
X124666666Y-100782380D01*
X124571428Y-100782380D01*
X125904761Y-100782380D02*
X125428571Y-100782380D01*
X125428571Y-99782380D01*
X126809523Y-100687142D02*
X126761904Y-100734761D01*
X126619047Y-100782380D01*
X126523809Y-100782380D01*
X126380952Y-100734761D01*
X126285714Y-100639523D01*
X126238095Y-100544285D01*
X126190476Y-100353809D01*
X126190476Y-100210952D01*
X126238095Y-100020476D01*
X126285714Y-99925238D01*
X126380952Y-99830000D01*
X126523809Y-99782380D01*
X126619047Y-99782380D01*
X126761904Y-99830000D01*
X126809523Y-99877619D01*
X127523809Y-99782380D02*
X127523809Y-100496666D01*
X127476190Y-100639523D01*
X127380952Y-100734761D01*
X127238095Y-100782380D01*
X127142857Y-100782380D01*
X128476190Y-100782380D02*
X128000000Y-100782380D01*
X128000000Y-99782380D01*
X129380952Y-100687142D02*
X129333333Y-100734761D01*
X129190476Y-100782380D01*
X129095238Y-100782380D01*
X128952380Y-100734761D01*
X128857142Y-100639523D01*
X128809523Y-100544285D01*
X128761904Y-100353809D01*
X128761904Y-100210952D01*
X128809523Y-100020476D01*
X128857142Y-99925238D01*
X128952380Y-99830000D01*
X129095238Y-99782380D01*
X129190476Y-99782380D01*
X129333333Y-99830000D01*
X129380952Y-99877619D01*
X130095238Y-99782380D02*
X130095238Y-100496666D01*
X130047619Y-100639523D01*
X129952380Y-100734761D01*
X129809523Y-100782380D01*
X129714285Y-100782380D01*
X131047619Y-100782380D02*
X130571428Y-100782380D01*
X130571428Y-99782380D01*
X131952380Y-100687142D02*
X131904761Y-100734761D01*
X131761904Y-100782380D01*
X131666666Y-100782380D01*
X131523809Y-100734761D01*
X131428571Y-100639523D01*
X131380952Y-100544285D01*
X131333333Y-100353809D01*
X131333333Y-100210952D01*
X131380952Y-100020476D01*
X131428571Y-99925238D01*
X131523809Y-99830000D01*
X131666666Y-99782380D01*
X131761904Y-99782380D01*
X131904761Y-99830000D01*
X131952380Y-99877619D01*
X126182380Y-80430476D02*
X126182380Y-80906666D01*
X125182380Y-80906666D01*
X126182380Y-80097142D02*
X125182380Y-80097142D01*
X125896666Y-79763809D01*
X125182380Y-79430476D01*
X126182380Y-79430476D01*
X125182380Y-79049523D02*
X125182380Y-78430476D01*
X125563333Y-78763809D01*
X125563333Y-78620952D01*
X125610952Y-78525714D01*
X125658571Y-78478095D01*
X125753809Y-78430476D01*
X125991904Y-78430476D01*
X126087142Y-78478095D01*
X126134761Y-78525714D01*
X126182380Y-78620952D01*
X126182380Y-78906666D01*
X126134761Y-79001904D01*
X126087142Y-79049523D01*
X125182380Y-78097142D02*
X125182380Y-77478095D01*
X125563333Y-77811428D01*
X125563333Y-77668571D01*
X125610952Y-77573333D01*
X125658571Y-77525714D01*
X125753809Y-77478095D01*
X125991904Y-77478095D01*
X126087142Y-77525714D01*
X126134761Y-77573333D01*
X126182380Y-77668571D01*
X126182380Y-77954285D01*
X126134761Y-78049523D01*
X126087142Y-78097142D01*
X126182380Y-77001904D02*
X126182380Y-76811428D01*
X126134761Y-76716190D01*
X126087142Y-76668571D01*
X125944285Y-76573333D01*
X125753809Y-76525714D01*
X125372857Y-76525714D01*
X125277619Y-76573333D01*
X125230000Y-76620952D01*
X125182380Y-76716190D01*
X125182380Y-76906666D01*
X125230000Y-77001904D01*
X125277619Y-77049523D01*
X125372857Y-77097142D01*
X125610952Y-77097142D01*
X125706190Y-77049523D01*
X125753809Y-77001904D01*
X125801428Y-76906666D01*
X125801428Y-76716190D01*
X125753809Y-76620952D01*
X125706190Y-76573333D01*
X125610952Y-76525714D01*
X93432380Y-55204904D02*
X93432380Y-54538238D01*
X94432380Y-54966809D01*
X93765714Y-53728714D02*
X94432380Y-53728714D01*
X93384761Y-53966809D02*
X94099047Y-54204904D01*
X94099047Y-53585857D01*
X94432380Y-53204904D02*
X93432380Y-53204904D01*
X93908571Y-53204904D02*
X93908571Y-52633476D01*
X94432380Y-52633476D02*
X93432380Y-52633476D01*
X94337142Y-51585857D02*
X94384761Y-51633476D01*
X94432380Y-51776333D01*
X94432380Y-51871571D01*
X94384761Y-52014428D01*
X94289523Y-52109666D01*
X94194285Y-52157285D01*
X94003809Y-52204904D01*
X93860952Y-52204904D01*
X93670476Y-52157285D01*
X93575238Y-52109666D01*
X93480000Y-52014428D01*
X93432380Y-51871571D01*
X93432380Y-51776333D01*
X93480000Y-51633476D01*
X93527619Y-51585857D01*
X94432380Y-50633476D02*
X94432380Y-51204904D01*
X94432380Y-50919190D02*
X93432380Y-50919190D01*
X93575238Y-51014428D01*
X93670476Y-51109666D01*
X93718095Y-51204904D01*
X93432380Y-49776333D02*
X93432380Y-49966809D01*
X93480000Y-50062047D01*
X93527619Y-50109666D01*
X93670476Y-50204904D01*
X93860952Y-50252523D01*
X94241904Y-50252523D01*
X94337142Y-50204904D01*
X94384761Y-50157285D01*
X94432380Y-50062047D01*
X94432380Y-49871571D01*
X94384761Y-49776333D01*
X94337142Y-49728714D01*
X94241904Y-49681095D01*
X94003809Y-49681095D01*
X93908571Y-49728714D01*
X93860952Y-49776333D01*
X93813333Y-49871571D01*
X93813333Y-50062047D01*
X93860952Y-50157285D01*
X93908571Y-50204904D01*
X94003809Y-50252523D01*
X93432380Y-48776333D02*
X93432380Y-49252523D01*
X93908571Y-49300142D01*
X93860952Y-49252523D01*
X93813333Y-49157285D01*
X93813333Y-48919190D01*
X93860952Y-48823952D01*
X93908571Y-48776333D01*
X94003809Y-48728714D01*
X94241904Y-48728714D01*
X94337142Y-48776333D01*
X94384761Y-48823952D01*
X94432380Y-48919190D01*
X94432380Y-49157285D01*
X94384761Y-49252523D01*
X94337142Y-49300142D01*
X48982380Y-59141904D02*
X48982380Y-58475238D01*
X49982380Y-58903809D01*
X49315714Y-57665714D02*
X49982380Y-57665714D01*
X48934761Y-57903809D02*
X49649047Y-58141904D01*
X49649047Y-57522857D01*
X49982380Y-57141904D02*
X48982380Y-57141904D01*
X49458571Y-57141904D02*
X49458571Y-56570476D01*
X49982380Y-56570476D02*
X48982380Y-56570476D01*
X49887142Y-55522857D02*
X49934761Y-55570476D01*
X49982380Y-55713333D01*
X49982380Y-55808571D01*
X49934761Y-55951428D01*
X49839523Y-56046666D01*
X49744285Y-56094285D01*
X49553809Y-56141904D01*
X49410952Y-56141904D01*
X49220476Y-56094285D01*
X49125238Y-56046666D01*
X49030000Y-55951428D01*
X48982380Y-55808571D01*
X48982380Y-55713333D01*
X49030000Y-55570476D01*
X49077619Y-55522857D01*
X48982380Y-54618095D02*
X48982380Y-55094285D01*
X49458571Y-55141904D01*
X49410952Y-55094285D01*
X49363333Y-54999047D01*
X49363333Y-54760952D01*
X49410952Y-54665714D01*
X49458571Y-54618095D01*
X49553809Y-54570476D01*
X49791904Y-54570476D01*
X49887142Y-54618095D01*
X49934761Y-54665714D01*
X49982380Y-54760952D01*
X49982380Y-54999047D01*
X49934761Y-55094285D01*
X49887142Y-55141904D01*
X49982380Y-54094285D02*
X49982380Y-53903809D01*
X49934761Y-53808571D01*
X49887142Y-53760952D01*
X49744285Y-53665714D01*
X49553809Y-53618095D01*
X49172857Y-53618095D01*
X49077619Y-53665714D01*
X49030000Y-53713333D01*
X48982380Y-53808571D01*
X48982380Y-53999047D01*
X49030000Y-54094285D01*
X49077619Y-54141904D01*
X49172857Y-54189523D01*
X49410952Y-54189523D01*
X49506190Y-54141904D01*
X49553809Y-54094285D01*
X49601428Y-53999047D01*
X49601428Y-53808571D01*
X49553809Y-53713333D01*
X49506190Y-53665714D01*
X49410952Y-53618095D01*
X48982380Y-52713333D02*
X48982380Y-53189523D01*
X49458571Y-53237142D01*
X49410952Y-53189523D01*
X49363333Y-53094285D01*
X49363333Y-52856190D01*
X49410952Y-52760952D01*
X49458571Y-52713333D01*
X49553809Y-52665714D01*
X49791904Y-52665714D01*
X49887142Y-52713333D01*
X49934761Y-52760952D01*
X49982380Y-52856190D01*
X49982380Y-53094285D01*
X49934761Y-53189523D01*
X49887142Y-53237142D01*
X62682380Y-80430476D02*
X62682380Y-80906666D01*
X61682380Y-80906666D01*
X62682380Y-80097142D02*
X61682380Y-80097142D01*
X62396666Y-79763809D01*
X61682380Y-79430476D01*
X62682380Y-79430476D01*
X61682380Y-79049523D02*
X61682380Y-78430476D01*
X62063333Y-78763809D01*
X62063333Y-78620952D01*
X62110952Y-78525714D01*
X62158571Y-78478095D01*
X62253809Y-78430476D01*
X62491904Y-78430476D01*
X62587142Y-78478095D01*
X62634761Y-78525714D01*
X62682380Y-78620952D01*
X62682380Y-78906666D01*
X62634761Y-79001904D01*
X62587142Y-79049523D01*
X61682380Y-78097142D02*
X61682380Y-77478095D01*
X62063333Y-77811428D01*
X62063333Y-77668571D01*
X62110952Y-77573333D01*
X62158571Y-77525714D01*
X62253809Y-77478095D01*
X62491904Y-77478095D01*
X62587142Y-77525714D01*
X62634761Y-77573333D01*
X62682380Y-77668571D01*
X62682380Y-77954285D01*
X62634761Y-78049523D01*
X62587142Y-78097142D01*
X62682380Y-77001904D02*
X62682380Y-76811428D01*
X62634761Y-76716190D01*
X62587142Y-76668571D01*
X62444285Y-76573333D01*
X62253809Y-76525714D01*
X61872857Y-76525714D01*
X61777619Y-76573333D01*
X61730000Y-76620952D01*
X61682380Y-76716190D01*
X61682380Y-76906666D01*
X61730000Y-77001904D01*
X61777619Y-77049523D01*
X61872857Y-77097142D01*
X62110952Y-77097142D01*
X62206190Y-77049523D01*
X62253809Y-77001904D01*
X62301428Y-76906666D01*
X62301428Y-76716190D01*
X62253809Y-76620952D01*
X62206190Y-76573333D01*
X62110952Y-76525714D01*
X88082380Y-80430476D02*
X88082380Y-80906666D01*
X87082380Y-80906666D01*
X88082380Y-80097142D02*
X87082380Y-80097142D01*
X87796666Y-79763809D01*
X87082380Y-79430476D01*
X88082380Y-79430476D01*
X87082380Y-79049523D02*
X87082380Y-78430476D01*
X87463333Y-78763809D01*
X87463333Y-78620952D01*
X87510952Y-78525714D01*
X87558571Y-78478095D01*
X87653809Y-78430476D01*
X87891904Y-78430476D01*
X87987142Y-78478095D01*
X88034761Y-78525714D01*
X88082380Y-78620952D01*
X88082380Y-78906666D01*
X88034761Y-79001904D01*
X87987142Y-79049523D01*
X87082380Y-78097142D02*
X87082380Y-77478095D01*
X87463333Y-77811428D01*
X87463333Y-77668571D01*
X87510952Y-77573333D01*
X87558571Y-77525714D01*
X87653809Y-77478095D01*
X87891904Y-77478095D01*
X87987142Y-77525714D01*
X88034761Y-77573333D01*
X88082380Y-77668571D01*
X88082380Y-77954285D01*
X88034761Y-78049523D01*
X87987142Y-78097142D01*
X88082380Y-77001904D02*
X88082380Y-76811428D01*
X88034761Y-76716190D01*
X87987142Y-76668571D01*
X87844285Y-76573333D01*
X87653809Y-76525714D01*
X87272857Y-76525714D01*
X87177619Y-76573333D01*
X87130000Y-76620952D01*
X87082380Y-76716190D01*
X87082380Y-76906666D01*
X87130000Y-77001904D01*
X87177619Y-77049523D01*
X87272857Y-77097142D01*
X87510952Y-77097142D01*
X87606190Y-77049523D01*
X87653809Y-77001904D01*
X87701428Y-76906666D01*
X87701428Y-76716190D01*
X87653809Y-76620952D01*
X87606190Y-76573333D01*
X87510952Y-76525714D01*
X113445091Y-80401797D02*
X113445091Y-80877987D01*
X112445091Y-80877987D01*
X113445091Y-80068463D02*
X112445091Y-80068463D01*
X113159377Y-79735130D01*
X112445091Y-79401797D01*
X113445091Y-79401797D01*
X112445091Y-79020844D02*
X112445091Y-78401797D01*
X112826044Y-78735130D01*
X112826044Y-78592273D01*
X112873663Y-78497035D01*
X112921282Y-78449416D01*
X113016520Y-78401797D01*
X113254615Y-78401797D01*
X113349853Y-78449416D01*
X113397472Y-78497035D01*
X113445091Y-78592273D01*
X113445091Y-78877987D01*
X113397472Y-78973225D01*
X113349853Y-79020844D01*
X112445091Y-78068463D02*
X112445091Y-77449416D01*
X112826044Y-77782749D01*
X112826044Y-77639892D01*
X112873663Y-77544654D01*
X112921282Y-77497035D01*
X113016520Y-77449416D01*
X113254615Y-77449416D01*
X113349853Y-77497035D01*
X113397472Y-77544654D01*
X113445091Y-77639892D01*
X113445091Y-77925606D01*
X113397472Y-78020844D01*
X113349853Y-78068463D01*
X113445091Y-76973225D02*
X113445091Y-76782749D01*
X113397472Y-76687511D01*
X113349853Y-76639892D01*
X113206996Y-76544654D01*
X113016520Y-76497035D01*
X112635568Y-76497035D01*
X112540330Y-76544654D01*
X112492711Y-76592273D01*
X112445091Y-76687511D01*
X112445091Y-76877987D01*
X112492711Y-76973225D01*
X112540330Y-77020844D01*
X112635568Y-77068463D01*
X112873663Y-77068463D01*
X112968901Y-77020844D01*
X113016520Y-76973225D01*
X113064139Y-76877987D01*
X113064139Y-76687511D01*
X113016520Y-76592273D01*
X112968901Y-76544654D01*
X112873663Y-76497035D01*
X144232380Y-55204904D02*
X144232380Y-54538238D01*
X145232380Y-54966809D01*
X144565714Y-53728714D02*
X145232380Y-53728714D01*
X144184761Y-53966809D02*
X144899047Y-54204904D01*
X144899047Y-53585857D01*
X145232380Y-53204904D02*
X144232380Y-53204904D01*
X144708571Y-53204904D02*
X144708571Y-52633476D01*
X145232380Y-52633476D02*
X144232380Y-52633476D01*
X145137142Y-51585857D02*
X145184761Y-51633476D01*
X145232380Y-51776333D01*
X145232380Y-51871571D01*
X145184761Y-52014428D01*
X145089523Y-52109666D01*
X144994285Y-52157285D01*
X144803809Y-52204904D01*
X144660952Y-52204904D01*
X144470476Y-52157285D01*
X144375238Y-52109666D01*
X144280000Y-52014428D01*
X144232380Y-51871571D01*
X144232380Y-51776333D01*
X144280000Y-51633476D01*
X144327619Y-51585857D01*
X145232380Y-50633476D02*
X145232380Y-51204904D01*
X145232380Y-50919190D02*
X144232380Y-50919190D01*
X144375238Y-51014428D01*
X144470476Y-51109666D01*
X144518095Y-51204904D01*
X144232380Y-49776333D02*
X144232380Y-49966809D01*
X144280000Y-50062047D01*
X144327619Y-50109666D01*
X144470476Y-50204904D01*
X144660952Y-50252523D01*
X145041904Y-50252523D01*
X145137142Y-50204904D01*
X145184761Y-50157285D01*
X145232380Y-50062047D01*
X145232380Y-49871571D01*
X145184761Y-49776333D01*
X145137142Y-49728714D01*
X145041904Y-49681095D01*
X144803809Y-49681095D01*
X144708571Y-49728714D01*
X144660952Y-49776333D01*
X144613333Y-49871571D01*
X144613333Y-50062047D01*
X144660952Y-50157285D01*
X144708571Y-50204904D01*
X144803809Y-50252523D01*
X144232380Y-48776333D02*
X144232380Y-49252523D01*
X144708571Y-49300142D01*
X144660952Y-49252523D01*
X144613333Y-49157285D01*
X144613333Y-48919190D01*
X144660952Y-48823952D01*
X144708571Y-48776333D01*
X144803809Y-48728714D01*
X145041904Y-48728714D01*
X145137142Y-48776333D01*
X145184761Y-48823952D01*
X145232380Y-48919190D01*
X145232380Y-49157285D01*
X145184761Y-49252523D01*
X145137142Y-49300142D01*
X73477380Y-97409047D02*
X73477380Y-97980476D01*
X73477380Y-97694761D02*
X72477380Y-97694761D01*
X72620238Y-97790000D01*
X72715476Y-97885238D01*
X72763095Y-97980476D01*
X72477380Y-97123333D02*
X73477380Y-96790000D01*
X72477380Y-96456666D01*
X72477380Y-95647142D02*
X72477380Y-96123333D01*
X72953571Y-96170952D01*
X72905952Y-96123333D01*
X72858333Y-96028095D01*
X72858333Y-95790000D01*
X72905952Y-95694761D01*
X72953571Y-95647142D01*
X73048809Y-95599523D01*
X73286904Y-95599523D01*
X73382142Y-95647142D01*
X73429761Y-95694761D01*
X73477380Y-95790000D01*
X73477380Y-96028095D01*
X73429761Y-96123333D01*
X73382142Y-96170952D01*
X118832380Y-55331904D02*
X118832380Y-54665238D01*
X119832380Y-55093809D01*
X119165714Y-53855714D02*
X119832380Y-53855714D01*
X118784761Y-54093809D02*
X119499047Y-54331904D01*
X119499047Y-53712857D01*
X119832380Y-53331904D02*
X118832380Y-53331904D01*
X119308571Y-53331904D02*
X119308571Y-52760476D01*
X119832380Y-52760476D02*
X118832380Y-52760476D01*
X119737142Y-51712857D02*
X119784761Y-51760476D01*
X119832380Y-51903333D01*
X119832380Y-51998571D01*
X119784761Y-52141428D01*
X119689523Y-52236666D01*
X119594285Y-52284285D01*
X119403809Y-52331904D01*
X119260952Y-52331904D01*
X119070476Y-52284285D01*
X118975238Y-52236666D01*
X118880000Y-52141428D01*
X118832380Y-51998571D01*
X118832380Y-51903333D01*
X118880000Y-51760476D01*
X118927619Y-51712857D01*
X119832380Y-50760476D02*
X119832380Y-51331904D01*
X119832380Y-51046190D02*
X118832380Y-51046190D01*
X118975238Y-51141428D01*
X119070476Y-51236666D01*
X119118095Y-51331904D01*
X118832380Y-49903333D02*
X118832380Y-50093809D01*
X118880000Y-50189047D01*
X118927619Y-50236666D01*
X119070476Y-50331904D01*
X119260952Y-50379523D01*
X119641904Y-50379523D01*
X119737142Y-50331904D01*
X119784761Y-50284285D01*
X119832380Y-50189047D01*
X119832380Y-49998571D01*
X119784761Y-49903333D01*
X119737142Y-49855714D01*
X119641904Y-49808095D01*
X119403809Y-49808095D01*
X119308571Y-49855714D01*
X119260952Y-49903333D01*
X119213333Y-49998571D01*
X119213333Y-50189047D01*
X119260952Y-50284285D01*
X119308571Y-50331904D01*
X119403809Y-50379523D01*
X118832380Y-48903333D02*
X118832380Y-49379523D01*
X119308571Y-49427142D01*
X119260952Y-49379523D01*
X119213333Y-49284285D01*
X119213333Y-49046190D01*
X119260952Y-48950952D01*
X119308571Y-48903333D01*
X119403809Y-48855714D01*
X119641904Y-48855714D01*
X119737142Y-48903333D01*
X119784761Y-48950952D01*
X119832380Y-49046190D01*
X119832380Y-49284285D01*
X119784761Y-49379523D01*
X119737142Y-49427142D01*
X41562976Y-107776666D02*
X42039166Y-107776666D01*
X41467738Y-108062380D02*
X41801071Y-107062380D01*
X42134404Y-108062380D01*
X42467738Y-107395714D02*
X42467738Y-108062380D01*
X42467738Y-107490952D02*
X42515357Y-107443333D01*
X42610595Y-107395714D01*
X42753452Y-107395714D01*
X42848690Y-107443333D01*
X42896309Y-107538571D01*
X42896309Y-108062380D01*
X43277261Y-107395714D02*
X43515357Y-108062380D01*
X43753452Y-107395714D02*
X43515357Y-108062380D01*
X43420119Y-108300476D01*
X43372500Y-108348095D01*
X43277261Y-108395714D01*
X44896309Y-108062380D02*
X44896309Y-107395714D01*
X44896309Y-107586190D02*
X44943928Y-107490952D01*
X44991547Y-107443333D01*
X45086785Y-107395714D01*
X45182023Y-107395714D01*
X45896309Y-108014761D02*
X45801071Y-108062380D01*
X45610595Y-108062380D01*
X45515357Y-108014761D01*
X45467738Y-107919523D01*
X45467738Y-107538571D01*
X45515357Y-107443333D01*
X45610595Y-107395714D01*
X45801071Y-107395714D01*
X45896309Y-107443333D01*
X45943928Y-107538571D01*
X45943928Y-107633809D01*
X45467738Y-107729047D01*
X46324880Y-108014761D02*
X46420119Y-108062380D01*
X46610595Y-108062380D01*
X46705833Y-108014761D01*
X46753452Y-107919523D01*
X46753452Y-107871904D01*
X46705833Y-107776666D01*
X46610595Y-107729047D01*
X46467738Y-107729047D01*
X46372500Y-107681428D01*
X46324880Y-107586190D01*
X46324880Y-107538571D01*
X46372500Y-107443333D01*
X46467738Y-107395714D01*
X46610595Y-107395714D01*
X46705833Y-107443333D01*
X47182023Y-108062380D02*
X47182023Y-107395714D01*
X47182023Y-107062380D02*
X47134404Y-107110000D01*
X47182023Y-107157619D01*
X47229642Y-107110000D01*
X47182023Y-107062380D01*
X47182023Y-107157619D01*
X47610595Y-108014761D02*
X47705833Y-108062380D01*
X47896309Y-108062380D01*
X47991547Y-108014761D01*
X48039166Y-107919523D01*
X48039166Y-107871904D01*
X47991547Y-107776666D01*
X47896309Y-107729047D01*
X47753452Y-107729047D01*
X47658214Y-107681428D01*
X47610595Y-107586190D01*
X47610595Y-107538571D01*
X47658214Y-107443333D01*
X47753452Y-107395714D01*
X47896309Y-107395714D01*
X47991547Y-107443333D01*
X48324880Y-107395714D02*
X48705833Y-107395714D01*
X48467738Y-107062380D02*
X48467738Y-107919523D01*
X48515357Y-108014761D01*
X48610595Y-108062380D01*
X48705833Y-108062380D01*
X49182023Y-108062380D02*
X49086785Y-108014761D01*
X49039166Y-107967142D01*
X48991547Y-107871904D01*
X48991547Y-107586190D01*
X49039166Y-107490952D01*
X49086785Y-107443333D01*
X49182023Y-107395714D01*
X49324880Y-107395714D01*
X49420119Y-107443333D01*
X49467738Y-107490952D01*
X49515357Y-107586190D01*
X49515357Y-107871904D01*
X49467738Y-107967142D01*
X49420119Y-108014761D01*
X49324880Y-108062380D01*
X49182023Y-108062380D01*
X49943928Y-108062380D02*
X49943928Y-107395714D01*
X49943928Y-107586190D02*
X49991547Y-107490952D01*
X50039166Y-107443333D01*
X50134404Y-107395714D01*
X50229642Y-107395714D01*
X51229642Y-107395714D02*
X51467738Y-108062380D01*
X51705833Y-107395714D01*
X52515357Y-108062380D02*
X52515357Y-107538571D01*
X52467738Y-107443333D01*
X52372500Y-107395714D01*
X52182023Y-107395714D01*
X52086785Y-107443333D01*
X52515357Y-108014761D02*
X52420119Y-108062380D01*
X52182023Y-108062380D01*
X52086785Y-108014761D01*
X52039166Y-107919523D01*
X52039166Y-107824285D01*
X52086785Y-107729047D01*
X52182023Y-107681428D01*
X52420119Y-107681428D01*
X52515357Y-107633809D01*
X53134404Y-108062380D02*
X53039166Y-108014761D01*
X52991547Y-107919523D01*
X52991547Y-107062380D01*
X53943928Y-107395714D02*
X53943928Y-108062380D01*
X53515357Y-107395714D02*
X53515357Y-107919523D01*
X53562976Y-108014761D01*
X53658214Y-108062380D01*
X53801071Y-108062380D01*
X53896309Y-108014761D01*
X53943928Y-107967142D01*
X54801071Y-108014761D02*
X54705833Y-108062380D01*
X54515357Y-108062380D01*
X54420119Y-108014761D01*
X54372500Y-107919523D01*
X54372500Y-107538571D01*
X54420119Y-107443333D01*
X54515357Y-107395714D01*
X54705833Y-107395714D01*
X54801071Y-107443333D01*
X54848690Y-107538571D01*
X54848690Y-107633809D01*
X54372500Y-107729047D01*
X55229642Y-108014761D02*
X55324880Y-108062380D01*
X55515357Y-108062380D01*
X55610595Y-108014761D01*
X55658214Y-107919523D01*
X55658214Y-107871904D01*
X55610595Y-107776666D01*
X55515357Y-107729047D01*
X55372500Y-107729047D01*
X55277261Y-107681428D01*
X55229642Y-107586190D01*
X55229642Y-107538571D01*
X55277261Y-107443333D01*
X55372500Y-107395714D01*
X55515357Y-107395714D01*
X55610595Y-107443333D01*
X56753452Y-107395714D02*
X56943928Y-108062380D01*
X57134404Y-107586190D01*
X57324880Y-108062380D01*
X57515357Y-107395714D01*
X57896309Y-108062380D02*
X57896309Y-107395714D01*
X57896309Y-107062380D02*
X57848690Y-107110000D01*
X57896309Y-107157619D01*
X57943928Y-107110000D01*
X57896309Y-107062380D01*
X57896309Y-107157619D01*
X58515357Y-108062380D02*
X58420119Y-108014761D01*
X58372500Y-107919523D01*
X58372500Y-107062380D01*
X59039166Y-108062380D02*
X58943928Y-108014761D01*
X58896309Y-107919523D01*
X58896309Y-107062380D01*
X60610595Y-108062380D02*
X60610595Y-107062380D01*
X60610595Y-108014761D02*
X60515357Y-108062380D01*
X60324880Y-108062380D01*
X60229642Y-108014761D01*
X60182023Y-107967142D01*
X60134404Y-107871904D01*
X60134404Y-107586190D01*
X60182023Y-107490952D01*
X60229642Y-107443333D01*
X60324880Y-107395714D01*
X60515357Y-107395714D01*
X60610595Y-107443333D01*
X61229642Y-108062380D02*
X61134404Y-108014761D01*
X61086785Y-107967142D01*
X61039166Y-107871904D01*
X61039166Y-107586190D01*
X61086785Y-107490952D01*
X61134404Y-107443333D01*
X61229642Y-107395714D01*
X61372499Y-107395714D01*
X61467738Y-107443333D01*
X61515357Y-107490952D01*
X61562976Y-107586190D01*
X61562976Y-107871904D01*
X61515357Y-107967142D01*
X61467738Y-108014761D01*
X61372499Y-108062380D01*
X61229642Y-108062380D01*
X62753452Y-107395714D02*
X63515357Y-107681428D01*
X62753452Y-107967142D01*
X63991547Y-107538571D02*
X64753452Y-107538571D01*
X64753452Y-107824285D02*
X63991547Y-107824285D01*
X66515357Y-108062380D02*
X65943928Y-108062380D01*
X66229642Y-108062380D02*
X66229642Y-107062380D01*
X66134404Y-107205238D01*
X66039166Y-107300476D01*
X65943928Y-107348095D01*
X66943928Y-108062380D02*
X66943928Y-107062380D01*
X67515357Y-108062380D02*
X67086785Y-107490952D01*
X67515357Y-107062380D02*
X66943928Y-107633809D01*
X41562976Y-109386666D02*
X42039166Y-109386666D01*
X41467738Y-109672380D02*
X41801071Y-108672380D01*
X42134404Y-109672380D01*
X42467738Y-109005714D02*
X42467738Y-109672380D01*
X42467738Y-109100952D02*
X42515357Y-109053333D01*
X42610595Y-109005714D01*
X42753452Y-109005714D01*
X42848690Y-109053333D01*
X42896309Y-109148571D01*
X42896309Y-109672380D01*
X43277261Y-109005714D02*
X43515357Y-109672380D01*
X43753452Y-109005714D02*
X43515357Y-109672380D01*
X43420119Y-109910476D01*
X43372500Y-109958095D01*
X43277261Y-110005714D01*
X45324880Y-109624761D02*
X45229642Y-109672380D01*
X45039166Y-109672380D01*
X44943928Y-109624761D01*
X44896309Y-109577142D01*
X44848690Y-109481904D01*
X44848690Y-109196190D01*
X44896309Y-109100952D01*
X44943928Y-109053333D01*
X45039166Y-109005714D01*
X45229642Y-109005714D01*
X45324880Y-109053333D01*
X46182023Y-109672380D02*
X46182023Y-109148571D01*
X46134404Y-109053333D01*
X46039166Y-109005714D01*
X45848690Y-109005714D01*
X45753452Y-109053333D01*
X46182023Y-109624761D02*
X46086785Y-109672380D01*
X45848690Y-109672380D01*
X45753452Y-109624761D01*
X45705833Y-109529523D01*
X45705833Y-109434285D01*
X45753452Y-109339047D01*
X45848690Y-109291428D01*
X46086785Y-109291428D01*
X46182023Y-109243809D01*
X46658214Y-109005714D02*
X46658214Y-110005714D01*
X46658214Y-109053333D02*
X46753452Y-109005714D01*
X46943928Y-109005714D01*
X47039166Y-109053333D01*
X47086785Y-109100952D01*
X47134404Y-109196190D01*
X47134404Y-109481904D01*
X47086785Y-109577142D01*
X47039166Y-109624761D01*
X46943928Y-109672380D01*
X46753452Y-109672380D01*
X46658214Y-109624761D01*
X47991547Y-109672380D02*
X47991547Y-109148571D01*
X47943928Y-109053333D01*
X47848690Y-109005714D01*
X47658214Y-109005714D01*
X47562976Y-109053333D01*
X47991547Y-109624761D02*
X47896309Y-109672380D01*
X47658214Y-109672380D01*
X47562976Y-109624761D01*
X47515357Y-109529523D01*
X47515357Y-109434285D01*
X47562976Y-109339047D01*
X47658214Y-109291428D01*
X47896309Y-109291428D01*
X47991547Y-109243809D01*
X48896309Y-109624761D02*
X48801071Y-109672380D01*
X48610595Y-109672380D01*
X48515357Y-109624761D01*
X48467738Y-109577142D01*
X48420119Y-109481904D01*
X48420119Y-109196190D01*
X48467738Y-109100952D01*
X48515357Y-109053333D01*
X48610595Y-109005714D01*
X48801071Y-109005714D01*
X48896309Y-109053333D01*
X49324880Y-109672380D02*
X49324880Y-109005714D01*
X49324880Y-108672380D02*
X49277261Y-108720000D01*
X49324880Y-108767619D01*
X49372500Y-108720000D01*
X49324880Y-108672380D01*
X49324880Y-108767619D01*
X49658214Y-109005714D02*
X50039166Y-109005714D01*
X49801071Y-108672380D02*
X49801071Y-109529523D01*
X49848690Y-109624761D01*
X49943928Y-109672380D01*
X50039166Y-109672380D01*
X50515357Y-109672380D02*
X50420119Y-109624761D01*
X50372500Y-109577142D01*
X50324880Y-109481904D01*
X50324880Y-109196190D01*
X50372500Y-109100952D01*
X50420119Y-109053333D01*
X50515357Y-109005714D01*
X50658214Y-109005714D01*
X50753452Y-109053333D01*
X50801071Y-109100952D01*
X50848690Y-109196190D01*
X50848690Y-109481904D01*
X50801071Y-109577142D01*
X50753452Y-109624761D01*
X50658214Y-109672380D01*
X50515357Y-109672380D01*
X51277261Y-109672380D02*
X51277261Y-109005714D01*
X51277261Y-109196190D02*
X51324880Y-109100952D01*
X51372500Y-109053333D01*
X51467738Y-109005714D01*
X51562976Y-109005714D01*
X52562976Y-109005714D02*
X52801071Y-109672380D01*
X53039166Y-109005714D01*
X53848690Y-109672380D02*
X53848690Y-109148571D01*
X53801071Y-109053333D01*
X53705833Y-109005714D01*
X53515357Y-109005714D01*
X53420119Y-109053333D01*
X53848690Y-109624761D02*
X53753452Y-109672380D01*
X53515357Y-109672380D01*
X53420119Y-109624761D01*
X53372500Y-109529523D01*
X53372500Y-109434285D01*
X53420119Y-109339047D01*
X53515357Y-109291428D01*
X53753452Y-109291428D01*
X53848690Y-109243809D01*
X54467738Y-109672380D02*
X54372500Y-109624761D01*
X54324880Y-109529523D01*
X54324880Y-108672380D01*
X55277261Y-109005714D02*
X55277261Y-109672380D01*
X54848690Y-109005714D02*
X54848690Y-109529523D01*
X54896309Y-109624761D01*
X54991547Y-109672380D01*
X55134404Y-109672380D01*
X55229642Y-109624761D01*
X55277261Y-109577142D01*
X56134404Y-109624761D02*
X56039166Y-109672380D01*
X55848690Y-109672380D01*
X55753452Y-109624761D01*
X55705833Y-109529523D01*
X55705833Y-109148571D01*
X55753452Y-109053333D01*
X55848690Y-109005714D01*
X56039166Y-109005714D01*
X56134404Y-109053333D01*
X56182023Y-109148571D01*
X56182023Y-109243809D01*
X55705833Y-109339047D01*
X56562976Y-109624761D02*
X56658214Y-109672380D01*
X56848690Y-109672380D01*
X56943928Y-109624761D01*
X56991547Y-109529523D01*
X56991547Y-109481904D01*
X56943928Y-109386666D01*
X56848690Y-109339047D01*
X56705833Y-109339047D01*
X56610595Y-109291428D01*
X56562976Y-109196190D01*
X56562976Y-109148571D01*
X56610595Y-109053333D01*
X56705833Y-109005714D01*
X56848690Y-109005714D01*
X56943928Y-109053333D01*
X58086785Y-109005714D02*
X58277261Y-109672380D01*
X58467738Y-109196190D01*
X58658214Y-109672380D01*
X58848690Y-109005714D01*
X59229642Y-109672380D02*
X59229642Y-109005714D01*
X59229642Y-108672380D02*
X59182023Y-108720000D01*
X59229642Y-108767619D01*
X59277261Y-108720000D01*
X59229642Y-108672380D01*
X59229642Y-108767619D01*
X59848690Y-109672380D02*
X59753452Y-109624761D01*
X59705833Y-109529523D01*
X59705833Y-108672380D01*
X60372500Y-109672380D02*
X60277261Y-109624761D01*
X60229642Y-109529523D01*
X60229642Y-108672380D01*
X61943928Y-109672380D02*
X61943928Y-108672380D01*
X61943928Y-109624761D02*
X61848690Y-109672380D01*
X61658214Y-109672380D01*
X61562976Y-109624761D01*
X61515357Y-109577142D01*
X61467738Y-109481904D01*
X61467738Y-109196190D01*
X61515357Y-109100952D01*
X61562976Y-109053333D01*
X61658214Y-109005714D01*
X61848690Y-109005714D01*
X61943928Y-109053333D01*
X62562976Y-109672380D02*
X62467738Y-109624761D01*
X62420119Y-109577142D01*
X62372499Y-109481904D01*
X62372499Y-109196190D01*
X62420119Y-109100952D01*
X62467738Y-109053333D01*
X62562976Y-109005714D01*
X62705833Y-109005714D01*
X62801071Y-109053333D01*
X62848690Y-109100952D01*
X62896309Y-109196190D01*
X62896309Y-109481904D01*
X62848690Y-109577142D01*
X62801071Y-109624761D01*
X62705833Y-109672380D01*
X62562976Y-109672380D01*
X64086785Y-109005714D02*
X64848690Y-109291428D01*
X64086785Y-109577142D01*
X65324880Y-109148571D02*
X66086785Y-109148571D01*
X66086785Y-109434285D02*
X65324880Y-109434285D01*
X67515357Y-108672380D02*
X67610595Y-108672380D01*
X67705833Y-108720000D01*
X67753452Y-108767619D01*
X67801071Y-108862857D01*
X67848690Y-109053333D01*
X67848690Y-109291428D01*
X67801071Y-109481904D01*
X67753452Y-109577142D01*
X67705833Y-109624761D01*
X67610595Y-109672380D01*
X67515357Y-109672380D01*
X67420119Y-109624761D01*
X67372500Y-109577142D01*
X67324880Y-109481904D01*
X67277261Y-109291428D01*
X67277261Y-109053333D01*
X67324880Y-108862857D01*
X67372500Y-108767619D01*
X67420119Y-108720000D01*
X67515357Y-108672380D01*
X68277261Y-109577142D02*
X68324880Y-109624761D01*
X68277261Y-109672380D01*
X68229642Y-109624761D01*
X68277261Y-109577142D01*
X68277261Y-109672380D01*
X69277261Y-109672380D02*
X68705833Y-109672380D01*
X68991547Y-109672380D02*
X68991547Y-108672380D01*
X68896309Y-108815238D01*
X68801071Y-108910476D01*
X68705833Y-108958095D01*
X70134404Y-109005714D02*
X70134404Y-109672380D01*
X69705833Y-109005714D02*
X69705833Y-109529523D01*
X69753452Y-109624761D01*
X69848690Y-109672380D01*
X69991547Y-109672380D01*
X70086785Y-109624761D01*
X70134404Y-109577142D01*
X70943928Y-109148571D02*
X70610595Y-109148571D01*
X70610595Y-109672380D02*
X70610595Y-108672380D01*
X71086785Y-108672380D01*
X41610595Y-111282380D02*
X41610595Y-110282380D01*
X42182023Y-111282380D01*
X42182023Y-110282380D01*
X42801071Y-111282380D02*
X42705833Y-111234761D01*
X42658214Y-111187142D01*
X42610595Y-111091904D01*
X42610595Y-110806190D01*
X42658214Y-110710952D01*
X42705833Y-110663333D01*
X42801071Y-110615714D01*
X42943928Y-110615714D01*
X43039166Y-110663333D01*
X43086785Y-110710952D01*
X43134404Y-110806190D01*
X43134404Y-111091904D01*
X43086785Y-111187142D01*
X43039166Y-111234761D01*
X42943928Y-111282380D01*
X42801071Y-111282380D01*
X43420119Y-110615714D02*
X43801071Y-110615714D01*
X43562976Y-110282380D02*
X43562976Y-111139523D01*
X43610595Y-111234761D01*
X43705833Y-111282380D01*
X43801071Y-111282380D01*
X44515357Y-111234761D02*
X44420119Y-111282380D01*
X44229642Y-111282380D01*
X44134404Y-111234761D01*
X44086785Y-111139523D01*
X44086785Y-110758571D01*
X44134404Y-110663333D01*
X44229642Y-110615714D01*
X44420119Y-110615714D01*
X44515357Y-110663333D01*
X44562976Y-110758571D01*
X44562976Y-110853809D01*
X44086785Y-110949047D01*
X45753452Y-111282380D02*
X45753452Y-110282380D01*
X46086785Y-110996666D01*
X46420119Y-110282380D01*
X46420119Y-111282380D01*
X47467738Y-111187142D02*
X47420119Y-111234761D01*
X47277261Y-111282380D01*
X47182023Y-111282380D01*
X47039166Y-111234761D01*
X46943928Y-111139523D01*
X46896309Y-111044285D01*
X46848690Y-110853809D01*
X46848690Y-110710952D01*
X46896309Y-110520476D01*
X46943928Y-110425238D01*
X47039166Y-110330000D01*
X47182023Y-110282380D01*
X47277261Y-110282380D01*
X47420119Y-110330000D01*
X47467738Y-110377619D01*
X47896309Y-111282380D02*
X47896309Y-110282380D01*
X48277261Y-110282380D01*
X48372500Y-110330000D01*
X48420119Y-110377619D01*
X48467738Y-110472857D01*
X48467738Y-110615714D01*
X48420119Y-110710952D01*
X48372500Y-110758571D01*
X48277261Y-110806190D01*
X47896309Y-110806190D01*
X49420119Y-111282380D02*
X48848690Y-111282380D01*
X49134404Y-111282380D02*
X49134404Y-110282380D01*
X49039166Y-110425238D01*
X48943928Y-110520476D01*
X48848690Y-110568095D01*
X49753452Y-110282380D02*
X50420119Y-110282380D01*
X49991547Y-111282380D01*
X50991547Y-110282380D02*
X51086785Y-110282380D01*
X51182023Y-110330000D01*
X51229642Y-110377619D01*
X51277261Y-110472857D01*
X51324880Y-110663333D01*
X51324880Y-110901428D01*
X51277261Y-111091904D01*
X51229642Y-111187142D01*
X51182023Y-111234761D01*
X51086785Y-111282380D01*
X50991547Y-111282380D01*
X50896309Y-111234761D01*
X50848690Y-111187142D01*
X50801071Y-111091904D01*
X50753452Y-110901428D01*
X50753452Y-110663333D01*
X50801071Y-110472857D01*
X50848690Y-110377619D01*
X50896309Y-110330000D01*
X50991547Y-110282380D01*
X51943928Y-110282380D02*
X52039166Y-110282380D01*
X52134404Y-110330000D01*
X52182023Y-110377619D01*
X52229642Y-110472857D01*
X52277261Y-110663333D01*
X52277261Y-110901428D01*
X52229642Y-111091904D01*
X52182023Y-111187142D01*
X52134404Y-111234761D01*
X52039166Y-111282380D01*
X51943928Y-111282380D01*
X51848690Y-111234761D01*
X51801071Y-111187142D01*
X51753452Y-111091904D01*
X51705833Y-110901428D01*
X51705833Y-110663333D01*
X51753452Y-110472857D01*
X51801071Y-110377619D01*
X51848690Y-110330000D01*
X51943928Y-110282380D01*
X53467738Y-111282380D02*
X53467738Y-110615714D01*
X53467738Y-110282380D02*
X53420119Y-110330000D01*
X53467738Y-110377619D01*
X53515357Y-110330000D01*
X53467738Y-110282380D01*
X53467738Y-110377619D01*
X53896309Y-111234761D02*
X53991547Y-111282380D01*
X54182023Y-111282380D01*
X54277261Y-111234761D01*
X54324880Y-111139523D01*
X54324880Y-111091904D01*
X54277261Y-110996666D01*
X54182023Y-110949047D01*
X54039166Y-110949047D01*
X53943928Y-110901428D01*
X53896309Y-110806190D01*
X53896309Y-110758571D01*
X53943928Y-110663333D01*
X54039166Y-110615714D01*
X54182023Y-110615714D01*
X54277261Y-110663333D01*
X55943928Y-111282380D02*
X55943928Y-110758571D01*
X55896309Y-110663333D01*
X55801071Y-110615714D01*
X55610595Y-110615714D01*
X55515357Y-110663333D01*
X55943928Y-111234761D02*
X55848690Y-111282380D01*
X55610595Y-111282380D01*
X55515357Y-111234761D01*
X55467738Y-111139523D01*
X55467738Y-111044285D01*
X55515357Y-110949047D01*
X55610595Y-110901428D01*
X55848690Y-110901428D01*
X55943928Y-110853809D01*
X56420119Y-110615714D02*
X56420119Y-111282380D01*
X56420119Y-110710952D02*
X56467738Y-110663333D01*
X56562976Y-110615714D01*
X56705833Y-110615714D01*
X56801071Y-110663333D01*
X56848690Y-110758571D01*
X56848690Y-111282380D01*
X58515357Y-110615714D02*
X58515357Y-111282380D01*
X58086785Y-110615714D02*
X58086785Y-111139523D01*
X58134404Y-111234761D01*
X58229642Y-111282380D01*
X58372500Y-111282380D01*
X58467738Y-111234761D01*
X58515357Y-111187142D01*
X58991547Y-110615714D02*
X58991547Y-111282380D01*
X58991547Y-110710952D02*
X59039166Y-110663333D01*
X59134404Y-110615714D01*
X59277261Y-110615714D01*
X59372500Y-110663333D01*
X59420119Y-110758571D01*
X59420119Y-111282380D01*
X60324880Y-110615714D02*
X60324880Y-111282380D01*
X59896309Y-110615714D02*
X59896309Y-111139523D01*
X59943928Y-111234761D01*
X60039166Y-111282380D01*
X60182023Y-111282380D01*
X60277261Y-111234761D01*
X60324880Y-111187142D01*
X60753452Y-111234761D02*
X60848690Y-111282380D01*
X61039166Y-111282380D01*
X61134404Y-111234761D01*
X61182023Y-111139523D01*
X61182023Y-111091904D01*
X61134404Y-110996666D01*
X61039166Y-110949047D01*
X60896309Y-110949047D01*
X60801071Y-110901428D01*
X60753452Y-110806190D01*
X60753452Y-110758571D01*
X60801071Y-110663333D01*
X60896309Y-110615714D01*
X61039166Y-110615714D01*
X61134404Y-110663333D01*
X62039166Y-110615714D02*
X62039166Y-111282380D01*
X61610595Y-110615714D02*
X61610595Y-111139523D01*
X61658214Y-111234761D01*
X61753452Y-111282380D01*
X61896309Y-111282380D01*
X61991547Y-111234761D01*
X62039166Y-111187142D01*
X62943928Y-111282380D02*
X62943928Y-110758571D01*
X62896309Y-110663333D01*
X62801071Y-110615714D01*
X62610595Y-110615714D01*
X62515357Y-110663333D01*
X62943928Y-111234761D02*
X62848690Y-111282380D01*
X62610595Y-111282380D01*
X62515357Y-111234761D01*
X62467738Y-111139523D01*
X62467738Y-111044285D01*
X62515357Y-110949047D01*
X62610595Y-110901428D01*
X62848690Y-110901428D01*
X62943928Y-110853809D01*
X63562976Y-111282380D02*
X63467738Y-111234761D01*
X63420119Y-111139523D01*
X63420119Y-110282380D01*
X64610595Y-110615714D02*
X64848690Y-111282380D01*
X65086785Y-110615714D01*
X65896309Y-111282380D02*
X65896309Y-110758571D01*
X65848690Y-110663333D01*
X65753452Y-110615714D01*
X65562976Y-110615714D01*
X65467738Y-110663333D01*
X65896309Y-111234761D02*
X65801071Y-111282380D01*
X65562976Y-111282380D01*
X65467738Y-111234761D01*
X65420119Y-111139523D01*
X65420119Y-111044285D01*
X65467738Y-110949047D01*
X65562976Y-110901428D01*
X65801071Y-110901428D01*
X65896309Y-110853809D01*
X66515357Y-111282380D02*
X66420119Y-111234761D01*
X66372499Y-111139523D01*
X66372499Y-110282380D01*
X67324880Y-110615714D02*
X67324880Y-111282380D01*
X66896309Y-110615714D02*
X66896309Y-111139523D01*
X66943928Y-111234761D01*
X67039166Y-111282380D01*
X67182023Y-111282380D01*
X67277261Y-111234761D01*
X67324880Y-111187142D01*
X68182023Y-111234761D02*
X68086785Y-111282380D01*
X67896309Y-111282380D01*
X67801071Y-111234761D01*
X67753452Y-111139523D01*
X67753452Y-110758571D01*
X67801071Y-110663333D01*
X67896309Y-110615714D01*
X68086785Y-110615714D01*
X68182023Y-110663333D01*
X68229642Y-110758571D01*
X68229642Y-110853809D01*
X67753452Y-110949047D01*
X70572380Y-93948095D02*
X70572380Y-93329047D01*
X70953333Y-93662380D01*
X70953333Y-93519523D01*
X71000952Y-93424285D01*
X71048571Y-93376666D01*
X71143809Y-93329047D01*
X71381904Y-93329047D01*
X71477142Y-93376666D01*
X71524761Y-93424285D01*
X71572380Y-93519523D01*
X71572380Y-93805238D01*
X71524761Y-93900476D01*
X71477142Y-93948095D01*
X70572380Y-93043333D02*
X71572380Y-92710000D01*
X70572380Y-92376666D01*
X70572380Y-92138571D02*
X70572380Y-91519523D01*
X70953333Y-91852857D01*
X70953333Y-91710000D01*
X71000952Y-91614761D01*
X71048571Y-91567142D01*
X71143809Y-91519523D01*
X71381904Y-91519523D01*
X71477142Y-91567142D01*
X71524761Y-91614761D01*
X71572380Y-91710000D01*
X71572380Y-91995714D01*
X71524761Y-92090952D01*
X71477142Y-92138571D01*
X138882380Y-80430476D02*
X138882380Y-80906666D01*
X137882380Y-80906666D01*
X138882380Y-80097142D02*
X137882380Y-80097142D01*
X138596666Y-79763809D01*
X137882380Y-79430476D01*
X138882380Y-79430476D01*
X137882380Y-79049523D02*
X137882380Y-78430476D01*
X138263333Y-78763809D01*
X138263333Y-78620952D01*
X138310952Y-78525714D01*
X138358571Y-78478095D01*
X138453809Y-78430476D01*
X138691904Y-78430476D01*
X138787142Y-78478095D01*
X138834761Y-78525714D01*
X138882380Y-78620952D01*
X138882380Y-78906666D01*
X138834761Y-79001904D01*
X138787142Y-79049523D01*
X137882380Y-78097142D02*
X137882380Y-77478095D01*
X138263333Y-77811428D01*
X138263333Y-77668571D01*
X138310952Y-77573333D01*
X138358571Y-77525714D01*
X138453809Y-77478095D01*
X138691904Y-77478095D01*
X138787142Y-77525714D01*
X138834761Y-77573333D01*
X138882380Y-77668571D01*
X138882380Y-77954285D01*
X138834761Y-78049523D01*
X138787142Y-78097142D01*
X138882380Y-77001904D02*
X138882380Y-76811428D01*
X138834761Y-76716190D01*
X138787142Y-76668571D01*
X138644285Y-76573333D01*
X138453809Y-76525714D01*
X138072857Y-76525714D01*
X137977619Y-76573333D01*
X137930000Y-76620952D01*
X137882380Y-76716190D01*
X137882380Y-76906666D01*
X137930000Y-77001904D01*
X137977619Y-77049523D01*
X138072857Y-77097142D01*
X138310952Y-77097142D01*
X138406190Y-77049523D01*
X138453809Y-77001904D01*
X138501428Y-76906666D01*
X138501428Y-76716190D01*
X138453809Y-76620952D01*
X138406190Y-76573333D01*
X138310952Y-76525714D01*
X75382380Y-80440476D02*
X75382380Y-80916666D01*
X74382380Y-80916666D01*
X75382380Y-80107142D02*
X74382380Y-80107142D01*
X75096666Y-79773809D01*
X74382380Y-79440476D01*
X75382380Y-79440476D01*
X74382380Y-79059523D02*
X74382380Y-78440476D01*
X74763333Y-78773809D01*
X74763333Y-78630952D01*
X74810952Y-78535714D01*
X74858571Y-78488095D01*
X74953809Y-78440476D01*
X75191904Y-78440476D01*
X75287142Y-78488095D01*
X75334761Y-78535714D01*
X75382380Y-78630952D01*
X75382380Y-78916666D01*
X75334761Y-79011904D01*
X75287142Y-79059523D01*
X74382380Y-78107142D02*
X74382380Y-77488095D01*
X74763333Y-77821428D01*
X74763333Y-77678571D01*
X74810952Y-77583333D01*
X74858571Y-77535714D01*
X74953809Y-77488095D01*
X75191904Y-77488095D01*
X75287142Y-77535714D01*
X75334761Y-77583333D01*
X75382380Y-77678571D01*
X75382380Y-77964285D01*
X75334761Y-78059523D01*
X75287142Y-78107142D01*
X75382380Y-77011904D02*
X75382380Y-76821428D01*
X75334761Y-76726190D01*
X75287142Y-76678571D01*
X75144285Y-76583333D01*
X74953809Y-76535714D01*
X74572857Y-76535714D01*
X74477619Y-76583333D01*
X74430000Y-76630952D01*
X74382380Y-76726190D01*
X74382380Y-76916666D01*
X74430000Y-77011904D01*
X74477619Y-77059523D01*
X74572857Y-77107142D01*
X74810952Y-77107142D01*
X74906190Y-77059523D01*
X74953809Y-77011904D01*
X75001428Y-76916666D01*
X75001428Y-76726190D01*
X74953809Y-76630952D01*
X74906190Y-76583333D01*
X74810952Y-76535714D01*
X30027619Y-91614285D02*
X29980000Y-91566666D01*
X29932380Y-91471428D01*
X29932380Y-91233333D01*
X29980000Y-91138095D01*
X30027619Y-91090476D01*
X30122857Y-91042857D01*
X30218095Y-91042857D01*
X30360952Y-91090476D01*
X30932380Y-91661904D01*
X30932380Y-91042857D01*
X30932380Y-90614285D02*
X29932380Y-90614285D01*
X30932380Y-90042857D01*
X29932380Y-90042857D01*
X29932380Y-89661904D02*
X29932380Y-88995238D01*
X30932380Y-89423809D01*
X29932380Y-88423809D02*
X29932380Y-88328571D01*
X29980000Y-88233333D01*
X30027619Y-88185714D01*
X30122857Y-88138095D01*
X30313333Y-88090476D01*
X30551428Y-88090476D01*
X30741904Y-88138095D01*
X30837142Y-88185714D01*
X30884761Y-88233333D01*
X30932380Y-88328571D01*
X30932380Y-88423809D01*
X30884761Y-88519047D01*
X30837142Y-88566666D01*
X30741904Y-88614285D01*
X30551428Y-88661904D01*
X30313333Y-88661904D01*
X30122857Y-88614285D01*
X30027619Y-88566666D01*
X29980000Y-88519047D01*
X29932380Y-88423809D01*
X29932380Y-87471428D02*
X29932380Y-87376190D01*
X29980000Y-87280952D01*
X30027619Y-87233333D01*
X30122857Y-87185714D01*
X30313333Y-87138095D01*
X30551428Y-87138095D01*
X30741904Y-87185714D01*
X30837142Y-87233333D01*
X30884761Y-87280952D01*
X30932380Y-87376190D01*
X30932380Y-87471428D01*
X30884761Y-87566666D01*
X30837142Y-87614285D01*
X30741904Y-87661904D01*
X30551428Y-87709523D01*
X30313333Y-87709523D01*
X30122857Y-87661904D01*
X30027619Y-87614285D01*
X29980000Y-87566666D01*
X29932380Y-87471428D01*
X29932380Y-86519047D02*
X29932380Y-86423809D01*
X29980000Y-86328571D01*
X30027619Y-86280952D01*
X30122857Y-86233333D01*
X30313333Y-86185714D01*
X30551428Y-86185714D01*
X30741904Y-86233333D01*
X30837142Y-86280952D01*
X30884761Y-86328571D01*
X30932380Y-86423809D01*
X30932380Y-86519047D01*
X30884761Y-86614285D01*
X30837142Y-86661904D01*
X30741904Y-86709523D01*
X30551428Y-86757142D01*
X30313333Y-86757142D01*
X30122857Y-86709523D01*
X30027619Y-86661904D01*
X29980000Y-86614285D01*
X29932380Y-86519047D01*
X100782380Y-80430476D02*
X100782380Y-80906666D01*
X99782380Y-80906666D01*
X100782380Y-80097142D02*
X99782380Y-80097142D01*
X100496666Y-79763809D01*
X99782380Y-79430476D01*
X100782380Y-79430476D01*
X99782380Y-79049523D02*
X99782380Y-78430476D01*
X100163333Y-78763809D01*
X100163333Y-78620952D01*
X100210952Y-78525714D01*
X100258571Y-78478095D01*
X100353809Y-78430476D01*
X100591904Y-78430476D01*
X100687142Y-78478095D01*
X100734761Y-78525714D01*
X100782380Y-78620952D01*
X100782380Y-78906666D01*
X100734761Y-79001904D01*
X100687142Y-79049523D01*
X99782380Y-78097142D02*
X99782380Y-77478095D01*
X100163333Y-77811428D01*
X100163333Y-77668571D01*
X100210952Y-77573333D01*
X100258571Y-77525714D01*
X100353809Y-77478095D01*
X100591904Y-77478095D01*
X100687142Y-77525714D01*
X100734761Y-77573333D01*
X100782380Y-77668571D01*
X100782380Y-77954285D01*
X100734761Y-78049523D01*
X100687142Y-78097142D01*
X100782380Y-77001904D02*
X100782380Y-76811428D01*
X100734761Y-76716190D01*
X100687142Y-76668571D01*
X100544285Y-76573333D01*
X100353809Y-76525714D01*
X99972857Y-76525714D01*
X99877619Y-76573333D01*
X99830000Y-76620952D01*
X99782380Y-76716190D01*
X99782380Y-76906666D01*
X99830000Y-77001904D01*
X99877619Y-77049523D01*
X99972857Y-77097142D01*
X100210952Y-77097142D01*
X100306190Y-77049523D01*
X100353809Y-77001904D01*
X100401428Y-76906666D01*
X100401428Y-76716190D01*
X100353809Y-76620952D01*
X100306190Y-76573333D01*
X100210952Y-76525714D01*
X48982380Y-84541904D02*
X48982380Y-83875238D01*
X49982380Y-84303809D01*
X49315714Y-83065714D02*
X49982380Y-83065714D01*
X48934761Y-83303809D02*
X49649047Y-83541904D01*
X49649047Y-82922857D01*
X49982380Y-82541904D02*
X48982380Y-82541904D01*
X49458571Y-82541904D02*
X49458571Y-81970476D01*
X49982380Y-81970476D02*
X48982380Y-81970476D01*
X49887142Y-80922857D02*
X49934761Y-80970476D01*
X49982380Y-81113333D01*
X49982380Y-81208571D01*
X49934761Y-81351428D01*
X49839523Y-81446666D01*
X49744285Y-81494285D01*
X49553809Y-81541904D01*
X49410952Y-81541904D01*
X49220476Y-81494285D01*
X49125238Y-81446666D01*
X49030000Y-81351428D01*
X48982380Y-81208571D01*
X48982380Y-81113333D01*
X49030000Y-80970476D01*
X49077619Y-80922857D01*
X48982380Y-80018095D02*
X48982380Y-80494285D01*
X49458571Y-80541904D01*
X49410952Y-80494285D01*
X49363333Y-80399047D01*
X49363333Y-80160952D01*
X49410952Y-80065714D01*
X49458571Y-80018095D01*
X49553809Y-79970476D01*
X49791904Y-79970476D01*
X49887142Y-80018095D01*
X49934761Y-80065714D01*
X49982380Y-80160952D01*
X49982380Y-80399047D01*
X49934761Y-80494285D01*
X49887142Y-80541904D01*
X49982380Y-79494285D02*
X49982380Y-79303809D01*
X49934761Y-79208571D01*
X49887142Y-79160952D01*
X49744285Y-79065714D01*
X49553809Y-79018095D01*
X49172857Y-79018095D01*
X49077619Y-79065714D01*
X49030000Y-79113333D01*
X48982380Y-79208571D01*
X48982380Y-79399047D01*
X49030000Y-79494285D01*
X49077619Y-79541904D01*
X49172857Y-79589523D01*
X49410952Y-79589523D01*
X49506190Y-79541904D01*
X49553809Y-79494285D01*
X49601428Y-79399047D01*
X49601428Y-79208571D01*
X49553809Y-79113333D01*
X49506190Y-79065714D01*
X49410952Y-79018095D01*
X48982380Y-78113333D02*
X48982380Y-78589523D01*
X49458571Y-78637142D01*
X49410952Y-78589523D01*
X49363333Y-78494285D01*
X49363333Y-78256190D01*
X49410952Y-78160952D01*
X49458571Y-78113333D01*
X49553809Y-78065714D01*
X49791904Y-78065714D01*
X49887142Y-78113333D01*
X49934761Y-78160952D01*
X49982380Y-78256190D01*
X49982380Y-78494285D01*
X49934761Y-78589523D01*
X49887142Y-78637142D01*
X80622142Y-103322380D02*
X80622142Y-102322380D01*
X80955476Y-103036666D01*
X81288809Y-102322380D01*
X81288809Y-103322380D01*
X82336428Y-103227142D02*
X82288809Y-103274761D01*
X82145952Y-103322380D01*
X82050714Y-103322380D01*
X81907857Y-103274761D01*
X81812619Y-103179523D01*
X81765000Y-103084285D01*
X81717380Y-102893809D01*
X81717380Y-102750952D01*
X81765000Y-102560476D01*
X81812619Y-102465238D01*
X81907857Y-102370000D01*
X82050714Y-102322380D01*
X82145952Y-102322380D01*
X82288809Y-102370000D01*
X82336428Y-102417619D01*
X82765000Y-103322380D02*
X82765000Y-102322380D01*
X83145952Y-102322380D01*
X83241190Y-102370000D01*
X83288809Y-102417619D01*
X83336428Y-102512857D01*
X83336428Y-102655714D01*
X83288809Y-102750952D01*
X83241190Y-102798571D01*
X83145952Y-102846190D01*
X82765000Y-102846190D01*
X84288809Y-103322380D02*
X83717380Y-103322380D01*
X84003095Y-103322380D02*
X84003095Y-102322380D01*
X83907857Y-102465238D01*
X83812619Y-102560476D01*
X83717380Y-102608095D01*
X84622142Y-102322380D02*
X85288809Y-102322380D01*
X84860238Y-103322380D01*
X85860238Y-102322380D02*
X85955476Y-102322380D01*
X86050714Y-102370000D01*
X86098333Y-102417619D01*
X86145952Y-102512857D01*
X86193571Y-102703333D01*
X86193571Y-102941428D01*
X86145952Y-103131904D01*
X86098333Y-103227142D01*
X86050714Y-103274761D01*
X85955476Y-103322380D01*
X85860238Y-103322380D01*
X85765000Y-103274761D01*
X85717380Y-103227142D01*
X85669761Y-103131904D01*
X85622142Y-102941428D01*
X85622142Y-102703333D01*
X85669761Y-102512857D01*
X85717380Y-102417619D01*
X85765000Y-102370000D01*
X85860238Y-102322380D01*
X86812619Y-102322380D02*
X86907857Y-102322380D01*
X87003095Y-102370000D01*
X87050714Y-102417619D01*
X87098333Y-102512857D01*
X87145952Y-102703333D01*
X87145952Y-102941428D01*
X87098333Y-103131904D01*
X87050714Y-103227142D01*
X87003095Y-103274761D01*
X86907857Y-103322380D01*
X86812619Y-103322380D01*
X86717380Y-103274761D01*
X86669761Y-103227142D01*
X86622142Y-103131904D01*
X86574523Y-102941428D01*
X86574523Y-102703333D01*
X86622142Y-102512857D01*
X86669761Y-102417619D01*
X86717380Y-102370000D01*
X86812619Y-102322380D01*
X87574523Y-102941428D02*
X88336428Y-102941428D01*
X89336428Y-103322380D02*
X88765000Y-103322380D01*
X89050714Y-103322380D02*
X89050714Y-102322380D01*
X88955476Y-102465238D01*
X88860238Y-102560476D01*
X88765000Y-102608095D01*
X90241190Y-102322380D02*
X89765000Y-102322380D01*
X89717380Y-102798571D01*
X89765000Y-102750952D01*
X89860238Y-102703333D01*
X90098333Y-102703333D01*
X90193571Y-102750952D01*
X90241190Y-102798571D01*
X90288809Y-102893809D01*
X90288809Y-103131904D01*
X90241190Y-103227142D01*
X90193571Y-103274761D01*
X90098333Y-103322380D01*
X89860238Y-103322380D01*
X89765000Y-103274761D01*
X89717380Y-103227142D01*
X90907857Y-102322380D02*
X91003095Y-102322380D01*
X91098333Y-102370000D01*
X91145952Y-102417619D01*
X91193571Y-102512857D01*
X91241190Y-102703333D01*
X91241190Y-102941428D01*
X91193571Y-103131904D01*
X91145952Y-103227142D01*
X91098333Y-103274761D01*
X91003095Y-103322380D01*
X90907857Y-103322380D01*
X90812619Y-103274761D01*
X90764999Y-103227142D01*
X90717380Y-103131904D01*
X90669761Y-102941428D01*
X90669761Y-102703333D01*
X90717380Y-102512857D01*
X90764999Y-102417619D01*
X90812619Y-102370000D01*
X90907857Y-102322380D01*
X91622142Y-102417619D02*
X91669761Y-102370000D01*
X91764999Y-102322380D01*
X92003095Y-102322380D01*
X92098333Y-102370000D01*
X92145952Y-102417619D01*
X92193571Y-102512857D01*
X92193571Y-102608095D01*
X92145952Y-102750952D01*
X91574523Y-103322380D01*
X92193571Y-103322380D01*
X92622142Y-102798571D02*
X92955476Y-102798571D01*
X93098333Y-103322380D02*
X92622142Y-103322380D01*
X92622142Y-102322380D01*
X93098333Y-102322380D01*
X94241190Y-102274761D02*
X93384047Y-103560476D01*
X94431666Y-102322380D02*
X95003095Y-102322380D01*
X94717380Y-103322380D02*
X94717380Y-102322380D01*
X95526904Y-102322380D02*
X95717380Y-102322380D01*
X95812619Y-102370000D01*
X95907857Y-102465238D01*
X95955476Y-102655714D01*
X95955476Y-102989047D01*
X95907857Y-103179523D01*
X95812619Y-103274761D01*
X95717380Y-103322380D01*
X95526904Y-103322380D01*
X95431666Y-103274761D01*
X95336428Y-103179523D01*
X95288809Y-102989047D01*
X95288809Y-102655714D01*
X95336428Y-102465238D01*
X95431666Y-102370000D01*
X95526904Y-102322380D01*
X68032380Y-55331904D02*
X68032380Y-54665238D01*
X69032380Y-55093809D01*
X68365714Y-53855714D02*
X69032380Y-53855714D01*
X67984761Y-54093809D02*
X68699047Y-54331904D01*
X68699047Y-53712857D01*
X69032380Y-53331904D02*
X68032380Y-53331904D01*
X68508571Y-53331904D02*
X68508571Y-52760476D01*
X69032380Y-52760476D02*
X68032380Y-52760476D01*
X68937142Y-51712857D02*
X68984761Y-51760476D01*
X69032380Y-51903333D01*
X69032380Y-51998571D01*
X68984761Y-52141428D01*
X68889523Y-52236666D01*
X68794285Y-52284285D01*
X68603809Y-52331904D01*
X68460952Y-52331904D01*
X68270476Y-52284285D01*
X68175238Y-52236666D01*
X68080000Y-52141428D01*
X68032380Y-51998571D01*
X68032380Y-51903333D01*
X68080000Y-51760476D01*
X68127619Y-51712857D01*
X69032380Y-50760476D02*
X69032380Y-51331904D01*
X69032380Y-51046190D02*
X68032380Y-51046190D01*
X68175238Y-51141428D01*
X68270476Y-51236666D01*
X68318095Y-51331904D01*
X68032380Y-49903333D02*
X68032380Y-50093809D01*
X68080000Y-50189047D01*
X68127619Y-50236666D01*
X68270476Y-50331904D01*
X68460952Y-50379523D01*
X68841904Y-50379523D01*
X68937142Y-50331904D01*
X68984761Y-50284285D01*
X69032380Y-50189047D01*
X69032380Y-49998571D01*
X68984761Y-49903333D01*
X68937142Y-49855714D01*
X68841904Y-49808095D01*
X68603809Y-49808095D01*
X68508571Y-49855714D01*
X68460952Y-49903333D01*
X68413333Y-49998571D01*
X68413333Y-50189047D01*
X68460952Y-50284285D01*
X68508571Y-50331904D01*
X68603809Y-50379523D01*
X68032380Y-48903333D02*
X68032380Y-49379523D01*
X68508571Y-49427142D01*
X68460952Y-49379523D01*
X68413333Y-49284285D01*
X68413333Y-49046190D01*
X68460952Y-48950952D01*
X68508571Y-48903333D01*
X68603809Y-48855714D01*
X68841904Y-48855714D01*
X68937142Y-48903333D01*
X68984761Y-48950952D01*
X69032380Y-49046190D01*
X69032380Y-49284285D01*
X68984761Y-49379523D01*
X68937142Y-49427142D01*
X70572380Y-100520476D02*
X70572380Y-100996666D01*
X71048571Y-101044285D01*
X71000952Y-100996666D01*
X70953333Y-100901428D01*
X70953333Y-100663333D01*
X71000952Y-100568095D01*
X71048571Y-100520476D01*
X71143809Y-100472857D01*
X71381904Y-100472857D01*
X71477142Y-100520476D01*
X71524761Y-100568095D01*
X71572380Y-100663333D01*
X71572380Y-100901428D01*
X71524761Y-100996666D01*
X71477142Y-101044285D01*
X70572380Y-100187142D02*
X71572380Y-99853809D01*
X70572380Y-99520476D01*
D11*
X43589285Y-28576071D02*
X44589285Y-30076071D01*
X44589285Y-28576071D02*
X43589285Y-30076071D01*
X45803571Y-30076071D02*
X45803571Y-29290357D01*
X45732142Y-29147500D01*
X45589285Y-29076071D01*
X45303571Y-29076071D01*
X45160714Y-29147500D01*
X45803571Y-30004642D02*
X45660714Y-30076071D01*
X45303571Y-30076071D01*
X45160714Y-30004642D01*
X45089285Y-29861785D01*
X45089285Y-29718928D01*
X45160714Y-29576071D01*
X45303571Y-29504642D01*
X45660714Y-29504642D01*
X45803571Y-29433214D01*
X46517857Y-29076071D02*
X46517857Y-30076071D01*
X46517857Y-29218928D02*
X46589285Y-29147500D01*
X46732142Y-29076071D01*
X46946428Y-29076071D01*
X47089285Y-29147500D01*
X47160714Y-29290357D01*
X47160714Y-30076071D01*
X47660714Y-29076071D02*
X48232142Y-29076071D01*
X47875000Y-28576071D02*
X47875000Y-29861785D01*
X47946428Y-30004642D01*
X48089285Y-30076071D01*
X48232142Y-30076071D01*
X48732142Y-30076071D02*
X48732142Y-28576071D01*
X49375000Y-30076071D02*
X49375000Y-29290357D01*
X49303571Y-29147500D01*
X49160714Y-29076071D01*
X48946428Y-29076071D01*
X48803571Y-29147500D01*
X48732142Y-29218928D01*
X50089285Y-30076071D02*
X50089285Y-29076071D01*
X50089285Y-28576071D02*
X50017857Y-28647500D01*
X50089285Y-28718928D01*
X50160714Y-28647500D01*
X50089285Y-28576071D01*
X50089285Y-28718928D01*
X50803571Y-29076071D02*
X50803571Y-30576071D01*
X50803571Y-29147500D02*
X50946428Y-29076071D01*
X51232142Y-29076071D01*
X51375000Y-29147500D01*
X51446428Y-29218928D01*
X51517857Y-29361785D01*
X51517857Y-29790357D01*
X51446428Y-29933214D01*
X51375000Y-30004642D01*
X51232142Y-30076071D01*
X50946428Y-30076071D01*
X50803571Y-30004642D01*
X52160714Y-29076071D02*
X52160714Y-30576071D01*
X52160714Y-29147500D02*
X52303571Y-29076071D01*
X52589285Y-29076071D01*
X52732142Y-29147500D01*
X52803571Y-29218928D01*
X52875000Y-29361785D01*
X52875000Y-29790357D01*
X52803571Y-29933214D01*
X52732142Y-30004642D01*
X52589285Y-30076071D01*
X52303571Y-30076071D01*
X52160714Y-30004642D01*
X54089285Y-30004642D02*
X53946428Y-30076071D01*
X53660714Y-30076071D01*
X53517857Y-30004642D01*
X53446428Y-29861785D01*
X53446428Y-29290357D01*
X53517857Y-29147500D01*
X53660714Y-29076071D01*
X53946428Y-29076071D01*
X54089285Y-29147500D01*
X54160714Y-29290357D01*
X54160714Y-29433214D01*
X53446428Y-29576071D01*
X55732142Y-28576071D02*
X56232142Y-30076071D01*
X56732142Y-28576071D01*
X57803571Y-30004642D02*
X57660714Y-30076071D01*
X57375000Y-30076071D01*
X57232142Y-30004642D01*
X57160714Y-29861785D01*
X57160714Y-29290357D01*
X57232142Y-29147500D01*
X57375000Y-29076071D01*
X57660714Y-29076071D01*
X57803571Y-29147500D01*
X57875000Y-29290357D01*
X57875000Y-29433214D01*
X57160714Y-29576071D01*
X58517857Y-30076071D02*
X58517857Y-29076071D01*
X58517857Y-29361785D02*
X58589285Y-29218928D01*
X58660714Y-29147500D01*
X58803571Y-29076071D01*
X58946428Y-29076071D01*
X59375000Y-30004642D02*
X59517857Y-30076071D01*
X59803571Y-30076071D01*
X59946428Y-30004642D01*
X60017857Y-29861785D01*
X60017857Y-29790357D01*
X59946428Y-29647500D01*
X59803571Y-29576071D01*
X59589285Y-29576071D01*
X59446428Y-29504642D01*
X59375000Y-29361785D01*
X59375000Y-29290357D01*
X59446428Y-29147500D01*
X59589285Y-29076071D01*
X59803571Y-29076071D01*
X59946428Y-29147500D01*
X60660714Y-30076071D02*
X60660714Y-29076071D01*
X60660714Y-28576071D02*
X60589285Y-28647500D01*
X60660714Y-28718928D01*
X60732142Y-28647500D01*
X60660714Y-28576071D01*
X60660714Y-28718928D01*
X61589285Y-30076071D02*
X61446428Y-30004642D01*
X61375000Y-29933214D01*
X61303571Y-29790357D01*
X61303571Y-29361785D01*
X61375000Y-29218928D01*
X61446428Y-29147500D01*
X61589285Y-29076071D01*
X61803571Y-29076071D01*
X61946428Y-29147500D01*
X62017857Y-29218928D01*
X62089285Y-29361785D01*
X62089285Y-29790357D01*
X62017857Y-29933214D01*
X61946428Y-30004642D01*
X61803571Y-30076071D01*
X61589285Y-30076071D01*
X62732142Y-29076071D02*
X62732142Y-30076071D01*
X62732142Y-29218928D02*
X62803571Y-29147500D01*
X62946428Y-29076071D01*
X63160714Y-29076071D01*
X63303571Y-29147500D01*
X63375000Y-29290357D01*
X63375000Y-30076071D01*
X66017857Y-30076071D02*
X65160714Y-30076071D01*
X65589285Y-30076071D02*
X65589285Y-28576071D01*
X65446428Y-28790357D01*
X65303571Y-28933214D01*
X65160714Y-29004642D01*
X66660714Y-29933214D02*
X66732142Y-30004642D01*
X66660714Y-30076071D01*
X66589285Y-30004642D01*
X66660714Y-29933214D01*
X66660714Y-30076071D01*
X67660714Y-28576071D02*
X67803571Y-28576071D01*
X67946428Y-28647500D01*
X68017857Y-28718928D01*
X68089285Y-28861785D01*
X68160714Y-29147500D01*
X68160714Y-29504642D01*
X68089285Y-29790357D01*
X68017857Y-29933214D01*
X67946428Y-30004642D01*
X67803571Y-30076071D01*
X67660714Y-30076071D01*
X67517857Y-30004642D01*
X67446428Y-29933214D01*
X67375000Y-29790357D01*
X67303571Y-29504642D01*
X67303571Y-29147500D01*
X67375000Y-28861785D01*
X67446428Y-28718928D01*
X67517857Y-28647500D01*
X67660714Y-28576071D01*
X43660714Y-32419642D02*
X43875000Y-32491071D01*
X44232142Y-32491071D01*
X44375000Y-32419642D01*
X44446428Y-32348214D01*
X44517857Y-32205357D01*
X44517857Y-32062500D01*
X44446428Y-31919642D01*
X44375000Y-31848214D01*
X44232142Y-31776785D01*
X43946428Y-31705357D01*
X43803571Y-31633928D01*
X43732142Y-31562500D01*
X43660714Y-31419642D01*
X43660714Y-31276785D01*
X43732142Y-31133928D01*
X43803571Y-31062500D01*
X43946428Y-30991071D01*
X44303571Y-30991071D01*
X44517857Y-31062500D01*
X45732142Y-32419642D02*
X45589285Y-32491071D01*
X45303571Y-32491071D01*
X45160714Y-32419642D01*
X45089285Y-32276785D01*
X45089285Y-31705357D01*
X45160714Y-31562500D01*
X45303571Y-31491071D01*
X45589285Y-31491071D01*
X45732142Y-31562500D01*
X45803571Y-31705357D01*
X45803571Y-31848214D01*
X45089285Y-31991071D01*
X46446428Y-32491071D02*
X46446428Y-31491071D01*
X46446428Y-31776785D02*
X46517857Y-31633928D01*
X46589285Y-31562500D01*
X46732142Y-31491071D01*
X46875000Y-31491071D01*
X47375000Y-32491071D02*
X47375000Y-31491071D01*
X47375000Y-30991071D02*
X47303571Y-31062500D01*
X47375000Y-31133928D01*
X47446428Y-31062500D01*
X47375000Y-30991071D01*
X47375000Y-31133928D01*
X48732142Y-32491071D02*
X48732142Y-31705357D01*
X48660714Y-31562500D01*
X48517857Y-31491071D01*
X48232142Y-31491071D01*
X48089285Y-31562500D01*
X48732142Y-32419642D02*
X48589285Y-32491071D01*
X48232142Y-32491071D01*
X48089285Y-32419642D01*
X48017857Y-32276785D01*
X48017857Y-32133928D01*
X48089285Y-31991071D01*
X48232142Y-31919642D01*
X48589285Y-31919642D01*
X48732142Y-31848214D01*
X49660714Y-32491071D02*
X49517857Y-32419642D01*
X49446428Y-32276785D01*
X49446428Y-30991071D01*
X51375000Y-32491071D02*
X51375000Y-31491071D01*
X51375000Y-30991071D02*
X51303571Y-31062500D01*
X51375000Y-31133928D01*
X51446428Y-31062500D01*
X51375000Y-30991071D01*
X51375000Y-31133928D01*
X52089285Y-31491071D02*
X52089285Y-32491071D01*
X52089285Y-31633928D02*
X52160714Y-31562500D01*
X52303571Y-31491071D01*
X52517857Y-31491071D01*
X52660714Y-31562500D01*
X52732142Y-31705357D01*
X52732142Y-32491071D01*
X53232142Y-31491071D02*
X53803571Y-31491071D01*
X53446428Y-30991071D02*
X53446428Y-32276785D01*
X53517857Y-32419642D01*
X53660714Y-32491071D01*
X53803571Y-32491071D01*
X54875000Y-32419642D02*
X54732142Y-32491071D01*
X54446428Y-32491071D01*
X54303571Y-32419642D01*
X54232142Y-32276785D01*
X54232142Y-31705357D01*
X54303571Y-31562500D01*
X54446428Y-31491071D01*
X54732142Y-31491071D01*
X54875000Y-31562500D01*
X54946428Y-31705357D01*
X54946428Y-31848214D01*
X54232142Y-31991071D01*
X55589285Y-32491071D02*
X55589285Y-31491071D01*
X55589285Y-31776785D02*
X55660714Y-31633928D01*
X55732142Y-31562500D01*
X55875000Y-31491071D01*
X56017857Y-31491071D01*
X56303571Y-31491071D02*
X56875000Y-31491071D01*
X56517857Y-32491071D02*
X56517857Y-31205357D01*
X56589285Y-31062500D01*
X56732142Y-30991071D01*
X56875000Y-30991071D01*
X58017857Y-32491071D02*
X58017857Y-31705357D01*
X57946428Y-31562500D01*
X57803571Y-31491071D01*
X57517857Y-31491071D01*
X57375000Y-31562500D01*
X58017857Y-32419642D02*
X57875000Y-32491071D01*
X57517857Y-32491071D01*
X57375000Y-32419642D01*
X57303571Y-32276785D01*
X57303571Y-32133928D01*
X57375000Y-31991071D01*
X57517857Y-31919642D01*
X57875000Y-31919642D01*
X58017857Y-31848214D01*
X59375000Y-32419642D02*
X59232142Y-32491071D01*
X58946428Y-32491071D01*
X58803571Y-32419642D01*
X58732142Y-32348214D01*
X58660714Y-32205357D01*
X58660714Y-31776785D01*
X58732142Y-31633928D01*
X58803571Y-31562500D01*
X58946428Y-31491071D01*
X59232142Y-31491071D01*
X59375000Y-31562500D01*
X60589285Y-32419642D02*
X60446428Y-32491071D01*
X60160714Y-32491071D01*
X60017857Y-32419642D01*
X59946428Y-32276785D01*
X59946428Y-31705357D01*
X60017857Y-31562500D01*
X60160714Y-31491071D01*
X60446428Y-31491071D01*
X60589285Y-31562500D01*
X60660714Y-31705357D01*
X60660714Y-31848214D01*
X59946428Y-31991071D01*
X62232142Y-31491071D02*
X62803571Y-31491071D01*
X62446428Y-30991071D02*
X62446428Y-32276785D01*
X62517857Y-32419642D01*
X62660714Y-32491071D01*
X62803571Y-32491071D01*
X63517857Y-32491071D02*
X63375000Y-32419642D01*
X63303571Y-32348214D01*
X63232142Y-32205357D01*
X63232142Y-31776785D01*
X63303571Y-31633928D01*
X63375000Y-31562500D01*
X63517857Y-31491071D01*
X63732142Y-31491071D01*
X63875000Y-31562500D01*
X63946428Y-31633928D01*
X64017857Y-31776785D01*
X64017857Y-32205357D01*
X63946428Y-32348214D01*
X63875000Y-32419642D01*
X63732142Y-32491071D01*
X63517857Y-32491071D01*
X65589285Y-30991071D02*
X66446428Y-30991071D01*
X66017857Y-32491071D02*
X66017857Y-30991071D01*
X66946428Y-32491071D02*
X66946428Y-30991071D01*
X67517857Y-30991071D02*
X68446428Y-30991071D01*
X67946428Y-31562500D01*
X68160714Y-31562500D01*
X68303571Y-31633928D01*
X68375000Y-31705357D01*
X68446428Y-31848214D01*
X68446428Y-32205357D01*
X68375000Y-32348214D01*
X68303571Y-32419642D01*
X68160714Y-32491071D01*
X67732142Y-32491071D01*
X67589285Y-32419642D01*
X67517857Y-32348214D01*
X69375000Y-30991071D02*
X69517857Y-30991071D01*
X69660714Y-31062500D01*
X69732142Y-31133928D01*
X69803571Y-31276785D01*
X69875000Y-31562500D01*
X69875000Y-31919642D01*
X69803571Y-32205357D01*
X69732142Y-32348214D01*
X69660714Y-32419642D01*
X69517857Y-32491071D01*
X69375000Y-32491071D01*
X69232142Y-32419642D01*
X69160714Y-32348214D01*
X69089285Y-32205357D01*
X69017857Y-31919642D01*
X69017857Y-31562500D01*
X69089285Y-31276785D01*
X69160714Y-31133928D01*
X69232142Y-31062500D01*
X69375000Y-30991071D01*
X70517857Y-31919642D02*
X71660714Y-31919642D01*
X72232142Y-30991071D02*
X73232142Y-32491071D01*
X73232142Y-30991071D02*
X72232142Y-32491071D01*
X74446428Y-32491071D02*
X74446428Y-31705357D01*
X74375000Y-31562500D01*
X74232142Y-31491071D01*
X73946428Y-31491071D01*
X73803571Y-31562500D01*
X74446428Y-32419642D02*
X74303571Y-32491071D01*
X73946428Y-32491071D01*
X73803571Y-32419642D01*
X73732142Y-32276785D01*
X73732142Y-32133928D01*
X73803571Y-31991071D01*
X73946428Y-31919642D01*
X74303571Y-31919642D01*
X74446428Y-31848214D01*
X43660714Y-34477500D02*
X44375000Y-34477500D01*
X43517857Y-34906071D02*
X44017857Y-33406071D01*
X44517857Y-34906071D01*
X45232142Y-34906071D02*
X45089285Y-34834642D01*
X45017857Y-34691785D01*
X45017857Y-33406071D01*
X46446428Y-34906071D02*
X46446428Y-33406071D01*
X46446428Y-34834642D02*
X46303571Y-34906071D01*
X46017857Y-34906071D01*
X45875000Y-34834642D01*
X45803571Y-34763214D01*
X45732142Y-34620357D01*
X45732142Y-34191785D01*
X45803571Y-34048928D01*
X45875000Y-33977500D01*
X46017857Y-33906071D01*
X46303571Y-33906071D01*
X46446428Y-33977500D01*
X47732142Y-34834642D02*
X47589285Y-34906071D01*
X47303571Y-34906071D01*
X47160714Y-34834642D01*
X47089285Y-34691785D01*
X47089285Y-34120357D01*
X47160714Y-33977500D01*
X47303571Y-33906071D01*
X47589285Y-33906071D01*
X47732142Y-33977500D01*
X47803571Y-34120357D01*
X47803571Y-34263214D01*
X47089285Y-34406071D01*
X48446428Y-33906071D02*
X48446428Y-34906071D01*
X48446428Y-34048928D02*
X48517857Y-33977500D01*
X48660714Y-33906071D01*
X48875000Y-33906071D01*
X49017857Y-33977500D01*
X49089285Y-34120357D01*
X49089285Y-34906071D01*
X51446428Y-34120357D02*
X51660714Y-34191785D01*
X51732142Y-34263214D01*
X51803571Y-34406071D01*
X51803571Y-34620357D01*
X51732142Y-34763214D01*
X51660714Y-34834642D01*
X51517857Y-34906071D01*
X50946428Y-34906071D01*
X50946428Y-33406071D01*
X51446428Y-33406071D01*
X51589285Y-33477500D01*
X51660714Y-33548928D01*
X51732142Y-33691785D01*
X51732142Y-33834642D01*
X51660714Y-33977500D01*
X51589285Y-34048928D01*
X51446428Y-34120357D01*
X50946428Y-34120357D01*
X52446428Y-34906071D02*
X52446428Y-33906071D01*
X52446428Y-34191785D02*
X52517857Y-34048928D01*
X52589285Y-33977500D01*
X52732142Y-33906071D01*
X52875000Y-33906071D01*
X54017857Y-34906071D02*
X54017857Y-34120357D01*
X53946428Y-33977500D01*
X53803571Y-33906071D01*
X53517857Y-33906071D01*
X53375000Y-33977500D01*
X54017857Y-34834642D02*
X53875000Y-34906071D01*
X53517857Y-34906071D01*
X53375000Y-34834642D01*
X53303571Y-34691785D01*
X53303571Y-34548928D01*
X53375000Y-34406071D01*
X53517857Y-34334642D01*
X53875000Y-34334642D01*
X54017857Y-34263214D01*
X55375000Y-34906071D02*
X55375000Y-33406071D01*
X55375000Y-34834642D02*
X55232142Y-34906071D01*
X54946428Y-34906071D01*
X54803571Y-34834642D01*
X54732142Y-34763214D01*
X54660714Y-34620357D01*
X54660714Y-34191785D01*
X54732142Y-34048928D01*
X54803571Y-33977500D01*
X54946428Y-33906071D01*
X55232142Y-33906071D01*
X55375000Y-33977500D01*
X55875000Y-33906071D02*
X56446428Y-33906071D01*
X56089285Y-34906071D02*
X56089285Y-33620357D01*
X56160714Y-33477500D01*
X56303571Y-33406071D01*
X56446428Y-33406071D01*
X57160714Y-34906071D02*
X57017857Y-34834642D01*
X56946428Y-34763214D01*
X56875000Y-34620357D01*
X56875000Y-34191785D01*
X56946428Y-34048928D01*
X57017857Y-33977500D01*
X57160714Y-33906071D01*
X57375000Y-33906071D01*
X57517857Y-33977500D01*
X57589285Y-34048928D01*
X57660714Y-34191785D01*
X57660714Y-34620357D01*
X57589285Y-34763214D01*
X57517857Y-34834642D01*
X57375000Y-34906071D01*
X57160714Y-34906071D01*
X58303571Y-34906071D02*
X58303571Y-33906071D01*
X58303571Y-34191785D02*
X58375000Y-34048928D01*
X58446428Y-33977500D01*
X58589285Y-33906071D01*
X58732142Y-33906071D01*
X59875000Y-34906071D02*
X59875000Y-33406071D01*
X59875000Y-34834642D02*
X59732142Y-34906071D01*
X59446428Y-34906071D01*
X59303571Y-34834642D01*
X59232142Y-34763214D01*
X59160714Y-34620357D01*
X59160714Y-34191785D01*
X59232142Y-34048928D01*
X59303571Y-33977500D01*
X59446428Y-33906071D01*
X59732142Y-33906071D01*
X59875000Y-33977500D01*
X61660714Y-33548928D02*
X61732142Y-33477500D01*
X61875000Y-33406071D01*
X62232142Y-33406071D01*
X62375000Y-33477500D01*
X62446428Y-33548928D01*
X62517857Y-33691785D01*
X62517857Y-33834642D01*
X62446428Y-34048928D01*
X61589285Y-34906071D01*
X62517857Y-34906071D01*
X63446428Y-33406071D02*
X63589285Y-33406071D01*
X63732142Y-33477500D01*
X63803571Y-33548928D01*
X63875000Y-33691785D01*
X63946428Y-33977500D01*
X63946428Y-34334642D01*
X63875000Y-34620357D01*
X63803571Y-34763214D01*
X63732142Y-34834642D01*
X63589285Y-34906071D01*
X63446428Y-34906071D01*
X63303571Y-34834642D01*
X63232142Y-34763214D01*
X63160714Y-34620357D01*
X63089285Y-34334642D01*
X63089285Y-33977500D01*
X63160714Y-33691785D01*
X63232142Y-33548928D01*
X63303571Y-33477500D01*
X63446428Y-33406071D01*
X64517857Y-33548928D02*
X64589285Y-33477500D01*
X64732142Y-33406071D01*
X65089285Y-33406071D01*
X65232142Y-33477500D01*
X65303571Y-33548928D01*
X65375000Y-33691785D01*
X65375000Y-33834642D01*
X65303571Y-34048928D01*
X64446428Y-34906071D01*
X65375000Y-34906071D01*
X65946428Y-33548928D02*
X66017857Y-33477500D01*
X66160714Y-33406071D01*
X66517857Y-33406071D01*
X66660714Y-33477500D01*
X66732142Y-33548928D01*
X66803571Y-33691785D01*
X66803571Y-33834642D01*
X66732142Y-34048928D01*
X65875000Y-34906071D01*
X66803571Y-34906071D01*
X44375000Y-37321071D02*
X44375000Y-36535357D01*
X44303571Y-36392500D01*
X44160714Y-36321071D01*
X43875000Y-36321071D01*
X43732142Y-36392500D01*
X44375000Y-37249642D02*
X44232142Y-37321071D01*
X43875000Y-37321071D01*
X43732142Y-37249642D01*
X43660714Y-37106785D01*
X43660714Y-36963928D01*
X43732142Y-36821071D01*
X43875000Y-36749642D01*
X44232142Y-36749642D01*
X44375000Y-36678214D01*
X45303571Y-37321071D02*
X45160714Y-37249642D01*
X45089285Y-37106785D01*
X45089285Y-35821071D01*
X46517857Y-37321071D02*
X46517857Y-35821071D01*
X46517857Y-37249642D02*
X46375000Y-37321071D01*
X46089285Y-37321071D01*
X45946428Y-37249642D01*
X45875000Y-37178214D01*
X45803571Y-37035357D01*
X45803571Y-36606785D01*
X45875000Y-36463928D01*
X45946428Y-36392500D01*
X46089285Y-36321071D01*
X46375000Y-36321071D01*
X46517857Y-36392500D01*
X47803571Y-37249642D02*
X47660714Y-37321071D01*
X47375000Y-37321071D01*
X47232142Y-37249642D01*
X47160714Y-37106785D01*
X47160714Y-36535357D01*
X47232142Y-36392500D01*
X47375000Y-36321071D01*
X47660714Y-36321071D01*
X47803571Y-36392500D01*
X47875000Y-36535357D01*
X47875000Y-36678214D01*
X47160714Y-36821071D01*
X48517857Y-36321071D02*
X48517857Y-37321071D01*
X48517857Y-36463928D02*
X48589285Y-36392500D01*
X48732142Y-36321071D01*
X48946428Y-36321071D01*
X49089285Y-36392500D01*
X49160714Y-36535357D01*
X49160714Y-37321071D01*
X49875000Y-37321071D02*
X49875000Y-35821071D01*
X49875000Y-36392500D02*
X50017857Y-36321071D01*
X50303571Y-36321071D01*
X50446428Y-36392500D01*
X50517857Y-36463928D01*
X50589285Y-36606785D01*
X50589285Y-37035357D01*
X50517857Y-37178214D01*
X50446428Y-37249642D01*
X50303571Y-37321071D01*
X50017857Y-37321071D01*
X49875000Y-37249642D01*
X51232142Y-37321071D02*
X51232142Y-36321071D01*
X51232142Y-36606785D02*
X51303571Y-36463928D01*
X51375000Y-36392500D01*
X51517857Y-36321071D01*
X51660714Y-36321071D01*
X52803571Y-37321071D02*
X52803571Y-36535357D01*
X52732142Y-36392500D01*
X52589285Y-36321071D01*
X52303571Y-36321071D01*
X52160714Y-36392500D01*
X52803571Y-37249642D02*
X52660714Y-37321071D01*
X52303571Y-37321071D01*
X52160714Y-37249642D01*
X52089285Y-37106785D01*
X52089285Y-36963928D01*
X52160714Y-36821071D01*
X52303571Y-36749642D01*
X52660714Y-36749642D01*
X52803571Y-36678214D01*
X54160714Y-37321071D02*
X54160714Y-35821071D01*
X54160714Y-37249642D02*
X54017857Y-37321071D01*
X53732142Y-37321071D01*
X53589285Y-37249642D01*
X53517857Y-37178214D01*
X53446428Y-37035357D01*
X53446428Y-36606785D01*
X53517857Y-36463928D01*
X53589285Y-36392500D01*
X53732142Y-36321071D01*
X54017857Y-36321071D01*
X54160714Y-36392500D01*
X54660714Y-36321071D02*
X55232142Y-36321071D01*
X54875000Y-37321071D02*
X54875000Y-36035357D01*
X54946428Y-35892500D01*
X55089285Y-35821071D01*
X55232142Y-35821071D01*
X55946428Y-37321071D02*
X55803571Y-37249642D01*
X55732142Y-37178214D01*
X55660714Y-37035357D01*
X55660714Y-36606785D01*
X55732142Y-36463928D01*
X55803571Y-36392500D01*
X55946428Y-36321071D01*
X56160714Y-36321071D01*
X56303571Y-36392500D01*
X56375000Y-36463928D01*
X56446428Y-36606785D01*
X56446428Y-37035357D01*
X56375000Y-37178214D01*
X56303571Y-37249642D01*
X56160714Y-37321071D01*
X55946428Y-37321071D01*
X57089285Y-37321071D02*
X57089285Y-36321071D01*
X57089285Y-36606785D02*
X57160714Y-36463928D01*
X57232142Y-36392500D01*
X57375000Y-36321071D01*
X57517857Y-36321071D01*
X58660714Y-37321071D02*
X58660714Y-35821071D01*
X58660714Y-37249642D02*
X58517857Y-37321071D01*
X58232142Y-37321071D01*
X58089285Y-37249642D01*
X58017857Y-37178214D01*
X57946428Y-37035357D01*
X57946428Y-36606785D01*
X58017857Y-36463928D01*
X58089285Y-36392500D01*
X58232142Y-36321071D01*
X58517857Y-36321071D01*
X58660714Y-36392500D01*
X59375000Y-37178214D02*
X59446428Y-37249642D01*
X59375000Y-37321071D01*
X59303571Y-37249642D01*
X59375000Y-37178214D01*
X59375000Y-37321071D01*
X60732142Y-37249642D02*
X60589285Y-37321071D01*
X60303571Y-37321071D01*
X60160714Y-37249642D01*
X60089285Y-37178214D01*
X60017857Y-37035357D01*
X60017857Y-36606785D01*
X60089285Y-36463928D01*
X60160714Y-36392500D01*
X60303571Y-36321071D01*
X60589285Y-36321071D01*
X60732142Y-36392500D01*
X61589285Y-37321071D02*
X61446428Y-37249642D01*
X61375000Y-37178214D01*
X61303571Y-37035357D01*
X61303571Y-36606785D01*
X61375000Y-36463928D01*
X61446428Y-36392500D01*
X61589285Y-36321071D01*
X61803571Y-36321071D01*
X61946428Y-36392500D01*
X62017857Y-36463928D01*
X62089285Y-36606785D01*
X62089285Y-37035357D01*
X62017857Y-37178214D01*
X61946428Y-37249642D01*
X61803571Y-37321071D01*
X61589285Y-37321071D01*
X62732142Y-37321071D02*
X62732142Y-36321071D01*
X62732142Y-36463928D02*
X62803571Y-36392500D01*
X62946428Y-36321071D01*
X63160714Y-36321071D01*
X63303571Y-36392500D01*
X63375000Y-36535357D01*
X63375000Y-37321071D01*
X63375000Y-36535357D02*
X63446428Y-36392500D01*
X63589285Y-36321071D01*
X63803571Y-36321071D01*
X63946428Y-36392500D01*
X64017857Y-36535357D01*
X64017857Y-37321071D01*
D10*
X151582380Y-80420476D02*
X151582380Y-80896666D01*
X150582380Y-80896666D01*
X151582380Y-80087142D02*
X150582380Y-80087142D01*
X151296666Y-79753809D01*
X150582380Y-79420476D01*
X151582380Y-79420476D01*
X150582380Y-79039523D02*
X150582380Y-78420476D01*
X150963333Y-78753809D01*
X150963333Y-78610952D01*
X151010952Y-78515714D01*
X151058571Y-78468095D01*
X151153809Y-78420476D01*
X151391904Y-78420476D01*
X151487142Y-78468095D01*
X151534761Y-78515714D01*
X151582380Y-78610952D01*
X151582380Y-78896666D01*
X151534761Y-78991904D01*
X151487142Y-79039523D01*
X150582380Y-78087142D02*
X150582380Y-77468095D01*
X150963333Y-77801428D01*
X150963333Y-77658571D01*
X151010952Y-77563333D01*
X151058571Y-77515714D01*
X151153809Y-77468095D01*
X151391904Y-77468095D01*
X151487142Y-77515714D01*
X151534761Y-77563333D01*
X151582380Y-77658571D01*
X151582380Y-77944285D01*
X151534761Y-78039523D01*
X151487142Y-78087142D01*
X151582380Y-76991904D02*
X151582380Y-76801428D01*
X151534761Y-76706190D01*
X151487142Y-76658571D01*
X151344285Y-76563333D01*
X151153809Y-76515714D01*
X150772857Y-76515714D01*
X150677619Y-76563333D01*
X150630000Y-76610952D01*
X150582380Y-76706190D01*
X150582380Y-76896666D01*
X150630000Y-76991904D01*
X150677619Y-77039523D01*
X150772857Y-77087142D01*
X151010952Y-77087142D01*
X151106190Y-77039523D01*
X151153809Y-76991904D01*
X151201428Y-76896666D01*
X151201428Y-76706190D01*
X151153809Y-76610952D01*
X151106190Y-76563333D01*
X151010952Y-76515714D01*
%TO.C,R13*%
X105862380Y-57792857D02*
X105386190Y-58126190D01*
X105862380Y-58364285D02*
X104862380Y-58364285D01*
X104862380Y-57983333D01*
X104910000Y-57888095D01*
X104957619Y-57840476D01*
X105052857Y-57792857D01*
X105195714Y-57792857D01*
X105290952Y-57840476D01*
X105338571Y-57888095D01*
X105386190Y-57983333D01*
X105386190Y-58364285D01*
X105862380Y-56840476D02*
X105862380Y-57411904D01*
X105862380Y-57126190D02*
X104862380Y-57126190D01*
X105005238Y-57221428D01*
X105100476Y-57316666D01*
X105148095Y-57411904D01*
X104862380Y-56507142D02*
X104862380Y-55888095D01*
X105243333Y-56221428D01*
X105243333Y-56078571D01*
X105290952Y-55983333D01*
X105338571Y-55935714D01*
X105433809Y-55888095D01*
X105671904Y-55888095D01*
X105767142Y-55935714D01*
X105814761Y-55983333D01*
X105862380Y-56078571D01*
X105862380Y-56364285D01*
X105814761Y-56459523D01*
X105767142Y-56507142D01*
%TO.C,C5*%
X70207142Y-92876666D02*
X70254761Y-92924285D01*
X70302380Y-93067142D01*
X70302380Y-93162380D01*
X70254761Y-93305238D01*
X70159523Y-93400476D01*
X70064285Y-93448095D01*
X69873809Y-93495714D01*
X69730952Y-93495714D01*
X69540476Y-93448095D01*
X69445238Y-93400476D01*
X69350000Y-93305238D01*
X69302380Y-93162380D01*
X69302380Y-93067142D01*
X69350000Y-92924285D01*
X69397619Y-92876666D01*
X69302380Y-91971904D02*
X69302380Y-92448095D01*
X69778571Y-92495714D01*
X69730952Y-92448095D01*
X69683333Y-92352857D01*
X69683333Y-92114761D01*
X69730952Y-92019523D01*
X69778571Y-91971904D01*
X69873809Y-91924285D01*
X70111904Y-91924285D01*
X70207142Y-91971904D01*
X70254761Y-92019523D01*
X70302380Y-92114761D01*
X70302380Y-92352857D01*
X70254761Y-92448095D01*
X70207142Y-92495714D01*
%TO.C,C2*%
X95607142Y-99226666D02*
X95654761Y-99274285D01*
X95702380Y-99417142D01*
X95702380Y-99512380D01*
X95654761Y-99655238D01*
X95559523Y-99750476D01*
X95464285Y-99798095D01*
X95273809Y-99845714D01*
X95130952Y-99845714D01*
X94940476Y-99798095D01*
X94845238Y-99750476D01*
X94750000Y-99655238D01*
X94702380Y-99512380D01*
X94702380Y-99417142D01*
X94750000Y-99274285D01*
X94797619Y-99226666D01*
X94797619Y-98845714D02*
X94750000Y-98798095D01*
X94702380Y-98702857D01*
X94702380Y-98464761D01*
X94750000Y-98369523D01*
X94797619Y-98321904D01*
X94892857Y-98274285D01*
X94988095Y-98274285D01*
X95130952Y-98321904D01*
X95702380Y-98893333D01*
X95702380Y-98274285D01*
%TO.C,J4*%
X158924666Y-28052780D02*
X158924666Y-28767066D01*
X158877047Y-28909923D01*
X158781809Y-29005161D01*
X158638952Y-29052780D01*
X158543714Y-29052780D01*
X159829428Y-28386114D02*
X159829428Y-29052780D01*
X159591333Y-28005161D02*
X159353238Y-28719447D01*
X159972285Y-28719447D01*
%TO.C,R11*%
X85542380Y-57792857D02*
X85066190Y-58126190D01*
X85542380Y-58364285D02*
X84542380Y-58364285D01*
X84542380Y-57983333D01*
X84590000Y-57888095D01*
X84637619Y-57840476D01*
X84732857Y-57792857D01*
X84875714Y-57792857D01*
X84970952Y-57840476D01*
X85018571Y-57888095D01*
X85066190Y-57983333D01*
X85066190Y-58364285D01*
X85542380Y-56840476D02*
X85542380Y-57411904D01*
X85542380Y-57126190D02*
X84542380Y-57126190D01*
X84685238Y-57221428D01*
X84780476Y-57316666D01*
X84828095Y-57411904D01*
X85542380Y-55888095D02*
X85542380Y-56459523D01*
X85542380Y-56173809D02*
X84542380Y-56173809D01*
X84685238Y-56269047D01*
X84780476Y-56364285D01*
X84828095Y-56459523D01*
%TO.C,Q8*%
X43477619Y-63610238D02*
X43430000Y-63705476D01*
X43334761Y-63800714D01*
X43191904Y-63943571D01*
X43144285Y-64038809D01*
X43144285Y-64134047D01*
X43382380Y-64086428D02*
X43334761Y-64181666D01*
X43239523Y-64276904D01*
X43049047Y-64324523D01*
X42715714Y-64324523D01*
X42525238Y-64276904D01*
X42430000Y-64181666D01*
X42382380Y-64086428D01*
X42382380Y-63895952D01*
X42430000Y-63800714D01*
X42525238Y-63705476D01*
X42715714Y-63657857D01*
X43049047Y-63657857D01*
X43239523Y-63705476D01*
X43334761Y-63800714D01*
X43382380Y-63895952D01*
X43382380Y-64086428D01*
X42810952Y-63086428D02*
X42763333Y-63181666D01*
X42715714Y-63229285D01*
X42620476Y-63276904D01*
X42572857Y-63276904D01*
X42477619Y-63229285D01*
X42430000Y-63181666D01*
X42382380Y-63086428D01*
X42382380Y-62895952D01*
X42430000Y-62800714D01*
X42477619Y-62753095D01*
X42572857Y-62705476D01*
X42620476Y-62705476D01*
X42715714Y-62753095D01*
X42763333Y-62800714D01*
X42810952Y-62895952D01*
X42810952Y-63086428D01*
X42858571Y-63181666D01*
X42906190Y-63229285D01*
X43001428Y-63276904D01*
X43191904Y-63276904D01*
X43287142Y-63229285D01*
X43334761Y-63181666D01*
X43382380Y-63086428D01*
X43382380Y-62895952D01*
X43334761Y-62800714D01*
X43287142Y-62753095D01*
X43191904Y-62705476D01*
X43001428Y-62705476D01*
X42906190Y-62753095D01*
X42858571Y-62800714D01*
X42810952Y-62895952D01*
%TO.C,C20*%
X52697142Y-70207142D02*
X52649523Y-70254761D01*
X52506666Y-70302380D01*
X52411428Y-70302380D01*
X52268571Y-70254761D01*
X52173333Y-70159523D01*
X52125714Y-70064285D01*
X52078095Y-69873809D01*
X52078095Y-69730952D01*
X52125714Y-69540476D01*
X52173333Y-69445238D01*
X52268571Y-69350000D01*
X52411428Y-69302380D01*
X52506666Y-69302380D01*
X52649523Y-69350000D01*
X52697142Y-69397619D01*
X53078095Y-69397619D02*
X53125714Y-69350000D01*
X53220952Y-69302380D01*
X53459047Y-69302380D01*
X53554285Y-69350000D01*
X53601904Y-69397619D01*
X53649523Y-69492857D01*
X53649523Y-69588095D01*
X53601904Y-69730952D01*
X53030476Y-70302380D01*
X53649523Y-70302380D01*
X54268571Y-69302380D02*
X54363809Y-69302380D01*
X54459047Y-69350000D01*
X54506666Y-69397619D01*
X54554285Y-69492857D01*
X54601904Y-69683333D01*
X54601904Y-69921428D01*
X54554285Y-70111904D01*
X54506666Y-70207142D01*
X54459047Y-70254761D01*
X54363809Y-70302380D01*
X54268571Y-70302380D01*
X54173333Y-70254761D01*
X54125714Y-70207142D01*
X54078095Y-70111904D01*
X54030476Y-69921428D01*
X54030476Y-69683333D01*
X54078095Y-69492857D01*
X54125714Y-69397619D01*
X54173333Y-69350000D01*
X54268571Y-69302380D01*
%TO.C,U9*%
X112253095Y-68237380D02*
X112253095Y-69046904D01*
X112300714Y-69142142D01*
X112348333Y-69189761D01*
X112443571Y-69237380D01*
X112634047Y-69237380D01*
X112729285Y-69189761D01*
X112776904Y-69142142D01*
X112824523Y-69046904D01*
X112824523Y-68237380D01*
X113348333Y-69237380D02*
X113538809Y-69237380D01*
X113634047Y-69189761D01*
X113681666Y-69142142D01*
X113776904Y-68999285D01*
X113824523Y-68808809D01*
X113824523Y-68427857D01*
X113776904Y-68332619D01*
X113729285Y-68285000D01*
X113634047Y-68237380D01*
X113443571Y-68237380D01*
X113348333Y-68285000D01*
X113300714Y-68332619D01*
X113253095Y-68427857D01*
X113253095Y-68665952D01*
X113300714Y-68761190D01*
X113348333Y-68808809D01*
X113443571Y-68856428D01*
X113634047Y-68856428D01*
X113729285Y-68808809D01*
X113776904Y-68761190D01*
X113824523Y-68665952D01*
%TO.C,R33*%
X84447142Y-94432380D02*
X84113809Y-93956190D01*
X83875714Y-94432380D02*
X83875714Y-93432380D01*
X84256666Y-93432380D01*
X84351904Y-93480000D01*
X84399523Y-93527619D01*
X84447142Y-93622857D01*
X84447142Y-93765714D01*
X84399523Y-93860952D01*
X84351904Y-93908571D01*
X84256666Y-93956190D01*
X83875714Y-93956190D01*
X84780476Y-93432380D02*
X85399523Y-93432380D01*
X85066190Y-93813333D01*
X85209047Y-93813333D01*
X85304285Y-93860952D01*
X85351904Y-93908571D01*
X85399523Y-94003809D01*
X85399523Y-94241904D01*
X85351904Y-94337142D01*
X85304285Y-94384761D01*
X85209047Y-94432380D01*
X84923333Y-94432380D01*
X84828095Y-94384761D01*
X84780476Y-94337142D01*
X85732857Y-93432380D02*
X86351904Y-93432380D01*
X86018571Y-93813333D01*
X86161428Y-93813333D01*
X86256666Y-93860952D01*
X86304285Y-93908571D01*
X86351904Y-94003809D01*
X86351904Y-94241904D01*
X86304285Y-94337142D01*
X86256666Y-94384761D01*
X86161428Y-94432380D01*
X85875714Y-94432380D01*
X85780476Y-94384761D01*
X85732857Y-94337142D01*
%TO.C,R9*%
X83002380Y-47156666D02*
X82526190Y-47490000D01*
X83002380Y-47728095D02*
X82002380Y-47728095D01*
X82002380Y-47347142D01*
X82050000Y-47251904D01*
X82097619Y-47204285D01*
X82192857Y-47156666D01*
X82335714Y-47156666D01*
X82430952Y-47204285D01*
X82478571Y-47251904D01*
X82526190Y-47347142D01*
X82526190Y-47728095D01*
X83002380Y-46680476D02*
X83002380Y-46490000D01*
X82954761Y-46394761D01*
X82907142Y-46347142D01*
X82764285Y-46251904D01*
X82573809Y-46204285D01*
X82192857Y-46204285D01*
X82097619Y-46251904D01*
X82050000Y-46299523D01*
X82002380Y-46394761D01*
X82002380Y-46585238D01*
X82050000Y-46680476D01*
X82097619Y-46728095D01*
X82192857Y-46775714D01*
X82430952Y-46775714D01*
X82526190Y-46728095D01*
X82573809Y-46680476D01*
X82621428Y-46585238D01*
X82621428Y-46394761D01*
X82573809Y-46299523D01*
X82526190Y-46251904D01*
X82430952Y-46204285D01*
%TO.C,C4*%
X72112142Y-96956666D02*
X72159761Y-97004285D01*
X72207380Y-97147142D01*
X72207380Y-97242380D01*
X72159761Y-97385238D01*
X72064523Y-97480476D01*
X71969285Y-97528095D01*
X71778809Y-97575714D01*
X71635952Y-97575714D01*
X71445476Y-97528095D01*
X71350238Y-97480476D01*
X71255000Y-97385238D01*
X71207380Y-97242380D01*
X71207380Y-97147142D01*
X71255000Y-97004285D01*
X71302619Y-96956666D01*
X71540714Y-96099523D02*
X72207380Y-96099523D01*
X71159761Y-96337619D02*
X71874047Y-96575714D01*
X71874047Y-95956666D01*
%TO.C,C3*%
X80367142Y-99206666D02*
X80414761Y-99254285D01*
X80462380Y-99397142D01*
X80462380Y-99492380D01*
X80414761Y-99635238D01*
X80319523Y-99730476D01*
X80224285Y-99778095D01*
X80033809Y-99825714D01*
X79890952Y-99825714D01*
X79700476Y-99778095D01*
X79605238Y-99730476D01*
X79510000Y-99635238D01*
X79462380Y-99492380D01*
X79462380Y-99397142D01*
X79510000Y-99254285D01*
X79557619Y-99206666D01*
X79462380Y-98873333D02*
X79462380Y-98254285D01*
X79843333Y-98587619D01*
X79843333Y-98444761D01*
X79890952Y-98349523D01*
X79938571Y-98301904D01*
X80033809Y-98254285D01*
X80271904Y-98254285D01*
X80367142Y-98301904D01*
X80414761Y-98349523D01*
X80462380Y-98444761D01*
X80462380Y-98730476D01*
X80414761Y-98825714D01*
X80367142Y-98873333D01*
%TO.C,R27*%
X136342380Y-57792857D02*
X135866190Y-58126190D01*
X136342380Y-58364285D02*
X135342380Y-58364285D01*
X135342380Y-57983333D01*
X135390000Y-57888095D01*
X135437619Y-57840476D01*
X135532857Y-57792857D01*
X135675714Y-57792857D01*
X135770952Y-57840476D01*
X135818571Y-57888095D01*
X135866190Y-57983333D01*
X135866190Y-58364285D01*
X135437619Y-57411904D02*
X135390000Y-57364285D01*
X135342380Y-57269047D01*
X135342380Y-57030952D01*
X135390000Y-56935714D01*
X135437619Y-56888095D01*
X135532857Y-56840476D01*
X135628095Y-56840476D01*
X135770952Y-56888095D01*
X136342380Y-57459523D01*
X136342380Y-56840476D01*
X135342380Y-56507142D02*
X135342380Y-55840476D01*
X136342380Y-56269047D01*
%TO.C,R23*%
X128722380Y-47632857D02*
X128246190Y-47966190D01*
X128722380Y-48204285D02*
X127722380Y-48204285D01*
X127722380Y-47823333D01*
X127770000Y-47728095D01*
X127817619Y-47680476D01*
X127912857Y-47632857D01*
X128055714Y-47632857D01*
X128150952Y-47680476D01*
X128198571Y-47728095D01*
X128246190Y-47823333D01*
X128246190Y-48204285D01*
X127817619Y-47251904D02*
X127770000Y-47204285D01*
X127722380Y-47109047D01*
X127722380Y-46870952D01*
X127770000Y-46775714D01*
X127817619Y-46728095D01*
X127912857Y-46680476D01*
X128008095Y-46680476D01*
X128150952Y-46728095D01*
X128722380Y-47299523D01*
X128722380Y-46680476D01*
X127722380Y-46347142D02*
X127722380Y-45728095D01*
X128103333Y-46061428D01*
X128103333Y-45918571D01*
X128150952Y-45823333D01*
X128198571Y-45775714D01*
X128293809Y-45728095D01*
X128531904Y-45728095D01*
X128627142Y-45775714D01*
X128674761Y-45823333D01*
X128722380Y-45918571D01*
X128722380Y-46204285D01*
X128674761Y-46299523D01*
X128627142Y-46347142D01*
%TO.C,U8*%
X118618095Y-40092380D02*
X118618095Y-40901904D01*
X118665714Y-40997142D01*
X118713333Y-41044761D01*
X118808571Y-41092380D01*
X118999047Y-41092380D01*
X119094285Y-41044761D01*
X119141904Y-40997142D01*
X119189523Y-40901904D01*
X119189523Y-40092380D01*
X119808571Y-40520952D02*
X119713333Y-40473333D01*
X119665714Y-40425714D01*
X119618095Y-40330476D01*
X119618095Y-40282857D01*
X119665714Y-40187619D01*
X119713333Y-40140000D01*
X119808571Y-40092380D01*
X119999047Y-40092380D01*
X120094285Y-40140000D01*
X120141904Y-40187619D01*
X120189523Y-40282857D01*
X120189523Y-40330476D01*
X120141904Y-40425714D01*
X120094285Y-40473333D01*
X119999047Y-40520952D01*
X119808571Y-40520952D01*
X119713333Y-40568571D01*
X119665714Y-40616190D01*
X119618095Y-40711428D01*
X119618095Y-40901904D01*
X119665714Y-40997142D01*
X119713333Y-41044761D01*
X119808571Y-41092380D01*
X119999047Y-41092380D01*
X120094285Y-41044761D01*
X120141904Y-40997142D01*
X120189523Y-40901904D01*
X120189523Y-40711428D01*
X120141904Y-40616190D01*
X120094285Y-40568571D01*
X119999047Y-40520952D01*
%TO.C,J6*%
X159026266Y-113041180D02*
X159026266Y-113755466D01*
X158978647Y-113898323D01*
X158883409Y-113993561D01*
X158740552Y-114041180D01*
X158645314Y-114041180D01*
X159931028Y-113041180D02*
X159740552Y-113041180D01*
X159645314Y-113088800D01*
X159597695Y-113136419D01*
X159502457Y-113279276D01*
X159454838Y-113469752D01*
X159454838Y-113850704D01*
X159502457Y-113945942D01*
X159550076Y-113993561D01*
X159645314Y-114041180D01*
X159835790Y-114041180D01*
X159931028Y-113993561D01*
X159978647Y-113945942D01*
X160026266Y-113850704D01*
X160026266Y-113612609D01*
X159978647Y-113517371D01*
X159931028Y-113469752D01*
X159835790Y-113422133D01*
X159645314Y-113422133D01*
X159550076Y-113469752D01*
X159502457Y-113517371D01*
X159454838Y-113612609D01*
%TO.C,C16*%
X137787142Y-63857142D02*
X137739523Y-63904761D01*
X137596666Y-63952380D01*
X137501428Y-63952380D01*
X137358571Y-63904761D01*
X137263333Y-63809523D01*
X137215714Y-63714285D01*
X137168095Y-63523809D01*
X137168095Y-63380952D01*
X137215714Y-63190476D01*
X137263333Y-63095238D01*
X137358571Y-63000000D01*
X137501428Y-62952380D01*
X137596666Y-62952380D01*
X137739523Y-63000000D01*
X137787142Y-63047619D01*
X138739523Y-63952380D02*
X138168095Y-63952380D01*
X138453809Y-63952380D02*
X138453809Y-62952380D01*
X138358571Y-63095238D01*
X138263333Y-63190476D01*
X138168095Y-63238095D01*
X139596666Y-62952380D02*
X139406190Y-62952380D01*
X139310952Y-63000000D01*
X139263333Y-63047619D01*
X139168095Y-63190476D01*
X139120476Y-63380952D01*
X139120476Y-63761904D01*
X139168095Y-63857142D01*
X139215714Y-63904761D01*
X139310952Y-63952380D01*
X139501428Y-63952380D01*
X139596666Y-63904761D01*
X139644285Y-63857142D01*
X139691904Y-63761904D01*
X139691904Y-63523809D01*
X139644285Y-63428571D01*
X139596666Y-63380952D01*
X139501428Y-63333333D01*
X139310952Y-63333333D01*
X139215714Y-63380952D01*
X139168095Y-63428571D01*
X139120476Y-63523809D01*
%TO.C,R34*%
X84407142Y-91892380D02*
X84073809Y-91416190D01*
X83835714Y-91892380D02*
X83835714Y-90892380D01*
X84216666Y-90892380D01*
X84311904Y-90940000D01*
X84359523Y-90987619D01*
X84407142Y-91082857D01*
X84407142Y-91225714D01*
X84359523Y-91320952D01*
X84311904Y-91368571D01*
X84216666Y-91416190D01*
X83835714Y-91416190D01*
X84740476Y-90892380D02*
X85359523Y-90892380D01*
X85026190Y-91273333D01*
X85169047Y-91273333D01*
X85264285Y-91320952D01*
X85311904Y-91368571D01*
X85359523Y-91463809D01*
X85359523Y-91701904D01*
X85311904Y-91797142D01*
X85264285Y-91844761D01*
X85169047Y-91892380D01*
X84883333Y-91892380D01*
X84788095Y-91844761D01*
X84740476Y-91797142D01*
X86216666Y-91225714D02*
X86216666Y-91892380D01*
X85978571Y-90844761D02*
X85740476Y-91559047D01*
X86359523Y-91559047D01*
%TO.C,Q4*%
X43477619Y-50910238D02*
X43430000Y-51005476D01*
X43334761Y-51100714D01*
X43191904Y-51243571D01*
X43144285Y-51338809D01*
X43144285Y-51434047D01*
X43382380Y-51386428D02*
X43334761Y-51481666D01*
X43239523Y-51576904D01*
X43049047Y-51624523D01*
X42715714Y-51624523D01*
X42525238Y-51576904D01*
X42430000Y-51481666D01*
X42382380Y-51386428D01*
X42382380Y-51195952D01*
X42430000Y-51100714D01*
X42525238Y-51005476D01*
X42715714Y-50957857D01*
X43049047Y-50957857D01*
X43239523Y-51005476D01*
X43334761Y-51100714D01*
X43382380Y-51195952D01*
X43382380Y-51386428D01*
X42715714Y-50100714D02*
X43382380Y-50100714D01*
X42334761Y-50338809D02*
X43049047Y-50576904D01*
X43049047Y-49957857D01*
%TO.C,U13*%
X149876904Y-68232380D02*
X149876904Y-69041904D01*
X149924523Y-69137142D01*
X149972142Y-69184761D01*
X150067380Y-69232380D01*
X150257857Y-69232380D01*
X150353095Y-69184761D01*
X150400714Y-69137142D01*
X150448333Y-69041904D01*
X150448333Y-68232380D01*
X151448333Y-69232380D02*
X150876904Y-69232380D01*
X151162619Y-69232380D02*
X151162619Y-68232380D01*
X151067380Y-68375238D01*
X150972142Y-68470476D01*
X150876904Y-68518095D01*
X151781666Y-68232380D02*
X152400714Y-68232380D01*
X152067380Y-68613333D01*
X152210238Y-68613333D01*
X152305476Y-68660952D01*
X152353095Y-68708571D01*
X152400714Y-68803809D01*
X152400714Y-69041904D01*
X152353095Y-69137142D01*
X152305476Y-69184761D01*
X152210238Y-69232380D01*
X151924523Y-69232380D01*
X151829285Y-69184761D01*
X151781666Y-69137142D01*
%TO.C,R32*%
X155392380Y-47632857D02*
X154916190Y-47966190D01*
X155392380Y-48204285D02*
X154392380Y-48204285D01*
X154392380Y-47823333D01*
X154440000Y-47728095D01*
X154487619Y-47680476D01*
X154582857Y-47632857D01*
X154725714Y-47632857D01*
X154820952Y-47680476D01*
X154868571Y-47728095D01*
X154916190Y-47823333D01*
X154916190Y-48204285D01*
X154392380Y-47299523D02*
X154392380Y-46680476D01*
X154773333Y-47013809D01*
X154773333Y-46870952D01*
X154820952Y-46775714D01*
X154868571Y-46728095D01*
X154963809Y-46680476D01*
X155201904Y-46680476D01*
X155297142Y-46728095D01*
X155344761Y-46775714D01*
X155392380Y-46870952D01*
X155392380Y-47156666D01*
X155344761Y-47251904D01*
X155297142Y-47299523D01*
X154487619Y-46299523D02*
X154440000Y-46251904D01*
X154392380Y-46156666D01*
X154392380Y-45918571D01*
X154440000Y-45823333D01*
X154487619Y-45775714D01*
X154582857Y-45728095D01*
X154678095Y-45728095D01*
X154820952Y-45775714D01*
X155392380Y-46347142D01*
X155392380Y-45728095D01*
%TO.C,R8*%
X80462380Y-47156666D02*
X79986190Y-47490000D01*
X80462380Y-47728095D02*
X79462380Y-47728095D01*
X79462380Y-47347142D01*
X79510000Y-47251904D01*
X79557619Y-47204285D01*
X79652857Y-47156666D01*
X79795714Y-47156666D01*
X79890952Y-47204285D01*
X79938571Y-47251904D01*
X79986190Y-47347142D01*
X79986190Y-47728095D01*
X79890952Y-46585238D02*
X79843333Y-46680476D01*
X79795714Y-46728095D01*
X79700476Y-46775714D01*
X79652857Y-46775714D01*
X79557619Y-46728095D01*
X79510000Y-46680476D01*
X79462380Y-46585238D01*
X79462380Y-46394761D01*
X79510000Y-46299523D01*
X79557619Y-46251904D01*
X79652857Y-46204285D01*
X79700476Y-46204285D01*
X79795714Y-46251904D01*
X79843333Y-46299523D01*
X79890952Y-46394761D01*
X79890952Y-46585238D01*
X79938571Y-46680476D01*
X79986190Y-46728095D01*
X80081428Y-46775714D01*
X80271904Y-46775714D01*
X80367142Y-46728095D01*
X80414761Y-46680476D01*
X80462380Y-46585238D01*
X80462380Y-46394761D01*
X80414761Y-46299523D01*
X80367142Y-46251904D01*
X80271904Y-46204285D01*
X80081428Y-46204285D01*
X79986190Y-46251904D01*
X79938571Y-46299523D01*
X79890952Y-46394761D01*
%TO.C,C7*%
X93843333Y-63857142D02*
X93795714Y-63904761D01*
X93652857Y-63952380D01*
X93557619Y-63952380D01*
X93414761Y-63904761D01*
X93319523Y-63809523D01*
X93271904Y-63714285D01*
X93224285Y-63523809D01*
X93224285Y-63380952D01*
X93271904Y-63190476D01*
X93319523Y-63095238D01*
X93414761Y-63000000D01*
X93557619Y-62952380D01*
X93652857Y-62952380D01*
X93795714Y-63000000D01*
X93843333Y-63047619D01*
X94176666Y-62952380D02*
X94843333Y-62952380D01*
X94414761Y-63952380D01*
%TO.C,Q2*%
X43477619Y-44560238D02*
X43430000Y-44655476D01*
X43334761Y-44750714D01*
X43191904Y-44893571D01*
X43144285Y-44988809D01*
X43144285Y-45084047D01*
X43382380Y-45036428D02*
X43334761Y-45131666D01*
X43239523Y-45226904D01*
X43049047Y-45274523D01*
X42715714Y-45274523D01*
X42525238Y-45226904D01*
X42430000Y-45131666D01*
X42382380Y-45036428D01*
X42382380Y-44845952D01*
X42430000Y-44750714D01*
X42525238Y-44655476D01*
X42715714Y-44607857D01*
X43049047Y-44607857D01*
X43239523Y-44655476D01*
X43334761Y-44750714D01*
X43382380Y-44845952D01*
X43382380Y-45036428D01*
X42477619Y-44226904D02*
X42430000Y-44179285D01*
X42382380Y-44084047D01*
X42382380Y-43845952D01*
X42430000Y-43750714D01*
X42477619Y-43703095D01*
X42572857Y-43655476D01*
X42668095Y-43655476D01*
X42810952Y-43703095D01*
X43382380Y-44274523D01*
X43382380Y-43655476D01*
%TO.C,U7*%
X99583095Y-68222380D02*
X99583095Y-69031904D01*
X99630714Y-69127142D01*
X99678333Y-69174761D01*
X99773571Y-69222380D01*
X99964047Y-69222380D01*
X100059285Y-69174761D01*
X100106904Y-69127142D01*
X100154523Y-69031904D01*
X100154523Y-68222380D01*
X100535476Y-68222380D02*
X101202142Y-68222380D01*
X100773571Y-69222380D01*
%TO.C,R15*%
X103322380Y-47632857D02*
X102846190Y-47966190D01*
X103322380Y-48204285D02*
X102322380Y-48204285D01*
X102322380Y-47823333D01*
X102370000Y-47728095D01*
X102417619Y-47680476D01*
X102512857Y-47632857D01*
X102655714Y-47632857D01*
X102750952Y-47680476D01*
X102798571Y-47728095D01*
X102846190Y-47823333D01*
X102846190Y-48204285D01*
X103322380Y-46680476D02*
X103322380Y-47251904D01*
X103322380Y-46966190D02*
X102322380Y-46966190D01*
X102465238Y-47061428D01*
X102560476Y-47156666D01*
X102608095Y-47251904D01*
X102322380Y-45775714D02*
X102322380Y-46251904D01*
X102798571Y-46299523D01*
X102750952Y-46251904D01*
X102703333Y-46156666D01*
X102703333Y-45918571D01*
X102750952Y-45823333D01*
X102798571Y-45775714D01*
X102893809Y-45728095D01*
X103131904Y-45728095D01*
X103227142Y-45775714D01*
X103274761Y-45823333D01*
X103322380Y-45918571D01*
X103322380Y-46156666D01*
X103274761Y-46251904D01*
X103227142Y-46299523D01*
%TO.C,R16*%
X105862380Y-47632857D02*
X105386190Y-47966190D01*
X105862380Y-48204285D02*
X104862380Y-48204285D01*
X104862380Y-47823333D01*
X104910000Y-47728095D01*
X104957619Y-47680476D01*
X105052857Y-47632857D01*
X105195714Y-47632857D01*
X105290952Y-47680476D01*
X105338571Y-47728095D01*
X105386190Y-47823333D01*
X105386190Y-48204285D01*
X105862380Y-46680476D02*
X105862380Y-47251904D01*
X105862380Y-46966190D02*
X104862380Y-46966190D01*
X105005238Y-47061428D01*
X105100476Y-47156666D01*
X105148095Y-47251904D01*
X104862380Y-45823333D02*
X104862380Y-46013809D01*
X104910000Y-46109047D01*
X104957619Y-46156666D01*
X105100476Y-46251904D01*
X105290952Y-46299523D01*
X105671904Y-46299523D01*
X105767142Y-46251904D01*
X105814761Y-46204285D01*
X105862380Y-46109047D01*
X105862380Y-45918571D01*
X105814761Y-45823333D01*
X105767142Y-45775714D01*
X105671904Y-45728095D01*
X105433809Y-45728095D01*
X105338571Y-45775714D01*
X105290952Y-45823333D01*
X105243333Y-45918571D01*
X105243333Y-46109047D01*
X105290952Y-46204285D01*
X105338571Y-46251904D01*
X105433809Y-46299523D01*
%TO.C,R18*%
X110942380Y-47632857D02*
X110466190Y-47966190D01*
X110942380Y-48204285D02*
X109942380Y-48204285D01*
X109942380Y-47823333D01*
X109990000Y-47728095D01*
X110037619Y-47680476D01*
X110132857Y-47632857D01*
X110275714Y-47632857D01*
X110370952Y-47680476D01*
X110418571Y-47728095D01*
X110466190Y-47823333D01*
X110466190Y-48204285D01*
X110942380Y-46680476D02*
X110942380Y-47251904D01*
X110942380Y-46966190D02*
X109942380Y-46966190D01*
X110085238Y-47061428D01*
X110180476Y-47156666D01*
X110228095Y-47251904D01*
X110370952Y-46109047D02*
X110323333Y-46204285D01*
X110275714Y-46251904D01*
X110180476Y-46299523D01*
X110132857Y-46299523D01*
X110037619Y-46251904D01*
X109990000Y-46204285D01*
X109942380Y-46109047D01*
X109942380Y-45918571D01*
X109990000Y-45823333D01*
X110037619Y-45775714D01*
X110132857Y-45728095D01*
X110180476Y-45728095D01*
X110275714Y-45775714D01*
X110323333Y-45823333D01*
X110370952Y-45918571D01*
X110370952Y-46109047D01*
X110418571Y-46204285D01*
X110466190Y-46251904D01*
X110561428Y-46299523D01*
X110751904Y-46299523D01*
X110847142Y-46251904D01*
X110894761Y-46204285D01*
X110942380Y-46109047D01*
X110942380Y-45918571D01*
X110894761Y-45823333D01*
X110847142Y-45775714D01*
X110751904Y-45728095D01*
X110561428Y-45728095D01*
X110466190Y-45775714D01*
X110418571Y-45823333D01*
X110370952Y-45918571D01*
%TO.C,Q16*%
X43447619Y-89471428D02*
X43400000Y-89566666D01*
X43304761Y-89661904D01*
X43161904Y-89804761D01*
X43114285Y-89900000D01*
X43114285Y-89995238D01*
X43352380Y-89947619D02*
X43304761Y-90042857D01*
X43209523Y-90138095D01*
X43019047Y-90185714D01*
X42685714Y-90185714D01*
X42495238Y-90138095D01*
X42400000Y-90042857D01*
X42352380Y-89947619D01*
X42352380Y-89757142D01*
X42400000Y-89661904D01*
X42495238Y-89566666D01*
X42685714Y-89519047D01*
X43019047Y-89519047D01*
X43209523Y-89566666D01*
X43304761Y-89661904D01*
X43352380Y-89757142D01*
X43352380Y-89947619D01*
X43352380Y-88566666D02*
X43352380Y-89138095D01*
X43352380Y-88852380D02*
X42352380Y-88852380D01*
X42495238Y-88947619D01*
X42590476Y-89042857D01*
X42638095Y-89138095D01*
X42352380Y-87709523D02*
X42352380Y-87900000D01*
X42400000Y-87995238D01*
X42447619Y-88042857D01*
X42590476Y-88138095D01*
X42780952Y-88185714D01*
X43161904Y-88185714D01*
X43257142Y-88138095D01*
X43304761Y-88090476D01*
X43352380Y-87995238D01*
X43352380Y-87804761D01*
X43304761Y-87709523D01*
X43257142Y-87661904D01*
X43161904Y-87614285D01*
X42923809Y-87614285D01*
X42828571Y-87661904D01*
X42780952Y-87709523D01*
X42733333Y-87804761D01*
X42733333Y-87995238D01*
X42780952Y-88090476D01*
X42828571Y-88138095D01*
X42923809Y-88185714D01*
%TO.C,Q5*%
X37127619Y-57245238D02*
X37080000Y-57340476D01*
X36984761Y-57435714D01*
X36841904Y-57578571D01*
X36794285Y-57673809D01*
X36794285Y-57769047D01*
X37032380Y-57721428D02*
X36984761Y-57816666D01*
X36889523Y-57911904D01*
X36699047Y-57959523D01*
X36365714Y-57959523D01*
X36175238Y-57911904D01*
X36080000Y-57816666D01*
X36032380Y-57721428D01*
X36032380Y-57530952D01*
X36080000Y-57435714D01*
X36175238Y-57340476D01*
X36365714Y-57292857D01*
X36699047Y-57292857D01*
X36889523Y-57340476D01*
X36984761Y-57435714D01*
X37032380Y-57530952D01*
X37032380Y-57721428D01*
X36032380Y-56388095D02*
X36032380Y-56864285D01*
X36508571Y-56911904D01*
X36460952Y-56864285D01*
X36413333Y-56769047D01*
X36413333Y-56530952D01*
X36460952Y-56435714D01*
X36508571Y-56388095D01*
X36603809Y-56340476D01*
X36841904Y-56340476D01*
X36937142Y-56388095D01*
X36984761Y-56435714D01*
X37032380Y-56530952D01*
X37032380Y-56769047D01*
X36984761Y-56864285D01*
X36937142Y-56911904D01*
%TO.C,R30*%
X152852380Y-57792857D02*
X152376190Y-58126190D01*
X152852380Y-58364285D02*
X151852380Y-58364285D01*
X151852380Y-57983333D01*
X151900000Y-57888095D01*
X151947619Y-57840476D01*
X152042857Y-57792857D01*
X152185714Y-57792857D01*
X152280952Y-57840476D01*
X152328571Y-57888095D01*
X152376190Y-57983333D01*
X152376190Y-58364285D01*
X151852380Y-57459523D02*
X151852380Y-56840476D01*
X152233333Y-57173809D01*
X152233333Y-57030952D01*
X152280952Y-56935714D01*
X152328571Y-56888095D01*
X152423809Y-56840476D01*
X152661904Y-56840476D01*
X152757142Y-56888095D01*
X152804761Y-56935714D01*
X152852380Y-57030952D01*
X152852380Y-57316666D01*
X152804761Y-57411904D01*
X152757142Y-57459523D01*
X151852380Y-56221428D02*
X151852380Y-56126190D01*
X151900000Y-56030952D01*
X151947619Y-55983333D01*
X152042857Y-55935714D01*
X152233333Y-55888095D01*
X152471428Y-55888095D01*
X152661904Y-55935714D01*
X152757142Y-55983333D01*
X152804761Y-56030952D01*
X152852380Y-56126190D01*
X152852380Y-56221428D01*
X152804761Y-56316666D01*
X152757142Y-56364285D01*
X152661904Y-56411904D01*
X152471428Y-56459523D01*
X152233333Y-56459523D01*
X152042857Y-56411904D01*
X151947619Y-56364285D01*
X151900000Y-56316666D01*
X151852380Y-56221428D01*
%TO.C,C14*%
X112387142Y-63857142D02*
X112339523Y-63904761D01*
X112196666Y-63952380D01*
X112101428Y-63952380D01*
X111958571Y-63904761D01*
X111863333Y-63809523D01*
X111815714Y-63714285D01*
X111768095Y-63523809D01*
X111768095Y-63380952D01*
X111815714Y-63190476D01*
X111863333Y-63095238D01*
X111958571Y-63000000D01*
X112101428Y-62952380D01*
X112196666Y-62952380D01*
X112339523Y-63000000D01*
X112387142Y-63047619D01*
X113339523Y-63952380D02*
X112768095Y-63952380D01*
X113053809Y-63952380D02*
X113053809Y-62952380D01*
X112958571Y-63095238D01*
X112863333Y-63190476D01*
X112768095Y-63238095D01*
X114196666Y-63285714D02*
X114196666Y-63952380D01*
X113958571Y-62904761D02*
X113720476Y-63619047D01*
X114339523Y-63619047D01*
%TO.C,J3*%
X28343266Y-27976580D02*
X28343266Y-28690866D01*
X28295647Y-28833723D01*
X28200409Y-28928961D01*
X28057552Y-28976580D01*
X27962314Y-28976580D01*
X28724219Y-27976580D02*
X29343266Y-27976580D01*
X29009933Y-28357533D01*
X29152790Y-28357533D01*
X29248028Y-28405152D01*
X29295647Y-28452771D01*
X29343266Y-28548009D01*
X29343266Y-28786104D01*
X29295647Y-28881342D01*
X29248028Y-28928961D01*
X29152790Y-28976580D01*
X28867076Y-28976580D01*
X28771838Y-28928961D01*
X28724219Y-28881342D01*
%TO.C,R26*%
X136342380Y-47632857D02*
X135866190Y-47966190D01*
X136342380Y-48204285D02*
X135342380Y-48204285D01*
X135342380Y-47823333D01*
X135390000Y-47728095D01*
X135437619Y-47680476D01*
X135532857Y-47632857D01*
X135675714Y-47632857D01*
X135770952Y-47680476D01*
X135818571Y-47728095D01*
X135866190Y-47823333D01*
X135866190Y-48204285D01*
X135437619Y-47251904D02*
X135390000Y-47204285D01*
X135342380Y-47109047D01*
X135342380Y-46870952D01*
X135390000Y-46775714D01*
X135437619Y-46728095D01*
X135532857Y-46680476D01*
X135628095Y-46680476D01*
X135770952Y-46728095D01*
X136342380Y-47299523D01*
X136342380Y-46680476D01*
X135342380Y-45823333D02*
X135342380Y-46013809D01*
X135390000Y-46109047D01*
X135437619Y-46156666D01*
X135580476Y-46251904D01*
X135770952Y-46299523D01*
X136151904Y-46299523D01*
X136247142Y-46251904D01*
X136294761Y-46204285D01*
X136342380Y-46109047D01*
X136342380Y-45918571D01*
X136294761Y-45823333D01*
X136247142Y-45775714D01*
X136151904Y-45728095D01*
X135913809Y-45728095D01*
X135818571Y-45775714D01*
X135770952Y-45823333D01*
X135723333Y-45918571D01*
X135723333Y-46109047D01*
X135770952Y-46204285D01*
X135818571Y-46251904D01*
X135913809Y-46299523D01*
%TO.C,U2*%
X67818095Y-40092380D02*
X67818095Y-40901904D01*
X67865714Y-40997142D01*
X67913333Y-41044761D01*
X68008571Y-41092380D01*
X68199047Y-41092380D01*
X68294285Y-41044761D01*
X68341904Y-40997142D01*
X68389523Y-40901904D01*
X68389523Y-40092380D01*
X68818095Y-40187619D02*
X68865714Y-40140000D01*
X68960952Y-40092380D01*
X69199047Y-40092380D01*
X69294285Y-40140000D01*
X69341904Y-40187619D01*
X69389523Y-40282857D01*
X69389523Y-40378095D01*
X69341904Y-40520952D01*
X68770476Y-41092380D01*
X69389523Y-41092380D01*
%TO.C,R25*%
X133802380Y-47632857D02*
X133326190Y-47966190D01*
X133802380Y-48204285D02*
X132802380Y-48204285D01*
X132802380Y-47823333D01*
X132850000Y-47728095D01*
X132897619Y-47680476D01*
X132992857Y-47632857D01*
X133135714Y-47632857D01*
X133230952Y-47680476D01*
X133278571Y-47728095D01*
X133326190Y-47823333D01*
X133326190Y-48204285D01*
X132897619Y-47251904D02*
X132850000Y-47204285D01*
X132802380Y-47109047D01*
X132802380Y-46870952D01*
X132850000Y-46775714D01*
X132897619Y-46728095D01*
X132992857Y-46680476D01*
X133088095Y-46680476D01*
X133230952Y-46728095D01*
X133802380Y-47299523D01*
X133802380Y-46680476D01*
X132802380Y-45775714D02*
X132802380Y-46251904D01*
X133278571Y-46299523D01*
X133230952Y-46251904D01*
X133183333Y-46156666D01*
X133183333Y-45918571D01*
X133230952Y-45823333D01*
X133278571Y-45775714D01*
X133373809Y-45728095D01*
X133611904Y-45728095D01*
X133707142Y-45775714D01*
X133754761Y-45823333D01*
X133802380Y-45918571D01*
X133802380Y-46156666D01*
X133754761Y-46251904D01*
X133707142Y-46299523D01*
%TO.C,R19*%
X110942380Y-57792857D02*
X110466190Y-58126190D01*
X110942380Y-58364285D02*
X109942380Y-58364285D01*
X109942380Y-57983333D01*
X109990000Y-57888095D01*
X110037619Y-57840476D01*
X110132857Y-57792857D01*
X110275714Y-57792857D01*
X110370952Y-57840476D01*
X110418571Y-57888095D01*
X110466190Y-57983333D01*
X110466190Y-58364285D01*
X110942380Y-56840476D02*
X110942380Y-57411904D01*
X110942380Y-57126190D02*
X109942380Y-57126190D01*
X110085238Y-57221428D01*
X110180476Y-57316666D01*
X110228095Y-57411904D01*
X110942380Y-56364285D02*
X110942380Y-56173809D01*
X110894761Y-56078571D01*
X110847142Y-56030952D01*
X110704285Y-55935714D01*
X110513809Y-55888095D01*
X110132857Y-55888095D01*
X110037619Y-55935714D01*
X109990000Y-55983333D01*
X109942380Y-56078571D01*
X109942380Y-56269047D01*
X109990000Y-56364285D01*
X110037619Y-56411904D01*
X110132857Y-56459523D01*
X110370952Y-56459523D01*
X110466190Y-56411904D01*
X110513809Y-56364285D01*
X110561428Y-56269047D01*
X110561428Y-56078571D01*
X110513809Y-55983333D01*
X110466190Y-55935714D01*
X110370952Y-55888095D01*
%TO.C,R20*%
X108402380Y-57792857D02*
X107926190Y-58126190D01*
X108402380Y-58364285D02*
X107402380Y-58364285D01*
X107402380Y-57983333D01*
X107450000Y-57888095D01*
X107497619Y-57840476D01*
X107592857Y-57792857D01*
X107735714Y-57792857D01*
X107830952Y-57840476D01*
X107878571Y-57888095D01*
X107926190Y-57983333D01*
X107926190Y-58364285D01*
X107497619Y-57411904D02*
X107450000Y-57364285D01*
X107402380Y-57269047D01*
X107402380Y-57030952D01*
X107450000Y-56935714D01*
X107497619Y-56888095D01*
X107592857Y-56840476D01*
X107688095Y-56840476D01*
X107830952Y-56888095D01*
X108402380Y-57459523D01*
X108402380Y-56840476D01*
X107402380Y-56221428D02*
X107402380Y-56126190D01*
X107450000Y-56030952D01*
X107497619Y-55983333D01*
X107592857Y-55935714D01*
X107783333Y-55888095D01*
X108021428Y-55888095D01*
X108211904Y-55935714D01*
X108307142Y-55983333D01*
X108354761Y-56030952D01*
X108402380Y-56126190D01*
X108402380Y-56221428D01*
X108354761Y-56316666D01*
X108307142Y-56364285D01*
X108211904Y-56411904D01*
X108021428Y-56459523D01*
X107783333Y-56459523D01*
X107592857Y-56411904D01*
X107497619Y-56364285D01*
X107450000Y-56316666D01*
X107402380Y-56221428D01*
%TO.C,Q1*%
X37127619Y-44545238D02*
X37080000Y-44640476D01*
X36984761Y-44735714D01*
X36841904Y-44878571D01*
X36794285Y-44973809D01*
X36794285Y-45069047D01*
X37032380Y-45021428D02*
X36984761Y-45116666D01*
X36889523Y-45211904D01*
X36699047Y-45259523D01*
X36365714Y-45259523D01*
X36175238Y-45211904D01*
X36080000Y-45116666D01*
X36032380Y-45021428D01*
X36032380Y-44830952D01*
X36080000Y-44735714D01*
X36175238Y-44640476D01*
X36365714Y-44592857D01*
X36699047Y-44592857D01*
X36889523Y-44640476D01*
X36984761Y-44735714D01*
X37032380Y-44830952D01*
X37032380Y-45021428D01*
X37032380Y-43640476D02*
X37032380Y-44211904D01*
X37032380Y-43926190D02*
X36032380Y-43926190D01*
X36175238Y-44021428D01*
X36270476Y-44116666D01*
X36318095Y-44211904D01*
%TO.C,Q11*%
X37097619Y-76771428D02*
X37050000Y-76866666D01*
X36954761Y-76961904D01*
X36811904Y-77104761D01*
X36764285Y-77200000D01*
X36764285Y-77295238D01*
X37002380Y-77247619D02*
X36954761Y-77342857D01*
X36859523Y-77438095D01*
X36669047Y-77485714D01*
X36335714Y-77485714D01*
X36145238Y-77438095D01*
X36050000Y-77342857D01*
X36002380Y-77247619D01*
X36002380Y-77057142D01*
X36050000Y-76961904D01*
X36145238Y-76866666D01*
X36335714Y-76819047D01*
X36669047Y-76819047D01*
X36859523Y-76866666D01*
X36954761Y-76961904D01*
X37002380Y-77057142D01*
X37002380Y-77247619D01*
X37002380Y-75866666D02*
X37002380Y-76438095D01*
X37002380Y-76152380D02*
X36002380Y-76152380D01*
X36145238Y-76247619D01*
X36240476Y-76342857D01*
X36288095Y-76438095D01*
X37002380Y-74914285D02*
X37002380Y-75485714D01*
X37002380Y-75200000D02*
X36002380Y-75200000D01*
X36145238Y-75295238D01*
X36240476Y-75390476D01*
X36288095Y-75485714D01*
%TO.C,R2*%
X61412380Y-47156666D02*
X60936190Y-47490000D01*
X61412380Y-47728095D02*
X60412380Y-47728095D01*
X60412380Y-47347142D01*
X60460000Y-47251904D01*
X60507619Y-47204285D01*
X60602857Y-47156666D01*
X60745714Y-47156666D01*
X60840952Y-47204285D01*
X60888571Y-47251904D01*
X60936190Y-47347142D01*
X60936190Y-47728095D01*
X60507619Y-46775714D02*
X60460000Y-46728095D01*
X60412380Y-46632857D01*
X60412380Y-46394761D01*
X60460000Y-46299523D01*
X60507619Y-46251904D01*
X60602857Y-46204285D01*
X60698095Y-46204285D01*
X60840952Y-46251904D01*
X61412380Y-46823333D01*
X61412380Y-46204285D01*
%TO.C,R6*%
X77922380Y-57570666D02*
X77446190Y-57904000D01*
X77922380Y-58142095D02*
X76922380Y-58142095D01*
X76922380Y-57761142D01*
X76970000Y-57665904D01*
X77017619Y-57618285D01*
X77112857Y-57570666D01*
X77255714Y-57570666D01*
X77350952Y-57618285D01*
X77398571Y-57665904D01*
X77446190Y-57761142D01*
X77446190Y-58142095D01*
X76922380Y-56713523D02*
X76922380Y-56904000D01*
X76970000Y-56999238D01*
X77017619Y-57046857D01*
X77160476Y-57142095D01*
X77350952Y-57189714D01*
X77731904Y-57189714D01*
X77827142Y-57142095D01*
X77874761Y-57094476D01*
X77922380Y-56999238D01*
X77922380Y-56808761D01*
X77874761Y-56713523D01*
X77827142Y-56665904D01*
X77731904Y-56618285D01*
X77493809Y-56618285D01*
X77398571Y-56665904D01*
X77350952Y-56713523D01*
X77303333Y-56808761D01*
X77303333Y-56999238D01*
X77350952Y-57094476D01*
X77398571Y-57142095D01*
X77493809Y-57189714D01*
%TO.C,Q14*%
X43432619Y-83121428D02*
X43385000Y-83216666D01*
X43289761Y-83311904D01*
X43146904Y-83454761D01*
X43099285Y-83550000D01*
X43099285Y-83645238D01*
X43337380Y-83597619D02*
X43289761Y-83692857D01*
X43194523Y-83788095D01*
X43004047Y-83835714D01*
X42670714Y-83835714D01*
X42480238Y-83788095D01*
X42385000Y-83692857D01*
X42337380Y-83597619D01*
X42337380Y-83407142D01*
X42385000Y-83311904D01*
X42480238Y-83216666D01*
X42670714Y-83169047D01*
X43004047Y-83169047D01*
X43194523Y-83216666D01*
X43289761Y-83311904D01*
X43337380Y-83407142D01*
X43337380Y-83597619D01*
X43337380Y-82216666D02*
X43337380Y-82788095D01*
X43337380Y-82502380D02*
X42337380Y-82502380D01*
X42480238Y-82597619D01*
X42575476Y-82692857D01*
X42623095Y-82788095D01*
X42670714Y-81359523D02*
X43337380Y-81359523D01*
X42289761Y-81597619D02*
X43004047Y-81835714D01*
X43004047Y-81216666D01*
%TO.C,R21*%
X131262380Y-57792857D02*
X130786190Y-58126190D01*
X131262380Y-58364285D02*
X130262380Y-58364285D01*
X130262380Y-57983333D01*
X130310000Y-57888095D01*
X130357619Y-57840476D01*
X130452857Y-57792857D01*
X130595714Y-57792857D01*
X130690952Y-57840476D01*
X130738571Y-57888095D01*
X130786190Y-57983333D01*
X130786190Y-58364285D01*
X130357619Y-57411904D02*
X130310000Y-57364285D01*
X130262380Y-57269047D01*
X130262380Y-57030952D01*
X130310000Y-56935714D01*
X130357619Y-56888095D01*
X130452857Y-56840476D01*
X130548095Y-56840476D01*
X130690952Y-56888095D01*
X131262380Y-57459523D01*
X131262380Y-56840476D01*
X131262380Y-55888095D02*
X131262380Y-56459523D01*
X131262380Y-56173809D02*
X130262380Y-56173809D01*
X130405238Y-56269047D01*
X130500476Y-56364285D01*
X130548095Y-56459523D01*
%TO.C,C11*%
X74252142Y-63857142D02*
X74204523Y-63904761D01*
X74061666Y-63952380D01*
X73966428Y-63952380D01*
X73823571Y-63904761D01*
X73728333Y-63809523D01*
X73680714Y-63714285D01*
X73633095Y-63523809D01*
X73633095Y-63380952D01*
X73680714Y-63190476D01*
X73728333Y-63095238D01*
X73823571Y-63000000D01*
X73966428Y-62952380D01*
X74061666Y-62952380D01*
X74204523Y-63000000D01*
X74252142Y-63047619D01*
X75204523Y-63952380D02*
X74633095Y-63952380D01*
X74918809Y-63952380D02*
X74918809Y-62952380D01*
X74823571Y-63095238D01*
X74728333Y-63190476D01*
X74633095Y-63238095D01*
X76156904Y-63952380D02*
X75585476Y-63952380D01*
X75871190Y-63952380D02*
X75871190Y-62952380D01*
X75775952Y-63095238D01*
X75680714Y-63190476D01*
X75585476Y-63238095D01*
%TO.C,J7*%
X140147380Y-107038333D02*
X140861666Y-107038333D01*
X141004523Y-107085952D01*
X141099761Y-107181190D01*
X141147380Y-107324047D01*
X141147380Y-107419285D01*
X140147380Y-106657380D02*
X140147380Y-105990714D01*
X141147380Y-106419285D01*
%TO.C,Q9*%
X37097619Y-69945238D02*
X37050000Y-70040476D01*
X36954761Y-70135714D01*
X36811904Y-70278571D01*
X36764285Y-70373809D01*
X36764285Y-70469047D01*
X37002380Y-70421428D02*
X36954761Y-70516666D01*
X36859523Y-70611904D01*
X36669047Y-70659523D01*
X36335714Y-70659523D01*
X36145238Y-70611904D01*
X36050000Y-70516666D01*
X36002380Y-70421428D01*
X36002380Y-70230952D01*
X36050000Y-70135714D01*
X36145238Y-70040476D01*
X36335714Y-69992857D01*
X36669047Y-69992857D01*
X36859523Y-70040476D01*
X36954761Y-70135714D01*
X37002380Y-70230952D01*
X37002380Y-70421428D01*
X37002380Y-69516666D02*
X37002380Y-69326190D01*
X36954761Y-69230952D01*
X36907142Y-69183333D01*
X36764285Y-69088095D01*
X36573809Y-69040476D01*
X36192857Y-69040476D01*
X36097619Y-69088095D01*
X36050000Y-69135714D01*
X36002380Y-69230952D01*
X36002380Y-69421428D01*
X36050000Y-69516666D01*
X36097619Y-69564285D01*
X36192857Y-69611904D01*
X36430952Y-69611904D01*
X36526190Y-69564285D01*
X36573809Y-69516666D01*
X36621428Y-69421428D01*
X36621428Y-69230952D01*
X36573809Y-69135714D01*
X36526190Y-69088095D01*
X36430952Y-69040476D01*
%TO.C,U4*%
X74138095Y-68252380D02*
X74138095Y-69061904D01*
X74185714Y-69157142D01*
X74233333Y-69204761D01*
X74328571Y-69252380D01*
X74519047Y-69252380D01*
X74614285Y-69204761D01*
X74661904Y-69157142D01*
X74709523Y-69061904D01*
X74709523Y-68252380D01*
X75614285Y-68585714D02*
X75614285Y-69252380D01*
X75376190Y-68204761D02*
X75138095Y-68919047D01*
X75757142Y-68919047D01*
%TO.C,C13*%
X99687142Y-63832142D02*
X99639523Y-63879761D01*
X99496666Y-63927380D01*
X99401428Y-63927380D01*
X99258571Y-63879761D01*
X99163333Y-63784523D01*
X99115714Y-63689285D01*
X99068095Y-63498809D01*
X99068095Y-63355952D01*
X99115714Y-63165476D01*
X99163333Y-63070238D01*
X99258571Y-62975000D01*
X99401428Y-62927380D01*
X99496666Y-62927380D01*
X99639523Y-62975000D01*
X99687142Y-63022619D01*
X100639523Y-63927380D02*
X100068095Y-63927380D01*
X100353809Y-63927380D02*
X100353809Y-62927380D01*
X100258571Y-63070238D01*
X100163333Y-63165476D01*
X100068095Y-63213095D01*
X100972857Y-62927380D02*
X101591904Y-62927380D01*
X101258571Y-63308333D01*
X101401428Y-63308333D01*
X101496666Y-63355952D01*
X101544285Y-63403571D01*
X101591904Y-63498809D01*
X101591904Y-63736904D01*
X101544285Y-63832142D01*
X101496666Y-63879761D01*
X101401428Y-63927380D01*
X101115714Y-63927380D01*
X101020476Y-63879761D01*
X100972857Y-63832142D01*
%TO.C,Q10*%
X43447619Y-70421428D02*
X43400000Y-70516666D01*
X43304761Y-70611904D01*
X43161904Y-70754761D01*
X43114285Y-70850000D01*
X43114285Y-70945238D01*
X43352380Y-70897619D02*
X43304761Y-70992857D01*
X43209523Y-71088095D01*
X43019047Y-71135714D01*
X42685714Y-71135714D01*
X42495238Y-71088095D01*
X42400000Y-70992857D01*
X42352380Y-70897619D01*
X42352380Y-70707142D01*
X42400000Y-70611904D01*
X42495238Y-70516666D01*
X42685714Y-70469047D01*
X43019047Y-70469047D01*
X43209523Y-70516666D01*
X43304761Y-70611904D01*
X43352380Y-70707142D01*
X43352380Y-70897619D01*
X43352380Y-69516666D02*
X43352380Y-70088095D01*
X43352380Y-69802380D02*
X42352380Y-69802380D01*
X42495238Y-69897619D01*
X42590476Y-69992857D01*
X42638095Y-70088095D01*
X42352380Y-68897619D02*
X42352380Y-68802380D01*
X42400000Y-68707142D01*
X42447619Y-68659523D01*
X42542857Y-68611904D01*
X42733333Y-68564285D01*
X42971428Y-68564285D01*
X43161904Y-68611904D01*
X43257142Y-68659523D01*
X43304761Y-68707142D01*
X43352380Y-68802380D01*
X43352380Y-68897619D01*
X43304761Y-68992857D01*
X43257142Y-69040476D01*
X43161904Y-69088095D01*
X42971428Y-69135714D01*
X42733333Y-69135714D01*
X42542857Y-69088095D01*
X42447619Y-69040476D01*
X42400000Y-68992857D01*
X42352380Y-68897619D01*
%TO.C,R22*%
X128722380Y-57792857D02*
X128246190Y-58126190D01*
X128722380Y-58364285D02*
X127722380Y-58364285D01*
X127722380Y-57983333D01*
X127770000Y-57888095D01*
X127817619Y-57840476D01*
X127912857Y-57792857D01*
X128055714Y-57792857D01*
X128150952Y-57840476D01*
X128198571Y-57888095D01*
X128246190Y-57983333D01*
X128246190Y-58364285D01*
X127817619Y-57411904D02*
X127770000Y-57364285D01*
X127722380Y-57269047D01*
X127722380Y-57030952D01*
X127770000Y-56935714D01*
X127817619Y-56888095D01*
X127912857Y-56840476D01*
X128008095Y-56840476D01*
X128150952Y-56888095D01*
X128722380Y-57459523D01*
X128722380Y-56840476D01*
X127817619Y-56459523D02*
X127770000Y-56411904D01*
X127722380Y-56316666D01*
X127722380Y-56078571D01*
X127770000Y-55983333D01*
X127817619Y-55935714D01*
X127912857Y-55888095D01*
X128008095Y-55888095D01*
X128150952Y-55935714D01*
X128722380Y-56507142D01*
X128722380Y-55888095D01*
%TO.C,U1*%
X89876380Y-99694904D02*
X90685904Y-99694904D01*
X90781142Y-99647285D01*
X90828761Y-99599666D01*
X90876380Y-99504428D01*
X90876380Y-99313952D01*
X90828761Y-99218714D01*
X90781142Y-99171095D01*
X90685904Y-99123476D01*
X89876380Y-99123476D01*
X90876380Y-98123476D02*
X90876380Y-98694904D01*
X90876380Y-98409190D02*
X89876380Y-98409190D01*
X90019238Y-98504428D01*
X90114476Y-98599666D01*
X90162095Y-98694904D01*
%TO.C,R29*%
X155392380Y-57792857D02*
X154916190Y-58126190D01*
X155392380Y-58364285D02*
X154392380Y-58364285D01*
X154392380Y-57983333D01*
X154440000Y-57888095D01*
X154487619Y-57840476D01*
X154582857Y-57792857D01*
X154725714Y-57792857D01*
X154820952Y-57840476D01*
X154868571Y-57888095D01*
X154916190Y-57983333D01*
X154916190Y-58364285D01*
X154487619Y-57411904D02*
X154440000Y-57364285D01*
X154392380Y-57269047D01*
X154392380Y-57030952D01*
X154440000Y-56935714D01*
X154487619Y-56888095D01*
X154582857Y-56840476D01*
X154678095Y-56840476D01*
X154820952Y-56888095D01*
X155392380Y-57459523D01*
X155392380Y-56840476D01*
X155392380Y-56364285D02*
X155392380Y-56173809D01*
X155344761Y-56078571D01*
X155297142Y-56030952D01*
X155154285Y-55935714D01*
X154963809Y-55888095D01*
X154582857Y-55888095D01*
X154487619Y-55935714D01*
X154440000Y-55983333D01*
X154392380Y-56078571D01*
X154392380Y-56269047D01*
X154440000Y-56364285D01*
X154487619Y-56411904D01*
X154582857Y-56459523D01*
X154820952Y-56459523D01*
X154916190Y-56411904D01*
X154963809Y-56364285D01*
X155011428Y-56269047D01*
X155011428Y-56078571D01*
X154963809Y-55983333D01*
X154916190Y-55935714D01*
X154820952Y-55888095D01*
%TO.C,Q7*%
X37127619Y-63595238D02*
X37080000Y-63690476D01*
X36984761Y-63785714D01*
X36841904Y-63928571D01*
X36794285Y-64023809D01*
X36794285Y-64119047D01*
X37032380Y-64071428D02*
X36984761Y-64166666D01*
X36889523Y-64261904D01*
X36699047Y-64309523D01*
X36365714Y-64309523D01*
X36175238Y-64261904D01*
X36080000Y-64166666D01*
X36032380Y-64071428D01*
X36032380Y-63880952D01*
X36080000Y-63785714D01*
X36175238Y-63690476D01*
X36365714Y-63642857D01*
X36699047Y-63642857D01*
X36889523Y-63690476D01*
X36984761Y-63785714D01*
X37032380Y-63880952D01*
X37032380Y-64071428D01*
X36032380Y-63309523D02*
X36032380Y-62642857D01*
X37032380Y-63071428D01*
%TO.C,U3*%
X61468095Y-68252380D02*
X61468095Y-69061904D01*
X61515714Y-69157142D01*
X61563333Y-69204761D01*
X61658571Y-69252380D01*
X61849047Y-69252380D01*
X61944285Y-69204761D01*
X61991904Y-69157142D01*
X62039523Y-69061904D01*
X62039523Y-68252380D01*
X62420476Y-68252380D02*
X63039523Y-68252380D01*
X62706190Y-68633333D01*
X62849047Y-68633333D01*
X62944285Y-68680952D01*
X62991904Y-68728571D01*
X63039523Y-68823809D01*
X63039523Y-69061904D01*
X62991904Y-69157142D01*
X62944285Y-69204761D01*
X62849047Y-69252380D01*
X62563333Y-69252380D01*
X62468095Y-69204761D01*
X62420476Y-69157142D01*
%TO.C,C19*%
X52697142Y-44807142D02*
X52649523Y-44854761D01*
X52506666Y-44902380D01*
X52411428Y-44902380D01*
X52268571Y-44854761D01*
X52173333Y-44759523D01*
X52125714Y-44664285D01*
X52078095Y-44473809D01*
X52078095Y-44330952D01*
X52125714Y-44140476D01*
X52173333Y-44045238D01*
X52268571Y-43950000D01*
X52411428Y-43902380D01*
X52506666Y-43902380D01*
X52649523Y-43950000D01*
X52697142Y-43997619D01*
X53649523Y-44902380D02*
X53078095Y-44902380D01*
X53363809Y-44902380D02*
X53363809Y-43902380D01*
X53268571Y-44045238D01*
X53173333Y-44140476D01*
X53078095Y-44188095D01*
X54125714Y-44902380D02*
X54316190Y-44902380D01*
X54411428Y-44854761D01*
X54459047Y-44807142D01*
X54554285Y-44664285D01*
X54601904Y-44473809D01*
X54601904Y-44092857D01*
X54554285Y-43997619D01*
X54506666Y-43950000D01*
X54411428Y-43902380D01*
X54220952Y-43902380D01*
X54125714Y-43950000D01*
X54078095Y-43997619D01*
X54030476Y-44092857D01*
X54030476Y-44330952D01*
X54078095Y-44426190D01*
X54125714Y-44473809D01*
X54220952Y-44521428D01*
X54411428Y-44521428D01*
X54506666Y-44473809D01*
X54554285Y-44426190D01*
X54601904Y-44330952D01*
%TO.C,U15*%
X44481904Y-69302380D02*
X44481904Y-70111904D01*
X44529523Y-70207142D01*
X44577142Y-70254761D01*
X44672380Y-70302380D01*
X44862857Y-70302380D01*
X44958095Y-70254761D01*
X45005714Y-70207142D01*
X45053333Y-70111904D01*
X45053333Y-69302380D01*
X46053333Y-70302380D02*
X45481904Y-70302380D01*
X45767619Y-70302380D02*
X45767619Y-69302380D01*
X45672380Y-69445238D01*
X45577142Y-69540476D01*
X45481904Y-69588095D01*
X46958095Y-69302380D02*
X46481904Y-69302380D01*
X46434285Y-69778571D01*
X46481904Y-69730952D01*
X46577142Y-69683333D01*
X46815238Y-69683333D01*
X46910476Y-69730952D01*
X46958095Y-69778571D01*
X47005714Y-69873809D01*
X47005714Y-70111904D01*
X46958095Y-70207142D01*
X46910476Y-70254761D01*
X46815238Y-70302380D01*
X46577142Y-70302380D01*
X46481904Y-70254761D01*
X46434285Y-70207142D01*
%TO.C,R12*%
X83002380Y-57792857D02*
X82526190Y-58126190D01*
X83002380Y-58364285D02*
X82002380Y-58364285D01*
X82002380Y-57983333D01*
X82050000Y-57888095D01*
X82097619Y-57840476D01*
X82192857Y-57792857D01*
X82335714Y-57792857D01*
X82430952Y-57840476D01*
X82478571Y-57888095D01*
X82526190Y-57983333D01*
X82526190Y-58364285D01*
X83002380Y-56840476D02*
X83002380Y-57411904D01*
X83002380Y-57126190D02*
X82002380Y-57126190D01*
X82145238Y-57221428D01*
X82240476Y-57316666D01*
X82288095Y-57411904D01*
X82097619Y-56459523D02*
X82050000Y-56411904D01*
X82002380Y-56316666D01*
X82002380Y-56078571D01*
X82050000Y-55983333D01*
X82097619Y-55935714D01*
X82192857Y-55888095D01*
X82288095Y-55888095D01*
X82430952Y-55935714D01*
X83002380Y-56507142D01*
X83002380Y-55888095D01*
%TO.C,C18*%
X150452142Y-63842142D02*
X150404523Y-63889761D01*
X150261666Y-63937380D01*
X150166428Y-63937380D01*
X150023571Y-63889761D01*
X149928333Y-63794523D01*
X149880714Y-63699285D01*
X149833095Y-63508809D01*
X149833095Y-63365952D01*
X149880714Y-63175476D01*
X149928333Y-63080238D01*
X150023571Y-62985000D01*
X150166428Y-62937380D01*
X150261666Y-62937380D01*
X150404523Y-62985000D01*
X150452142Y-63032619D01*
X151404523Y-63937380D02*
X150833095Y-63937380D01*
X151118809Y-63937380D02*
X151118809Y-62937380D01*
X151023571Y-63080238D01*
X150928333Y-63175476D01*
X150833095Y-63223095D01*
X151975952Y-63365952D02*
X151880714Y-63318333D01*
X151833095Y-63270714D01*
X151785476Y-63175476D01*
X151785476Y-63127857D01*
X151833095Y-63032619D01*
X151880714Y-62985000D01*
X151975952Y-62937380D01*
X152166428Y-62937380D01*
X152261666Y-62985000D01*
X152309285Y-63032619D01*
X152356904Y-63127857D01*
X152356904Y-63175476D01*
X152309285Y-63270714D01*
X152261666Y-63318333D01*
X152166428Y-63365952D01*
X151975952Y-63365952D01*
X151880714Y-63413571D01*
X151833095Y-63461190D01*
X151785476Y-63556428D01*
X151785476Y-63746904D01*
X151833095Y-63842142D01*
X151880714Y-63889761D01*
X151975952Y-63937380D01*
X152166428Y-63937380D01*
X152261666Y-63889761D01*
X152309285Y-63842142D01*
X152356904Y-63746904D01*
X152356904Y-63556428D01*
X152309285Y-63461190D01*
X152261666Y-63413571D01*
X152166428Y-63365952D01*
%TO.C,R3*%
X61412380Y-57316666D02*
X60936190Y-57650000D01*
X61412380Y-57888095D02*
X60412380Y-57888095D01*
X60412380Y-57507142D01*
X60460000Y-57411904D01*
X60507619Y-57364285D01*
X60602857Y-57316666D01*
X60745714Y-57316666D01*
X60840952Y-57364285D01*
X60888571Y-57411904D01*
X60936190Y-57507142D01*
X60936190Y-57888095D01*
X60412380Y-56983333D02*
X60412380Y-56364285D01*
X60793333Y-56697619D01*
X60793333Y-56554761D01*
X60840952Y-56459523D01*
X60888571Y-56411904D01*
X60983809Y-56364285D01*
X61221904Y-56364285D01*
X61317142Y-56411904D01*
X61364761Y-56459523D01*
X61412380Y-56554761D01*
X61412380Y-56840476D01*
X61364761Y-56935714D01*
X61317142Y-56983333D01*
%TO.C,C10*%
X61552142Y-63857142D02*
X61504523Y-63904761D01*
X61361666Y-63952380D01*
X61266428Y-63952380D01*
X61123571Y-63904761D01*
X61028333Y-63809523D01*
X60980714Y-63714285D01*
X60933095Y-63523809D01*
X60933095Y-63380952D01*
X60980714Y-63190476D01*
X61028333Y-63095238D01*
X61123571Y-63000000D01*
X61266428Y-62952380D01*
X61361666Y-62952380D01*
X61504523Y-63000000D01*
X61552142Y-63047619D01*
X62504523Y-63952380D02*
X61933095Y-63952380D01*
X62218809Y-63952380D02*
X62218809Y-62952380D01*
X62123571Y-63095238D01*
X62028333Y-63190476D01*
X61933095Y-63238095D01*
X63123571Y-62952380D02*
X63218809Y-62952380D01*
X63314047Y-63000000D01*
X63361666Y-63047619D01*
X63409285Y-63142857D01*
X63456904Y-63333333D01*
X63456904Y-63571428D01*
X63409285Y-63761904D01*
X63361666Y-63857142D01*
X63314047Y-63904761D01*
X63218809Y-63952380D01*
X63123571Y-63952380D01*
X63028333Y-63904761D01*
X62980714Y-63857142D01*
X62933095Y-63761904D01*
X62885476Y-63571428D01*
X62885476Y-63333333D01*
X62933095Y-63142857D01*
X62980714Y-63047619D01*
X63028333Y-63000000D01*
X63123571Y-62952380D01*
%TO.C,C1*%
X70207142Y-100496666D02*
X70254761Y-100544285D01*
X70302380Y-100687142D01*
X70302380Y-100782380D01*
X70254761Y-100925238D01*
X70159523Y-101020476D01*
X70064285Y-101068095D01*
X69873809Y-101115714D01*
X69730952Y-101115714D01*
X69540476Y-101068095D01*
X69445238Y-101020476D01*
X69350000Y-100925238D01*
X69302380Y-100782380D01*
X69302380Y-100687142D01*
X69350000Y-100544285D01*
X69397619Y-100496666D01*
X70302380Y-99544285D02*
X70302380Y-100115714D01*
X70302380Y-99830000D02*
X69302380Y-99830000D01*
X69445238Y-99925238D01*
X69540476Y-100020476D01*
X69588095Y-100115714D01*
%TO.C,U10*%
X124491904Y-68242380D02*
X124491904Y-69051904D01*
X124539523Y-69147142D01*
X124587142Y-69194761D01*
X124682380Y-69242380D01*
X124872857Y-69242380D01*
X124968095Y-69194761D01*
X125015714Y-69147142D01*
X125063333Y-69051904D01*
X125063333Y-68242380D01*
X126063333Y-69242380D02*
X125491904Y-69242380D01*
X125777619Y-69242380D02*
X125777619Y-68242380D01*
X125682380Y-68385238D01*
X125587142Y-68480476D01*
X125491904Y-68528095D01*
X126682380Y-68242380D02*
X126777619Y-68242380D01*
X126872857Y-68290000D01*
X126920476Y-68337619D01*
X126968095Y-68432857D01*
X127015714Y-68623333D01*
X127015714Y-68861428D01*
X126968095Y-69051904D01*
X126920476Y-69147142D01*
X126872857Y-69194761D01*
X126777619Y-69242380D01*
X126682380Y-69242380D01*
X126587142Y-69194761D01*
X126539523Y-69147142D01*
X126491904Y-69051904D01*
X126444285Y-68861428D01*
X126444285Y-68623333D01*
X126491904Y-68432857D01*
X126539523Y-68337619D01*
X126587142Y-68290000D01*
X126682380Y-68242380D01*
%TO.C,Q6*%
X43477619Y-57260238D02*
X43430000Y-57355476D01*
X43334761Y-57450714D01*
X43191904Y-57593571D01*
X43144285Y-57688809D01*
X43144285Y-57784047D01*
X43382380Y-57736428D02*
X43334761Y-57831666D01*
X43239523Y-57926904D01*
X43049047Y-57974523D01*
X42715714Y-57974523D01*
X42525238Y-57926904D01*
X42430000Y-57831666D01*
X42382380Y-57736428D01*
X42382380Y-57545952D01*
X42430000Y-57450714D01*
X42525238Y-57355476D01*
X42715714Y-57307857D01*
X43049047Y-57307857D01*
X43239523Y-57355476D01*
X43334761Y-57450714D01*
X43382380Y-57545952D01*
X43382380Y-57736428D01*
X42382380Y-56450714D02*
X42382380Y-56641190D01*
X42430000Y-56736428D01*
X42477619Y-56784047D01*
X42620476Y-56879285D01*
X42810952Y-56926904D01*
X43191904Y-56926904D01*
X43287142Y-56879285D01*
X43334761Y-56831666D01*
X43382380Y-56736428D01*
X43382380Y-56545952D01*
X43334761Y-56450714D01*
X43287142Y-56403095D01*
X43191904Y-56355476D01*
X42953809Y-56355476D01*
X42858571Y-56403095D01*
X42810952Y-56450714D01*
X42763333Y-56545952D01*
X42763333Y-56736428D01*
X42810952Y-56831666D01*
X42858571Y-56879285D01*
X42953809Y-56926904D01*
%TO.C,U14*%
X44354904Y-43902380D02*
X44354904Y-44711904D01*
X44402523Y-44807142D01*
X44450142Y-44854761D01*
X44545380Y-44902380D01*
X44735857Y-44902380D01*
X44831095Y-44854761D01*
X44878714Y-44807142D01*
X44926333Y-44711904D01*
X44926333Y-43902380D01*
X45926333Y-44902380D02*
X45354904Y-44902380D01*
X45640619Y-44902380D02*
X45640619Y-43902380D01*
X45545380Y-44045238D01*
X45450142Y-44140476D01*
X45354904Y-44188095D01*
X46783476Y-44235714D02*
X46783476Y-44902380D01*
X46545380Y-43854761D02*
X46307285Y-44569047D01*
X46926333Y-44569047D01*
%TO.C,Q13*%
X37082619Y-83121428D02*
X37035000Y-83216666D01*
X36939761Y-83311904D01*
X36796904Y-83454761D01*
X36749285Y-83550000D01*
X36749285Y-83645238D01*
X36987380Y-83597619D02*
X36939761Y-83692857D01*
X36844523Y-83788095D01*
X36654047Y-83835714D01*
X36320714Y-83835714D01*
X36130238Y-83788095D01*
X36035000Y-83692857D01*
X35987380Y-83597619D01*
X35987380Y-83407142D01*
X36035000Y-83311904D01*
X36130238Y-83216666D01*
X36320714Y-83169047D01*
X36654047Y-83169047D01*
X36844523Y-83216666D01*
X36939761Y-83311904D01*
X36987380Y-83407142D01*
X36987380Y-83597619D01*
X36987380Y-82216666D02*
X36987380Y-82788095D01*
X36987380Y-82502380D02*
X35987380Y-82502380D01*
X36130238Y-82597619D01*
X36225476Y-82692857D01*
X36273095Y-82788095D01*
X35987380Y-81883333D02*
X35987380Y-81264285D01*
X36368333Y-81597619D01*
X36368333Y-81454761D01*
X36415952Y-81359523D01*
X36463571Y-81311904D01*
X36558809Y-81264285D01*
X36796904Y-81264285D01*
X36892142Y-81311904D01*
X36939761Y-81359523D01*
X36987380Y-81454761D01*
X36987380Y-81740476D01*
X36939761Y-81835714D01*
X36892142Y-81883333D01*
%TO.C,U12*%
X137176904Y-68237380D02*
X137176904Y-69046904D01*
X137224523Y-69142142D01*
X137272142Y-69189761D01*
X137367380Y-69237380D01*
X137557857Y-69237380D01*
X137653095Y-69189761D01*
X137700714Y-69142142D01*
X137748333Y-69046904D01*
X137748333Y-68237380D01*
X138748333Y-69237380D02*
X138176904Y-69237380D01*
X138462619Y-69237380D02*
X138462619Y-68237380D01*
X138367380Y-68380238D01*
X138272142Y-68475476D01*
X138176904Y-68523095D01*
X139129285Y-68332619D02*
X139176904Y-68285000D01*
X139272142Y-68237380D01*
X139510238Y-68237380D01*
X139605476Y-68285000D01*
X139653095Y-68332619D01*
X139700714Y-68427857D01*
X139700714Y-68523095D01*
X139653095Y-68665952D01*
X139081666Y-69237380D01*
X139700714Y-69237380D01*
%TO.C,Q12*%
X43447619Y-76771428D02*
X43400000Y-76866666D01*
X43304761Y-76961904D01*
X43161904Y-77104761D01*
X43114285Y-77200000D01*
X43114285Y-77295238D01*
X43352380Y-77247619D02*
X43304761Y-77342857D01*
X43209523Y-77438095D01*
X43019047Y-77485714D01*
X42685714Y-77485714D01*
X42495238Y-77438095D01*
X42400000Y-77342857D01*
X42352380Y-77247619D01*
X42352380Y-77057142D01*
X42400000Y-76961904D01*
X42495238Y-76866666D01*
X42685714Y-76819047D01*
X43019047Y-76819047D01*
X43209523Y-76866666D01*
X43304761Y-76961904D01*
X43352380Y-77057142D01*
X43352380Y-77247619D01*
X43352380Y-75866666D02*
X43352380Y-76438095D01*
X43352380Y-76152380D02*
X42352380Y-76152380D01*
X42495238Y-76247619D01*
X42590476Y-76342857D01*
X42638095Y-76438095D01*
X42447619Y-75485714D02*
X42400000Y-75438095D01*
X42352380Y-75342857D01*
X42352380Y-75104761D01*
X42400000Y-75009523D01*
X42447619Y-74961904D01*
X42542857Y-74914285D01*
X42638095Y-74914285D01*
X42780952Y-74961904D01*
X43352380Y-75533333D01*
X43352380Y-74914285D01*
%TO.C,R5*%
X80462380Y-57697666D02*
X79986190Y-58031000D01*
X80462380Y-58269095D02*
X79462380Y-58269095D01*
X79462380Y-57888142D01*
X79510000Y-57792904D01*
X79557619Y-57745285D01*
X79652857Y-57697666D01*
X79795714Y-57697666D01*
X79890952Y-57745285D01*
X79938571Y-57792904D01*
X79986190Y-57888142D01*
X79986190Y-58269095D01*
X79462380Y-56792904D02*
X79462380Y-57269095D01*
X79938571Y-57316714D01*
X79890952Y-57269095D01*
X79843333Y-57173857D01*
X79843333Y-56935761D01*
X79890952Y-56840523D01*
X79938571Y-56792904D01*
X80033809Y-56745285D01*
X80271904Y-56745285D01*
X80367142Y-56792904D01*
X80414761Y-56840523D01*
X80462380Y-56935761D01*
X80462380Y-57173857D01*
X80414761Y-57269095D01*
X80367142Y-57316714D01*
%TO.C,R4*%
X58872380Y-57316666D02*
X58396190Y-57650000D01*
X58872380Y-57888095D02*
X57872380Y-57888095D01*
X57872380Y-57507142D01*
X57920000Y-57411904D01*
X57967619Y-57364285D01*
X58062857Y-57316666D01*
X58205714Y-57316666D01*
X58300952Y-57364285D01*
X58348571Y-57411904D01*
X58396190Y-57507142D01*
X58396190Y-57888095D01*
X58205714Y-56459523D02*
X58872380Y-56459523D01*
X57824761Y-56697619D02*
X58539047Y-56935714D01*
X58539047Y-56316666D01*
%TO.C,Q15*%
X37082619Y-89471428D02*
X37035000Y-89566666D01*
X36939761Y-89661904D01*
X36796904Y-89804761D01*
X36749285Y-89900000D01*
X36749285Y-89995238D01*
X36987380Y-89947619D02*
X36939761Y-90042857D01*
X36844523Y-90138095D01*
X36654047Y-90185714D01*
X36320714Y-90185714D01*
X36130238Y-90138095D01*
X36035000Y-90042857D01*
X35987380Y-89947619D01*
X35987380Y-89757142D01*
X36035000Y-89661904D01*
X36130238Y-89566666D01*
X36320714Y-89519047D01*
X36654047Y-89519047D01*
X36844523Y-89566666D01*
X36939761Y-89661904D01*
X36987380Y-89757142D01*
X36987380Y-89947619D01*
X36987380Y-88566666D02*
X36987380Y-89138095D01*
X36987380Y-88852380D02*
X35987380Y-88852380D01*
X36130238Y-88947619D01*
X36225476Y-89042857D01*
X36273095Y-89138095D01*
X35987380Y-87661904D02*
X35987380Y-88138095D01*
X36463571Y-88185714D01*
X36415952Y-88138095D01*
X36368333Y-88042857D01*
X36368333Y-87804761D01*
X36415952Y-87709523D01*
X36463571Y-87661904D01*
X36558809Y-87614285D01*
X36796904Y-87614285D01*
X36892142Y-87661904D01*
X36939761Y-87709523D01*
X36987380Y-87804761D01*
X36987380Y-88042857D01*
X36939761Y-88138095D01*
X36892142Y-88185714D01*
%TO.C,R14*%
X103322380Y-57792857D02*
X102846190Y-58126190D01*
X103322380Y-58364285D02*
X102322380Y-58364285D01*
X102322380Y-57983333D01*
X102370000Y-57888095D01*
X102417619Y-57840476D01*
X102512857Y-57792857D01*
X102655714Y-57792857D01*
X102750952Y-57840476D01*
X102798571Y-57888095D01*
X102846190Y-57983333D01*
X102846190Y-58364285D01*
X103322380Y-56840476D02*
X103322380Y-57411904D01*
X103322380Y-57126190D02*
X102322380Y-57126190D01*
X102465238Y-57221428D01*
X102560476Y-57316666D01*
X102608095Y-57411904D01*
X102655714Y-55983333D02*
X103322380Y-55983333D01*
X102274761Y-56221428D02*
X102989047Y-56459523D01*
X102989047Y-55840476D01*
%TO.C,U5*%
X93218095Y-40092380D02*
X93218095Y-40901904D01*
X93265714Y-40997142D01*
X93313333Y-41044761D01*
X93408571Y-41092380D01*
X93599047Y-41092380D01*
X93694285Y-41044761D01*
X93741904Y-40997142D01*
X93789523Y-40901904D01*
X93789523Y-40092380D01*
X94741904Y-40092380D02*
X94265714Y-40092380D01*
X94218095Y-40568571D01*
X94265714Y-40520952D01*
X94360952Y-40473333D01*
X94599047Y-40473333D01*
X94694285Y-40520952D01*
X94741904Y-40568571D01*
X94789523Y-40663809D01*
X94789523Y-40901904D01*
X94741904Y-40997142D01*
X94694285Y-41044761D01*
X94599047Y-41092380D01*
X94360952Y-41092380D01*
X94265714Y-41044761D01*
X94218095Y-40997142D01*
%TO.C,R24*%
X131389380Y-47632857D02*
X130913190Y-47966190D01*
X131389380Y-48204285D02*
X130389380Y-48204285D01*
X130389380Y-47823333D01*
X130437000Y-47728095D01*
X130484619Y-47680476D01*
X130579857Y-47632857D01*
X130722714Y-47632857D01*
X130817952Y-47680476D01*
X130865571Y-47728095D01*
X130913190Y-47823333D01*
X130913190Y-48204285D01*
X130484619Y-47251904D02*
X130437000Y-47204285D01*
X130389380Y-47109047D01*
X130389380Y-46870952D01*
X130437000Y-46775714D01*
X130484619Y-46728095D01*
X130579857Y-46680476D01*
X130675095Y-46680476D01*
X130817952Y-46728095D01*
X131389380Y-47299523D01*
X131389380Y-46680476D01*
X130722714Y-45823333D02*
X131389380Y-45823333D01*
X130341761Y-46061428D02*
X131056047Y-46299523D01*
X131056047Y-45680476D01*
%TO.C,J1*%
X60162380Y-98640833D02*
X60876666Y-98640833D01*
X61019523Y-98688452D01*
X61114761Y-98783690D01*
X61162380Y-98926547D01*
X61162380Y-99021785D01*
X61162380Y-97640833D02*
X61162380Y-98212261D01*
X61162380Y-97926547D02*
X60162380Y-97926547D01*
X60305238Y-98021785D01*
X60400476Y-98117023D01*
X60448095Y-98212261D01*
%TO.C,J5*%
X28114666Y-113244380D02*
X28114666Y-113958666D01*
X28067047Y-114101523D01*
X27971809Y-114196761D01*
X27828952Y-114244380D01*
X27733714Y-114244380D01*
X29067047Y-113244380D02*
X28590857Y-113244380D01*
X28543238Y-113720571D01*
X28590857Y-113672952D01*
X28686095Y-113625333D01*
X28924190Y-113625333D01*
X29019428Y-113672952D01*
X29067047Y-113720571D01*
X29114666Y-113815809D01*
X29114666Y-114053904D01*
X29067047Y-114149142D01*
X29019428Y-114196761D01*
X28924190Y-114244380D01*
X28686095Y-114244380D01*
X28590857Y-114196761D01*
X28543238Y-114149142D01*
%TO.C,U11*%
X143541904Y-40092380D02*
X143541904Y-40901904D01*
X143589523Y-40997142D01*
X143637142Y-41044761D01*
X143732380Y-41092380D01*
X143922857Y-41092380D01*
X144018095Y-41044761D01*
X144065714Y-40997142D01*
X144113333Y-40901904D01*
X144113333Y-40092380D01*
X145113333Y-41092380D02*
X144541904Y-41092380D01*
X144827619Y-41092380D02*
X144827619Y-40092380D01*
X144732380Y-40235238D01*
X144637142Y-40330476D01*
X144541904Y-40378095D01*
X146065714Y-41092380D02*
X145494285Y-41092380D01*
X145780000Y-41092380D02*
X145780000Y-40092380D01*
X145684761Y-40235238D01*
X145589523Y-40330476D01*
X145494285Y-40378095D01*
%TO.C,R31*%
X152979380Y-47632857D02*
X152503190Y-47966190D01*
X152979380Y-48204285D02*
X151979380Y-48204285D01*
X151979380Y-47823333D01*
X152027000Y-47728095D01*
X152074619Y-47680476D01*
X152169857Y-47632857D01*
X152312714Y-47632857D01*
X152407952Y-47680476D01*
X152455571Y-47728095D01*
X152503190Y-47823333D01*
X152503190Y-48204285D01*
X151979380Y-47299523D02*
X151979380Y-46680476D01*
X152360333Y-47013809D01*
X152360333Y-46870952D01*
X152407952Y-46775714D01*
X152455571Y-46728095D01*
X152550809Y-46680476D01*
X152788904Y-46680476D01*
X152884142Y-46728095D01*
X152931761Y-46775714D01*
X152979380Y-46870952D01*
X152979380Y-47156666D01*
X152931761Y-47251904D01*
X152884142Y-47299523D01*
X152979380Y-45728095D02*
X152979380Y-46299523D01*
X152979380Y-46013809D02*
X151979380Y-46013809D01*
X152122238Y-46109047D01*
X152217476Y-46204285D01*
X152265095Y-46299523D01*
%TO.C,Q3*%
X37127619Y-50895238D02*
X37080000Y-50990476D01*
X36984761Y-51085714D01*
X36841904Y-51228571D01*
X36794285Y-51323809D01*
X36794285Y-51419047D01*
X37032380Y-51371428D02*
X36984761Y-51466666D01*
X36889523Y-51561904D01*
X36699047Y-51609523D01*
X36365714Y-51609523D01*
X36175238Y-51561904D01*
X36080000Y-51466666D01*
X36032380Y-51371428D01*
X36032380Y-51180952D01*
X36080000Y-51085714D01*
X36175238Y-50990476D01*
X36365714Y-50942857D01*
X36699047Y-50942857D01*
X36889523Y-50990476D01*
X36984761Y-51085714D01*
X37032380Y-51180952D01*
X37032380Y-51371428D01*
X36032380Y-50609523D02*
X36032380Y-49990476D01*
X36413333Y-50323809D01*
X36413333Y-50180952D01*
X36460952Y-50085714D01*
X36508571Y-50038095D01*
X36603809Y-49990476D01*
X36841904Y-49990476D01*
X36937142Y-50038095D01*
X36984761Y-50085714D01*
X37032380Y-50180952D01*
X37032380Y-50466666D01*
X36984761Y-50561904D01*
X36937142Y-50609523D01*
%TO.C,C17*%
X95577142Y-93372857D02*
X95624761Y-93420476D01*
X95672380Y-93563333D01*
X95672380Y-93658571D01*
X95624761Y-93801428D01*
X95529523Y-93896666D01*
X95434285Y-93944285D01*
X95243809Y-93991904D01*
X95100952Y-93991904D01*
X94910476Y-93944285D01*
X94815238Y-93896666D01*
X94720000Y-93801428D01*
X94672380Y-93658571D01*
X94672380Y-93563333D01*
X94720000Y-93420476D01*
X94767619Y-93372857D01*
X95672380Y-92420476D02*
X95672380Y-92991904D01*
X95672380Y-92706190D02*
X94672380Y-92706190D01*
X94815238Y-92801428D01*
X94910476Y-92896666D01*
X94958095Y-92991904D01*
X94672380Y-92087142D02*
X94672380Y-91420476D01*
X95672380Y-91849047D01*
%TO.C,R28*%
X133802380Y-57792857D02*
X133326190Y-58126190D01*
X133802380Y-58364285D02*
X132802380Y-58364285D01*
X132802380Y-57983333D01*
X132850000Y-57888095D01*
X132897619Y-57840476D01*
X132992857Y-57792857D01*
X133135714Y-57792857D01*
X133230952Y-57840476D01*
X133278571Y-57888095D01*
X133326190Y-57983333D01*
X133326190Y-58364285D01*
X132897619Y-57411904D02*
X132850000Y-57364285D01*
X132802380Y-57269047D01*
X132802380Y-57030952D01*
X132850000Y-56935714D01*
X132897619Y-56888095D01*
X132992857Y-56840476D01*
X133088095Y-56840476D01*
X133230952Y-56888095D01*
X133802380Y-57459523D01*
X133802380Y-56840476D01*
X133230952Y-56269047D02*
X133183333Y-56364285D01*
X133135714Y-56411904D01*
X133040476Y-56459523D01*
X132992857Y-56459523D01*
X132897619Y-56411904D01*
X132850000Y-56364285D01*
X132802380Y-56269047D01*
X132802380Y-56078571D01*
X132850000Y-55983333D01*
X132897619Y-55935714D01*
X132992857Y-55888095D01*
X133040476Y-55888095D01*
X133135714Y-55935714D01*
X133183333Y-55983333D01*
X133230952Y-56078571D01*
X133230952Y-56269047D01*
X133278571Y-56364285D01*
X133326190Y-56411904D01*
X133421428Y-56459523D01*
X133611904Y-56459523D01*
X133707142Y-56411904D01*
X133754761Y-56364285D01*
X133802380Y-56269047D01*
X133802380Y-56078571D01*
X133754761Y-55983333D01*
X133707142Y-55935714D01*
X133611904Y-55888095D01*
X133421428Y-55888095D01*
X133326190Y-55935714D01*
X133278571Y-55983333D01*
X133230952Y-56078571D01*
%TO.C,C15*%
X125087142Y-63857142D02*
X125039523Y-63904761D01*
X124896666Y-63952380D01*
X124801428Y-63952380D01*
X124658571Y-63904761D01*
X124563333Y-63809523D01*
X124515714Y-63714285D01*
X124468095Y-63523809D01*
X124468095Y-63380952D01*
X124515714Y-63190476D01*
X124563333Y-63095238D01*
X124658571Y-63000000D01*
X124801428Y-62952380D01*
X124896666Y-62952380D01*
X125039523Y-63000000D01*
X125087142Y-63047619D01*
X126039523Y-63952380D02*
X125468095Y-63952380D01*
X125753809Y-63952380D02*
X125753809Y-62952380D01*
X125658571Y-63095238D01*
X125563333Y-63190476D01*
X125468095Y-63238095D01*
X126944285Y-62952380D02*
X126468095Y-62952380D01*
X126420476Y-63428571D01*
X126468095Y-63380952D01*
X126563333Y-63333333D01*
X126801428Y-63333333D01*
X126896666Y-63380952D01*
X126944285Y-63428571D01*
X126991904Y-63523809D01*
X126991904Y-63761904D01*
X126944285Y-63857142D01*
X126896666Y-63904761D01*
X126801428Y-63952380D01*
X126563333Y-63952380D01*
X126468095Y-63904761D01*
X126420476Y-63857142D01*
%TO.C,R10*%
X85542380Y-47632857D02*
X85066190Y-47966190D01*
X85542380Y-48204285D02*
X84542380Y-48204285D01*
X84542380Y-47823333D01*
X84590000Y-47728095D01*
X84637619Y-47680476D01*
X84732857Y-47632857D01*
X84875714Y-47632857D01*
X84970952Y-47680476D01*
X85018571Y-47728095D01*
X85066190Y-47823333D01*
X85066190Y-48204285D01*
X85542380Y-46680476D02*
X85542380Y-47251904D01*
X85542380Y-46966190D02*
X84542380Y-46966190D01*
X84685238Y-47061428D01*
X84780476Y-47156666D01*
X84828095Y-47251904D01*
X84542380Y-46061428D02*
X84542380Y-45966190D01*
X84590000Y-45870952D01*
X84637619Y-45823333D01*
X84732857Y-45775714D01*
X84923333Y-45728095D01*
X85161428Y-45728095D01*
X85351904Y-45775714D01*
X85447142Y-45823333D01*
X85494761Y-45870952D01*
X85542380Y-45966190D01*
X85542380Y-46061428D01*
X85494761Y-46156666D01*
X85447142Y-46204285D01*
X85351904Y-46251904D01*
X85161428Y-46299523D01*
X84923333Y-46299523D01*
X84732857Y-46251904D01*
X84637619Y-46204285D01*
X84590000Y-46156666D01*
X84542380Y-46061428D01*
%TO.C,R7*%
X77922380Y-47156666D02*
X77446190Y-47490000D01*
X77922380Y-47728095D02*
X76922380Y-47728095D01*
X76922380Y-47347142D01*
X76970000Y-47251904D01*
X77017619Y-47204285D01*
X77112857Y-47156666D01*
X77255714Y-47156666D01*
X77350952Y-47204285D01*
X77398571Y-47251904D01*
X77446190Y-47347142D01*
X77446190Y-47728095D01*
X76922380Y-46823333D02*
X76922380Y-46156666D01*
X77922380Y-46585238D01*
%TO.C,R1*%
X58872380Y-47156666D02*
X58396190Y-47490000D01*
X58872380Y-47728095D02*
X57872380Y-47728095D01*
X57872380Y-47347142D01*
X57920000Y-47251904D01*
X57967619Y-47204285D01*
X58062857Y-47156666D01*
X58205714Y-47156666D01*
X58300952Y-47204285D01*
X58348571Y-47251904D01*
X58396190Y-47347142D01*
X58396190Y-47728095D01*
X58872380Y-46204285D02*
X58872380Y-46775714D01*
X58872380Y-46490000D02*
X57872380Y-46490000D01*
X58015238Y-46585238D01*
X58110476Y-46680476D01*
X58158095Y-46775714D01*
%TO.C,C8*%
X119213333Y-63857142D02*
X119165714Y-63904761D01*
X119022857Y-63952380D01*
X118927619Y-63952380D01*
X118784761Y-63904761D01*
X118689523Y-63809523D01*
X118641904Y-63714285D01*
X118594285Y-63523809D01*
X118594285Y-63380952D01*
X118641904Y-63190476D01*
X118689523Y-63095238D01*
X118784761Y-63000000D01*
X118927619Y-62952380D01*
X119022857Y-62952380D01*
X119165714Y-63000000D01*
X119213333Y-63047619D01*
X119784761Y-63380952D02*
X119689523Y-63333333D01*
X119641904Y-63285714D01*
X119594285Y-63190476D01*
X119594285Y-63142857D01*
X119641904Y-63047619D01*
X119689523Y-63000000D01*
X119784761Y-62952380D01*
X119975238Y-62952380D01*
X120070476Y-63000000D01*
X120118095Y-63047619D01*
X120165714Y-63142857D01*
X120165714Y-63190476D01*
X120118095Y-63285714D01*
X120070476Y-63333333D01*
X119975238Y-63380952D01*
X119784761Y-63380952D01*
X119689523Y-63428571D01*
X119641904Y-63476190D01*
X119594285Y-63571428D01*
X119594285Y-63761904D01*
X119641904Y-63857142D01*
X119689523Y-63904761D01*
X119784761Y-63952380D01*
X119975238Y-63952380D01*
X120070476Y-63904761D01*
X120118095Y-63857142D01*
X120165714Y-63761904D01*
X120165714Y-63571428D01*
X120118095Y-63476190D01*
X120070476Y-63428571D01*
X119975238Y-63380952D01*
%TO.C,J2*%
X156682380Y-94845833D02*
X157396666Y-94845833D01*
X157539523Y-94893452D01*
X157634761Y-94988690D01*
X157682380Y-95131547D01*
X157682380Y-95226785D01*
X156777619Y-94417261D02*
X156730000Y-94369642D01*
X156682380Y-94274404D01*
X156682380Y-94036309D01*
X156730000Y-93941071D01*
X156777619Y-93893452D01*
X156872857Y-93845833D01*
X156968095Y-93845833D01*
X157110952Y-93893452D01*
X157682380Y-94464880D01*
X157682380Y-93845833D01*
%TO.C,C12*%
X86987142Y-63832142D02*
X86939523Y-63879761D01*
X86796666Y-63927380D01*
X86701428Y-63927380D01*
X86558571Y-63879761D01*
X86463333Y-63784523D01*
X86415714Y-63689285D01*
X86368095Y-63498809D01*
X86368095Y-63355952D01*
X86415714Y-63165476D01*
X86463333Y-63070238D01*
X86558571Y-62975000D01*
X86701428Y-62927380D01*
X86796666Y-62927380D01*
X86939523Y-62975000D01*
X86987142Y-63022619D01*
X87939523Y-63927380D02*
X87368095Y-63927380D01*
X87653809Y-63927380D02*
X87653809Y-62927380D01*
X87558571Y-63070238D01*
X87463333Y-63165476D01*
X87368095Y-63213095D01*
X88320476Y-63022619D02*
X88368095Y-62975000D01*
X88463333Y-62927380D01*
X88701428Y-62927380D01*
X88796666Y-62975000D01*
X88844285Y-63022619D01*
X88891904Y-63117857D01*
X88891904Y-63213095D01*
X88844285Y-63355952D01*
X88272857Y-63927380D01*
X88891904Y-63927380D01*
%TO.C,C9*%
X144633333Y-63857142D02*
X144585714Y-63904761D01*
X144442857Y-63952380D01*
X144347619Y-63952380D01*
X144204761Y-63904761D01*
X144109523Y-63809523D01*
X144061904Y-63714285D01*
X144014285Y-63523809D01*
X144014285Y-63380952D01*
X144061904Y-63190476D01*
X144109523Y-63095238D01*
X144204761Y-63000000D01*
X144347619Y-62952380D01*
X144442857Y-62952380D01*
X144585714Y-63000000D01*
X144633333Y-63047619D01*
X145109523Y-63952380D02*
X145300000Y-63952380D01*
X145395238Y-63904761D01*
X145442857Y-63857142D01*
X145538095Y-63714285D01*
X145585714Y-63523809D01*
X145585714Y-63142857D01*
X145538095Y-63047619D01*
X145490476Y-63000000D01*
X145395238Y-62952380D01*
X145204761Y-62952380D01*
X145109523Y-63000000D01*
X145061904Y-63047619D01*
X145014285Y-63142857D01*
X145014285Y-63380952D01*
X145061904Y-63476190D01*
X145109523Y-63523809D01*
X145204761Y-63571428D01*
X145395238Y-63571428D01*
X145490476Y-63523809D01*
X145538095Y-63476190D01*
X145585714Y-63380952D01*
%TO.C,U6*%
X86883095Y-68222380D02*
X86883095Y-69031904D01*
X86930714Y-69127142D01*
X86978333Y-69174761D01*
X87073571Y-69222380D01*
X87264047Y-69222380D01*
X87359285Y-69174761D01*
X87406904Y-69127142D01*
X87454523Y-69031904D01*
X87454523Y-68222380D01*
X88359285Y-68222380D02*
X88168809Y-68222380D01*
X88073571Y-68270000D01*
X88025952Y-68317619D01*
X87930714Y-68460476D01*
X87883095Y-68650952D01*
X87883095Y-69031904D01*
X87930714Y-69127142D01*
X87978333Y-69174761D01*
X88073571Y-69222380D01*
X88264047Y-69222380D01*
X88359285Y-69174761D01*
X88406904Y-69127142D01*
X88454523Y-69031904D01*
X88454523Y-68793809D01*
X88406904Y-68698571D01*
X88359285Y-68650952D01*
X88264047Y-68603333D01*
X88073571Y-68603333D01*
X87978333Y-68650952D01*
X87930714Y-68698571D01*
X87883095Y-68793809D01*
%TO.C,C6*%
X68418333Y-63857142D02*
X68370714Y-63904761D01*
X68227857Y-63952380D01*
X68132619Y-63952380D01*
X67989761Y-63904761D01*
X67894523Y-63809523D01*
X67846904Y-63714285D01*
X67799285Y-63523809D01*
X67799285Y-63380952D01*
X67846904Y-63190476D01*
X67894523Y-63095238D01*
X67989761Y-63000000D01*
X68132619Y-62952380D01*
X68227857Y-62952380D01*
X68370714Y-63000000D01*
X68418333Y-63047619D01*
X69275476Y-62952380D02*
X69085000Y-62952380D01*
X68989761Y-63000000D01*
X68942142Y-63047619D01*
X68846904Y-63190476D01*
X68799285Y-63380952D01*
X68799285Y-63761904D01*
X68846904Y-63857142D01*
X68894523Y-63904761D01*
X68989761Y-63952380D01*
X69180238Y-63952380D01*
X69275476Y-63904761D01*
X69323095Y-63857142D01*
X69370714Y-63761904D01*
X69370714Y-63523809D01*
X69323095Y-63428571D01*
X69275476Y-63380952D01*
X69180238Y-63333333D01*
X68989761Y-63333333D01*
X68894523Y-63380952D01*
X68846904Y-63428571D01*
X68799285Y-63523809D01*
%TO.C,R17*%
X108402380Y-47632857D02*
X107926190Y-47966190D01*
X108402380Y-48204285D02*
X107402380Y-48204285D01*
X107402380Y-47823333D01*
X107450000Y-47728095D01*
X107497619Y-47680476D01*
X107592857Y-47632857D01*
X107735714Y-47632857D01*
X107830952Y-47680476D01*
X107878571Y-47728095D01*
X107926190Y-47823333D01*
X107926190Y-48204285D01*
X108402380Y-46680476D02*
X108402380Y-47251904D01*
X108402380Y-46966190D02*
X107402380Y-46966190D01*
X107545238Y-47061428D01*
X107640476Y-47156666D01*
X107688095Y-47251904D01*
X107402380Y-46347142D02*
X107402380Y-45680476D01*
X108402380Y-46109047D01*
D12*
%TO.C,R13*%
X106330000Y-55230000D02*
X104490000Y-55230000D01*
X105410000Y-54280000D02*
X105410000Y-55230000D01*
X105410000Y-60020000D02*
X105410000Y-59070000D01*
X106330000Y-59070000D02*
X106330000Y-55230000D01*
X104490000Y-59070000D02*
X106330000Y-59070000D01*
X104490000Y-55230000D02*
X104490000Y-59070000D01*
%TO.C,C5*%
X67080000Y-90889000D02*
X67866000Y-90889000D01*
X67080000Y-91289000D02*
X68189000Y-91289000D01*
X67080000Y-92330000D02*
X68590000Y-92330000D01*
X63490000Y-92330000D02*
X65000000Y-92330000D01*
X64435000Y-90689000D02*
X65000000Y-90689000D01*
X67080000Y-90809000D02*
X67783000Y-90809000D01*
X67080000Y-92370000D02*
X68596000Y-92370000D01*
X63560000Y-92009000D02*
X65000000Y-92009000D01*
X63658000Y-91729000D02*
X65000000Y-91729000D01*
X67080000Y-90729000D02*
X67693000Y-90729000D01*
X67080000Y-91449000D02*
X68287000Y-91449000D01*
X67080000Y-90689000D02*
X67645000Y-90689000D01*
X63840000Y-91369000D02*
X65000000Y-91369000D01*
X63750000Y-91529000D02*
X65000000Y-91529000D01*
X64387000Y-90729000D02*
X65000000Y-90729000D01*
X67080000Y-91489000D02*
X68308000Y-91489000D01*
X67080000Y-91249000D02*
X68162000Y-91249000D01*
X65522000Y-90169000D02*
X66558000Y-90169000D01*
X64297000Y-90809000D02*
X65000000Y-90809000D01*
X67080000Y-91649000D02*
X68388000Y-91649000D01*
X64315000Y-95284775D02*
X64815000Y-95284775D01*
X67080000Y-90769000D02*
X67739000Y-90769000D01*
X64103000Y-91009000D02*
X65000000Y-91009000D01*
X67080000Y-92050000D02*
X68531000Y-92050000D01*
X64176000Y-90929000D02*
X65000000Y-90929000D01*
X63464000Y-92570000D02*
X68616000Y-92570000D01*
X67080000Y-91569000D02*
X68350000Y-91569000D01*
X67080000Y-90489000D02*
X67359000Y-90489000D01*
X63891000Y-91289000D02*
X65000000Y-91289000D01*
X67080000Y-91089000D02*
X68044000Y-91089000D01*
X63497000Y-92290000D02*
X65000000Y-92290000D01*
X64789000Y-90449000D02*
X65000000Y-90449000D01*
X67080000Y-91529000D02*
X68330000Y-91529000D01*
X63772000Y-91489000D02*
X65000000Y-91489000D01*
X63572000Y-91969000D02*
X65000000Y-91969000D01*
X63793000Y-91449000D02*
X65000000Y-91449000D01*
X64069000Y-91049000D02*
X65000000Y-91049000D01*
X63865000Y-91329000D02*
X65000000Y-91329000D01*
X65029000Y-90329000D02*
X67051000Y-90329000D01*
X67080000Y-90529000D02*
X67423000Y-90529000D01*
X67080000Y-90849000D02*
X67825000Y-90849000D01*
X64565000Y-95534775D02*
X64565000Y-95034775D01*
X63539000Y-92090000D02*
X65000000Y-92090000D01*
X63462000Y-92610000D02*
X68618000Y-92610000D01*
X67080000Y-92130000D02*
X68551000Y-92130000D01*
X67080000Y-92290000D02*
X68583000Y-92290000D01*
X63479000Y-92410000D02*
X65000000Y-92410000D01*
X63460000Y-92690000D02*
X68620000Y-92690000D01*
X64486000Y-90649000D02*
X65000000Y-90649000D01*
X67080000Y-91929000D02*
X68495000Y-91929000D01*
X67080000Y-91969000D02*
X68508000Y-91969000D01*
X67080000Y-92250000D02*
X68576000Y-92250000D01*
X63675000Y-91689000D02*
X65000000Y-91689000D01*
X67080000Y-90609000D02*
X67540000Y-90609000D01*
X64942000Y-90369000D02*
X67138000Y-90369000D01*
X67080000Y-91329000D02*
X68215000Y-91329000D01*
X63471000Y-92490000D02*
X65000000Y-92490000D01*
X65756000Y-90129000D02*
X66324000Y-90129000D01*
X63642000Y-91769000D02*
X65000000Y-91769000D01*
X63475000Y-92450000D02*
X65000000Y-92450000D01*
X63612000Y-91849000D02*
X65000000Y-91849000D01*
X67080000Y-92450000D02*
X68605000Y-92450000D01*
X64255000Y-90849000D02*
X65000000Y-90849000D01*
X67080000Y-92410000D02*
X68601000Y-92410000D01*
X67080000Y-92009000D02*
X68520000Y-92009000D01*
X67080000Y-90449000D02*
X67291000Y-90449000D01*
X67080000Y-92170000D02*
X68560000Y-92170000D01*
X64597000Y-90569000D02*
X65000000Y-90569000D01*
X63585000Y-91929000D02*
X65000000Y-91929000D01*
X67080000Y-91169000D02*
X68105000Y-91169000D01*
X63549000Y-92050000D02*
X65000000Y-92050000D01*
X67080000Y-91689000D02*
X68405000Y-91689000D01*
X64139000Y-90969000D02*
X65000000Y-90969000D01*
X63467000Y-92530000D02*
X68613000Y-92530000D01*
X63918000Y-91249000D02*
X65000000Y-91249000D01*
X67080000Y-91369000D02*
X68240000Y-91369000D01*
X63504000Y-92250000D02*
X65000000Y-92250000D01*
X67080000Y-91409000D02*
X68264000Y-91409000D01*
X64036000Y-91089000D02*
X65000000Y-91089000D01*
X67080000Y-91809000D02*
X68454000Y-91809000D01*
X67080000Y-90929000D02*
X67904000Y-90929000D01*
X63730000Y-91569000D02*
X65000000Y-91569000D01*
X63460000Y-92730000D02*
X68620000Y-92730000D01*
X63484000Y-92370000D02*
X65000000Y-92370000D01*
X63711000Y-91609000D02*
X65000000Y-91609000D01*
X64862000Y-90409000D02*
X67218000Y-90409000D01*
X67080000Y-92490000D02*
X68609000Y-92490000D01*
X64721000Y-90489000D02*
X65000000Y-90489000D01*
X67080000Y-92210000D02*
X68568000Y-92210000D01*
X67080000Y-91209000D02*
X68135000Y-91209000D01*
X67080000Y-91049000D02*
X68011000Y-91049000D01*
X67080000Y-91129000D02*
X68075000Y-91129000D01*
X67080000Y-91729000D02*
X68422000Y-91729000D01*
X65125000Y-90289000D02*
X66955000Y-90289000D01*
X67080000Y-91609000D02*
X68369000Y-91609000D01*
X63461000Y-92650000D02*
X68619000Y-92650000D01*
X64341000Y-90769000D02*
X65000000Y-90769000D01*
X64657000Y-90529000D02*
X65000000Y-90529000D01*
X63626000Y-91809000D02*
X65000000Y-91809000D01*
X67080000Y-91009000D02*
X67977000Y-91009000D01*
X63512000Y-92210000D02*
X65000000Y-92210000D01*
X63529000Y-92130000D02*
X65000000Y-92130000D01*
X63598000Y-91889000D02*
X65000000Y-91889000D01*
X64005000Y-91129000D02*
X65000000Y-91129000D01*
X65235000Y-90249000D02*
X66845000Y-90249000D01*
X67080000Y-90569000D02*
X67483000Y-90569000D01*
X63975000Y-91169000D02*
X65000000Y-91169000D01*
X67080000Y-90969000D02*
X67941000Y-90969000D01*
X63816000Y-91409000D02*
X65000000Y-91409000D01*
X65363000Y-90209000D02*
X66717000Y-90209000D01*
X67080000Y-91889000D02*
X68482000Y-91889000D01*
X63945000Y-91209000D02*
X65000000Y-91209000D01*
X63692000Y-91649000D02*
X65000000Y-91649000D01*
X67080000Y-91849000D02*
X68468000Y-91849000D01*
X67080000Y-90649000D02*
X67594000Y-90649000D01*
X67080000Y-91769000D02*
X68438000Y-91769000D01*
X64214000Y-90889000D02*
X65000000Y-90889000D01*
X67080000Y-92090000D02*
X68541000Y-92090000D01*
X63520000Y-92170000D02*
X65000000Y-92170000D01*
X64540000Y-90609000D02*
X65000000Y-90609000D01*
X68660000Y-92730000D02*
G75*
G03*
X68660000Y-92730000I-2620000J0D01*
G01*
%TO.C,C2*%
X91290000Y-101100000D02*
X91290000Y-97060000D01*
X94130000Y-101100000D02*
X94130000Y-97060000D01*
X91290000Y-97060000D02*
X91915000Y-97060000D01*
X91290000Y-101100000D02*
X91915000Y-101100000D01*
X93505000Y-97060000D02*
X94130000Y-97060000D01*
X93505000Y-101100000D02*
X94130000Y-101100000D01*
%TO.C,R11*%
X86010000Y-59070000D02*
X86010000Y-55230000D01*
X86010000Y-55230000D02*
X84170000Y-55230000D01*
X85090000Y-60020000D02*
X85090000Y-59070000D01*
X84170000Y-55230000D02*
X84170000Y-59070000D01*
X85090000Y-54280000D02*
X85090000Y-55230000D01*
X84170000Y-59070000D02*
X86010000Y-59070000D01*
%TO.C,Q8*%
X37520000Y-61715000D02*
X37520000Y-65315000D01*
X41970001Y-63515000D02*
G75*
G03*
X37531522Y-61676522I-2600001J0D01*
G01*
X37531522Y-65353478D02*
G75*
G03*
X41970000Y-63515000I1838478J1838478D01*
G01*
%TO.C,C20*%
X51570000Y-67800000D02*
X51570000Y-67175000D01*
X47530000Y-67800000D02*
X47530000Y-67175000D01*
X51570000Y-70015000D02*
X47530000Y-70015000D01*
X47530000Y-70015000D02*
X47530000Y-69390000D01*
X51570000Y-70015000D02*
X51570000Y-69390000D01*
X51570000Y-67175000D02*
X47530000Y-67175000D01*
%TO.C,U9*%
X110765000Y-87685000D02*
X115265000Y-87685000D01*
X110765000Y-69785000D02*
X110765000Y-87685000D01*
X112015000Y-69785000D02*
X110765000Y-69785000D01*
X115265000Y-69785000D02*
X114015000Y-69785000D01*
X115265000Y-87685000D02*
X115265000Y-69785000D01*
X112015000Y-69785000D02*
G75*
G03*
X114015000Y-69785000I1000000J0D01*
G01*
%TO.C,R33*%
X83170000Y-94900000D02*
X87010000Y-94900000D01*
X83170000Y-93060000D02*
X83170000Y-94900000D01*
X87010000Y-93060000D02*
X83170000Y-93060000D01*
X87960000Y-93980000D02*
X87010000Y-93980000D01*
X82220000Y-93980000D02*
X83170000Y-93980000D01*
X87010000Y-94900000D02*
X87010000Y-93060000D01*
%TO.C,R9*%
X83470000Y-48910000D02*
X83470000Y-45070000D01*
X82550000Y-49860000D02*
X82550000Y-48910000D01*
X81630000Y-45070000D02*
X81630000Y-48910000D01*
X83470000Y-45070000D02*
X81630000Y-45070000D01*
X81630000Y-48910000D02*
X83470000Y-48910000D01*
X82550000Y-44120000D02*
X82550000Y-45070000D01*
%TO.C,C4*%
X74392000Y-95749000D02*
X75360000Y-95749000D01*
X74120000Y-96790000D02*
X78280000Y-96790000D01*
X74946000Y-95109000D02*
X75360000Y-95109000D01*
X74293000Y-95949000D02*
X75360000Y-95949000D01*
X74158000Y-96390000D02*
X75360000Y-96390000D01*
X74349000Y-95829000D02*
X75360000Y-95829000D01*
X74804000Y-95229000D02*
X75360000Y-95229000D01*
X75432000Y-94829000D02*
X76968000Y-94829000D01*
X74195000Y-96230000D02*
X75360000Y-96230000D01*
X74120000Y-96750000D02*
X78280000Y-96750000D01*
X77040000Y-95989000D02*
X78124000Y-95989000D01*
X77040000Y-95949000D02*
X78107000Y-95949000D01*
X74613000Y-95429000D02*
X75360000Y-95429000D01*
X74762000Y-95269000D02*
X75360000Y-95269000D01*
X77040000Y-95749000D02*
X78008000Y-95749000D01*
X77040000Y-95629000D02*
X77935000Y-95629000D01*
X74311000Y-95909000D02*
X75360000Y-95909000D01*
X74121000Y-96710000D02*
X78279000Y-96710000D01*
X74232000Y-96110000D02*
X75360000Y-96110000D01*
X77040000Y-95909000D02*
X78089000Y-95909000D01*
X74144000Y-96470000D02*
X75360000Y-96470000D01*
X74260000Y-96029000D02*
X75360000Y-96029000D01*
X77040000Y-95349000D02*
X77716000Y-95349000D01*
X75260000Y-94909000D02*
X77140000Y-94909000D01*
X75005000Y-99059801D02*
X75005000Y-98659801D01*
X74492000Y-95589000D02*
X75360000Y-95589000D01*
X75663000Y-94749000D02*
X76737000Y-94749000D01*
X74581000Y-95469000D02*
X75360000Y-95469000D01*
X75830000Y-94709000D02*
X76570000Y-94709000D01*
X77040000Y-96110000D02*
X78168000Y-96110000D01*
X75341000Y-94869000D02*
X77059000Y-94869000D01*
X74805000Y-98859801D02*
X75205000Y-98859801D01*
X74175000Y-96310000D02*
X75360000Y-96310000D01*
X74849000Y-95189000D02*
X75360000Y-95189000D01*
X74896000Y-95149000D02*
X75360000Y-95149000D01*
X77040000Y-95189000D02*
X77551000Y-95189000D01*
X74550000Y-95509000D02*
X75360000Y-95509000D01*
X77040000Y-95269000D02*
X77638000Y-95269000D01*
X77040000Y-95869000D02*
X78070000Y-95869000D01*
X77040000Y-95509000D02*
X77850000Y-95509000D01*
X75536000Y-94789000D02*
X76864000Y-94789000D01*
X74722000Y-95309000D02*
X75360000Y-95309000D01*
X77040000Y-94989000D02*
X77280000Y-94989000D01*
X77040000Y-95469000D02*
X77819000Y-95469000D01*
X77040000Y-95589000D02*
X77908000Y-95589000D01*
X74330000Y-95869000D02*
X75360000Y-95869000D01*
X75058000Y-95029000D02*
X75360000Y-95029000D01*
X74246000Y-96069000D02*
X75360000Y-96069000D01*
X77040000Y-95709000D02*
X77985000Y-95709000D01*
X77040000Y-96069000D02*
X78154000Y-96069000D01*
X74648000Y-95389000D02*
X75360000Y-95389000D01*
X77040000Y-96310000D02*
X78225000Y-96310000D01*
X77040000Y-96470000D02*
X78256000Y-96470000D01*
X77040000Y-96430000D02*
X78250000Y-96430000D01*
X77040000Y-95309000D02*
X77678000Y-95309000D01*
X77040000Y-96550000D02*
X78267000Y-96550000D01*
X77040000Y-96230000D02*
X78205000Y-96230000D01*
X74150000Y-96430000D02*
X75360000Y-96430000D01*
X77040000Y-95229000D02*
X77596000Y-95229000D01*
X74133000Y-96550000D02*
X75360000Y-96550000D01*
X75187000Y-94949000D02*
X77213000Y-94949000D01*
X77040000Y-95389000D02*
X77752000Y-95389000D01*
X74276000Y-95989000D02*
X75360000Y-95989000D01*
X74520000Y-95549000D02*
X75360000Y-95549000D01*
X77040000Y-95789000D02*
X78030000Y-95789000D01*
X74184000Y-96270000D02*
X75360000Y-96270000D01*
X74123000Y-96670000D02*
X78277000Y-96670000D01*
X74206000Y-96190000D02*
X75360000Y-96190000D01*
X77040000Y-95149000D02*
X77504000Y-95149000D01*
X77040000Y-95829000D02*
X78051000Y-95829000D01*
X75000000Y-95069000D02*
X75360000Y-95069000D01*
X74465000Y-95629000D02*
X75360000Y-95629000D01*
X77040000Y-96190000D02*
X78194000Y-96190000D01*
X75120000Y-94989000D02*
X75360000Y-94989000D01*
X77040000Y-96590000D02*
X78271000Y-96590000D01*
X74440000Y-95669000D02*
X75360000Y-95669000D01*
X74166000Y-96350000D02*
X75360000Y-96350000D01*
X74415000Y-95709000D02*
X75360000Y-95709000D01*
X74370000Y-95789000D02*
X75360000Y-95789000D01*
X77040000Y-95669000D02*
X77960000Y-95669000D01*
X74138000Y-96510000D02*
X75360000Y-96510000D01*
X74126000Y-96630000D02*
X78274000Y-96630000D01*
X77040000Y-95069000D02*
X77400000Y-95069000D01*
X74684000Y-95349000D02*
X75360000Y-95349000D01*
X77040000Y-96029000D02*
X78140000Y-96029000D01*
X77040000Y-96150000D02*
X78182000Y-96150000D01*
X77040000Y-96510000D02*
X78262000Y-96510000D01*
X77040000Y-95109000D02*
X77454000Y-95109000D01*
X77040000Y-96390000D02*
X78242000Y-96390000D01*
X77040000Y-95029000D02*
X77342000Y-95029000D01*
X77040000Y-95549000D02*
X77880000Y-95549000D01*
X74129000Y-96590000D02*
X75360000Y-96590000D01*
X77040000Y-96350000D02*
X78234000Y-96350000D01*
X74218000Y-96150000D02*
X75360000Y-96150000D01*
X77040000Y-95429000D02*
X77787000Y-95429000D01*
X77040000Y-96270000D02*
X78216000Y-96270000D01*
X78320000Y-96790000D02*
G75*
G03*
X78320000Y-96790000I-2120000J0D01*
G01*
%TO.C,C3*%
X81130000Y-97020000D02*
X81130000Y-101060000D01*
X83970000Y-97020000D02*
X83345000Y-97020000D01*
X81755000Y-97020000D02*
X81130000Y-97020000D01*
X83970000Y-97020000D02*
X83970000Y-101060000D01*
X81755000Y-101060000D02*
X81130000Y-101060000D01*
X83970000Y-101060000D02*
X83345000Y-101060000D01*
%TO.C,R27*%
X135890000Y-60020000D02*
X135890000Y-59070000D01*
X136810000Y-55230000D02*
X134970000Y-55230000D01*
X136810000Y-59070000D02*
X136810000Y-55230000D01*
X135890000Y-54280000D02*
X135890000Y-55230000D01*
X134970000Y-55230000D02*
X134970000Y-59070000D01*
X134970000Y-59070000D02*
X136810000Y-59070000D01*
%TO.C,R23*%
X127350000Y-48910000D02*
X129190000Y-48910000D01*
X129190000Y-45070000D02*
X127350000Y-45070000D01*
X127350000Y-45070000D02*
X127350000Y-48910000D01*
X129190000Y-48910000D02*
X129190000Y-45070000D01*
X128270000Y-44120000D02*
X128270000Y-45070000D01*
X128270000Y-49860000D02*
X128270000Y-48910000D01*
%TO.C,U8*%
X117130000Y-41850000D02*
X117130000Y-62290000D01*
X120380000Y-62290000D02*
X121630000Y-62290000D01*
X117130000Y-62290000D02*
X118380000Y-62290000D01*
X121630000Y-41850000D02*
X117130000Y-41850000D01*
X121630000Y-62290000D02*
X121630000Y-41850000D01*
X120380000Y-62290000D02*
G75*
G03*
X118380000Y-62290000I-1000000J0D01*
G01*
%TO.C,C16*%
X136415000Y-64615000D02*
X140455000Y-64615000D01*
X136415000Y-67455000D02*
X140455000Y-67455000D01*
X140455000Y-66830000D02*
X140455000Y-67455000D01*
X136415000Y-64615000D02*
X136415000Y-65240000D01*
X136415000Y-66830000D02*
X136415000Y-67455000D01*
X140455000Y-64615000D02*
X140455000Y-65240000D01*
%TO.C,R34*%
X83130000Y-90520000D02*
X83130000Y-92360000D01*
X86970000Y-92360000D02*
X86970000Y-90520000D01*
X82180000Y-91440000D02*
X83130000Y-91440000D01*
X86970000Y-90520000D02*
X83130000Y-90520000D01*
X87920000Y-91440000D02*
X86970000Y-91440000D01*
X83130000Y-92360000D02*
X86970000Y-92360000D01*
%TO.C,Q4*%
X37520000Y-49015000D02*
X37520000Y-52615000D01*
X37531522Y-52653478D02*
G75*
G03*
X41970000Y-50815000I1838478J1838478D01*
G01*
X41970001Y-50815000D02*
G75*
G03*
X37531522Y-48976522I-2600001J0D01*
G01*
%TO.C,U13*%
X148865000Y-87680000D02*
X153365000Y-87680000D01*
X153365000Y-87680000D02*
X153365000Y-69780000D01*
X150115000Y-69780000D02*
X148865000Y-69780000D01*
X153365000Y-69780000D02*
X152115000Y-69780000D01*
X148865000Y-69780000D02*
X148865000Y-87680000D01*
X150115000Y-69780000D02*
G75*
G03*
X152115000Y-69780000I1000000J0D01*
G01*
%TO.C,R32*%
X154020000Y-45070000D02*
X154020000Y-48910000D01*
X154940000Y-49860000D02*
X154940000Y-48910000D01*
X154940000Y-44120000D02*
X154940000Y-45070000D01*
X155860000Y-48910000D02*
X155860000Y-45070000D01*
X154020000Y-48910000D02*
X155860000Y-48910000D01*
X155860000Y-45070000D02*
X154020000Y-45070000D01*
%TO.C,R8*%
X80010000Y-49860000D02*
X80010000Y-48910000D01*
X80930000Y-45070000D02*
X79090000Y-45070000D01*
X80010000Y-44120000D02*
X80010000Y-45070000D01*
X79090000Y-48910000D02*
X80930000Y-48910000D01*
X80930000Y-48910000D02*
X80930000Y-45070000D01*
X79090000Y-45070000D02*
X79090000Y-48910000D01*
%TO.C,C7*%
X96050000Y-67445000D02*
X96050000Y-66820000D01*
X96050000Y-65230000D02*
X96050000Y-64605000D01*
X96050000Y-67445000D02*
X92010000Y-67445000D01*
X96050000Y-64605000D02*
X92010000Y-64605000D01*
X92010000Y-67445000D02*
X92010000Y-66820000D01*
X92010000Y-65230000D02*
X92010000Y-64605000D01*
%TO.C,Q2*%
X37520000Y-42665000D02*
X37520000Y-46265000D01*
X37531522Y-46303478D02*
G75*
G03*
X41970000Y-44465000I1838478J1838478D01*
G01*
X41970001Y-44465000D02*
G75*
G03*
X37531522Y-42626522I-2600001J0D01*
G01*
%TO.C,U7*%
X102595000Y-87670000D02*
X102595000Y-69770000D01*
X99345000Y-69770000D02*
X98095000Y-69770000D01*
X98095000Y-87670000D02*
X102595000Y-87670000D01*
X98095000Y-69770000D02*
X98095000Y-87670000D01*
X102595000Y-69770000D02*
X101345000Y-69770000D01*
X99345000Y-69770000D02*
G75*
G03*
X101345000Y-69770000I1000000J0D01*
G01*
%TO.C,R15*%
X102870000Y-49860000D02*
X102870000Y-48910000D01*
X101950000Y-45070000D02*
X101950000Y-48910000D01*
X103790000Y-45070000D02*
X101950000Y-45070000D01*
X103790000Y-48910000D02*
X103790000Y-45070000D01*
X101950000Y-48910000D02*
X103790000Y-48910000D01*
X102870000Y-44120000D02*
X102870000Y-45070000D01*
%TO.C,R16*%
X104490000Y-45070000D02*
X104490000Y-48910000D01*
X106330000Y-45070000D02*
X104490000Y-45070000D01*
X106330000Y-48910000D02*
X106330000Y-45070000D01*
X105410000Y-49860000D02*
X105410000Y-48910000D01*
X104490000Y-48910000D02*
X106330000Y-48910000D01*
X105410000Y-44120000D02*
X105410000Y-45070000D01*
%TO.C,R18*%
X109570000Y-48910000D02*
X111410000Y-48910000D01*
X109570000Y-45070000D02*
X109570000Y-48910000D01*
X111410000Y-48910000D02*
X111410000Y-45070000D01*
X110490000Y-44120000D02*
X110490000Y-45070000D01*
X110490000Y-49860000D02*
X110490000Y-48910000D01*
X111410000Y-45070000D02*
X109570000Y-45070000D01*
%TO.C,Q16*%
X37490000Y-87100000D02*
X37490000Y-90700000D01*
X41940001Y-88900000D02*
G75*
G03*
X37501522Y-87061522I-2600001J0D01*
G01*
X37501522Y-90738478D02*
G75*
G03*
X41940000Y-88900000I1838478J1838478D01*
G01*
%TO.C,Q5*%
X31170000Y-55350000D02*
X31170000Y-58950000D01*
X35620001Y-57150000D02*
G75*
G03*
X31181522Y-55311522I-2600001J0D01*
G01*
X31181522Y-58988478D02*
G75*
G03*
X35620000Y-57150000I1838478J1838478D01*
G01*
%TO.C,R30*%
X153320000Y-55230000D02*
X151480000Y-55230000D01*
X152400000Y-60020000D02*
X152400000Y-59070000D01*
X151480000Y-59070000D02*
X153320000Y-59070000D01*
X152400000Y-54280000D02*
X152400000Y-55230000D01*
X153320000Y-59070000D02*
X153320000Y-55230000D01*
X151480000Y-55230000D02*
X151480000Y-59070000D01*
%TO.C,C14*%
X110975000Y-66835000D02*
X110975000Y-67460000D01*
X115015000Y-66835000D02*
X115015000Y-67460000D01*
X110975000Y-67460000D02*
X115015000Y-67460000D01*
X115015000Y-64620000D02*
X115015000Y-65245000D01*
X110975000Y-64620000D02*
X110975000Y-65245000D01*
X110975000Y-64620000D02*
X115015000Y-64620000D01*
%TO.C,R26*%
X136810000Y-48910000D02*
X136810000Y-45070000D01*
X134970000Y-48910000D02*
X136810000Y-48910000D01*
X136810000Y-45070000D02*
X134970000Y-45070000D01*
X134970000Y-45070000D02*
X134970000Y-48910000D01*
X135890000Y-49860000D02*
X135890000Y-48910000D01*
X135890000Y-44120000D02*
X135890000Y-45070000D01*
%TO.C,U2*%
X69565000Y-62305000D02*
X70815000Y-62305000D01*
X66315000Y-41865000D02*
X66315000Y-62305000D01*
X66315000Y-62305000D02*
X67565000Y-62305000D01*
X70815000Y-41865000D02*
X66315000Y-41865000D01*
X70815000Y-62305000D02*
X70815000Y-41865000D01*
X69565000Y-62305000D02*
G75*
G03*
X67565000Y-62305000I-1000000J0D01*
G01*
%TO.C,R25*%
X134270000Y-45070000D02*
X132430000Y-45070000D01*
X132430000Y-48910000D02*
X134270000Y-48910000D01*
X134270000Y-48910000D02*
X134270000Y-45070000D01*
X133350000Y-44120000D02*
X133350000Y-45070000D01*
X133350000Y-49860000D02*
X133350000Y-48910000D01*
X132430000Y-45070000D02*
X132430000Y-48910000D01*
%TO.C,R19*%
X111410000Y-59070000D02*
X111410000Y-55230000D01*
X109570000Y-59070000D02*
X111410000Y-59070000D01*
X110490000Y-60020000D02*
X110490000Y-59070000D01*
X110490000Y-54280000D02*
X110490000Y-55230000D01*
X109570000Y-55230000D02*
X109570000Y-59070000D01*
X111410000Y-55230000D02*
X109570000Y-55230000D01*
%TO.C,R20*%
X108870000Y-55230000D02*
X107030000Y-55230000D01*
X107950000Y-54280000D02*
X107950000Y-55230000D01*
X107950000Y-60020000D02*
X107950000Y-59070000D01*
X108870000Y-59070000D02*
X108870000Y-55230000D01*
X107030000Y-55230000D02*
X107030000Y-59070000D01*
X107030000Y-59070000D02*
X108870000Y-59070000D01*
%TO.C,Q1*%
X31170000Y-42650000D02*
X31170000Y-46250000D01*
X31181522Y-46288478D02*
G75*
G03*
X35620000Y-44450000I1838478J1838478D01*
G01*
X35620001Y-44450000D02*
G75*
G03*
X31181522Y-42611522I-2600001J0D01*
G01*
%TO.C,Q11*%
X31140000Y-74400000D02*
X31140000Y-78000000D01*
X35590001Y-76200000D02*
G75*
G03*
X31151522Y-74361522I-2600001J0D01*
G01*
X31151522Y-78038478D02*
G75*
G03*
X35590000Y-76200000I1838478J1838478D01*
G01*
%TO.C,R2*%
X60040000Y-45070000D02*
X60040000Y-48910000D01*
X61880000Y-45070000D02*
X60040000Y-45070000D01*
X61880000Y-48910000D02*
X61880000Y-45070000D01*
X60960000Y-49860000D02*
X60960000Y-48910000D01*
X60040000Y-48910000D02*
X61880000Y-48910000D01*
X60960000Y-44120000D02*
X60960000Y-45070000D01*
%TO.C,R6*%
X77470000Y-54280000D02*
X77470000Y-55230000D01*
X77470000Y-60020000D02*
X77470000Y-59070000D01*
X76550000Y-55230000D02*
X76550000Y-59070000D01*
X78390000Y-59070000D02*
X78390000Y-55230000D01*
X78390000Y-55230000D02*
X76550000Y-55230000D01*
X76550000Y-59070000D02*
X78390000Y-59070000D01*
%TO.C,Q14*%
X37475000Y-80750000D02*
X37475000Y-84350000D01*
X37486522Y-84388478D02*
G75*
G03*
X41925000Y-82550000I1838478J1838478D01*
G01*
X41925001Y-82550000D02*
G75*
G03*
X37486522Y-80711522I-2600001J0D01*
G01*
%TO.C,R21*%
X131730000Y-59070000D02*
X131730000Y-55230000D01*
X129890000Y-55230000D02*
X129890000Y-59070000D01*
X131730000Y-55230000D02*
X129890000Y-55230000D01*
X129890000Y-59070000D02*
X131730000Y-59070000D01*
X130810000Y-54280000D02*
X130810000Y-55230000D01*
X130810000Y-60020000D02*
X130810000Y-59070000D01*
%TO.C,C11*%
X72875000Y-64635000D02*
X72875000Y-65260000D01*
X76915000Y-66850000D02*
X76915000Y-67475000D01*
X72875000Y-66850000D02*
X72875000Y-67475000D01*
X76915000Y-64635000D02*
X76915000Y-65260000D01*
X72875000Y-67475000D02*
X76915000Y-67475000D01*
X72875000Y-64635000D02*
X76915000Y-64635000D01*
%TO.C,J7*%
X136265000Y-112420000D02*
X135505000Y-112420000D01*
X118485000Y-112420000D02*
X117725000Y-112420000D01*
X116835000Y-103760000D02*
X116835000Y-106420000D01*
X128645000Y-103362929D02*
X128645000Y-103760000D01*
X138505000Y-106420000D02*
X138505000Y-112420000D01*
X135505000Y-103362929D02*
X135505000Y-103760000D01*
X123565000Y-103362929D02*
X123565000Y-103760000D01*
X118485000Y-103362929D02*
X118485000Y-103760000D01*
X136265000Y-103362929D02*
X136265000Y-103760000D01*
X122805000Y-103362929D02*
X122805000Y-103760000D01*
X120265000Y-112420000D02*
X120265000Y-106420000D01*
X130425000Y-103362929D02*
X130425000Y-103760000D01*
X138745000Y-106420000D02*
X138745000Y-112420000D01*
X123565000Y-106420000D02*
X123565000Y-112420000D01*
X115945000Y-112420000D02*
X115185000Y-112420000D01*
X115945000Y-103362929D02*
X115945000Y-103760000D01*
X117725000Y-112420000D02*
X117725000Y-106420000D01*
X138805000Y-112420000D02*
X138045000Y-112420000D01*
X126105000Y-106420000D02*
X126105000Y-112420000D01*
X131185000Y-106420000D02*
X131185000Y-112420000D01*
X126105000Y-112420000D02*
X125345000Y-112420000D01*
X121915000Y-103760000D02*
X121915000Y-106420000D01*
X129535000Y-103760000D02*
X129535000Y-106420000D01*
X138385000Y-106420000D02*
X138385000Y-112420000D01*
X117725000Y-103362929D02*
X117725000Y-103760000D01*
X138265000Y-106420000D02*
X138265000Y-112420000D01*
X131185000Y-103362929D02*
X131185000Y-103760000D01*
X133725000Y-103362929D02*
X133725000Y-103760000D01*
X138425000Y-101050000D02*
X139695000Y-101050000D01*
X138805000Y-106420000D02*
X138805000Y-112420000D01*
X121025000Y-112420000D02*
X120265000Y-112420000D01*
X131185000Y-112420000D02*
X130425000Y-112420000D01*
X120265000Y-103362929D02*
X120265000Y-103760000D01*
X132075000Y-103760000D02*
X132075000Y-106420000D01*
X137155000Y-103760000D02*
X137155000Y-106420000D01*
X135505000Y-112420000D02*
X135505000Y-106420000D01*
X133725000Y-112420000D02*
X132965000Y-112420000D01*
X118485000Y-106420000D02*
X118485000Y-112420000D01*
X139695000Y-101050000D02*
X139695000Y-102320000D01*
X115185000Y-103362929D02*
X115185000Y-103760000D01*
X128645000Y-106420000D02*
X128645000Y-112420000D01*
X124455000Y-103760000D02*
X124455000Y-106420000D01*
X133725000Y-106420000D02*
X133725000Y-112420000D01*
X136265000Y-106420000D02*
X136265000Y-112420000D01*
X126995000Y-103760000D02*
X126995000Y-106420000D01*
X139755000Y-103760000D02*
X114235000Y-103760000D01*
X115185000Y-112420000D02*
X115185000Y-106420000D01*
X134615000Y-103760000D02*
X134615000Y-106420000D01*
X128645000Y-112420000D02*
X127885000Y-112420000D01*
X115945000Y-106420000D02*
X115945000Y-112420000D01*
X114235000Y-103760000D02*
X114235000Y-106420000D01*
X125345000Y-112420000D02*
X125345000Y-106420000D01*
X119375000Y-103760000D02*
X119375000Y-106420000D01*
X138805000Y-103430000D02*
X138805000Y-103760000D01*
X126105000Y-103362929D02*
X126105000Y-103760000D01*
X121025000Y-106420000D02*
X121025000Y-112420000D01*
X138045000Y-112420000D02*
X138045000Y-106420000D01*
X125345000Y-103362929D02*
X125345000Y-103760000D01*
X114235000Y-106420000D02*
X139755000Y-106420000D01*
X138045000Y-103430000D02*
X138045000Y-103760000D01*
X138145000Y-106420000D02*
X138145000Y-112420000D01*
X122805000Y-112420000D02*
X122805000Y-106420000D01*
X132965000Y-103362929D02*
X132965000Y-103760000D01*
X130425000Y-112420000D02*
X130425000Y-106420000D01*
X139755000Y-106420000D02*
X139755000Y-103760000D01*
X127885000Y-112420000D02*
X127885000Y-106420000D01*
X121025000Y-103362929D02*
X121025000Y-103760000D01*
X127885000Y-103362929D02*
X127885000Y-103760000D01*
X123565000Y-112420000D02*
X122805000Y-112420000D01*
X132965000Y-112420000D02*
X132965000Y-106420000D01*
X138625000Y-106420000D02*
X138625000Y-112420000D01*
%TO.C,Q9*%
X31140000Y-68050000D02*
X31140000Y-71650000D01*
X35590001Y-69850000D02*
G75*
G03*
X31151522Y-68011522I-2600001J0D01*
G01*
X31151522Y-71688478D02*
G75*
G03*
X35590000Y-69850000I1838478J1838478D01*
G01*
%TO.C,U4*%
X77150000Y-69800000D02*
X75900000Y-69800000D01*
X73900000Y-69800000D02*
X72650000Y-69800000D01*
X72650000Y-69800000D02*
X72650000Y-87700000D01*
X77150000Y-87700000D02*
X77150000Y-69800000D01*
X72650000Y-87700000D02*
X77150000Y-87700000D01*
X73900000Y-69800000D02*
G75*
G03*
X75900000Y-69800000I1000000J0D01*
G01*
%TO.C,C13*%
X98360000Y-67445000D02*
X102400000Y-67445000D01*
X98360000Y-64605000D02*
X102400000Y-64605000D01*
X102400000Y-66820000D02*
X102400000Y-67445000D01*
X102400000Y-64605000D02*
X102400000Y-65230000D01*
X98360000Y-64605000D02*
X98360000Y-65230000D01*
X98360000Y-66820000D02*
X98360000Y-67445000D01*
%TO.C,Q10*%
X37490000Y-68050000D02*
X37490000Y-71650000D01*
X41940001Y-69850000D02*
G75*
G03*
X37501522Y-68011522I-2600001J0D01*
G01*
X37501522Y-71688478D02*
G75*
G03*
X41940000Y-69850000I1838478J1838478D01*
G01*
%TO.C,R22*%
X128270000Y-60020000D02*
X128270000Y-59070000D01*
X127350000Y-55230000D02*
X127350000Y-59070000D01*
X129190000Y-59070000D02*
X129190000Y-55230000D01*
X129190000Y-55230000D02*
X127350000Y-55230000D01*
X128270000Y-54280000D02*
X128270000Y-55230000D01*
X127350000Y-59070000D02*
X129190000Y-59070000D01*
%TO.C,U1*%
X89480000Y-100860000D02*
X89480000Y-97260000D01*
X89468478Y-97221522D02*
G75*
G03*
X85030000Y-99060000I-1838478J-1838478D01*
G01*
X85029999Y-99060000D02*
G75*
G03*
X89468478Y-100898478I2600001J0D01*
G01*
%TO.C,R29*%
X155860000Y-55230000D02*
X154020000Y-55230000D01*
X154940000Y-54280000D02*
X154940000Y-55230000D01*
X154020000Y-59070000D02*
X155860000Y-59070000D01*
X154020000Y-55230000D02*
X154020000Y-59070000D01*
X154940000Y-60020000D02*
X154940000Y-59070000D01*
X155860000Y-59070000D02*
X155860000Y-55230000D01*
%TO.C,Q7*%
X31170000Y-61700000D02*
X31170000Y-65300000D01*
X35620001Y-63500000D02*
G75*
G03*
X31181522Y-61661522I-2600001J0D01*
G01*
X31181522Y-65338478D02*
G75*
G03*
X35620000Y-63500000I1838478J1838478D01*
G01*
%TO.C,U3*%
X64450000Y-87700000D02*
X64450000Y-69800000D01*
X59950000Y-87700000D02*
X64450000Y-87700000D01*
X59950000Y-69800000D02*
X59950000Y-87700000D01*
X64450000Y-69800000D02*
X63200000Y-69800000D01*
X61200000Y-69800000D02*
X59950000Y-69800000D01*
X61200000Y-69800000D02*
G75*
G03*
X63200000Y-69800000I1000000J0D01*
G01*
%TO.C,C19*%
X47490000Y-41775000D02*
X51530000Y-41775000D01*
X51530000Y-41775000D02*
X51530000Y-42400000D01*
X47490000Y-44615000D02*
X51530000Y-44615000D01*
X47490000Y-41775000D02*
X47490000Y-42400000D01*
X51530000Y-43990000D02*
X51530000Y-44615000D01*
X47490000Y-43990000D02*
X47490000Y-44615000D01*
%TO.C,U15*%
X48515000Y-71120000D02*
X47265000Y-71120000D01*
X51765000Y-91560000D02*
X51765000Y-71120000D01*
X51765000Y-71120000D02*
X50515000Y-71120000D01*
X47265000Y-91560000D02*
X51765000Y-91560000D01*
X47265000Y-71120000D02*
X47265000Y-91560000D01*
X48515000Y-71120000D02*
G75*
G03*
X50515000Y-71120000I1000000J0D01*
G01*
%TO.C,R12*%
X82550000Y-60020000D02*
X82550000Y-59070000D01*
X81630000Y-59070000D02*
X83470000Y-59070000D01*
X82550000Y-54280000D02*
X82550000Y-55230000D01*
X81630000Y-55230000D02*
X81630000Y-59070000D01*
X83470000Y-55230000D02*
X81630000Y-55230000D01*
X83470000Y-59070000D02*
X83470000Y-55230000D01*
%TO.C,C18*%
X153115000Y-66830000D02*
X153115000Y-67455000D01*
X149075000Y-64615000D02*
X153115000Y-64615000D01*
X149075000Y-64615000D02*
X149075000Y-65240000D01*
X149075000Y-67455000D02*
X153115000Y-67455000D01*
X149075000Y-66830000D02*
X149075000Y-67455000D01*
X153115000Y-64615000D02*
X153115000Y-65240000D01*
%TO.C,R3*%
X60040000Y-55230000D02*
X60040000Y-59070000D01*
X61880000Y-55230000D02*
X60040000Y-55230000D01*
X60960000Y-54280000D02*
X60960000Y-55230000D01*
X60040000Y-59070000D02*
X61880000Y-59070000D01*
X61880000Y-59070000D02*
X61880000Y-55230000D01*
X60960000Y-60020000D02*
X60960000Y-59070000D01*
%TO.C,C10*%
X64215000Y-66850000D02*
X64215000Y-67475000D01*
X60175000Y-66850000D02*
X60175000Y-67475000D01*
X60175000Y-64635000D02*
X60175000Y-65260000D01*
X60175000Y-64635000D02*
X64215000Y-64635000D01*
X60175000Y-67475000D02*
X64215000Y-67475000D01*
X64215000Y-64635000D02*
X64215000Y-65260000D01*
%TO.C,C1*%
X63497000Y-99870000D02*
X65000000Y-99870000D01*
X67080000Y-98429000D02*
X67825000Y-98429000D01*
X67080000Y-98869000D02*
X68189000Y-98869000D01*
X67080000Y-98749000D02*
X68105000Y-98749000D01*
X63772000Y-99069000D02*
X65000000Y-99069000D01*
X63750000Y-99109000D02*
X65000000Y-99109000D01*
X63816000Y-98989000D02*
X65000000Y-98989000D01*
X67080000Y-98149000D02*
X67483000Y-98149000D01*
X63520000Y-99750000D02*
X65000000Y-99750000D01*
X63945000Y-98789000D02*
X65000000Y-98789000D01*
X64214000Y-98469000D02*
X65000000Y-98469000D01*
X63598000Y-99469000D02*
X65000000Y-99469000D01*
X67080000Y-100030000D02*
X68605000Y-100030000D01*
X64255000Y-98429000D02*
X65000000Y-98429000D01*
X63793000Y-99029000D02*
X65000000Y-99029000D01*
X64862000Y-97989000D02*
X67218000Y-97989000D01*
X63461000Y-100230000D02*
X68619000Y-100230000D01*
X67080000Y-99509000D02*
X68495000Y-99509000D01*
X67080000Y-99069000D02*
X68308000Y-99069000D01*
X63549000Y-99630000D02*
X65000000Y-99630000D01*
X67080000Y-99029000D02*
X68287000Y-99029000D01*
X64139000Y-98549000D02*
X65000000Y-98549000D01*
X67080000Y-98829000D02*
X68162000Y-98829000D01*
X64486000Y-98229000D02*
X65000000Y-98229000D01*
X67080000Y-99349000D02*
X68438000Y-99349000D01*
X63626000Y-99389000D02*
X65000000Y-99389000D01*
X64565000Y-103114775D02*
X64565000Y-102614775D01*
X67080000Y-98989000D02*
X68264000Y-98989000D01*
X67080000Y-99670000D02*
X68541000Y-99670000D01*
X64341000Y-98349000D02*
X65000000Y-98349000D01*
X63512000Y-99790000D02*
X65000000Y-99790000D01*
X67080000Y-99269000D02*
X68405000Y-99269000D01*
X67080000Y-99790000D02*
X68568000Y-99790000D01*
X64435000Y-98269000D02*
X65000000Y-98269000D01*
X63560000Y-99589000D02*
X65000000Y-99589000D01*
X63471000Y-100070000D02*
X65000000Y-100070000D01*
X63464000Y-100150000D02*
X68616000Y-100150000D01*
X65522000Y-97749000D02*
X66558000Y-97749000D01*
X67080000Y-98709000D02*
X68075000Y-98709000D01*
X63484000Y-99950000D02*
X65000000Y-99950000D01*
X67080000Y-99870000D02*
X68583000Y-99870000D01*
X63572000Y-99549000D02*
X65000000Y-99549000D01*
X63918000Y-98829000D02*
X65000000Y-98829000D01*
X64176000Y-98509000D02*
X65000000Y-98509000D01*
X63467000Y-100110000D02*
X68613000Y-100110000D01*
X63504000Y-99830000D02*
X65000000Y-99830000D01*
X64657000Y-98109000D02*
X65000000Y-98109000D01*
X67080000Y-98629000D02*
X68011000Y-98629000D01*
X67080000Y-98029000D02*
X67291000Y-98029000D01*
X67080000Y-98949000D02*
X68240000Y-98949000D01*
X63490000Y-99910000D02*
X65000000Y-99910000D01*
X67080000Y-99589000D02*
X68520000Y-99589000D01*
X65363000Y-97789000D02*
X66717000Y-97789000D01*
X63711000Y-99189000D02*
X65000000Y-99189000D01*
X63612000Y-99429000D02*
X65000000Y-99429000D01*
X65235000Y-97829000D02*
X66845000Y-97829000D01*
X63479000Y-99990000D02*
X65000000Y-99990000D01*
X67080000Y-99630000D02*
X68531000Y-99630000D01*
X63692000Y-99229000D02*
X65000000Y-99229000D01*
X63529000Y-99710000D02*
X65000000Y-99710000D01*
X67080000Y-99109000D02*
X68330000Y-99109000D01*
X63730000Y-99149000D02*
X65000000Y-99149000D01*
X64297000Y-98389000D02*
X65000000Y-98389000D01*
X63658000Y-99309000D02*
X65000000Y-99309000D01*
X63675000Y-99269000D02*
X65000000Y-99269000D01*
X64540000Y-98189000D02*
X65000000Y-98189000D01*
X67080000Y-98589000D02*
X67977000Y-98589000D01*
X67080000Y-98309000D02*
X67693000Y-98309000D01*
X67080000Y-98109000D02*
X67423000Y-98109000D01*
X64103000Y-98589000D02*
X65000000Y-98589000D01*
X64387000Y-98309000D02*
X65000000Y-98309000D01*
X67080000Y-98669000D02*
X68044000Y-98669000D01*
X63539000Y-99670000D02*
X65000000Y-99670000D01*
X67080000Y-99910000D02*
X68590000Y-99910000D01*
X67080000Y-99309000D02*
X68422000Y-99309000D01*
X64942000Y-97949000D02*
X67138000Y-97949000D01*
X67080000Y-98069000D02*
X67359000Y-98069000D01*
X67080000Y-99429000D02*
X68468000Y-99429000D01*
X67080000Y-99389000D02*
X68454000Y-99389000D01*
X63975000Y-98749000D02*
X65000000Y-98749000D01*
X67080000Y-98789000D02*
X68135000Y-98789000D01*
X67080000Y-98349000D02*
X67739000Y-98349000D01*
X64315000Y-102864775D02*
X64815000Y-102864775D01*
X64005000Y-98709000D02*
X65000000Y-98709000D01*
X67080000Y-98189000D02*
X67540000Y-98189000D01*
X65125000Y-97869000D02*
X66955000Y-97869000D01*
X65756000Y-97709000D02*
X66324000Y-97709000D01*
X63462000Y-100190000D02*
X68618000Y-100190000D01*
X67080000Y-100070000D02*
X68609000Y-100070000D01*
X67080000Y-99990000D02*
X68601000Y-99990000D01*
X67080000Y-98389000D02*
X67783000Y-98389000D01*
X64036000Y-98669000D02*
X65000000Y-98669000D01*
X63642000Y-99349000D02*
X65000000Y-99349000D01*
X65029000Y-97909000D02*
X67051000Y-97909000D01*
X63840000Y-98949000D02*
X65000000Y-98949000D01*
X67080000Y-99750000D02*
X68560000Y-99750000D01*
X67080000Y-99149000D02*
X68350000Y-99149000D01*
X67080000Y-99229000D02*
X68388000Y-99229000D01*
X67080000Y-98909000D02*
X68215000Y-98909000D01*
X63475000Y-100030000D02*
X65000000Y-100030000D01*
X67080000Y-98549000D02*
X67941000Y-98549000D01*
X67080000Y-99189000D02*
X68369000Y-99189000D01*
X67080000Y-99710000D02*
X68551000Y-99710000D01*
X64597000Y-98149000D02*
X65000000Y-98149000D01*
X63891000Y-98869000D02*
X65000000Y-98869000D01*
X67080000Y-98509000D02*
X67904000Y-98509000D01*
X67080000Y-99950000D02*
X68596000Y-99950000D01*
X64069000Y-98629000D02*
X65000000Y-98629000D01*
X63865000Y-98909000D02*
X65000000Y-98909000D01*
X67080000Y-98469000D02*
X67866000Y-98469000D01*
X64721000Y-98069000D02*
X65000000Y-98069000D01*
X67080000Y-98229000D02*
X67594000Y-98229000D01*
X67080000Y-99469000D02*
X68482000Y-99469000D01*
X67080000Y-98269000D02*
X67645000Y-98269000D01*
X63460000Y-100270000D02*
X68620000Y-100270000D01*
X63460000Y-100310000D02*
X68620000Y-100310000D01*
X63585000Y-99509000D02*
X65000000Y-99509000D01*
X64789000Y-98029000D02*
X65000000Y-98029000D01*
X67080000Y-99549000D02*
X68508000Y-99549000D01*
X67080000Y-99830000D02*
X68576000Y-99830000D01*
X68660000Y-100310000D02*
G75*
G03*
X68660000Y-100310000I-2620000J0D01*
G01*
%TO.C,U10*%
X123480000Y-87690000D02*
X127980000Y-87690000D01*
X123480000Y-69790000D02*
X123480000Y-87690000D01*
X124730000Y-69790000D02*
X123480000Y-69790000D01*
X127980000Y-87690000D02*
X127980000Y-69790000D01*
X127980000Y-69790000D02*
X126730000Y-69790000D01*
X124730000Y-69790000D02*
G75*
G03*
X126730000Y-69790000I1000000J0D01*
G01*
%TO.C,Q6*%
X37520000Y-55365000D02*
X37520000Y-58965000D01*
X41970001Y-57165000D02*
G75*
G03*
X37531522Y-55326522I-2600001J0D01*
G01*
X37531522Y-59003478D02*
G75*
G03*
X41970000Y-57165000I1838478J1838478D01*
G01*
%TO.C,U14*%
X51750000Y-45690000D02*
X50500000Y-45690000D01*
X48500000Y-45690000D02*
X47250000Y-45690000D01*
X47250000Y-45690000D02*
X47250000Y-66130000D01*
X51750000Y-66130000D02*
X51750000Y-45690000D01*
X47250000Y-66130000D02*
X51750000Y-66130000D01*
X48500000Y-45690000D02*
G75*
G03*
X50500000Y-45690000I1000000J0D01*
G01*
%TO.C,Q13*%
X31125000Y-80750000D02*
X31125000Y-84350000D01*
X35575001Y-82550000D02*
G75*
G03*
X31136522Y-80711522I-2600001J0D01*
G01*
X31136522Y-84388478D02*
G75*
G03*
X35575000Y-82550000I1838478J1838478D01*
G01*
%TO.C,U12*%
X137415000Y-69785000D02*
X136165000Y-69785000D01*
X140665000Y-69785000D02*
X139415000Y-69785000D01*
X136165000Y-87685000D02*
X140665000Y-87685000D01*
X140665000Y-87685000D02*
X140665000Y-69785000D01*
X136165000Y-69785000D02*
X136165000Y-87685000D01*
X137415000Y-69785000D02*
G75*
G03*
X139415000Y-69785000I1000000J0D01*
G01*
%TO.C,Q12*%
X37490000Y-74400000D02*
X37490000Y-78000000D01*
X41940001Y-76200000D02*
G75*
G03*
X37501522Y-74361522I-2600001J0D01*
G01*
X37501522Y-78038478D02*
G75*
G03*
X41940000Y-76200000I1838478J1838478D01*
G01*
%TO.C,R5*%
X80010000Y-54280000D02*
X80010000Y-55230000D01*
X79090000Y-59070000D02*
X80930000Y-59070000D01*
X80930000Y-55230000D02*
X79090000Y-55230000D01*
X80010000Y-60020000D02*
X80010000Y-59070000D01*
X79090000Y-55230000D02*
X79090000Y-59070000D01*
X80930000Y-59070000D02*
X80930000Y-55230000D01*
%TO.C,R4*%
X57500000Y-55230000D02*
X57500000Y-59070000D01*
X58420000Y-60020000D02*
X58420000Y-59070000D01*
X58420000Y-54280000D02*
X58420000Y-55230000D01*
X57500000Y-59070000D02*
X59340000Y-59070000D01*
X59340000Y-55230000D02*
X57500000Y-55230000D01*
X59340000Y-59070000D02*
X59340000Y-55230000D01*
%TO.C,Q15*%
X31125000Y-87100000D02*
X31125000Y-90700000D01*
X31136522Y-90738478D02*
G75*
G03*
X35575000Y-88900000I1838478J1838478D01*
G01*
X35575001Y-88900000D02*
G75*
G03*
X31136522Y-87061522I-2600001J0D01*
G01*
%TO.C,R14*%
X102870000Y-54280000D02*
X102870000Y-55230000D01*
X102870000Y-60020000D02*
X102870000Y-59070000D01*
X103790000Y-55230000D02*
X101950000Y-55230000D01*
X101950000Y-55230000D02*
X101950000Y-59070000D01*
X103790000Y-59070000D02*
X103790000Y-55230000D01*
X101950000Y-59070000D02*
X103790000Y-59070000D01*
%TO.C,U5*%
X95010000Y-62275000D02*
X96260000Y-62275000D01*
X91760000Y-41835000D02*
X91760000Y-62275000D01*
X91760000Y-62275000D02*
X93010000Y-62275000D01*
X96260000Y-41835000D02*
X91760000Y-41835000D01*
X96260000Y-62275000D02*
X96260000Y-41835000D01*
X95010000Y-62275000D02*
G75*
G03*
X93010000Y-62275000I-1000000J0D01*
G01*
%TO.C,R24*%
X131730000Y-48910000D02*
X131730000Y-45070000D01*
X129890000Y-45070000D02*
X129890000Y-48910000D01*
X129890000Y-48910000D02*
X131730000Y-48910000D01*
X130810000Y-44120000D02*
X130810000Y-45070000D01*
X131730000Y-45070000D02*
X129890000Y-45070000D01*
X130810000Y-49860000D02*
X130810000Y-48910000D01*
%TO.C,J1*%
X43670000Y-95057500D02*
X43670000Y-93747500D01*
X31620000Y-93747500D02*
X59820000Y-93747500D01*
X32920000Y-95057500D02*
X43670000Y-95057500D01*
X54610000Y-93357500D02*
X55110000Y-92357500D01*
X55110000Y-92357500D02*
X54110000Y-92357500D01*
X54110000Y-92357500D02*
X54610000Y-93357500D01*
X58520000Y-101557500D02*
X32920000Y-101557500D01*
X59820000Y-102867500D02*
X31620000Y-102867500D01*
X59820000Y-93747500D02*
X59820000Y-102867500D01*
X43670000Y-95057500D02*
X43670000Y-95057500D01*
X32920000Y-101557500D02*
X32920000Y-95057500D01*
X31620000Y-102867500D02*
X31620000Y-93747500D01*
X47770000Y-93747500D02*
X47770000Y-95057500D01*
X58520000Y-95057500D02*
X58520000Y-101557500D01*
X47770000Y-95057500D02*
X58520000Y-95057500D01*
%TO.C,U11*%
X142530000Y-41815000D02*
X142530000Y-62255000D01*
X147030000Y-62255000D02*
X147030000Y-41815000D01*
X142530000Y-62255000D02*
X143780000Y-62255000D01*
X145780000Y-62255000D02*
X147030000Y-62255000D01*
X147030000Y-41815000D02*
X142530000Y-41815000D01*
X145780000Y-62255000D02*
G75*
G03*
X143780000Y-62255000I-1000000J0D01*
G01*
%TO.C,R31*%
X153320000Y-48910000D02*
X153320000Y-45070000D01*
X151480000Y-48910000D02*
X153320000Y-48910000D01*
X152400000Y-49860000D02*
X152400000Y-48910000D01*
X153320000Y-45070000D02*
X151480000Y-45070000D01*
X151480000Y-45070000D02*
X151480000Y-48910000D01*
X152400000Y-44120000D02*
X152400000Y-45070000D01*
%TO.C,Q3*%
X31170000Y-49000000D02*
X31170000Y-52600000D01*
X35620001Y-50800000D02*
G75*
G03*
X31181522Y-48961522I-2600001J0D01*
G01*
X31181522Y-52638478D02*
G75*
G03*
X35620000Y-50800000I1838478J1838478D01*
G01*
%TO.C,C17*%
X91875000Y-94750000D02*
X91250000Y-94750000D01*
X94090000Y-90710000D02*
X94090000Y-94750000D01*
X91250000Y-90710000D02*
X91250000Y-94750000D01*
X94090000Y-90710000D02*
X93465000Y-90710000D01*
X94090000Y-94750000D02*
X93465000Y-94750000D01*
X91875000Y-90710000D02*
X91250000Y-90710000D01*
%TO.C,R28*%
X134270000Y-59070000D02*
X134270000Y-55230000D01*
X133350000Y-60020000D02*
X133350000Y-59070000D01*
X133350000Y-54280000D02*
X133350000Y-55230000D01*
X132430000Y-55230000D02*
X132430000Y-59070000D01*
X132430000Y-59070000D02*
X134270000Y-59070000D01*
X134270000Y-55230000D02*
X132430000Y-55230000D01*
%TO.C,C15*%
X123730000Y-67460000D02*
X127770000Y-67460000D01*
X127770000Y-64620000D02*
X127770000Y-65245000D01*
X123730000Y-64620000D02*
X127770000Y-64620000D01*
X127770000Y-66835000D02*
X127770000Y-67460000D01*
X123730000Y-66835000D02*
X123730000Y-67460000D01*
X123730000Y-64620000D02*
X123730000Y-65245000D01*
%TO.C,R10*%
X84170000Y-48910000D02*
X86010000Y-48910000D01*
X85090000Y-44120000D02*
X85090000Y-45070000D01*
X84170000Y-45070000D02*
X84170000Y-48910000D01*
X85090000Y-49860000D02*
X85090000Y-48910000D01*
X86010000Y-45070000D02*
X84170000Y-45070000D01*
X86010000Y-48910000D02*
X86010000Y-45070000D01*
%TO.C,R7*%
X78390000Y-48910000D02*
X78390000Y-45070000D01*
X77470000Y-44120000D02*
X77470000Y-45070000D01*
X76550000Y-45070000D02*
X76550000Y-48910000D01*
X76550000Y-48910000D02*
X78390000Y-48910000D01*
X77470000Y-49860000D02*
X77470000Y-48910000D01*
X78390000Y-45070000D02*
X76550000Y-45070000D01*
%TO.C,R1*%
X59340000Y-45070000D02*
X57500000Y-45070000D01*
X57500000Y-45070000D02*
X57500000Y-48910000D01*
X59340000Y-48910000D02*
X59340000Y-45070000D01*
X58420000Y-49860000D02*
X58420000Y-48910000D01*
X58420000Y-44120000D02*
X58420000Y-45070000D01*
X57500000Y-48910000D02*
X59340000Y-48910000D01*
%TO.C,C8*%
X121420000Y-65245000D02*
X121420000Y-64620000D01*
X117380000Y-67460000D02*
X117380000Y-66835000D01*
X117380000Y-65245000D02*
X117380000Y-64620000D01*
X121420000Y-67460000D02*
X117380000Y-67460000D01*
X121420000Y-67460000D02*
X121420000Y-66835000D01*
X121420000Y-64620000D02*
X117380000Y-64620000D01*
%TO.C,J2*%
X98960000Y-97762500D02*
X98960000Y-91262500D01*
X150630000Y-88562500D02*
X151130000Y-89562500D01*
X155040000Y-97762500D02*
X98960000Y-97762500D01*
X156340000Y-89952500D02*
X156340000Y-99072500D01*
X98960000Y-91262500D02*
X124950000Y-91262500D01*
X155040000Y-91262500D02*
X155040000Y-97762500D01*
X151130000Y-89562500D02*
X151630000Y-88562500D01*
X129050000Y-89952500D02*
X129050000Y-91262500D01*
X156340000Y-99072500D02*
X97660000Y-99072500D01*
X151630000Y-88562500D02*
X150630000Y-88562500D01*
X124950000Y-91262500D02*
X124950000Y-91262500D01*
X97660000Y-89952500D02*
X156340000Y-89952500D01*
X129050000Y-91262500D02*
X155040000Y-91262500D01*
X97660000Y-99072500D02*
X97660000Y-89952500D01*
X124950000Y-91262500D02*
X124950000Y-89952500D01*
%TO.C,C12*%
X85660000Y-64605000D02*
X89700000Y-64605000D01*
X85660000Y-66820000D02*
X85660000Y-67445000D01*
X89700000Y-66820000D02*
X89700000Y-67445000D01*
X85660000Y-67445000D02*
X89700000Y-67445000D01*
X85660000Y-64605000D02*
X85660000Y-65230000D01*
X89700000Y-64605000D02*
X89700000Y-65230000D01*
%TO.C,C9*%
X146820000Y-65210000D02*
X146820000Y-64585000D01*
X142780000Y-65210000D02*
X142780000Y-64585000D01*
X142780000Y-67425000D02*
X142780000Y-66800000D01*
X146820000Y-64585000D02*
X142780000Y-64585000D01*
X146820000Y-67425000D02*
X142780000Y-67425000D01*
X146820000Y-67425000D02*
X146820000Y-66800000D01*
%TO.C,U6*%
X86645000Y-69770000D02*
X85395000Y-69770000D01*
X89895000Y-69770000D02*
X88645000Y-69770000D01*
X85395000Y-69770000D02*
X85395000Y-87670000D01*
X89895000Y-87670000D02*
X89895000Y-69770000D01*
X85395000Y-87670000D02*
X89895000Y-87670000D01*
X86645000Y-69770000D02*
G75*
G03*
X88645000Y-69770000I1000000J0D01*
G01*
%TO.C,C6*%
X70605000Y-65260000D02*
X70605000Y-64635000D01*
X70605000Y-67475000D02*
X66565000Y-67475000D01*
X66565000Y-67475000D02*
X66565000Y-66850000D01*
X70605000Y-64635000D02*
X66565000Y-64635000D01*
X66565000Y-65260000D02*
X66565000Y-64635000D01*
X70605000Y-67475000D02*
X70605000Y-66850000D01*
%TO.C,R17*%
X107950000Y-49860000D02*
X107950000Y-48910000D01*
X107030000Y-48910000D02*
X108870000Y-48910000D01*
X108870000Y-45070000D02*
X107030000Y-45070000D01*
X107030000Y-45070000D02*
X107030000Y-48910000D01*
X107950000Y-44120000D02*
X107950000Y-45070000D01*
X108870000Y-48910000D02*
X108870000Y-45070000D01*
%TD*%
M02*
